<?xml version="1.0" standalone="no"?>
 <!DOCTYPE svg PUBLIC "-//W3C//DTD SVG 1.1//EN" 
 "http://www.w3.org/Graphics/SVG/1.1/DTD/svg11.dtd"> 
<svg
  xmlns:svg="http://www.w3.org/2000/svg"
  xmlns="http://www.w3.org/2000/svg"
  xmlns:xlink="http://www.w3.org/1999/xlink"
  version="1.1"
  width="1188.9994mm" height="840.9940mm" viewBox="0.0000 0.0000 1188.9994 840.9940">
<title>SVG Image created as custom_Hackboard-F_Courtyard.svg date 2025/06/13 10:09:39 </title>
  <desc>Image generated by PCBNEW </desc>
<g style="fill:#000000; fill-opacity:1.0000;stroke:#000000; stroke-opacity:1.0000;
stroke-linecap:round; stroke-linejoin:round;"
 transform="translate(0 0) scale(1 1)">
</g>
<g style="fill:none; 
stroke:#000000; stroke-width:0.0500; stroke-opacity:1; 
stroke-linecap:round; stroke-linejoin:round;">
<path d="M444.9500 344.3600
L458.1500 344.3600
" />
<path d="M444.9500 357.5600
L444.9500 344.3600
" />
<path d="M458.1500 344.3600
L458.1500 357.5600
" />
<path d="M458.1500 357.5600
L444.9500 357.5600
" />
<path d="M464.2800 344.3600
L477.4800 344.3600
" />
<path d="M464.2800 357.5600
L464.2800 344.3600
" />
<path d="M477.4800 344.3600
L477.4800 357.5600
" />
<path d="M477.4800 357.5600
L464.2800 357.5600
" />
<path d="M435.0000 325.0700
L448.2000 325.0700
" />
<path d="M435.0000 338.2700
L435.0000 325.0700
" />
<path d="M448.2000 325.0700
L448.2000 338.2700
" />
<path d="M448.2000 338.2700
L435.0000 338.2700
" />
<path d="M415.7300 325.0400
L428.9300 325.0400
" />
<path d="M415.7300 338.2400
L415.7300 325.0400
" />
<path d="M428.9300 325.0400
L428.9300 338.2400
" />
<path d="M428.9300 338.2400
L415.7300 338.2400
" />
<path d="M434.8900 363.4200
L448.0900 363.4200
" />
<path d="M434.8900 376.6200
L434.8900 363.4200
" />
<path d="M448.0900 363.4200
L448.0900 376.6200
" />
<path d="M448.0900 376.6200
L434.8900 376.6200
" />
<path d="M415.8400 363.3900
L429.0400 363.3900
" />
<path d="M415.8400 376.5900
L415.8400 363.3900
" />
<path d="M429.0400 363.3900
L429.0400 376.5900
" />
<path d="M429.0400 376.5900
L415.8400 376.5900
" />
<circle cx="450.6900" cy="340.9600" r="3.1000" /> 
<path d="M454.2900 325.1100
L467.4900 325.1100
" />
<path d="M454.2900 338.3100
L454.2900 325.1100
" />
<path d="M467.4900 325.1100
L467.4900 338.3100
" />
<path d="M467.4900 338.3100
L454.2900 338.3100
" />
<path style="fill:none; 
stroke:#000000; stroke-width:0.0500; stroke-opacity:1; 
stroke-linecap:round; stroke-linejoin:round;fill:none"
d="M 530.1225,305.7200
531.6725,305.7200
531.6725,314.7200
530.1225,314.7200
530.1225,321.7600
477.8225,321.7600
477.8225,298.6800
530.1225,298.6800
Z" /> 
<circle cx="432.2100" cy="361.5600" r="3.1000" /> 
<path d="M483.7400 344.3500
L496.9400 344.3500
" />
<path d="M483.7400 357.5500
L483.7400 344.3500
" />
<path d="M496.9400 344.3500
L496.9400 357.5500
" />
<path d="M496.9400 357.5500
L483.7400 357.5500
" />
</g>
<g style="fill:none; 
stroke:#000000; stroke-width:0.0400; stroke-opacity:1; 
stroke-linecap:round; stroke-linejoin:round;">
<path d="M474.6650 304.6850
L474.6650 316.6850
" />
<path d="M474.6650 316.6850
L512.6650 316.6850
" />
<path d="M512.6650 304.6850
L474.6650 304.6850
" />
<path d="M512.6650 316.6850
L512.6650 304.6850
" />
</g>
<g style="fill:none; 
stroke:#000000; stroke-width:0.0500; stroke-opacity:1; 
stroke-linecap:round; stroke-linejoin:round;">
<path d="M425.5000 344.3600
L438.7000 344.3600
" />
<path d="M425.5000 357.5600
L425.5000 344.3600
" />
<path d="M438.7000 344.3600
L438.7000 357.5600
" />
<path d="M438.7000 357.5600
L425.5000 357.5600
" />
<circle cx="503.4400" cy="343.2500" r="3.1000" /> 
<circle cx="489.9100" cy="361.1700" r="3.1000" /> 
<path d="M473.4100 363.4500
L486.6100 363.4500
" />
<path d="M473.4100 376.6500
L473.4100 363.4500
" />
<path d="M486.6100 363.4500
L486.6100 376.6500
" />
<path d="M486.6100 376.6500
L473.4100 376.6500
" />
<path d="M512.1400 363.4300
L525.3400 363.4300
" />
<path d="M512.1400 376.6300
L512.1400 363.4300
" />
<path d="M525.3400 363.4300
L525.3400 376.6300
" />
<path d="M525.3400 376.6300
L512.1400 376.6300
" />
<path d="M507.3500 344.2800
L520.5500 344.2800
" />
<path d="M507.3500 357.4800
L507.3500 344.2800
" />
<path d="M520.5500 344.2800
L520.5500 357.4800
" />
<path d="M520.5500 357.4800
L507.3500 357.4800
" />
<path d="M473.7300 325.1000
L486.9300 325.1000
" />
<path d="M473.7300 338.3000
L473.7300 325.1000
" />
<path d="M486.9300 325.1000
L486.9300 338.3000
" />
<path d="M486.9300 338.3000
L473.7300 338.3000
" />
<path d="M454.0500 363.3700
L467.2500 363.3700
" />
<path d="M454.0500 376.5700
L454.0500 363.3700
" />
<path d="M467.2500 363.3700
L467.2500 376.5700
" />
<path d="M467.2500 376.5700
L454.0500 376.5700
" />
<path d="M492.7600 363.4000
L505.9600 363.4000
" />
<path d="M492.7600 376.6000
L492.7600 363.4000
" />
<path d="M505.9600 363.4000
L505.9600 376.6000
" />
<path d="M505.9600 376.6000
L492.7600 376.6000
" />
<path d="M502.5800 325.1100
L515.7800 325.1100
" />
<path d="M502.5800 338.3100
L502.5800 325.1100
" />
<path d="M515.7800 325.1100
L515.7800 338.3100
" />
<path d="M515.7800 338.3100
L502.5800 338.3100
" />
</g> 
</svg>
