  0
SECTION
  2
HEADER
  9
$ANGBASE
  50
0.0
  9
$ANGDIR
  70
1
  9
$MEASUREMENT
  70
1
  0
ENDSEC
  0
SECTION
  2
TABLES
  0
TABLE
  2
LTYPE
  70
4
  0
LTYPE
  5
40F
  2
CONTINUOUS
  70
0
  3
Solid line
  72
65
  73
0
  40
0.0
  0
LTYPE
  5
410
  2
DASHDOT
 70
0
  3
Dash Dot ____ _ ____ _
 72
65
 73
4
 40
2.0
 49
1.25
 49
-0.25
 49
0.25
 49
-0.25
  0
LTYPE
  5
411
  2
DASHED
 70
0
  3
Dashed __ __ __ __ __
 72
65
 73
2
 40
0.75
 49
0.5
 49
-0.25
  0
LTYPE
  5
43B
  2
DOTTED
 70
0
  3
Dotted .  .  .  .
 72
65
 73
2
 40
0.2
 49
0.0
 49
-0.2
  0
ENDTAB
  0
TABLE
  2
STYLE
  70
4
  0
STYLE
  2
KICAD
  70
0
  40
0
  41
1
  42
1
  50
0
  71
0
  3
isocp.shx
  0
STYLE
  2
KICADB
  70
0
  40
0
  41
1
  42
1
  50
0
  71
0
  3
isocp.shx
  0
STYLE
  2
KICADI
  70
0
  40
0
  41
1
  42
1
  50
15
  71
0
  3
isocp.shx
  0
STYLE
  2
KICADBI
  70
0
  40
0
  41
1
  42
1
  50
15
  71
0
  3
isocp.shx
  0
ENDTAB
  0
TABLE
  2
LAYER
  70
1
  0
LAYER
  2
BLACK
  70
0
  62
7
  6
CONTINUOUS
  0
ENDTAB
  0
ENDSEC
  0
SECTION
  2
ENTITIES
0
LINE
8
BLACK
6
CONTINUOUS
10
486.6195669999999609
20
-363.4269029999999816
11
486.6330969999999638
21
-363.4404329999999845
0
LINE
8
BLACK
6
CONTINUOUS
10
486.6330969999999638
20
-363.4404329999999845
11
486.6349999999999909
21
-363.4499999999999886
0
LINE
8
BLACK
6
CONTINUOUS
10
486.6349999999999909
20
-363.4499999999999886
11
486.6349999999999909
21
-376.6499999999999773
0
LINE
8
BLACK
6
CONTINUOUS
10
486.6349999999999909
20
-376.6499999999999773
11
486.6330969999999638
21
-376.6595669999999814
0
LINE
8
BLACK
6
CONTINUOUS
10
486.6330969999999638
20
-376.6595669999999814
11
486.6195669999999609
21
-376.6730969999999843
0
LINE
8
BLACK
6
CONTINUOUS
10
486.6195669999999609
20
-376.6730969999999843
11
486.6099999999999568
21
-376.6750000000000114
0
LINE
8
BLACK
6
CONTINUOUS
10
486.6099999999999568
20
-376.6750000000000114
11
473.4099999999999682
21
-376.6750000000000114
0
LINE
8
BLACK
6
CONTINUOUS
10
473.4099999999999682
20
-376.6750000000000114
11
473.4004329999999641
21
-376.6730969999999843
0
LINE
8
BLACK
6
CONTINUOUS
10
473.4004329999999641
20
-376.6730969999999843
11
473.3869029999999611
21
-376.6595669999999814
0
LINE
8
BLACK
6
CONTINUOUS
10
473.3869029999999611
20
-376.6595669999999814
11
473.3849999999999909
21
-376.6499999999999773
0
LINE
8
BLACK
6
CONTINUOUS
10
473.3849999999999909
20
-376.6499999999999773
11
473.3849999999999909
21
-363.4499999999999886
0
LINE
8
BLACK
6
CONTINUOUS
10
473.3849999999999909
20
-363.4499999999999886
11
473.3869029999999611
21
-363.4404329999999845
0
LINE
8
BLACK
6
CONTINUOUS
10
473.3869029999999611
20
-363.4404329999999845
11
473.4004329999999641
21
-363.4269029999999816
0
LINE
8
BLACK
6
CONTINUOUS
10
473.4004329999999641
20
-363.4269029999999816
11
473.4099999999999682
21
-363.4250000000000114
0
LINE
8
BLACK
6
CONTINUOUS
10
473.4099999999999682
20
-363.4250000000000114
11
486.6099999999999568
21
-363.4250000000000114
0
LINE
8
BLACK
6
CONTINUOUS
10
486.6099999999999568
20
-363.4250000000000114
11
486.6195669999999609
21
-363.4269029999999816
0
LINE
8
BLACK
6
CONTINUOUS
10
473.4350000000000023
20
-363.4749999999999659
11
473.4350000000000023
21
-376.625
0
LINE
8
BLACK
6
CONTINUOUS
10
473.4350000000000023
20
-376.625
11
486.5849999999999795
21
-376.625
0
LINE
8
BLACK
6
CONTINUOUS
10
486.5849999999999795
20
-376.625
11
486.5849999999999795
21
-363.4749999999999659
0
LINE
8
BLACK
6
CONTINUOUS
10
486.5849999999999795
20
-363.4749999999999659
11
473.4350000000000023
21
-363.4749999999999659
0
LINE
8
BLACK
6
CONTINUOUS
10
525.3495669999999791
20
-363.4069029999999998
11
525.3630969999999252
21
-363.4204330000000027
0
LINE
8
BLACK
6
CONTINUOUS
10
525.3630969999999252
20
-363.4204330000000027
11
525.3650000000000091
21
-363.4300000000000068
0
LINE
8
BLACK
6
CONTINUOUS
10
525.3650000000000091
20
-363.4300000000000068
11
525.3650000000000091
21
-376.6299999999999955
0
LINE
8
BLACK
6
CONTINUOUS
10
525.3650000000000091
20
-376.6299999999999955
11
525.3630969999999252
21
-376.6395669999999996
0
LINE
8
BLACK
6
CONTINUOUS
10
525.3630969999999252
20
-376.6395669999999996
11
525.3495669999999791
21
-376.6530970000000025
0
LINE
8
BLACK
6
CONTINUOUS
10
525.3495669999999791
20
-376.6530970000000025
11
525.3400000000000318
21
-376.6549999999999727
0
LINE
8
BLACK
6
CONTINUOUS
10
525.3400000000000318
20
-376.6549999999999727
11
512.1399999999999864
21
-376.6549999999999727
0
LINE
8
BLACK
6
CONTINUOUS
10
512.1399999999999864
20
-376.6549999999999727
11
512.1304329999999254
21
-376.6530970000000025
0
LINE
8
BLACK
6
CONTINUOUS
10
512.1304329999999254
20
-376.6530970000000025
11
512.1169029999999793
21
-376.6395669999999996
0
LINE
8
BLACK
6
CONTINUOUS
10
512.1169029999999793
20
-376.6395669999999996
11
512.1150000000000091
21
-376.6299999999999955
0
LINE
8
BLACK
6
CONTINUOUS
10
512.1150000000000091
20
-376.6299999999999955
11
512.1150000000000091
21
-363.4300000000000068
0
LINE
8
BLACK
6
CONTINUOUS
10
512.1150000000000091
20
-363.4300000000000068
11
512.1169029999999793
21
-363.4204330000000027
0
LINE
8
BLACK
6
CONTINUOUS
10
512.1169029999999793
20
-363.4204330000000027
11
512.1304329999999254
21
-363.4069029999999998
0
LINE
8
BLACK
6
CONTINUOUS
10
512.1304329999999254
20
-363.4069029999999998
11
512.1399999999999864
21
-363.4049999999999727
0
LINE
8
BLACK
6
CONTINUOUS
10
512.1399999999999864
20
-363.4049999999999727
11
525.3400000000000318
21
-363.4049999999999727
0
LINE
8
BLACK
6
CONTINUOUS
10
525.3400000000000318
20
-363.4049999999999727
11
525.3495669999999791
21
-363.4069029999999998
0
LINE
8
BLACK
6
CONTINUOUS
10
512.1649999999999636
20
-363.4549999999999841
11
512.1649999999999636
21
-376.6049999999999613
0
LINE
8
BLACK
6
CONTINUOUS
10
512.1649999999999636
20
-376.6049999999999613
11
525.3149999999999409
21
-376.6049999999999613
0
LINE
8
BLACK
6
CONTINUOUS
10
525.3149999999999409
20
-376.6049999999999613
11
525.3149999999999409
21
-363.4549999999999841
0
LINE
8
BLACK
6
CONTINUOUS
10
525.3149999999999409
20
-363.4549999999999841
11
512.1649999999999636
21
-363.4549999999999841
0
LINE
8
BLACK
6
CONTINUOUS
10
448.0995669999999791
20
-363.3969030000000089
11
448.113096999999982
21
-363.4104330000000118
0
LINE
8
BLACK
6
CONTINUOUS
10
448.113096999999982
20
-363.4104330000000118
11
448.1149999999999523
21
-363.4199999999999591
0
LINE
8
BLACK
6
CONTINUOUS
10
448.1149999999999523
20
-363.4199999999999591
11
448.1149999999999523
21
-376.6200000000000045
0
LINE
8
BLACK
6
CONTINUOUS
10
448.1149999999999523
20
-376.6200000000000045
11
448.113096999999982
21
-376.6295670000000086
0
LINE
8
BLACK
6
CONTINUOUS
10
448.113096999999982
20
-376.6295670000000086
11
448.0995669999999791
21
-376.6430969999999547
0
LINE
8
BLACK
6
CONTINUOUS
10
448.0995669999999791
20
-376.6430969999999547
11
448.089999999999975
21
-376.6449999999999818
0
LINE
8
BLACK
6
CONTINUOUS
10
448.089999999999975
20
-376.6449999999999818
11
434.8899999999999864
21
-376.6449999999999818
0
LINE
8
BLACK
6
CONTINUOUS
10
434.8899999999999864
20
-376.6449999999999818
11
434.8804329999999823
21
-376.6430969999999547
0
LINE
8
BLACK
6
CONTINUOUS
10
434.8804329999999823
20
-376.6430969999999547
11
434.8669029999999793
21
-376.6295670000000086
0
LINE
8
BLACK
6
CONTINUOUS
10
434.8669029999999793
20
-376.6295670000000086
11
434.8649999999999523
21
-376.6200000000000045
0
LINE
8
BLACK
6
CONTINUOUS
10
434.8649999999999523
20
-376.6200000000000045
11
434.8649999999999523
21
-363.4199999999999591
0
LINE
8
BLACK
6
CONTINUOUS
10
434.8649999999999523
20
-363.4199999999999591
11
434.8669029999999793
21
-363.4104330000000118
0
LINE
8
BLACK
6
CONTINUOUS
10
434.8669029999999793
20
-363.4104330000000118
11
434.8804329999999823
21
-363.3969030000000089
0
LINE
8
BLACK
6
CONTINUOUS
10
434.8804329999999823
20
-363.3969030000000089
11
434.8899999999999864
21
-363.3949999999999818
0
LINE
8
BLACK
6
CONTINUOUS
10
434.8899999999999864
20
-363.3949999999999818
11
448.089999999999975
21
-363.3949999999999818
0
LINE
8
BLACK
6
CONTINUOUS
10
448.089999999999975
20
-363.3949999999999818
11
448.0995669999999791
21
-363.3969030000000089
0
LINE
8
BLACK
6
CONTINUOUS
10
434.9149999999999636
20
-363.4449999999999932
11
434.9149999999999636
21
-376.5949999999999704
0
LINE
8
BLACK
6
CONTINUOUS
10
434.9149999999999636
20
-376.5949999999999704
11
448.0649999999999977
21
-376.5949999999999704
0
LINE
8
BLACK
6
CONTINUOUS
10
448.0649999999999977
20
-376.5949999999999704
11
448.0649999999999977
21
-363.4449999999999932
0
LINE
8
BLACK
6
CONTINUOUS
10
448.0649999999999977
20
-363.4449999999999932
11
434.9149999999999636
21
-363.4449999999999932
0
LINE
8
BLACK
6
CONTINUOUS
10
505.9695669999999836
20
-363.3769029999999702
11
505.9830969999999866
21
-363.3904329999999732
0
LINE
8
BLACK
6
CONTINUOUS
10
505.9830969999999866
20
-363.3904329999999732
11
505.9849999999999568
21
-363.3999999999999773
0
LINE
8
BLACK
6
CONTINUOUS
10
505.9849999999999568
20
-363.3999999999999773
11
505.9849999999999568
21
-376.5999999999999659
0
LINE
8
BLACK
6
CONTINUOUS
10
505.9849999999999568
20
-376.5999999999999659
11
505.9830969999999866
21
-376.60956699999997
0
LINE
8
BLACK
6
CONTINUOUS
10
505.9830969999999866
20
-376.60956699999997
11
505.9695669999999836
21
-376.6230969999999729
0
LINE
8
BLACK
6
CONTINUOUS
10
505.9695669999999836
20
-376.6230969999999729
11
505.9599999999999795
21
-376.625
0
LINE
8
BLACK
6
CONTINUOUS
10
505.9599999999999795
20
-376.625
11
492.7599999999999909
21
-376.625
0
LINE
8
BLACK
6
CONTINUOUS
10
492.7599999999999909
20
-376.625
11
492.7504329999999868
21
-376.6230969999999729
0
LINE
8
BLACK
6
CONTINUOUS
10
492.7504329999999868
20
-376.6230969999999729
11
492.7369029999999839
21
-376.60956699999997
0
LINE
8
BLACK
6
CONTINUOUS
10
492.7369029999999839
20
-376.60956699999997
11
492.7349999999999568
21
-376.5999999999999659
0
LINE
8
BLACK
6
CONTINUOUS
10
492.7349999999999568
20
-376.5999999999999659
11
492.7349999999999568
21
-363.3999999999999773
0
LINE
8
BLACK
6
CONTINUOUS
10
492.7349999999999568
20
-363.3999999999999773
11
492.7369029999999839
21
-363.3904329999999732
0
LINE
8
BLACK
6
CONTINUOUS
10
492.7369029999999839
20
-363.3904329999999732
11
492.7504329999999868
21
-363.3769029999999702
0
LINE
8
BLACK
6
CONTINUOUS
10
492.7504329999999868
20
-363.3769029999999702
11
492.7599999999999909
21
-363.375
0
LINE
8
BLACK
6
CONTINUOUS
10
492.7599999999999909
20
-363.375
11
505.9599999999999795
21
-363.375
0
LINE
8
BLACK
6
CONTINUOUS
10
505.9599999999999795
20
-363.375
11
505.9695669999999836
21
-363.3769029999999702
0
LINE
8
BLACK
6
CONTINUOUS
10
492.7849999999999682
20
-363.4250000000000114
11
492.7849999999999682
21
-376.5749999999999886
0
LINE
8
BLACK
6
CONTINUOUS
10
492.7849999999999682
20
-376.5749999999999886
11
505.9350000000000023
21
-376.5749999999999886
0
LINE
8
BLACK
6
CONTINUOUS
10
505.9350000000000023
20
-376.5749999999999886
11
505.9350000000000023
21
-363.4250000000000114
0
LINE
8
BLACK
6
CONTINUOUS
10
505.9350000000000023
20
-363.4250000000000114
11
492.7849999999999682
21
-363.4250000000000114
0
LINE
8
BLACK
6
CONTINUOUS
10
429.0495669999999677
20
-363.3669029999999793
11
429.0630969999999706
21
-363.3804329999999823
0
LINE
8
BLACK
6
CONTINUOUS
10
429.0630969999999706
20
-363.3804329999999823
11
429.0649999999999977
21
-363.3899999999999864
0
LINE
8
BLACK
6
CONTINUOUS
10
429.0649999999999977
20
-363.3899999999999864
11
429.0649999999999977
21
-376.589999999999975
0
LINE
8
BLACK
6
CONTINUOUS
10
429.0649999999999977
20
-376.589999999999975
11
429.0630969999999706
21
-376.5995669999999791
0
LINE
8
BLACK
6
CONTINUOUS
10
429.0630969999999706
20
-376.5995669999999791
11
429.0495669999999677
21
-376.613096999999982
0
LINE
8
BLACK
6
CONTINUOUS
10
429.0495669999999677
20
-376.613096999999982
11
429.0399999999999636
21
-376.6150000000000091
0
LINE
8
BLACK
6
CONTINUOUS
10
429.0399999999999636
20
-376.6150000000000091
11
415.839999999999975
21
-376.6150000000000091
0
LINE
8
BLACK
6
CONTINUOUS
10
415.839999999999975
20
-376.6150000000000091
11
415.8304329999999709
21
-376.613096999999982
0
LINE
8
BLACK
6
CONTINUOUS
10
415.8304329999999709
20
-376.613096999999982
11
415.816902999999968
21
-376.5995669999999791
0
LINE
8
BLACK
6
CONTINUOUS
10
415.816902999999968
20
-376.5995669999999791
11
415.8149999999999977
21
-376.589999999999975
0
LINE
8
BLACK
6
CONTINUOUS
10
415.8149999999999977
20
-376.589999999999975
11
415.8149999999999977
21
-363.3899999999999864
0
LINE
8
BLACK
6
CONTINUOUS
10
415.8149999999999977
20
-363.3899999999999864
11
415.816902999999968
21
-363.3804329999999823
0
LINE
8
BLACK
6
CONTINUOUS
10
415.816902999999968
20
-363.3804329999999823
11
415.8304329999999709
21
-363.3669029999999793
0
LINE
8
BLACK
6
CONTINUOUS
10
415.8304329999999709
20
-363.3669029999999793
11
415.839999999999975
21
-363.3650000000000091
0
LINE
8
BLACK
6
CONTINUOUS
10
415.839999999999975
20
-363.3650000000000091
11
429.0399999999999636
21
-363.3650000000000091
0
LINE
8
BLACK
6
CONTINUOUS
10
429.0399999999999636
20
-363.3650000000000091
11
429.0495669999999677
21
-363.3669029999999793
0
LINE
8
BLACK
6
CONTINUOUS
10
415.8650000000000091
20
-363.4149999999999636
11
415.8650000000000091
21
-376.5649999999999977
0
LINE
8
BLACK
6
CONTINUOUS
10
415.8650000000000091
20
-376.5649999999999977
11
429.0149999999999864
21
-376.5649999999999977
0
LINE
8
BLACK
6
CONTINUOUS
10
429.0149999999999864
20
-376.5649999999999977
11
429.0149999999999864
21
-363.4149999999999636
0
LINE
8
BLACK
6
CONTINUOUS
10
429.0149999999999864
20
-363.4149999999999636
11
415.8650000000000091
21
-363.4149999999999636
0
LINE
8
BLACK
6
CONTINUOUS
10
467.2595670000000041
20
-363.3469029999999975
11
467.273097000000007
21
-363.3604330000000004
0
LINE
8
BLACK
6
CONTINUOUS
10
467.273097000000007
20
-363.3604330000000004
11
467.2749999999999773
21
-363.3700000000000045
0
LINE
8
BLACK
6
CONTINUOUS
10
467.2749999999999773
20
-363.3700000000000045
11
467.2749999999999773
21
-376.5699999999999932
0
LINE
8
BLACK
6
CONTINUOUS
10
467.2749999999999773
20
-376.5699999999999932
11
467.273097000000007
21
-376.5795669999999973
0
LINE
8
BLACK
6
CONTINUOUS
10
467.273097000000007
20
-376.5795669999999973
11
467.2595670000000041
21
-376.5930970000000002
0
LINE
8
BLACK
6
CONTINUOUS
10
467.2595670000000041
20
-376.5930970000000002
11
467.25
21
-376.5949999999999704
0
LINE
8
BLACK
6
CONTINUOUS
10
467.25
20
-376.5949999999999704
11
454.0499999999999545
21
-376.5949999999999704
0
LINE
8
BLACK
6
CONTINUOUS
10
454.0499999999999545
20
-376.5949999999999704
11
454.0404330000000073
21
-376.5930970000000002
0
LINE
8
BLACK
6
CONTINUOUS
10
454.0404330000000073
20
-376.5930970000000002
11
454.0269030000000043
21
-376.5795669999999973
0
LINE
8
BLACK
6
CONTINUOUS
10
454.0269030000000043
20
-376.5795669999999973
11
454.0249999999999773
21
-376.5699999999999932
0
LINE
8
BLACK
6
CONTINUOUS
10
454.0249999999999773
20
-376.5699999999999932
11
454.0249999999999773
21
-363.3700000000000045
0
LINE
8
BLACK
6
CONTINUOUS
10
454.0249999999999773
20
-363.3700000000000045
11
454.0269030000000043
21
-363.3604330000000004
0
LINE
8
BLACK
6
CONTINUOUS
10
454.0269030000000043
20
-363.3604330000000004
11
454.0404330000000073
21
-363.3469029999999975
0
LINE
8
BLACK
6
CONTINUOUS
10
454.0404330000000073
20
-363.3469029999999975
11
454.0499999999999545
21
-363.3449999999999704
0
LINE
8
BLACK
6
CONTINUOUS
10
454.0499999999999545
20
-363.3449999999999704
11
467.25
21
-363.3449999999999704
0
LINE
8
BLACK
6
CONTINUOUS
10
467.25
20
-363.3449999999999704
11
467.2595670000000041
21
-363.3469029999999975
0
LINE
8
BLACK
6
CONTINUOUS
10
454.0749999999999886
20
-363.3949999999999818
11
454.0749999999999886
21
-376.5449999999999591
0
LINE
8
BLACK
6
CONTINUOUS
10
454.0749999999999886
20
-376.5449999999999591
11
467.2249999999999659
21
-376.5449999999999591
0
LINE
8
BLACK
6
CONTINUOUS
10
467.2249999999999659
20
-376.5449999999999591
11
467.2249999999999659
21
-363.3949999999999818
0
LINE
8
BLACK
6
CONTINUOUS
10
467.2249999999999659
20
-363.3949999999999818
11
454.0749999999999886
21
-363.3949999999999818
0
LINE
8
BLACK
6
CONTINUOUS
10
432.7334569999999871
20
-358.4791529999999966
11
433.0751109999999926
21
-358.5571329999999648
0
LINE
8
BLACK
6
CONTINUOUS
10
433.0751109999999926
20
-358.5571329999999648
11
433.4058859999999527
21
-358.6728759999999738
0
LINE
8
BLACK
6
CONTINUOUS
10
433.4058859999999527
20
-358.6728759999999738
11
433.721621999999968
21
-358.8249270000000024
0
LINE
8
BLACK
6
CONTINUOUS
10
433.721621999999968
20
-358.8249270000000024
11
434.0183480000000031
21
-359.0113719999999944
0
LINE
8
BLACK
6
CONTINUOUS
10
434.0183480000000031
20
-359.0113719999999944
11
434.2923329999999851
21
-359.2298680000000104
0
LINE
8
BLACK
6
CONTINUOUS
10
434.2923329999999851
20
-359.2298680000000104
11
434.5401319999999714
21
-359.4776669999999967
0
LINE
8
BLACK
6
CONTINUOUS
10
434.5401319999999714
20
-359.4776669999999967
11
434.7586279999999874
21
-359.7516519999999787
0
LINE
8
BLACK
6
CONTINUOUS
10
434.7586279999999874
20
-359.7516519999999787
11
434.9450729999999794
21
-360.048377999999957
0
LINE
8
BLACK
6
CONTINUOUS
10
434.9450729999999794
20
-360.048377999999957
11
435.097124000000008
21
-360.3641139999999723
0
LINE
8
BLACK
6
CONTINUOUS
10
435.097124000000008
20
-360.3641139999999723
11
435.2128669999999602
21
-360.6948889999999892
0
LINE
8
BLACK
6
CONTINUOUS
10
435.2128669999999602
20
-360.6948889999999892
11
435.2908469999999852
21
-361.0365429999999947
0
LINE
8
BLACK
6
CONTINUOUS
10
435.2908469999999852
20
-361.0365429999999947
11
435.3300839999999994
21
-361.3847799999999779
0
LINE
8
BLACK
6
CONTINUOUS
10
435.3300839999999994
20
-361.3847799999999779
11
435.3300839999999994
21
-361.7352199999999698
0
LINE
8
BLACK
6
CONTINUOUS
10
435.3300839999999994
20
-361.7352199999999698
11
435.2908469999999852
21
-362.0834570000000099
0
LINE
8
BLACK
6
CONTINUOUS
10
435.2908469999999852
20
-362.0834570000000099
11
435.2128669999999602
21
-362.4251109999999585
0
LINE
8
BLACK
6
CONTINUOUS
10
435.2128669999999602
20
-362.4251109999999585
11
435.097124000000008
21
-362.7558859999999754
0
LINE
8
BLACK
6
CONTINUOUS
10
435.097124000000008
20
-362.7558859999999754
11
434.9450729999999794
21
-363.0716219999999907
0
LINE
8
BLACK
6
CONTINUOUS
10
434.9450729999999794
20
-363.0716219999999907
11
434.7586279999999874
21
-363.368347999999969
0
LINE
8
BLACK
6
CONTINUOUS
10
434.7586279999999874
20
-363.368347999999969
11
434.5401319999999714
21
-363.6423330000000078
0
LINE
8
BLACK
6
CONTINUOUS
10
434.5401319999999714
20
-363.6423330000000078
11
434.2923329999999851
21
-363.8901319999999942
0
LINE
8
BLACK
6
CONTINUOUS
10
434.2923329999999851
20
-363.8901319999999942
11
434.0183480000000031
21
-364.1086280000000102
0
LINE
8
BLACK
6
CONTINUOUS
10
434.0183480000000031
20
-364.1086280000000102
11
433.721621999999968
21
-364.2950730000000021
0
LINE
8
BLACK
6
CONTINUOUS
10
433.721621999999968
20
-364.2950730000000021
11
433.4058859999999527
21
-364.4471239999999739
0
LINE
8
BLACK
6
CONTINUOUS
10
433.4058859999999527
20
-364.4471239999999739
11
433.0751109999999926
21
-364.5628669999999829
0
LINE
8
BLACK
6
CONTINUOUS
10
433.0751109999999926
20
-364.5628669999999829
11
432.7334569999999871
21
-364.6408470000000079
0
LINE
8
BLACK
6
CONTINUOUS
10
432.7334569999999871
20
-364.6408470000000079
11
432.3852200000000039
21
-364.6800839999999653
0
LINE
8
BLACK
6
CONTINUOUS
10
432.3852200000000039
20
-364.6800839999999653
11
432.0347799999999552
21
-364.6800839999999653
0
LINE
8
BLACK
6
CONTINUOUS
10
432.0347799999999552
20
-364.6800839999999653
11
431.6865429999999719
21
-364.6408470000000079
0
LINE
8
BLACK
6
CONTINUOUS
10
431.6865429999999719
20
-364.6408470000000079
11
431.3448889999999665
21
-364.5628669999999829
0
LINE
8
BLACK
6
CONTINUOUS
10
431.3448889999999665
20
-364.5628669999999829
11
431.0141140000000064
21
-364.4471239999999739
0
LINE
8
BLACK
6
CONTINUOUS
10
431.0141140000000064
20
-364.4471239999999739
11
430.6983779999999911
21
-364.2950730000000021
0
LINE
8
BLACK
6
CONTINUOUS
10
430.6983779999999911
20
-364.2950730000000021
11
430.4016519999999559
21
-364.1086280000000102
0
LINE
8
BLACK
6
CONTINUOUS
10
430.4016519999999559
20
-364.1086280000000102
11
430.127666999999974
21
-363.8901319999999942
0
LINE
8
BLACK
6
CONTINUOUS
10
430.127666999999974
20
-363.8901319999999942
11
429.8798679999999877
21
-363.6423330000000078
0
LINE
8
BLACK
6
CONTINUOUS
10
429.8798679999999877
20
-363.6423330000000078
11
429.6613719999999716
21
-363.368347999999969
0
LINE
8
BLACK
6
CONTINUOUS
10
429.6613719999999716
20
-363.368347999999969
11
429.4749269999999797
21
-363.0716219999999907
0
LINE
8
BLACK
6
CONTINUOUS
10
429.4749269999999797
20
-363.0716219999999907
11
429.3228760000000079
21
-362.7558859999999754
0
LINE
8
BLACK
6
CONTINUOUS
10
429.3228760000000079
20
-362.7558859999999754
11
429.2071329999999989
21
-362.4251109999999585
0
LINE
8
BLACK
6
CONTINUOUS
10
429.2071329999999989
20
-362.4251109999999585
11
429.1291529999999739
21
-362.0834570000000099
0
LINE
8
BLACK
6
CONTINUOUS
10
429.1291529999999739
20
-362.0834570000000099
11
429.0899159999999597
21
-361.7352199999999698
0
LINE
8
BLACK
6
CONTINUOUS
10
429.0899159999999597
20
-361.7352199999999698
11
429.0899159999999597
21
-361.3873120000000085
0
LINE
8
BLACK
6
CONTINUOUS
10
429.0899159999999597
20
-361.3873120000000085
11
429.0899159999999597
21
-361.3847799999999779
0
LINE
8
BLACK
6
CONTINUOUS
10
429.0899159999999597
20
-361.3847799999999779
11
429.1291529999999739
21
-361.0365429999999947
0
LINE
8
BLACK
6
CONTINUOUS
10
429.1291529999999739
20
-361.0365429999999947
11
429.2071329999999989
21
-360.6948889999999892
0
LINE
8
BLACK
6
CONTINUOUS
10
429.2071329999999989
20
-360.6948889999999892
11
429.3228760000000079
21
-360.3641139999999723
0
LINE
8
BLACK
6
CONTINUOUS
10
429.3228760000000079
20
-360.3641139999999723
11
429.4749269999999797
21
-360.048377999999957
0
LINE
8
BLACK
6
CONTINUOUS
10
429.4749269999999797
20
-360.048377999999957
11
429.6613719999999716
21
-359.7516519999999787
0
LINE
8
BLACK
6
CONTINUOUS
10
429.6613719999999716
20
-359.7516519999999787
11
429.8798679999999877
21
-359.4776669999999967
0
LINE
8
BLACK
6
CONTINUOUS
10
429.8798679999999877
20
-359.4776669999999967
11
430.127666999999974
21
-359.2298680000000104
0
LINE
8
BLACK
6
CONTINUOUS
10
430.127666999999974
20
-359.2298680000000104
11
430.4016519999999559
21
-359.0113719999999944
0
LINE
8
BLACK
6
CONTINUOUS
10
430.4016519999999559
20
-359.0113719999999944
11
430.6983779999999911
21
-358.8249270000000024
0
LINE
8
BLACK
6
CONTINUOUS
10
430.6983779999999911
20
-358.8249270000000024
11
431.0141140000000064
21
-358.6728759999999738
0
LINE
8
BLACK
6
CONTINUOUS
10
431.0141140000000064
20
-358.6728759999999738
11
431.3448889999999665
21
-358.5571329999999648
0
LINE
8
BLACK
6
CONTINUOUS
10
431.3448889999999665
20
-358.5571329999999648
11
431.6865429999999719
21
-358.4791529999999966
0
LINE
8
BLACK
6
CONTINUOUS
10
431.6865429999999719
20
-358.4791529999999966
11
432.0347799999999552
21
-358.4399159999999824
0
LINE
8
BLACK
6
CONTINUOUS
10
432.0347799999999552
20
-358.4399159999999824
11
432.3852200000000039
21
-358.4399159999999824
0
LINE
8
BLACK
6
CONTINUOUS
10
432.3852200000000039
20
-358.4399159999999824
11
432.7334569999999871
21
-358.4791529999999966
0
LINE
8
BLACK
6
CONTINUOUS
10
429.1349999999999909
20
-361.732687999999996
11
429.1736699999999587
21
-362.0758930000000078
0
LINE
8
BLACK
6
CONTINUOUS
10
429.1736699999999587
20
-362.0758930000000078
11
429.2505239999999844
21
-362.4126099999999724
0
LINE
8
BLACK
6
CONTINUOUS
10
429.2505239999999844
20
-362.4126099999999724
11
429.3645939999999541
21
-362.7386060000000043
0
LINE
8
BLACK
6
CONTINUOUS
10
429.3645939999999541
20
-362.7386060000000043
11
429.5144479999999589
21
-363.0497790000000009
0
LINE
8
BLACK
6
CONTINUOUS
10
429.5144479999999589
20
-363.0497790000000009
11
429.6981989999999882
21
-363.3422180000000026
0
LINE
8
BLACK
6
CONTINUOUS
10
429.6981989999999882
20
-363.3422180000000026
11
429.91353799999996
21
-363.6122439999999756
0
LINE
8
BLACK
6
CONTINUOUS
10
429.91353799999996
20
-363.6122439999999756
11
430.1577560000000062
21
-363.856461999999965
0
LINE
8
BLACK
6
CONTINUOUS
10
430.1577560000000062
20
-363.856461999999965
11
430.4277819999999792
21
-364.0718009999999936
0
LINE
8
BLACK
6
CONTINUOUS
10
430.4277819999999792
20
-364.0718009999999936
11
430.7202209999999809
21
-364.255551999999966
0
LINE
8
BLACK
6
CONTINUOUS
10
430.7202209999999809
20
-364.255551999999966
11
431.0313939999999775
21
-364.4054059999999708
0
LINE
8
BLACK
6
CONTINUOUS
10
431.0313939999999775
20
-364.4054059999999708
11
431.3573899999999526
21
-364.5194759999999974
0
LINE
8
BLACK
6
CONTINUOUS
10
431.3573899999999526
20
-364.5194759999999974
11
431.6941069999999741
21
-364.5963299999999663
0
LINE
8
BLACK
6
CONTINUOUS
10
431.6941069999999741
20
-364.5963299999999663
11
432.0373119999999858
21
-364.6349999999999909
0
LINE
8
BLACK
6
CONTINUOUS
10
432.0373119999999858
20
-364.6349999999999909
11
432.3826879999999733
21
-364.6349999999999909
0
LINE
8
BLACK
6
CONTINUOUS
10
432.3826879999999733
20
-364.6349999999999909
11
432.725892999999985
21
-364.5963299999999663
0
LINE
8
BLACK
6
CONTINUOUS
10
432.725892999999985
20
-364.5963299999999663
11
433.0626100000000065
21
-364.5194759999999974
0
LINE
8
BLACK
6
CONTINUOUS
10
433.0626100000000065
20
-364.5194759999999974
11
433.3886059999999816
21
-364.4054059999999708
0
LINE
8
BLACK
6
CONTINUOUS
10
433.3886059999999816
20
-364.4054059999999708
11
433.6997789999999782
21
-364.255551999999966
0
LINE
8
BLACK
6
CONTINUOUS
10
433.6997789999999782
20
-364.255551999999966
11
433.9922179999999798
21
-364.0718009999999936
0
LINE
8
BLACK
6
CONTINUOUS
10
433.9922179999999798
20
-364.0718009999999936
11
434.2622439999999528
21
-363.856461999999965
0
LINE
8
BLACK
6
CONTINUOUS
10
434.2622439999999528
20
-363.856461999999965
11
434.5064619999999991
21
-363.6122439999999756
0
LINE
8
BLACK
6
CONTINUOUS
10
434.5064619999999991
20
-363.6122439999999756
11
434.7218009999999708
21
-363.3422180000000026
0
LINE
8
BLACK
6
CONTINUOUS
10
434.7218009999999708
20
-363.3422180000000026
11
434.9055520000000001
21
-363.0497790000000009
0
LINE
8
BLACK
6
CONTINUOUS
10
434.9055520000000001
20
-363.0497790000000009
11
435.055406000000005
21
-362.7386060000000043
0
LINE
8
BLACK
6
CONTINUOUS
10
435.055406000000005
20
-362.7386060000000043
11
435.1694759999999746
21
-362.4126099999999724
0
LINE
8
BLACK
6
CONTINUOUS
10
435.1694759999999746
20
-362.4126099999999724
11
435.2463300000000004
21
-362.0758930000000078
0
LINE
8
BLACK
6
CONTINUOUS
10
435.2463300000000004
20
-362.0758930000000078
11
435.2849999999999682
21
-361.732687999999996
0
LINE
8
BLACK
6
CONTINUOUS
10
435.2849999999999682
20
-361.732687999999996
11
435.2849999999999682
21
-361.3873120000000085
0
LINE
8
BLACK
6
CONTINUOUS
10
435.2849999999999682
20
-361.3873120000000085
11
435.2463300000000004
21
-361.0441069999999968
0
LINE
8
BLACK
6
CONTINUOUS
10
435.2463300000000004
20
-361.0441069999999968
11
435.1694759999999746
21
-360.7073899999999753
0
LINE
8
BLACK
6
CONTINUOUS
10
435.1694759999999746
20
-360.7073899999999753
11
435.055406000000005
21
-360.3813940000000002
0
LINE
8
BLACK
6
CONTINUOUS
10
435.055406000000005
20
-360.3813940000000002
11
434.9055520000000001
21
-360.0702210000000036
0
LINE
8
BLACK
6
CONTINUOUS
10
434.9055520000000001
20
-360.0702210000000036
11
434.7218009999999708
21
-359.777782000000002
0
LINE
8
BLACK
6
CONTINUOUS
10
434.7218009999999708
20
-359.777782000000002
11
434.5064619999999991
21
-359.5077559999999721
0
LINE
8
BLACK
6
CONTINUOUS
10
434.5064619999999991
20
-359.5077559999999721
11
434.2622439999999528
21
-359.2635379999999827
0
LINE
8
BLACK
6
CONTINUOUS
10
434.2622439999999528
20
-359.2635379999999827
11
433.9922179999999798
21
-359.048199000000011
0
LINE
8
BLACK
6
CONTINUOUS
10
433.9922179999999798
20
-359.048199000000011
11
433.6997789999999782
21
-358.8644479999999817
0
LINE
8
BLACK
6
CONTINUOUS
10
433.6997789999999782
20
-358.8644479999999817
11
433.3886059999999816
21
-358.7145939999999769
0
LINE
8
BLACK
6
CONTINUOUS
10
433.3886059999999816
20
-358.7145939999999769
11
433.0626100000000065
21
-358.6005240000000072
0
LINE
8
BLACK
6
CONTINUOUS
10
433.0626100000000065
20
-358.6005240000000072
11
432.725892999999985
21
-358.5236699999999814
0
LINE
8
BLACK
6
CONTINUOUS
10
432.725892999999985
20
-358.5236699999999814
11
432.3826879999999733
21
-358.4849999999999568
0
LINE
8
BLACK
6
CONTINUOUS
10
432.3826879999999733
20
-358.4849999999999568
11
432.0373119999999858
21
-358.4849999999999568
0
LINE
8
BLACK
6
CONTINUOUS
10
432.0373119999999858
20
-358.4849999999999568
11
431.6941069999999741
21
-358.5236699999999814
0
LINE
8
BLACK
6
CONTINUOUS
10
431.6941069999999741
20
-358.5236699999999814
11
431.3573899999999526
21
-358.6005240000000072
0
LINE
8
BLACK
6
CONTINUOUS
10
431.3573899999999526
20
-358.6005240000000072
11
431.0313939999999775
21
-358.7145939999999769
0
LINE
8
BLACK
6
CONTINUOUS
10
431.0313939999999775
20
-358.7145939999999769
11
430.7202209999999809
21
-358.8644479999999817
0
LINE
8
BLACK
6
CONTINUOUS
10
430.7202209999999809
20
-358.8644479999999817
11
430.4277819999999792
21
-359.048199000000011
0
LINE
8
BLACK
6
CONTINUOUS
10
430.4277819999999792
20
-359.048199000000011
11
430.1577560000000062
21
-359.2635379999999827
0
LINE
8
BLACK
6
CONTINUOUS
10
430.1577560000000062
20
-359.2635379999999827
11
429.91353799999996
21
-359.5077559999999721
0
LINE
8
BLACK
6
CONTINUOUS
10
429.91353799999996
20
-359.5077559999999721
11
429.6981989999999882
21
-359.777782000000002
0
LINE
8
BLACK
6
CONTINUOUS
10
429.6981989999999882
20
-359.777782000000002
11
429.5144479999999589
21
-360.0702210000000036
0
LINE
8
BLACK
6
CONTINUOUS
10
429.5144479999999589
20
-360.0702210000000036
11
429.3645939999999541
21
-360.3813940000000002
0
LINE
8
BLACK
6
CONTINUOUS
10
429.3645939999999541
20
-360.3813940000000002
11
429.2505239999999844
21
-360.7073899999999753
0
LINE
8
BLACK
6
CONTINUOUS
10
429.2505239999999844
20
-360.7073899999999753
11
429.1736699999999587
21
-361.0441069999999968
0
LINE
8
BLACK
6
CONTINUOUS
10
429.1736699999999587
20
-361.0441069999999968
11
429.1349999999999909
21
-361.3873120000000085
0
LINE
8
BLACK
6
CONTINUOUS
10
429.1349999999999909
20
-361.3873120000000085
11
429.1349999999999909
21
-361.732687999999996
0
LINE
8
BLACK
6
CONTINUOUS
10
490.4334569999999758
20
-358.0891530000000103
11
490.7751109999999812
21
-358.1671329999999784
0
LINE
8
BLACK
6
CONTINUOUS
10
490.7751109999999812
20
-358.1671329999999784
11
491.1058859999999981
21
-358.2828759999999875
0
LINE
8
BLACK
6
CONTINUOUS
10
491.1058859999999981
20
-358.2828759999999875
11
491.4216219999999566
21
-358.4349269999999592
0
LINE
8
BLACK
6
CONTINUOUS
10
491.4216219999999566
20
-358.4349269999999592
11
491.7183479999999918
21
-358.621372000000008
0
LINE
8
BLACK
6
CONTINUOUS
10
491.7183479999999918
20
-358.621372000000008
11
491.9923329999999737
21
-358.8398679999999672
0
LINE
8
BLACK
6
CONTINUOUS
10
491.9923329999999737
20
-358.8398679999999672
11
492.24013199999996
21
-359.0876670000000104
0
LINE
8
BLACK
6
CONTINUOUS
10
492.24013199999996
20
-359.0876670000000104
11
492.4586279999999761
21
-359.3616519999999923
0
LINE
8
BLACK
6
CONTINUOUS
10
492.4586279999999761
20
-359.3616519999999923
11
492.645072999999968
21
-359.6583779999999706
0
LINE
8
BLACK
6
CONTINUOUS
10
492.645072999999968
20
-359.6583779999999706
11
492.7971239999999966
21
-359.9741139999999859
0
LINE
8
BLACK
6
CONTINUOUS
10
492.7971239999999966
20
-359.9741139999999859
11
492.9128670000000056
21
-360.3048890000000029
0
LINE
8
BLACK
6
CONTINUOUS
10
492.9128670000000056
20
-360.3048890000000029
11
492.9908469999999738
21
-360.6465430000000083
0
LINE
8
BLACK
6
CONTINUOUS
10
492.9908469999999738
20
-360.6465430000000083
11
493.030083999999988
21
-360.9947799999999916
0
LINE
8
BLACK
6
CONTINUOUS
10
493.030083999999988
20
-360.9947799999999916
11
493.030083999999988
21
-361.3452199999999834
0
LINE
8
BLACK
6
CONTINUOUS
10
493.030083999999988
20
-361.3452199999999834
11
492.9908469999999738
21
-361.6934569999999667
0
LINE
8
BLACK
6
CONTINUOUS
10
492.9908469999999738
20
-361.6934569999999667
11
492.9128670000000056
21
-362.0351109999999721
0
LINE
8
BLACK
6
CONTINUOUS
10
492.9128670000000056
20
-362.0351109999999721
11
492.7971239999999966
21
-362.3658859999999891
0
LINE
8
BLACK
6
CONTINUOUS
10
492.7971239999999966
20
-362.3658859999999891
11
492.645072999999968
21
-362.6816220000000044
0
LINE
8
BLACK
6
CONTINUOUS
10
492.645072999999968
20
-362.6816220000000044
11
492.4586279999999761
21
-362.9783479999999827
0
LINE
8
BLACK
6
CONTINUOUS
10
492.4586279999999761
20
-362.9783479999999827
11
492.24013199999996
21
-363.2523329999999646
0
LINE
8
BLACK
6
CONTINUOUS
10
492.24013199999996
20
-363.2523329999999646
11
491.9923329999999737
21
-363.5001320000000078
0
LINE
8
BLACK
6
CONTINUOUS
10
491.9923329999999737
20
-363.5001320000000078
11
491.7183479999999918
21
-363.718627999999967
0
LINE
8
BLACK
6
CONTINUOUS
10
491.7183479999999918
20
-363.718627999999967
11
491.4216219999999566
21
-363.9050729999999589
0
LINE
8
BLACK
6
CONTINUOUS
10
491.4216219999999566
20
-363.9050729999999589
11
491.1058859999999981
21
-364.0571239999999875
0
LINE
8
BLACK
6
CONTINUOUS
10
491.1058859999999981
20
-364.0571239999999875
11
490.7751109999999812
21
-364.1728669999999966
0
LINE
8
BLACK
6
CONTINUOUS
10
490.7751109999999812
20
-364.1728669999999966
11
490.4334569999999758
21
-364.2508469999999647
0
LINE
8
BLACK
6
CONTINUOUS
10
490.4334569999999758
20
-364.2508469999999647
11
490.0852199999999925
21
-364.2900839999999789
0
LINE
8
BLACK
6
CONTINUOUS
10
490.0852199999999925
20
-364.2900839999999789
11
489.7347800000000007
21
-364.2900839999999789
0
LINE
8
BLACK
6
CONTINUOUS
10
489.7347800000000007
20
-364.2900839999999789
11
489.3865429999999606
21
-364.2508469999999647
0
LINE
8
BLACK
6
CONTINUOUS
10
489.3865429999999606
20
-364.2508469999999647
11
489.0448889999999551
21
-364.1728669999999966
0
LINE
8
BLACK
6
CONTINUOUS
10
489.0448889999999551
20
-364.1728669999999966
11
488.714113999999995
21
-364.0571239999999875
0
LINE
8
BLACK
6
CONTINUOUS
10
488.714113999999995
20
-364.0571239999999875
11
488.3983779999999797
21
-363.9050729999999589
0
LINE
8
BLACK
6
CONTINUOUS
10
488.3983779999999797
20
-363.9050729999999589
11
488.1016520000000014
21
-363.718627999999967
0
LINE
8
BLACK
6
CONTINUOUS
10
488.1016520000000014
20
-363.718627999999967
11
487.8276669999999626
21
-363.5001320000000078
0
LINE
8
BLACK
6
CONTINUOUS
10
487.8276669999999626
20
-363.5001320000000078
11
487.5798679999999763
21
-363.2523329999999646
0
LINE
8
BLACK
6
CONTINUOUS
10
487.5798679999999763
20
-363.2523329999999646
11
487.3613719999999603
21
-362.9783479999999827
0
LINE
8
BLACK
6
CONTINUOUS
10
487.3613719999999603
20
-362.9783479999999827
11
487.1749269999999683
21
-362.6816220000000044
0
LINE
8
BLACK
6
CONTINUOUS
10
487.1749269999999683
20
-362.6816220000000044
11
487.0228759999999966
21
-362.3658859999999891
0
LINE
8
BLACK
6
CONTINUOUS
10
487.0228759999999966
20
-362.3658859999999891
11
486.9071329999999875
21
-362.0351109999999721
0
LINE
8
BLACK
6
CONTINUOUS
10
486.9071329999999875
20
-362.0351109999999721
11
486.8291529999999625
21
-361.6934569999999667
0
LINE
8
BLACK
6
CONTINUOUS
10
486.8291529999999625
20
-361.6934569999999667
11
486.7899160000000052
21
-361.3452199999999834
0
LINE
8
BLACK
6
CONTINUOUS
10
486.7899160000000052
20
-361.3452199999999834
11
486.7899160000000052
21
-360.9973119999999653
0
LINE
8
BLACK
6
CONTINUOUS
10
486.7899160000000052
20
-360.9973119999999653
11
486.7899160000000052
21
-360.9947799999999916
0
LINE
8
BLACK
6
CONTINUOUS
10
486.7899160000000052
20
-360.9947799999999916
11
486.8291529999999625
21
-360.6465430000000083
0
LINE
8
BLACK
6
CONTINUOUS
10
486.8291529999999625
20
-360.6465430000000083
11
486.9071329999999875
21
-360.3048890000000029
0
LINE
8
BLACK
6
CONTINUOUS
10
486.9071329999999875
20
-360.3048890000000029
11
487.0228759999999966
21
-359.9741139999999859
0
LINE
8
BLACK
6
CONTINUOUS
10
487.0228759999999966
20
-359.9741139999999859
11
487.1749269999999683
21
-359.6583779999999706
0
LINE
8
BLACK
6
CONTINUOUS
10
487.1749269999999683
20
-359.6583779999999706
11
487.3613719999999603
21
-359.3616519999999923
0
LINE
8
BLACK
6
CONTINUOUS
10
487.3613719999999603
20
-359.3616519999999923
11
487.5798679999999763
21
-359.0876670000000104
0
LINE
8
BLACK
6
CONTINUOUS
10
487.5798679999999763
20
-359.0876670000000104
11
487.8276669999999626
21
-358.8398679999999672
0
LINE
8
BLACK
6
CONTINUOUS
10
487.8276669999999626
20
-358.8398679999999672
11
488.1016520000000014
21
-358.621372000000008
0
LINE
8
BLACK
6
CONTINUOUS
10
488.1016520000000014
20
-358.621372000000008
11
488.3983779999999797
21
-358.4349269999999592
0
LINE
8
BLACK
6
CONTINUOUS
10
488.3983779999999797
20
-358.4349269999999592
11
488.714113999999995
21
-358.2828759999999875
0
LINE
8
BLACK
6
CONTINUOUS
10
488.714113999999995
20
-358.2828759999999875
11
489.0448889999999551
21
-358.1671329999999784
0
LINE
8
BLACK
6
CONTINUOUS
10
489.0448889999999551
20
-358.1671329999999784
11
489.3865429999999606
21
-358.0891530000000103
0
LINE
8
BLACK
6
CONTINUOUS
10
489.3865429999999606
20
-358.0891530000000103
11
489.7347800000000007
21
-358.0499159999999961
0
LINE
8
BLACK
6
CONTINUOUS
10
489.7347800000000007
20
-358.0499159999999961
11
490.0852199999999925
21
-358.0499159999999961
0
LINE
8
BLACK
6
CONTINUOUS
10
490.0852199999999925
20
-358.0499159999999961
11
490.4334569999999758
21
-358.0891530000000103
0
LINE
8
BLACK
6
CONTINUOUS
10
486.8349999999999795
20
-361.3426880000000097
11
486.8736700000000042
21
-361.6858929999999646
0
LINE
8
BLACK
6
CONTINUOUS
10
486.8736700000000042
20
-361.6858929999999646
11
486.9505239999999731
21
-362.022609999999986
0
LINE
8
BLACK
6
CONTINUOUS
10
486.9505239999999731
20
-362.022609999999986
11
487.0645939999999996
21
-362.3486059999999611
0
LINE
8
BLACK
6
CONTINUOUS
10
487.0645939999999996
20
-362.3486059999999611
11
487.2144480000000044
21
-362.6597789999999577
0
LINE
8
BLACK
6
CONTINUOUS
10
487.2144480000000044
20
-362.6597789999999577
11
487.3981989999999769
21
-362.9522179999999594
0
LINE
8
BLACK
6
CONTINUOUS
10
487.3981989999999769
20
-362.9522179999999594
11
487.6135380000000055
21
-363.2222439999999892
0
LINE
8
BLACK
6
CONTINUOUS
10
487.6135380000000055
20
-363.2222439999999892
11
487.8577559999999949
21
-363.4664619999999786
0
LINE
8
BLACK
6
CONTINUOUS
10
487.8577559999999949
20
-363.4664619999999786
11
488.1277819999999679
21
-363.6818010000000072
0
LINE
8
BLACK
6
CONTINUOUS
10
488.1277819999999679
20
-363.6818010000000072
11
488.4202209999999695
21
-363.8655519999999797
0
LINE
8
BLACK
6
CONTINUOUS
10
488.4202209999999695
20
-363.8655519999999797
11
488.7313939999999661
21
-364.0154059999999845
0
LINE
8
BLACK
6
CONTINUOUS
10
488.7313939999999661
20
-364.0154059999999845
11
489.0573899999999981
21
-364.129476000000011
0
LINE
8
BLACK
6
CONTINUOUS
10
489.0573899999999981
20
-364.129476000000011
11
489.3941069999999627
21
-364.2063299999999799
0
LINE
8
BLACK
6
CONTINUOUS
10
489.3941069999999627
20
-364.2063299999999799
11
489.7373119999999744
21
-364.2450000000000045
0
LINE
8
BLACK
6
CONTINUOUS
10
489.7373119999999744
20
-364.2450000000000045
11
490.0826879999999619
21
-364.2450000000000045
0
LINE
8
BLACK
6
CONTINUOUS
10
490.0826879999999619
20
-364.2450000000000045
11
490.4258929999999737
21
-364.2063299999999799
0
LINE
8
BLACK
6
CONTINUOUS
10
490.4258929999999737
20
-364.2063299999999799
11
490.7626099999999951
21
-364.129476000000011
0
LINE
8
BLACK
6
CONTINUOUS
10
490.7626099999999951
20
-364.129476000000011
11
491.0886059999999702
21
-364.0154059999999845
0
LINE
8
BLACK
6
CONTINUOUS
10
491.0886059999999702
20
-364.0154059999999845
11
491.3997789999999668
21
-363.8655519999999797
0
LINE
8
BLACK
6
CONTINUOUS
10
491.3997789999999668
20
-363.8655519999999797
11
491.6922179999999685
21
-363.6818010000000072
0
LINE
8
BLACK
6
CONTINUOUS
10
491.6922179999999685
20
-363.6818010000000072
11
491.9622439999999983
21
-363.4664619999999786
0
LINE
8
BLACK
6
CONTINUOUS
10
491.9622439999999983
20
-363.4664619999999786
11
492.2064619999999877
21
-363.2222439999999892
0
LINE
8
BLACK
6
CONTINUOUS
10
492.2064619999999877
20
-363.2222439999999892
11
492.4218009999999595
21
-362.9522179999999594
0
LINE
8
BLACK
6
CONTINUOUS
10
492.4218009999999595
20
-362.9522179999999594
11
492.6055519999999888
21
-362.6597789999999577
0
LINE
8
BLACK
6
CONTINUOUS
10
492.6055519999999888
20
-362.6597789999999577
11
492.7554059999999936
21
-362.3486059999999611
0
LINE
8
BLACK
6
CONTINUOUS
10
492.7554059999999936
20
-362.3486059999999611
11
492.8694759999999633
21
-362.022609999999986
0
LINE
8
BLACK
6
CONTINUOUS
10
492.8694759999999633
20
-362.022609999999986
11
492.946329999999989
21
-361.6858929999999646
0
LINE
8
BLACK
6
CONTINUOUS
10
492.946329999999989
20
-361.6858929999999646
11
492.9849999999999568
21
-361.3426880000000097
0
LINE
8
BLACK
6
CONTINUOUS
10
492.9849999999999568
20
-361.3426880000000097
11
492.9849999999999568
21
-360.9973119999999653
0
LINE
8
BLACK
6
CONTINUOUS
10
492.9849999999999568
20
-360.9973119999999653
11
492.946329999999989
21
-360.6541070000000104
0
LINE
8
BLACK
6
CONTINUOUS
10
492.946329999999989
20
-360.6541070000000104
11
492.8694759999999633
21
-360.317389999999989
0
LINE
8
BLACK
6
CONTINUOUS
10
492.8694759999999633
20
-360.317389999999989
11
492.7554059999999936
21
-359.991393999999957
0
LINE
8
BLACK
6
CONTINUOUS
10
492.7554059999999936
20
-359.991393999999957
11
492.6055519999999888
21
-359.6802209999999604
0
LINE
8
BLACK
6
CONTINUOUS
10
492.6055519999999888
20
-359.6802209999999604
11
492.4218009999999595
21
-359.3877819999999588
0
LINE
8
BLACK
6
CONTINUOUS
10
492.4218009999999595
20
-359.3877819999999588
11
492.2064619999999877
21
-359.1177559999999858
0
LINE
8
BLACK
6
CONTINUOUS
10
492.2064619999999877
20
-359.1177559999999858
11
491.9622439999999983
21
-358.8735379999999964
0
LINE
8
BLACK
6
CONTINUOUS
10
491.9622439999999983
20
-358.8735379999999964
11
491.6922179999999685
21
-358.6581989999999678
0
LINE
8
BLACK
6
CONTINUOUS
10
491.6922179999999685
20
-358.6581989999999678
11
491.3997789999999668
21
-358.4744479999999953
0
LINE
8
BLACK
6
CONTINUOUS
10
491.3997789999999668
20
-358.4744479999999953
11
491.0886059999999702
21
-358.3245939999999905
0
LINE
8
BLACK
6
CONTINUOUS
10
491.0886059999999702
20
-358.3245939999999905
11
490.7626099999999951
21
-358.210523999999964
0
LINE
8
BLACK
6
CONTINUOUS
10
490.7626099999999951
20
-358.210523999999964
11
490.4258929999999737
21
-358.1336699999999951
0
LINE
8
BLACK
6
CONTINUOUS
10
490.4258929999999737
20
-358.1336699999999951
11
490.0826879999999619
21
-358.0949999999999704
0
LINE
8
BLACK
6
CONTINUOUS
10
490.0826879999999619
20
-358.0949999999999704
11
489.7373119999999744
21
-358.0949999999999704
0
LINE
8
BLACK
6
CONTINUOUS
10
489.7373119999999744
20
-358.0949999999999704
11
489.3941069999999627
21
-358.1336699999999951
0
LINE
8
BLACK
6
CONTINUOUS
10
489.3941069999999627
20
-358.1336699999999951
11
489.0573899999999981
21
-358.210523999999964
0
LINE
8
BLACK
6
CONTINUOUS
10
489.0573899999999981
20
-358.210523999999964
11
488.7313939999999661
21
-358.3245939999999905
0
LINE
8
BLACK
6
CONTINUOUS
10
488.7313939999999661
20
-358.3245939999999905
11
488.4202209999999695
21
-358.4744479999999953
0
LINE
8
BLACK
6
CONTINUOUS
10
488.4202209999999695
20
-358.4744479999999953
11
488.1277819999999679
21
-358.6581989999999678
0
LINE
8
BLACK
6
CONTINUOUS
10
488.1277819999999679
20
-358.6581989999999678
11
487.8577559999999949
21
-358.8735379999999964
0
LINE
8
BLACK
6
CONTINUOUS
10
487.8577559999999949
20
-358.8735379999999964
11
487.6135380000000055
21
-359.1177559999999858
0
LINE
8
BLACK
6
CONTINUOUS
10
487.6135380000000055
20
-359.1177559999999858
11
487.3981989999999769
21
-359.3877819999999588
0
LINE
8
BLACK
6
CONTINUOUS
10
487.3981989999999769
20
-359.3877819999999588
11
487.2144480000000044
21
-359.6802209999999604
0
LINE
8
BLACK
6
CONTINUOUS
10
487.2144480000000044
20
-359.6802209999999604
11
487.0645939999999996
21
-359.991393999999957
0
LINE
8
BLACK
6
CONTINUOUS
10
487.0645939999999996
20
-359.991393999999957
11
486.9505239999999731
21
-360.317389999999989
0
LINE
8
BLACK
6
CONTINUOUS
10
486.9505239999999731
20
-360.317389999999989
11
486.8736700000000042
21
-360.6541070000000104
0
LINE
8
BLACK
6
CONTINUOUS
10
486.8736700000000042
20
-360.6541070000000104
11
486.8349999999999795
21
-360.9973119999999653
0
LINE
8
BLACK
6
CONTINUOUS
10
486.8349999999999795
20
-360.9973119999999653
11
486.8349999999999795
21
-361.3426880000000097
0
LINE
8
BLACK
6
CONTINUOUS
10
438.7095669999999927
20
-344.3369030000000066
11
438.7230969999999957
21
-344.3504330000000095
0
LINE
8
BLACK
6
CONTINUOUS
10
438.7230969999999957
20
-344.3504330000000095
11
438.7249999999999659
21
-344.3599999999999568
0
LINE
8
BLACK
6
CONTINUOUS
10
438.7249999999999659
20
-344.3599999999999568
11
438.7249999999999659
21
-357.5600000000000023
0
LINE
8
BLACK
6
CONTINUOUS
10
438.7249999999999659
20
-357.5600000000000023
11
438.7230969999999957
21
-357.5695670000000064
0
LINE
8
BLACK
6
CONTINUOUS
10
438.7230969999999957
20
-357.5695670000000064
11
438.7095669999999927
21
-357.5830970000000093
0
LINE
8
BLACK
6
CONTINUOUS
10
438.7095669999999927
20
-357.5830970000000093
11
438.6999999999999886
21
-357.5849999999999795
0
LINE
8
BLACK
6
CONTINUOUS
10
438.6999999999999886
20
-357.5849999999999795
11
425.5
21
-357.5849999999999795
0
LINE
8
BLACK
6
CONTINUOUS
10
425.5
20
-357.5849999999999795
11
425.4904329999999959
21
-357.5830970000000093
0
LINE
8
BLACK
6
CONTINUOUS
10
425.4904329999999959
20
-357.5830970000000093
11
425.476902999999993
21
-357.5695670000000064
0
LINE
8
BLACK
6
CONTINUOUS
10
425.476902999999993
20
-357.5695670000000064
11
425.4749999999999659
21
-357.5600000000000023
0
LINE
8
BLACK
6
CONTINUOUS
10
425.4749999999999659
20
-357.5600000000000023
11
425.4749999999999659
21
-344.3599999999999568
0
LINE
8
BLACK
6
CONTINUOUS
10
425.4749999999999659
20
-344.3599999999999568
11
425.476902999999993
21
-344.3504330000000095
0
LINE
8
BLACK
6
CONTINUOUS
10
425.476902999999993
20
-344.3504330000000095
11
425.4904329999999959
21
-344.3369030000000066
0
LINE
8
BLACK
6
CONTINUOUS
10
425.4904329999999959
20
-344.3369030000000066
11
425.5
21
-344.3349999999999795
0
LINE
8
BLACK
6
CONTINUOUS
10
425.5
20
-344.3349999999999795
11
438.6999999999999886
21
-344.3349999999999795
0
LINE
8
BLACK
6
CONTINUOUS
10
438.6999999999999886
20
-344.3349999999999795
11
438.7095669999999927
21
-344.3369030000000066
0
LINE
8
BLACK
6
CONTINUOUS
10
425.5249999999999773
20
-344.3849999999999909
11
425.5249999999999773
21
-357.5349999999999682
0
LINE
8
BLACK
6
CONTINUOUS
10
425.5249999999999773
20
-357.5349999999999682
11
438.6749999999999545
21
-357.5349999999999682
0
LINE
8
BLACK
6
CONTINUOUS
10
438.6749999999999545
20
-357.5349999999999682
11
438.6749999999999545
21
-344.3849999999999909
0
LINE
8
BLACK
6
CONTINUOUS
10
438.6749999999999545
20
-344.3849999999999909
11
425.5249999999999773
21
-344.3849999999999909
0
LINE
8
BLACK
6
CONTINUOUS
10
458.1595669999999814
20
-344.3369030000000066
11
458.1730969999999843
21
-344.3504330000000095
0
LINE
8
BLACK
6
CONTINUOUS
10
458.1730969999999843
20
-344.3504330000000095
11
458.1749999999999545
21
-344.3599999999999568
0
LINE
8
BLACK
6
CONTINUOUS
10
458.1749999999999545
20
-344.3599999999999568
11
458.1749999999999545
21
-357.5600000000000023
0
LINE
8
BLACK
6
CONTINUOUS
10
458.1749999999999545
20
-357.5600000000000023
11
458.1730969999999843
21
-357.5695670000000064
0
LINE
8
BLACK
6
CONTINUOUS
10
458.1730969999999843
20
-357.5695670000000064
11
458.1595669999999814
21
-357.5830970000000093
0
LINE
8
BLACK
6
CONTINUOUS
10
458.1595669999999814
20
-357.5830970000000093
11
458.1499999999999773
21
-357.5849999999999795
0
LINE
8
BLACK
6
CONTINUOUS
10
458.1499999999999773
20
-357.5849999999999795
11
444.9499999999999886
21
-357.5849999999999795
0
LINE
8
BLACK
6
CONTINUOUS
10
444.9499999999999886
20
-357.5849999999999795
11
444.9404329999999845
21
-357.5830970000000093
0
LINE
8
BLACK
6
CONTINUOUS
10
444.9404329999999845
20
-357.5830970000000093
11
444.9269029999999816
21
-357.5695670000000064
0
LINE
8
BLACK
6
CONTINUOUS
10
444.9269029999999816
20
-357.5695670000000064
11
444.9249999999999545
21
-357.5600000000000023
0
LINE
8
BLACK
6
CONTINUOUS
10
444.9249999999999545
20
-357.5600000000000023
11
444.9249999999999545
21
-344.3599999999999568
0
LINE
8
BLACK
6
CONTINUOUS
10
444.9249999999999545
20
-344.3599999999999568
11
444.9269029999999816
21
-344.3504330000000095
0
LINE
8
BLACK
6
CONTINUOUS
10
444.9269029999999816
20
-344.3504330000000095
11
444.9404329999999845
21
-344.3369030000000066
0
LINE
8
BLACK
6
CONTINUOUS
10
444.9404329999999845
20
-344.3369030000000066
11
444.9499999999999886
21
-344.3349999999999795
0
LINE
8
BLACK
6
CONTINUOUS
10
444.9499999999999886
20
-344.3349999999999795
11
458.1499999999999773
21
-344.3349999999999795
0
LINE
8
BLACK
6
CONTINUOUS
10
458.1499999999999773
20
-344.3349999999999795
11
458.1595669999999814
21
-344.3369030000000066
0
LINE
8
BLACK
6
CONTINUOUS
10
444.9749999999999659
20
-344.3849999999999909
11
444.9749999999999659
21
-357.5349999999999682
0
LINE
8
BLACK
6
CONTINUOUS
10
444.9749999999999659
20
-357.5349999999999682
11
458.125
21
-357.5349999999999682
0
LINE
8
BLACK
6
CONTINUOUS
10
458.125
20
-357.5349999999999682
11
458.125
21
-344.3849999999999909
0
LINE
8
BLACK
6
CONTINUOUS
10
458.125
20
-344.3849999999999909
11
444.9749999999999659
21
-344.3849999999999909
0
LINE
8
BLACK
6
CONTINUOUS
10
477.4895669999999654
20
-344.3369030000000066
11
477.5030969999999684
21
-344.3504330000000095
0
LINE
8
BLACK
6
CONTINUOUS
10
477.5030969999999684
20
-344.3504330000000095
11
477.5049999999999955
21
-344.3599999999999568
0
LINE
8
BLACK
6
CONTINUOUS
10
477.5049999999999955
20
-344.3599999999999568
11
477.5049999999999955
21
-357.5600000000000023
0
LINE
8
BLACK
6
CONTINUOUS
10
477.5049999999999955
20
-357.5600000000000023
11
477.5030969999999684
21
-357.5695670000000064
0
LINE
8
BLACK
6
CONTINUOUS
10
477.5030969999999684
20
-357.5695670000000064
11
477.4895669999999654
21
-357.5830970000000093
0
LINE
8
BLACK
6
CONTINUOUS
10
477.4895669999999654
20
-357.5830970000000093
11
477.4799999999999613
21
-357.5849999999999795
0
LINE
8
BLACK
6
CONTINUOUS
10
477.4799999999999613
20
-357.5849999999999795
11
464.2799999999999727
21
-357.5849999999999795
0
LINE
8
BLACK
6
CONTINUOUS
10
464.2799999999999727
20
-357.5849999999999795
11
464.2704329999999686
21
-357.5830970000000093
0
LINE
8
BLACK
6
CONTINUOUS
10
464.2704329999999686
20
-357.5830970000000093
11
464.2569029999999657
21
-357.5695670000000064
0
LINE
8
BLACK
6
CONTINUOUS
10
464.2569029999999657
20
-357.5695670000000064
11
464.2549999999999955
21
-357.5600000000000023
0
LINE
8
BLACK
6
CONTINUOUS
10
464.2549999999999955
20
-357.5600000000000023
11
464.2549999999999955
21
-344.3599999999999568
0
LINE
8
BLACK
6
CONTINUOUS
10
464.2549999999999955
20
-344.3599999999999568
11
464.2569029999999657
21
-344.3504330000000095
0
LINE
8
BLACK
6
CONTINUOUS
10
464.2569029999999657
20
-344.3504330000000095
11
464.2704329999999686
21
-344.3369030000000066
0
LINE
8
BLACK
6
CONTINUOUS
10
464.2704329999999686
20
-344.3369030000000066
11
464.2799999999999727
21
-344.3349999999999795
0
LINE
8
BLACK
6
CONTINUOUS
10
464.2799999999999727
20
-344.3349999999999795
11
477.4799999999999613
21
-344.3349999999999795
0
LINE
8
BLACK
6
CONTINUOUS
10
477.4799999999999613
20
-344.3349999999999795
11
477.4895669999999654
21
-344.3369030000000066
0
LINE
8
BLACK
6
CONTINUOUS
10
464.3050000000000068
20
-344.3849999999999909
11
464.3050000000000068
21
-357.5349999999999682
0
LINE
8
BLACK
6
CONTINUOUS
10
464.3050000000000068
20
-357.5349999999999682
11
477.4549999999999841
21
-357.5349999999999682
0
LINE
8
BLACK
6
CONTINUOUS
10
477.4549999999999841
20
-357.5349999999999682
11
477.4549999999999841
21
-344.3849999999999909
0
LINE
8
BLACK
6
CONTINUOUS
10
477.4549999999999841
20
-344.3849999999999909
11
464.3050000000000068
21
-344.3849999999999909
0
LINE
8
BLACK
6
CONTINUOUS
10
496.9495670000000018
20
-344.3269029999999589
11
496.9630970000000048
21
-344.3404329999999618
0
LINE
8
BLACK
6
CONTINUOUS
10
496.9630970000000048
20
-344.3404329999999618
11
496.964999999999975
21
-344.3499999999999659
0
LINE
8
BLACK
6
CONTINUOUS
10
496.964999999999975
20
-344.3499999999999659
11
496.964999999999975
21
-357.5500000000000114
0
LINE
8
BLACK
6
CONTINUOUS
10
496.964999999999975
20
-357.5500000000000114
11
496.9630970000000048
21
-357.5595669999999586
0
LINE
8
BLACK
6
CONTINUOUS
10
496.9630970000000048
20
-357.5595669999999586
11
496.9495670000000018
21
-357.5730969999999616
0
LINE
8
BLACK
6
CONTINUOUS
10
496.9495670000000018
20
-357.5730969999999616
11
496.9399999999999977
21
-357.5749999999999886
0
LINE
8
BLACK
6
CONTINUOUS
10
496.9399999999999977
20
-357.5749999999999886
11
483.7399999999999523
21
-357.5749999999999886
0
LINE
8
BLACK
6
CONTINUOUS
10
483.7399999999999523
20
-357.5749999999999886
11
483.730433000000005
21
-357.5730969999999616
0
LINE
8
BLACK
6
CONTINUOUS
10
483.730433000000005
20
-357.5730969999999616
11
483.7169030000000021
21
-357.5595669999999586
0
LINE
8
BLACK
6
CONTINUOUS
10
483.7169030000000021
20
-357.5595669999999586
11
483.714999999999975
21
-357.5500000000000114
0
LINE
8
BLACK
6
CONTINUOUS
10
483.714999999999975
20
-357.5500000000000114
11
483.714999999999975
21
-344.3499999999999659
0
LINE
8
BLACK
6
CONTINUOUS
10
483.714999999999975
20
-344.3499999999999659
11
483.7169030000000021
21
-344.3404329999999618
0
LINE
8
BLACK
6
CONTINUOUS
10
483.7169030000000021
20
-344.3404329999999618
11
483.730433000000005
21
-344.3269029999999589
0
LINE
8
BLACK
6
CONTINUOUS
10
483.730433000000005
20
-344.3269029999999589
11
483.7399999999999523
21
-344.3249999999999886
0
LINE
8
BLACK
6
CONTINUOUS
10
483.7399999999999523
20
-344.3249999999999886
11
496.9399999999999977
21
-344.3249999999999886
0
LINE
8
BLACK
6
CONTINUOUS
10
496.9399999999999977
20
-344.3249999999999886
11
496.9495670000000018
21
-344.3269029999999589
0
LINE
8
BLACK
6
CONTINUOUS
10
483.7649999999999864
20
-344.375
11
483.7649999999999864
21
-357.5249999999999773
0
LINE
8
BLACK
6
CONTINUOUS
10
483.7649999999999864
20
-357.5249999999999773
11
496.9149999999999636
21
-357.5249999999999773
0
LINE
8
BLACK
6
CONTINUOUS
10
496.9149999999999636
20
-357.5249999999999773
11
496.9149999999999636
21
-344.375
0
LINE
8
BLACK
6
CONTINUOUS
10
496.9149999999999636
20
-344.375
11
483.7649999999999864
21
-344.375
0
LINE
8
BLACK
6
CONTINUOUS
10
520.5595670000000155
20
-344.2569029999999657
11
520.5730969999999616
21
-344.2704329999999686
0
LINE
8
BLACK
6
CONTINUOUS
10
520.5730969999999616
20
-344.2704329999999686
11
520.5749999999999318
21
-344.2799999999999727
0
LINE
8
BLACK
6
CONTINUOUS
10
520.5749999999999318
20
-344.2799999999999727
11
520.5749999999999318
21
-357.4799999999999613
0
LINE
8
BLACK
6
CONTINUOUS
10
520.5749999999999318
20
-357.4799999999999613
11
520.5730969999999616
21
-357.4895669999999654
0
LINE
8
BLACK
6
CONTINUOUS
10
520.5730969999999616
20
-357.4895669999999654
11
520.5595670000000155
21
-357.5030969999999684
0
LINE
8
BLACK
6
CONTINUOUS
10
520.5595670000000155
20
-357.5030969999999684
11
520.5499999999999545
21
-357.5049999999999955
0
LINE
8
BLACK
6
CONTINUOUS
10
520.5499999999999545
20
-357.5049999999999955
11
507.3499999999999659
21
-357.5049999999999955
0
LINE
8
BLACK
6
CONTINUOUS
10
507.3499999999999659
20
-357.5049999999999955
11
507.3404329999999618
21
-357.5030969999999684
0
LINE
8
BLACK
6
CONTINUOUS
10
507.3404329999999618
20
-357.5030969999999684
11
507.3269029999999589
21
-357.4895669999999654
0
LINE
8
BLACK
6
CONTINUOUS
10
507.3269029999999589
20
-357.4895669999999654
11
507.3249999999999886
21
-357.4799999999999613
0
LINE
8
BLACK
6
CONTINUOUS
10
507.3249999999999886
20
-357.4799999999999613
11
507.3249999999999886
21
-344.2799999999999727
0
LINE
8
BLACK
6
CONTINUOUS
10
507.3249999999999886
20
-344.2799999999999727
11
507.3269029999999589
21
-344.2704329999999686
0
LINE
8
BLACK
6
CONTINUOUS
10
507.3269029999999589
20
-344.2704329999999686
11
507.3404329999999618
21
-344.2569029999999657
0
LINE
8
BLACK
6
CONTINUOUS
10
507.3404329999999618
20
-344.2569029999999657
11
507.3499999999999659
21
-344.2549999999999955
0
LINE
8
BLACK
6
CONTINUOUS
10
507.3499999999999659
20
-344.2549999999999955
11
520.5499999999999545
21
-344.2549999999999955
0
LINE
8
BLACK
6
CONTINUOUS
10
520.5499999999999545
20
-344.2549999999999955
11
520.5595670000000155
21
-344.2569029999999657
0
LINE
8
BLACK
6
CONTINUOUS
10
507.375
20
-344.3050000000000068
11
507.375
21
-357.4549999999999841
0
LINE
8
BLACK
6
CONTINUOUS
10
507.375
20
-357.4549999999999841
11
520.5249999999999773
21
-357.4549999999999841
0
LINE
8
BLACK
6
CONTINUOUS
10
520.5249999999999773
20
-357.4549999999999841
11
520.5249999999999773
21
-344.3050000000000068
0
LINE
8
BLACK
6
CONTINUOUS
10
520.5249999999999773
20
-344.3050000000000068
11
507.375
21
-344.3050000000000068
0
LINE
8
BLACK
6
CONTINUOUS
10
503.9634570000000053
20
-340.1691529999999943
11
504.3051109999999539
21
-340.2471329999999625
0
LINE
8
BLACK
6
CONTINUOUS
10
504.3051109999999539
20
-340.2471329999999625
11
504.6358859999999709
21
-340.3628759999999716
0
LINE
8
BLACK
6
CONTINUOUS
10
504.6358859999999709
20
-340.3628759999999716
11
504.9516219999999862
21
-340.5149270000000001
0
LINE
8
BLACK
6
CONTINUOUS
10
504.9516219999999862
20
-340.5149270000000001
11
505.2483479999999645
21
-340.7013719999999921
0
LINE
8
BLACK
6
CONTINUOUS
10
505.2483479999999645
20
-340.7013719999999921
11
505.5223330000000033
21
-340.9198680000000081
0
LINE
8
BLACK
6
CONTINUOUS
10
505.5223330000000033
20
-340.9198680000000081
11
505.7701319999999896
21
-341.1676669999999945
0
LINE
8
BLACK
6
CONTINUOUS
10
505.7701319999999896
20
-341.1676669999999945
11
505.9886279999999488
21
-341.4416519999999764
0
LINE
8
BLACK
6
CONTINUOUS
10
505.9886279999999488
20
-341.4416519999999764
11
506.1750729999999976
21
-341.7383780000000115
0
LINE
8
BLACK
6
CONTINUOUS
10
506.1750729999999976
20
-341.7383780000000115
11
506.3271239999999693
21
-342.05411399999997
0
LINE
8
BLACK
6
CONTINUOUS
10
506.3271239999999693
20
-342.05411399999997
11
506.4428669999999784
21
-342.3848889999999869
0
LINE
8
BLACK
6
CONTINUOUS
10
506.4428669999999784
20
-342.3848889999999869
11
506.5208470000000034
21
-342.7265429999999924
0
LINE
8
BLACK
6
CONTINUOUS
10
506.5208470000000034
20
-342.7265429999999924
11
506.5600839999999607
21
-343.0747799999999756
0
LINE
8
BLACK
6
CONTINUOUS
10
506.5600839999999607
20
-343.0747799999999756
11
506.5600839999999607
21
-343.4252199999999675
0
LINE
8
BLACK
6
CONTINUOUS
10
506.5600839999999607
20
-343.4252199999999675
11
506.5208470000000034
21
-343.7734570000000076
0
LINE
8
BLACK
6
CONTINUOUS
10
506.5208470000000034
20
-343.7734570000000076
11
506.4428669999999784
21
-344.1151109999999562
0
LINE
8
BLACK
6
CONTINUOUS
10
506.4428669999999784
20
-344.1151109999999562
11
506.3271239999999693
21
-344.4458859999999731
0
LINE
8
BLACK
6
CONTINUOUS
10
506.3271239999999693
20
-344.4458859999999731
11
506.1750729999999976
21
-344.7616219999999885
0
LINE
8
BLACK
6
CONTINUOUS
10
506.1750729999999976
20
-344.7616219999999885
11
505.9886279999999488
21
-345.0583479999999668
0
LINE
8
BLACK
6
CONTINUOUS
10
505.9886279999999488
20
-345.0583479999999668
11
505.7701319999999896
21
-345.3323330000000055
0
LINE
8
BLACK
6
CONTINUOUS
10
505.7701319999999896
20
-345.3323330000000055
11
505.5223330000000033
21
-345.5801319999999919
0
LINE
8
BLACK
6
CONTINUOUS
10
505.5223330000000033
20
-345.5801319999999919
11
505.2483479999999645
21
-345.7986280000000079
0
LINE
8
BLACK
6
CONTINUOUS
10
505.2483479999999645
20
-345.7986280000000079
11
504.9516219999999862
21
-345.9850729999999999
0
LINE
8
BLACK
6
CONTINUOUS
10
504.9516219999999862
20
-345.9850729999999999
11
504.6358859999999709
21
-346.1371239999999716
0
LINE
8
BLACK
6
CONTINUOUS
10
504.6358859999999709
20
-346.1371239999999716
11
504.3051109999999539
21
-346.2528669999999806
0
LINE
8
BLACK
6
CONTINUOUS
10
504.3051109999999539
20
-346.2528669999999806
11
503.9634570000000053
21
-346.3308470000000057
0
LINE
8
BLACK
6
CONTINUOUS
10
503.9634570000000053
20
-346.3308470000000057
11
503.6152199999999652
21
-346.370083999999963
0
LINE
8
BLACK
6
CONTINUOUS
10
503.6152199999999652
20
-346.370083999999963
11
503.2647799999999734
21
-346.370083999999963
0
LINE
8
BLACK
6
CONTINUOUS
10
503.2647799999999734
20
-346.370083999999963
11
502.9165429999999901
21
-346.3308470000000057
0
LINE
8
BLACK
6
CONTINUOUS
10
502.9165429999999901
20
-346.3308470000000057
11
502.5748889999999847
21
-346.2528669999999806
0
LINE
8
BLACK
6
CONTINUOUS
10
502.5748889999999847
20
-346.2528669999999806
11
502.2441139999999677
21
-346.1371239999999716
0
LINE
8
BLACK
6
CONTINUOUS
10
502.2441139999999677
20
-346.1371239999999716
11
501.9283779999999524
21
-345.9850729999999999
0
LINE
8
BLACK
6
CONTINUOUS
10
501.9283779999999524
20
-345.9850729999999999
11
501.6316519999999741
21
-345.7986280000000079
0
LINE
8
BLACK
6
CONTINUOUS
10
501.6316519999999741
20
-345.7986280000000079
11
501.3576669999999922
21
-345.5801319999999919
0
LINE
8
BLACK
6
CONTINUOUS
10
501.3576669999999922
20
-345.5801319999999919
11
501.109867999999949
21
-345.3323330000000055
0
LINE
8
BLACK
6
CONTINUOUS
10
501.109867999999949
20
-345.3323330000000055
11
500.8913719999999898
21
-345.0583479999999668
0
LINE
8
BLACK
6
CONTINUOUS
10
500.8913719999999898
20
-345.0583479999999668
11
500.7049269999999979
21
-344.7616219999999885
0
LINE
8
BLACK
6
CONTINUOUS
10
500.7049269999999979
20
-344.7616219999999885
11
500.5528759999999693
21
-344.4458859999999731
0
LINE
8
BLACK
6
CONTINUOUS
10
500.5528759999999693
20
-344.4458859999999731
11
500.4371329999999602
21
-344.1151109999999562
0
LINE
8
BLACK
6
CONTINUOUS
10
500.4371329999999602
20
-344.1151109999999562
11
500.3591529999999921
21
-343.7734570000000076
0
LINE
8
BLACK
6
CONTINUOUS
10
500.3591529999999921
20
-343.7734570000000076
11
500.3199159999999779
21
-343.4252199999999675
0
LINE
8
BLACK
6
CONTINUOUS
10
500.3199159999999779
20
-343.4252199999999675
11
500.3199159999999779
21
-343.0773120000000063
0
LINE
8
BLACK
6
CONTINUOUS
10
500.3199159999999779
20
-343.0773120000000063
11
500.3199159999999779
21
-343.0747799999999756
0
LINE
8
BLACK
6
CONTINUOUS
10
500.3199159999999779
20
-343.0747799999999756
11
500.3591529999999921
21
-342.7265429999999924
0
LINE
8
BLACK
6
CONTINUOUS
10
500.3591529999999921
20
-342.7265429999999924
11
500.4371329999999602
21
-342.3848889999999869
0
LINE
8
BLACK
6
CONTINUOUS
10
500.4371329999999602
20
-342.3848889999999869
11
500.5528759999999693
21
-342.05411399999997
0
LINE
8
BLACK
6
CONTINUOUS
10
500.5528759999999693
20
-342.05411399999997
11
500.7049269999999979
21
-341.7383780000000115
0
LINE
8
BLACK
6
CONTINUOUS
10
500.7049269999999979
20
-341.7383780000000115
11
500.8913719999999898
21
-341.4416519999999764
0
LINE
8
BLACK
6
CONTINUOUS
10
500.8913719999999898
20
-341.4416519999999764
11
501.109867999999949
21
-341.1676669999999945
0
LINE
8
BLACK
6
CONTINUOUS
10
501.109867999999949
20
-341.1676669999999945
11
501.3576669999999922
21
-340.9198680000000081
0
LINE
8
BLACK
6
CONTINUOUS
10
501.3576669999999922
20
-340.9198680000000081
11
501.6316519999999741
21
-340.7013719999999921
0
LINE
8
BLACK
6
CONTINUOUS
10
501.6316519999999741
20
-340.7013719999999921
11
501.9283779999999524
21
-340.5149270000000001
0
LINE
8
BLACK
6
CONTINUOUS
10
501.9283779999999524
20
-340.5149270000000001
11
502.2441139999999677
21
-340.3628759999999716
0
LINE
8
BLACK
6
CONTINUOUS
10
502.2441139999999677
20
-340.3628759999999716
11
502.5748889999999847
21
-340.2471329999999625
0
LINE
8
BLACK
6
CONTINUOUS
10
502.5748889999999847
20
-340.2471329999999625
11
502.9165429999999901
21
-340.1691529999999943
0
LINE
8
BLACK
6
CONTINUOUS
10
502.9165429999999901
20
-340.1691529999999943
11
503.2647799999999734
21
-340.1299159999999802
0
LINE
8
BLACK
6
CONTINUOUS
10
503.2647799999999734
20
-340.1299159999999802
11
503.6152199999999652
21
-340.1299159999999802
0
LINE
8
BLACK
6
CONTINUOUS
10
503.6152199999999652
20
-340.1299159999999802
11
503.9634570000000053
21
-340.1691529999999943
0
LINE
8
BLACK
6
CONTINUOUS
10
500.3649999999999523
20
-343.4226879999999937
11
500.4036699999999769
21
-343.7658930000000055
0
LINE
8
BLACK
6
CONTINUOUS
10
500.4036699999999769
20
-343.7658930000000055
11
500.4805240000000026
21
-344.1026099999999701
0
LINE
8
BLACK
6
CONTINUOUS
10
500.4805240000000026
20
-344.1026099999999701
11
500.5945939999999723
21
-344.428606000000002
0
LINE
8
BLACK
6
CONTINUOUS
10
500.5945939999999723
20
-344.428606000000002
11
500.7444479999999771
21
-344.7397789999999986
0
LINE
8
BLACK
6
CONTINUOUS
10
500.7444479999999771
20
-344.7397789999999986
11
500.9281989999999496
21
-345.0322180000000003
0
LINE
8
BLACK
6
CONTINUOUS
10
500.9281989999999496
20
-345.0322180000000003
11
501.1435379999999782
21
-345.3022439999999733
0
LINE
8
BLACK
6
CONTINUOUS
10
501.1435379999999782
20
-345.3022439999999733
11
501.3877559999999676
21
-345.5464619999999627
0
LINE
8
BLACK
6
CONTINUOUS
10
501.3877559999999676
20
-345.5464619999999627
11
501.6577819999999974
21
-345.7618009999999913
0
LINE
8
BLACK
6
CONTINUOUS
10
501.6577819999999974
20
-345.7618009999999913
11
501.9502209999999991
21
-345.9455519999999638
0
LINE
8
BLACK
6
CONTINUOUS
10
501.9502209999999991
20
-345.9455519999999638
11
502.2613939999999957
21
-346.0954059999999686
0
LINE
8
BLACK
6
CONTINUOUS
10
502.2613939999999957
20
-346.0954059999999686
11
502.5873899999999708
21
-346.2094759999999951
0
LINE
8
BLACK
6
CONTINUOUS
10
502.5873899999999708
20
-346.2094759999999951
11
502.9241069999999922
21
-346.286329999999964
0
LINE
8
BLACK
6
CONTINUOUS
10
502.9241069999999922
20
-346.286329999999964
11
503.267312000000004
21
-346.3249999999999886
0
LINE
8
BLACK
6
CONTINUOUS
10
503.267312000000004
20
-346.3249999999999886
11
503.6126879999999915
21
-346.3249999999999886
0
LINE
8
BLACK
6
CONTINUOUS
10
503.6126879999999915
20
-346.3249999999999886
11
503.9558930000000032
21
-346.286329999999964
0
LINE
8
BLACK
6
CONTINUOUS
10
503.9558930000000032
20
-346.286329999999964
11
504.2926099999999678
21
-346.2094759999999951
0
LINE
8
BLACK
6
CONTINUOUS
10
504.2926099999999678
20
-346.2094759999999951
11
504.6186059999999998
21
-346.0954059999999686
0
LINE
8
BLACK
6
CONTINUOUS
10
504.6186059999999998
20
-346.0954059999999686
11
504.9297789999999964
21
-345.9455519999999638
0
LINE
8
BLACK
6
CONTINUOUS
10
504.9297789999999964
20
-345.9455519999999638
11
505.222217999999998
21
-345.7618009999999913
0
LINE
8
BLACK
6
CONTINUOUS
10
505.222217999999998
20
-345.7618009999999913
11
505.492243999999971
21
-345.5464619999999627
0
LINE
8
BLACK
6
CONTINUOUS
10
505.492243999999971
20
-345.5464619999999627
11
505.7364619999999604
21
-345.3022439999999733
0
LINE
8
BLACK
6
CONTINUOUS
10
505.7364619999999604
20
-345.3022439999999733
11
505.951800999999989
21
-345.0322180000000003
0
LINE
8
BLACK
6
CONTINUOUS
10
505.951800999999989
20
-345.0322180000000003
11
506.1355519999999615
21
-344.7397789999999986
0
LINE
8
BLACK
6
CONTINUOUS
10
506.1355519999999615
20
-344.7397789999999986
11
506.2854059999999663
21
-344.428606000000002
0
LINE
8
BLACK
6
CONTINUOUS
10
506.2854059999999663
20
-344.428606000000002
11
506.3994759999999928
21
-344.1026099999999701
0
LINE
8
BLACK
6
CONTINUOUS
10
506.3994759999999928
20
-344.1026099999999701
11
506.4763299999999617
21
-343.7658930000000055
0
LINE
8
BLACK
6
CONTINUOUS
10
506.4763299999999617
20
-343.7658930000000055
11
506.5149999999999864
21
-343.4226879999999937
0
LINE
8
BLACK
6
CONTINUOUS
10
506.5149999999999864
20
-343.4226879999999937
11
506.5149999999999864
21
-343.0773120000000063
0
LINE
8
BLACK
6
CONTINUOUS
10
506.5149999999999864
20
-343.0773120000000063
11
506.4763299999999617
21
-342.7341069999999945
0
LINE
8
BLACK
6
CONTINUOUS
10
506.4763299999999617
20
-342.7341069999999945
11
506.3994759999999928
21
-342.397389999999973
0
LINE
8
BLACK
6
CONTINUOUS
10
506.3994759999999928
20
-342.397389999999973
11
506.2854059999999663
21
-342.071393999999998
0
LINE
8
BLACK
6
CONTINUOUS
10
506.2854059999999663
20
-342.071393999999998
11
506.1355519999999615
21
-341.7602210000000014
0
LINE
8
BLACK
6
CONTINUOUS
10
506.1355519999999615
20
-341.7602210000000014
11
505.951800999999989
21
-341.4677819999999997
0
LINE
8
BLACK
6
CONTINUOUS
10
505.951800999999989
20
-341.4677819999999997
11
505.7364619999999604
21
-341.1977559999999698
0
LINE
8
BLACK
6
CONTINUOUS
10
505.7364619999999604
20
-341.1977559999999698
11
505.492243999999971
21
-340.9535379999999805
0
LINE
8
BLACK
6
CONTINUOUS
10
505.492243999999971
20
-340.9535379999999805
11
505.222217999999998
21
-340.7381990000000087
0
LINE
8
BLACK
6
CONTINUOUS
10
505.222217999999998
20
-340.7381990000000087
11
504.9297789999999964
21
-340.5544479999999794
0
LINE
8
BLACK
6
CONTINUOUS
10
504.9297789999999964
20
-340.5544479999999794
11
504.6186059999999998
21
-340.4045939999999746
0
LINE
8
BLACK
6
CONTINUOUS
10
504.6186059999999998
20
-340.4045939999999746
11
504.2926099999999678
21
-340.2905240000000049
0
LINE
8
BLACK
6
CONTINUOUS
10
504.2926099999999678
20
-340.2905240000000049
11
503.9558930000000032
21
-340.2136699999999792
0
LINE
8
BLACK
6
CONTINUOUS
10
503.9558930000000032
20
-340.2136699999999792
11
503.6126879999999915
21
-340.1750000000000114
0
LINE
8
BLACK
6
CONTINUOUS
10
503.6126879999999915
20
-340.1750000000000114
11
503.267312000000004
21
-340.1750000000000114
0
LINE
8
BLACK
6
CONTINUOUS
10
503.267312000000004
20
-340.1750000000000114
11
502.9241069999999922
21
-340.2136699999999792
0
LINE
8
BLACK
6
CONTINUOUS
10
502.9241069999999922
20
-340.2136699999999792
11
502.5873899999999708
21
-340.2905240000000049
0
LINE
8
BLACK
6
CONTINUOUS
10
502.5873899999999708
20
-340.2905240000000049
11
502.2613939999999957
21
-340.4045939999999746
0
LINE
8
BLACK
6
CONTINUOUS
10
502.2613939999999957
20
-340.4045939999999746
11
501.9502209999999991
21
-340.5544479999999794
0
LINE
8
BLACK
6
CONTINUOUS
10
501.9502209999999991
20
-340.5544479999999794
11
501.6577819999999974
21
-340.7381990000000087
0
LINE
8
BLACK
6
CONTINUOUS
10
501.6577819999999974
20
-340.7381990000000087
11
501.3877559999999676
21
-340.9535379999999805
0
LINE
8
BLACK
6
CONTINUOUS
10
501.3877559999999676
20
-340.9535379999999805
11
501.1435379999999782
21
-341.1977559999999698
0
LINE
8
BLACK
6
CONTINUOUS
10
501.1435379999999782
20
-341.1977559999999698
11
500.9281989999999496
21
-341.4677819999999997
0
LINE
8
BLACK
6
CONTINUOUS
10
500.9281989999999496
20
-341.4677819999999997
11
500.7444479999999771
21
-341.7602210000000014
0
LINE
8
BLACK
6
CONTINUOUS
10
500.7444479999999771
20
-341.7602210000000014
11
500.5945939999999723
21
-342.071393999999998
0
LINE
8
BLACK
6
CONTINUOUS
10
500.5945939999999723
20
-342.071393999999998
11
500.4805240000000026
21
-342.397389999999973
0
LINE
8
BLACK
6
CONTINUOUS
10
500.4805240000000026
20
-342.397389999999973
11
500.4036699999999769
21
-342.7341069999999945
0
LINE
8
BLACK
6
CONTINUOUS
10
500.4036699999999769
20
-342.7341069999999945
11
500.3649999999999523
21
-343.0773120000000063
0
LINE
8
BLACK
6
CONTINUOUS
10
500.3649999999999523
20
-343.0773120000000063
11
500.3649999999999523
21
-343.4226879999999937
0
LINE
8
BLACK
6
CONTINUOUS
10
451.2134570000000053
20
-337.8791529999999739
11
451.5551109999999539
21
-337.9571329999999989
0
LINE
8
BLACK
6
CONTINUOUS
10
451.5551109999999539
20
-337.9571329999999989
11
451.8858859999999709
21
-338.0728760000000079
0
LINE
8
BLACK
6
CONTINUOUS
10
451.8858859999999709
20
-338.0728760000000079
11
452.2016219999999862
21
-338.2249269999999797
0
LINE
8
BLACK
6
CONTINUOUS
10
452.2016219999999862
20
-338.2249269999999797
11
452.4983479999999645
21
-338.4113719999999716
0
LINE
8
BLACK
6
CONTINUOUS
10
452.4983479999999645
20
-338.4113719999999716
11
452.7723330000000033
21
-338.6298679999999877
0
LINE
8
BLACK
6
CONTINUOUS
10
452.7723330000000033
20
-338.6298679999999877
11
453.0201319999999896
21
-338.877666999999974
0
LINE
8
BLACK
6
CONTINUOUS
10
453.0201319999999896
20
-338.877666999999974
11
453.2386280000000056
21
-339.1516520000000128
0
LINE
8
BLACK
6
CONTINUOUS
10
453.2386280000000056
20
-339.1516520000000128
11
453.4250729999999976
21
-339.4483779999999911
0
LINE
8
BLACK
6
CONTINUOUS
10
453.4250729999999976
20
-339.4483779999999911
11
453.5771239999999693
21
-339.7641140000000064
0
LINE
8
BLACK
6
CONTINUOUS
10
453.5771239999999693
20
-339.7641140000000064
11
453.6928669999999784
21
-340.0948889999999665
0
LINE
8
BLACK
6
CONTINUOUS
10
453.6928669999999784
20
-340.0948889999999665
11
453.7708470000000034
21
-340.4365429999999719
0
LINE
8
BLACK
6
CONTINUOUS
10
453.7708470000000034
20
-340.4365429999999719
11
453.8100839999999607
21
-340.784780000000012
0
LINE
8
BLACK
6
CONTINUOUS
10
453.8100839999999607
20
-340.784780000000012
11
453.8100839999999607
21
-341.1352200000000039
0
LINE
8
BLACK
6
CONTINUOUS
10
453.8100839999999607
20
-341.1352200000000039
11
453.7708470000000034
21
-341.4834569999999871
0
LINE
8
BLACK
6
CONTINUOUS
10
453.7708470000000034
20
-341.4834569999999871
11
453.6928669999999784
21
-341.8251109999999926
0
LINE
8
BLACK
6
CONTINUOUS
10
453.6928669999999784
20
-341.8251109999999926
11
453.5771239999999693
21
-342.1558860000000095
0
LINE
8
BLACK
6
CONTINUOUS
10
453.5771239999999693
20
-342.1558860000000095
11
453.4250729999999976
21
-342.471621999999968
0
LINE
8
BLACK
6
CONTINUOUS
10
453.4250729999999976
20
-342.471621999999968
11
453.2386280000000056
21
-342.7683480000000031
0
LINE
8
BLACK
6
CONTINUOUS
10
453.2386280000000056
20
-342.7683480000000031
11
453.0201319999999896
21
-343.0423329999999851
0
LINE
8
BLACK
6
CONTINUOUS
10
453.0201319999999896
20
-343.0423329999999851
11
452.7723330000000033
21
-343.2901319999999714
0
LINE
8
BLACK
6
CONTINUOUS
10
452.7723330000000033
20
-343.2901319999999714
11
452.4983479999999645
21
-343.5086279999999874
0
LINE
8
BLACK
6
CONTINUOUS
10
452.4983479999999645
20
-343.5086279999999874
11
452.2016219999999862
21
-343.6950729999999794
0
LINE
8
BLACK
6
CONTINUOUS
10
452.2016219999999862
20
-343.6950729999999794
11
451.8858859999999709
21
-343.847124000000008
0
LINE
8
BLACK
6
CONTINUOUS
10
451.8858859999999709
20
-343.847124000000008
11
451.5551109999999539
21
-343.9628669999999602
0
LINE
8
BLACK
6
CONTINUOUS
10
451.5551109999999539
20
-343.9628669999999602
11
451.2134570000000053
21
-344.0408469999999852
0
LINE
8
BLACK
6
CONTINUOUS
10
451.2134570000000053
20
-344.0408469999999852
11
450.8652199999999652
21
-344.0800839999999994
0
LINE
8
BLACK
6
CONTINUOUS
10
450.8652199999999652
20
-344.0800839999999994
11
450.5147799999999734
21
-344.0800839999999994
0
LINE
8
BLACK
6
CONTINUOUS
10
450.5147799999999734
20
-344.0800839999999994
11
450.1665429999999901
21
-344.0408469999999852
0
LINE
8
BLACK
6
CONTINUOUS
10
450.1665429999999901
20
-344.0408469999999852
11
449.8248889999999847
21
-343.9628669999999602
0
LINE
8
BLACK
6
CONTINUOUS
10
449.8248889999999847
20
-343.9628669999999602
11
449.4941139999999677
21
-343.847124000000008
0
LINE
8
BLACK
6
CONTINUOUS
10
449.4941139999999677
20
-343.847124000000008
11
449.1783779999999524
21
-343.6950729999999794
0
LINE
8
BLACK
6
CONTINUOUS
10
449.1783779999999524
20
-343.6950729999999794
11
448.8816519999999741
21
-343.5086279999999874
0
LINE
8
BLACK
6
CONTINUOUS
10
448.8816519999999741
20
-343.5086279999999874
11
448.6076669999999922
21
-343.2901319999999714
0
LINE
8
BLACK
6
CONTINUOUS
10
448.6076669999999922
20
-343.2901319999999714
11
448.3598680000000058
21
-343.0423329999999851
0
LINE
8
BLACK
6
CONTINUOUS
10
448.3598680000000058
20
-343.0423329999999851
11
448.1413719999999898
21
-342.7683480000000031
0
LINE
8
BLACK
6
CONTINUOUS
10
448.1413719999999898
20
-342.7683480000000031
11
447.9549269999999979
21
-342.471621999999968
0
LINE
8
BLACK
6
CONTINUOUS
10
447.9549269999999979
20
-342.471621999999968
11
447.8028759999999693
21
-342.1558860000000095
0
LINE
8
BLACK
6
CONTINUOUS
10
447.8028759999999693
20
-342.1558860000000095
11
447.6871329999999602
21
-341.8251109999999926
0
LINE
8
BLACK
6
CONTINUOUS
10
447.6871329999999602
20
-341.8251109999999926
11
447.6091529999999921
21
-341.4834569999999871
0
LINE
8
BLACK
6
CONTINUOUS
10
447.6091529999999921
20
-341.4834569999999871
11
447.5699159999999779
21
-341.1352200000000039
0
LINE
8
BLACK
6
CONTINUOUS
10
447.5699159999999779
20
-341.1352200000000039
11
447.5699159999999779
21
-340.7873119999999858
0
LINE
8
BLACK
6
CONTINUOUS
10
447.5699159999999779
20
-340.7873119999999858
11
447.5699159999999779
21
-340.784780000000012
0
LINE
8
BLACK
6
CONTINUOUS
10
447.5699159999999779
20
-340.784780000000012
11
447.6091529999999921
21
-340.4365429999999719
0
LINE
8
BLACK
6
CONTINUOUS
10
447.6091529999999921
20
-340.4365429999999719
11
447.6871329999999602
21
-340.0948889999999665
0
LINE
8
BLACK
6
CONTINUOUS
10
447.6871329999999602
20
-340.0948889999999665
11
447.8028759999999693
21
-339.7641140000000064
0
LINE
8
BLACK
6
CONTINUOUS
10
447.8028759999999693
20
-339.7641140000000064
11
447.9549269999999979
21
-339.4483779999999911
0
LINE
8
BLACK
6
CONTINUOUS
10
447.9549269999999979
20
-339.4483779999999911
11
448.1413719999999898
21
-339.1516520000000128
0
LINE
8
BLACK
6
CONTINUOUS
10
448.1413719999999898
20
-339.1516520000000128
11
448.3598680000000058
21
-338.877666999999974
0
LINE
8
BLACK
6
CONTINUOUS
10
448.3598680000000058
20
-338.877666999999974
11
448.6076669999999922
21
-338.6298679999999877
0
LINE
8
BLACK
6
CONTINUOUS
10
448.6076669999999922
20
-338.6298679999999877
11
448.8816519999999741
21
-338.4113719999999716
0
LINE
8
BLACK
6
CONTINUOUS
10
448.8816519999999741
20
-338.4113719999999716
11
449.1783779999999524
21
-338.2249269999999797
0
LINE
8
BLACK
6
CONTINUOUS
10
449.1783779999999524
20
-338.2249269999999797
11
449.4941139999999677
21
-338.0728760000000079
0
LINE
8
BLACK
6
CONTINUOUS
10
449.4941139999999677
20
-338.0728760000000079
11
449.8248889999999847
21
-337.9571329999999989
0
LINE
8
BLACK
6
CONTINUOUS
10
449.8248889999999847
20
-337.9571329999999989
11
450.1665429999999901
21
-337.8791529999999739
0
LINE
8
BLACK
6
CONTINUOUS
10
450.1665429999999901
20
-337.8791529999999739
11
450.5147799999999734
21
-337.8399159999999597
0
LINE
8
BLACK
6
CONTINUOUS
10
450.5147799999999734
20
-337.8399159999999597
11
450.8652199999999652
21
-337.8399159999999597
0
LINE
8
BLACK
6
CONTINUOUS
10
450.8652199999999652
20
-337.8399159999999597
11
451.2134570000000053
21
-337.8791529999999739
0
LINE
8
BLACK
6
CONTINUOUS
10
447.6149999999999523
20
-341.1326879999999733
11
447.6536699999999769
21
-341.475892999999985
0
LINE
8
BLACK
6
CONTINUOUS
10
447.6536699999999769
20
-341.475892999999985
11
447.7305240000000026
21
-341.8126100000000065
0
LINE
8
BLACK
6
CONTINUOUS
10
447.7305240000000026
20
-341.8126100000000065
11
447.8445939999999723
21
-342.1386059999999816
0
LINE
8
BLACK
6
CONTINUOUS
10
447.8445939999999723
20
-342.1386059999999816
11
447.9944479999999771
21
-342.4497789999999782
0
LINE
8
BLACK
6
CONTINUOUS
10
447.9944479999999771
20
-342.4497789999999782
11
448.1781990000000064
21
-342.7422179999999798
0
LINE
8
BLACK
6
CONTINUOUS
10
448.1781990000000064
20
-342.7422179999999798
11
448.3935379999999782
21
-343.0122440000000097
0
LINE
8
BLACK
6
CONTINUOUS
10
448.3935379999999782
20
-343.0122440000000097
11
448.6377559999999676
21
-343.2564619999999991
0
LINE
8
BLACK
6
CONTINUOUS
10
448.6377559999999676
20
-343.2564619999999991
11
448.9077819999999974
21
-343.4718009999999708
0
LINE
8
BLACK
6
CONTINUOUS
10
448.9077819999999974
20
-343.4718009999999708
11
449.2002209999999991
21
-343.6555520000000001
0
LINE
8
BLACK
6
CONTINUOUS
10
449.2002209999999991
20
-343.6555520000000001
11
449.5113939999999957
21
-343.805406000000005
0
LINE
8
BLACK
6
CONTINUOUS
10
449.5113939999999957
20
-343.805406000000005
11
449.8373899999999708
21
-343.9194759999999746
0
LINE
8
BLACK
6
CONTINUOUS
10
449.8373899999999708
20
-343.9194759999999746
11
450.1741069999999922
21
-343.9963300000000004
0
LINE
8
BLACK
6
CONTINUOUS
10
450.1741069999999922
20
-343.9963300000000004
11
450.517312000000004
21
-344.0349999999999682
0
LINE
8
BLACK
6
CONTINUOUS
10
450.517312000000004
20
-344.0349999999999682
11
450.8626879999999915
21
-344.0349999999999682
0
LINE
8
BLACK
6
CONTINUOUS
10
450.8626879999999915
20
-344.0349999999999682
11
451.2058930000000032
21
-343.9963300000000004
0
LINE
8
BLACK
6
CONTINUOUS
10
451.2058930000000032
20
-343.9963300000000004
11
451.5426099999999678
21
-343.9194759999999746
0
LINE
8
BLACK
6
CONTINUOUS
10
451.5426099999999678
20
-343.9194759999999746
11
451.8686059999999998
21
-343.805406000000005
0
LINE
8
BLACK
6
CONTINUOUS
10
451.8686059999999998
20
-343.805406000000005
11
452.1797789999999964
21
-343.6555520000000001
0
LINE
8
BLACK
6
CONTINUOUS
10
452.1797789999999964
20
-343.6555520000000001
11
452.472217999999998
21
-343.4718009999999708
0
LINE
8
BLACK
6
CONTINUOUS
10
452.472217999999998
20
-343.4718009999999708
11
452.742243999999971
21
-343.2564619999999991
0
LINE
8
BLACK
6
CONTINUOUS
10
452.742243999999971
20
-343.2564619999999991
11
452.9864619999999604
21
-343.0122440000000097
0
LINE
8
BLACK
6
CONTINUOUS
10
452.9864619999999604
20
-343.0122440000000097
11
453.201800999999989
21
-342.7422179999999798
0
LINE
8
BLACK
6
CONTINUOUS
10
453.201800999999989
20
-342.7422179999999798
11
453.3855519999999615
21
-342.4497789999999782
0
LINE
8
BLACK
6
CONTINUOUS
10
453.3855519999999615
20
-342.4497789999999782
11
453.5354059999999663
21
-342.1386059999999816
0
LINE
8
BLACK
6
CONTINUOUS
10
453.5354059999999663
20
-342.1386059999999816
11
453.6494759999999928
21
-341.8126100000000065
0
LINE
8
BLACK
6
CONTINUOUS
10
453.6494759999999928
20
-341.8126100000000065
11
453.7263299999999617
21
-341.475892999999985
0
LINE
8
BLACK
6
CONTINUOUS
10
453.7263299999999617
20
-341.475892999999985
11
453.7649999999999864
21
-341.1326879999999733
0
LINE
8
BLACK
6
CONTINUOUS
10
453.7649999999999864
20
-341.1326879999999733
11
453.7649999999999864
21
-340.7873119999999858
0
LINE
8
BLACK
6
CONTINUOUS
10
453.7649999999999864
20
-340.7873119999999858
11
453.7263299999999617
21
-340.4441069999999741
0
LINE
8
BLACK
6
CONTINUOUS
10
453.7263299999999617
20
-340.4441069999999741
11
453.6494759999999928
21
-340.1073900000000094
0
LINE
8
BLACK
6
CONTINUOUS
10
453.6494759999999928
20
-340.1073900000000094
11
453.5354059999999663
21
-339.7813939999999775
0
LINE
8
BLACK
6
CONTINUOUS
10
453.5354059999999663
20
-339.7813939999999775
11
453.3855519999999615
21
-339.4702209999999809
0
LINE
8
BLACK
6
CONTINUOUS
10
453.3855519999999615
20
-339.4702209999999809
11
453.201800999999989
21
-339.1777819999999792
0
LINE
8
BLACK
6
CONTINUOUS
10
453.201800999999989
20
-339.1777819999999792
11
452.9864619999999604
21
-338.9077560000000062
0
LINE
8
BLACK
6
CONTINUOUS
10
452.9864619999999604
20
-338.9077560000000062
11
452.742243999999971
21
-338.66353799999996
0
LINE
8
BLACK
6
CONTINUOUS
10
452.742243999999971
20
-338.66353799999996
11
452.472217999999998
21
-338.4481989999999882
0
LINE
8
BLACK
6
CONTINUOUS
10
452.472217999999998
20
-338.4481989999999882
11
452.1797789999999964
21
-338.2644479999999589
0
LINE
8
BLACK
6
CONTINUOUS
10
452.1797789999999964
20
-338.2644479999999589
11
451.8686059999999998
21
-338.114594000000011
0
LINE
8
BLACK
6
CONTINUOUS
10
451.8686059999999998
20
-338.114594000000011
11
451.5426099999999678
21
-338.0005239999999844
0
LINE
8
BLACK
6
CONTINUOUS
10
451.5426099999999678
20
-338.0005239999999844
11
451.2058930000000032
21
-337.9236699999999587
0
LINE
8
BLACK
6
CONTINUOUS
10
451.2058930000000032
20
-337.9236699999999587
11
450.8626879999999915
21
-337.8849999999999909
0
LINE
8
BLACK
6
CONTINUOUS
10
450.8626879999999915
20
-337.8849999999999909
11
450.517312000000004
21
-337.8849999999999909
0
LINE
8
BLACK
6
CONTINUOUS
10
450.517312000000004
20
-337.8849999999999909
11
450.1741069999999922
21
-337.9236699999999587
0
LINE
8
BLACK
6
CONTINUOUS
10
450.1741069999999922
20
-337.9236699999999587
11
449.8373899999999708
21
-338.0005239999999844
0
LINE
8
BLACK
6
CONTINUOUS
10
449.8373899999999708
20
-338.0005239999999844
11
449.5113939999999957
21
-338.114594000000011
0
LINE
8
BLACK
6
CONTINUOUS
10
449.5113939999999957
20
-338.114594000000011
11
449.2002209999999991
21
-338.2644479999999589
0
LINE
8
BLACK
6
CONTINUOUS
10
449.2002209999999991
20
-338.2644479999999589
11
448.9077819999999974
21
-338.4481989999999882
0
LINE
8
BLACK
6
CONTINUOUS
10
448.9077819999999974
20
-338.4481989999999882
11
448.6377559999999676
21
-338.66353799999996
0
LINE
8
BLACK
6
CONTINUOUS
10
448.6377559999999676
20
-338.66353799999996
11
448.3935379999999782
21
-338.9077560000000062
0
LINE
8
BLACK
6
CONTINUOUS
10
448.3935379999999782
20
-338.9077560000000062
11
448.1781990000000064
21
-339.1777819999999792
0
LINE
8
BLACK
6
CONTINUOUS
10
448.1781990000000064
20
-339.1777819999999792
11
447.9944479999999771
21
-339.4702209999999809
0
LINE
8
BLACK
6
CONTINUOUS
10
447.9944479999999771
20
-339.4702209999999809
11
447.8445939999999723
21
-339.7813939999999775
0
LINE
8
BLACK
6
CONTINUOUS
10
447.8445939999999723
20
-339.7813939999999775
11
447.7305240000000026
21
-340.1073900000000094
0
LINE
8
BLACK
6
CONTINUOUS
10
447.7305240000000026
20
-340.1073900000000094
11
447.6536699999999769
21
-340.4441069999999741
0
LINE
8
BLACK
6
CONTINUOUS
10
447.6536699999999769
20
-340.4441069999999741
11
447.6149999999999523
21
-340.7873119999999858
0
LINE
8
BLACK
6
CONTINUOUS
10
447.6149999999999523
20
-340.7873119999999858
11
447.6149999999999523
21
-341.1326879999999733
0
LINE
8
BLACK
6
CONTINUOUS
10
467.4995669999999564
20
-325.0869030000000066
11
467.5130969999999593
21
-325.1004330000000095
0
LINE
8
BLACK
6
CONTINUOUS
10
467.5130969999999593
20
-325.1004330000000095
11
467.5149999999999864
21
-325.1100000000000136
0
LINE
8
BLACK
6
CONTINUOUS
10
467.5149999999999864
20
-325.1100000000000136
11
467.5149999999999864
21
-338.3100000000000023
0
LINE
8
BLACK
6
CONTINUOUS
10
467.5149999999999864
20
-338.3100000000000023
11
467.5130969999999593
21
-338.3195670000000064
0
LINE
8
BLACK
6
CONTINUOUS
10
467.5130969999999593
20
-338.3195670000000064
11
467.4995669999999564
21
-338.3330970000000093
0
LINE
8
BLACK
6
CONTINUOUS
10
467.4995669999999564
20
-338.3330970000000093
11
467.4899999999999523
21
-338.3349999999999795
0
LINE
8
BLACK
6
CONTINUOUS
10
467.4899999999999523
20
-338.3349999999999795
11
454.2899999999999636
21
-338.3349999999999795
0
LINE
8
BLACK
6
CONTINUOUS
10
454.2899999999999636
20
-338.3349999999999795
11
454.2804329999999595
21
-338.3330970000000093
0
LINE
8
BLACK
6
CONTINUOUS
10
454.2804329999999595
20
-338.3330970000000093
11
454.2669029999999566
21
-338.3195670000000064
0
LINE
8
BLACK
6
CONTINUOUS
10
454.2669029999999566
20
-338.3195670000000064
11
454.2649999999999864
21
-338.3100000000000023
0
LINE
8
BLACK
6
CONTINUOUS
10
454.2649999999999864
20
-338.3100000000000023
11
454.2649999999999864
21
-325.1100000000000136
0
LINE
8
BLACK
6
CONTINUOUS
10
454.2649999999999864
20
-325.1100000000000136
11
454.2669029999999566
21
-325.1004330000000095
0
LINE
8
BLACK
6
CONTINUOUS
10
454.2669029999999566
20
-325.1004330000000095
11
454.2804329999999595
21
-325.0869030000000066
0
LINE
8
BLACK
6
CONTINUOUS
10
454.2804329999999595
20
-325.0869030000000066
11
454.2899999999999636
21
-325.0849999999999795
0
LINE
8
BLACK
6
CONTINUOUS
10
454.2899999999999636
20
-325.0849999999999795
11
467.4899999999999523
21
-325.0849999999999795
0
LINE
8
BLACK
6
CONTINUOUS
10
467.4899999999999523
20
-325.0849999999999795
11
467.4995669999999564
21
-325.0869030000000066
0
LINE
8
BLACK
6
CONTINUOUS
10
454.3149999999999977
20
-325.1349999999999909
11
454.3149999999999977
21
-338.2849999999999682
0
LINE
8
BLACK
6
CONTINUOUS
10
454.3149999999999977
20
-338.2849999999999682
11
467.464999999999975
21
-338.2849999999999682
0
LINE
8
BLACK
6
CONTINUOUS
10
467.464999999999975
20
-338.2849999999999682
11
467.464999999999975
21
-325.1349999999999909
0
LINE
8
BLACK
6
CONTINUOUS
10
467.464999999999975
20
-325.1349999999999909
11
454.3149999999999977
21
-325.1349999999999909
0
LINE
8
BLACK
6
CONTINUOUS
10
515.78956699999992
20
-325.0869030000000066
11
515.8030969999999797
21
-325.1004330000000095
0
LINE
8
BLACK
6
CONTINUOUS
10
515.8030969999999797
20
-325.1004330000000095
11
515.80499999999995
21
-325.1100000000000136
0
LINE
8
BLACK
6
CONTINUOUS
10
515.80499999999995
20
-325.1100000000000136
11
515.80499999999995
21
-338.3100000000000023
0
LINE
8
BLACK
6
CONTINUOUS
10
515.80499999999995
20
-338.3100000000000023
11
515.8030969999999797
21
-338.3195670000000064
0
LINE
8
BLACK
6
CONTINUOUS
10
515.8030969999999797
20
-338.3195670000000064
11
515.78956699999992
21
-338.3330970000000093
0
LINE
8
BLACK
6
CONTINUOUS
10
515.78956699999992
20
-338.3330970000000093
11
515.7799999999999727
21
-338.3349999999999795
0
LINE
8
BLACK
6
CONTINUOUS
10
515.7799999999999727
20
-338.3349999999999795
11
502.5799999999999841
21
-338.3349999999999795
0
LINE
8
BLACK
6
CONTINUOUS
10
502.5799999999999841
20
-338.3349999999999795
11
502.57043299999998
21
-338.3330970000000093
0
LINE
8
BLACK
6
CONTINUOUS
10
502.57043299999998
20
-338.3330970000000093
11
502.5569029999999771
21
-338.3195670000000064
0
LINE
8
BLACK
6
CONTINUOUS
10
502.5569029999999771
20
-338.3195670000000064
11
502.55499999999995
21
-338.3100000000000023
0
LINE
8
BLACK
6
CONTINUOUS
10
502.55499999999995
20
-338.3100000000000023
11
502.55499999999995
21
-325.1100000000000136
0
LINE
8
BLACK
6
CONTINUOUS
10
502.55499999999995
20
-325.1100000000000136
11
502.5569029999999771
21
-325.1004330000000095
0
LINE
8
BLACK
6
CONTINUOUS
10
502.5569029999999771
20
-325.1004330000000095
11
502.57043299999998
21
-325.0869030000000066
0
LINE
8
BLACK
6
CONTINUOUS
10
502.57043299999998
20
-325.0869030000000066
11
502.5799999999999841
21
-325.0849999999999795
0
LINE
8
BLACK
6
CONTINUOUS
10
502.5799999999999841
20
-325.0849999999999795
11
515.7799999999999727
21
-325.0849999999999795
0
LINE
8
BLACK
6
CONTINUOUS
10
515.7799999999999727
20
-325.0849999999999795
11
515.78956699999992
21
-325.0869030000000066
0
LINE
8
BLACK
6
CONTINUOUS
10
502.6049999999999613
20
-325.1349999999999909
11
502.6049999999999613
21
-338.2849999999999682
0
LINE
8
BLACK
6
CONTINUOUS
10
502.6049999999999613
20
-338.2849999999999682
11
515.7549999999999955
21
-338.2849999999999682
0
LINE
8
BLACK
6
CONTINUOUS
10
515.7549999999999955
20
-338.2849999999999682
11
515.7549999999999955
21
-325.1349999999999909
0
LINE
8
BLACK
6
CONTINUOUS
10
515.7549999999999955
20
-325.1349999999999909
11
502.6049999999999613
21
-325.1349999999999909
0
LINE
8
BLACK
6
CONTINUOUS
10
486.9395669999999541
20
-325.0769029999999589
11
486.953096999999957
21
-325.0904329999999618
0
LINE
8
BLACK
6
CONTINUOUS
10
486.953096999999957
20
-325.0904329999999618
11
486.9549999999999841
21
-325.0999999999999659
0
LINE
8
BLACK
6
CONTINUOUS
10
486.9549999999999841
20
-325.0999999999999659
11
486.9549999999999841
21
-338.3000000000000114
0
LINE
8
BLACK
6
CONTINUOUS
10
486.9549999999999841
20
-338.3000000000000114
11
486.953096999999957
21
-338.3095669999999586
0
LINE
8
BLACK
6
CONTINUOUS
10
486.953096999999957
20
-338.3095669999999586
11
486.9395669999999541
21
-338.3230969999999616
0
LINE
8
BLACK
6
CONTINUOUS
10
486.9395669999999541
20
-338.3230969999999616
11
486.92999999999995
21
-338.3249999999999886
0
LINE
8
BLACK
6
CONTINUOUS
10
486.92999999999995
20
-338.3249999999999886
11
473.7299999999999613
21
-338.3249999999999886
0
LINE
8
BLACK
6
CONTINUOUS
10
473.7299999999999613
20
-338.3249999999999886
11
473.7204329999999572
21
-338.3230969999999616
0
LINE
8
BLACK
6
CONTINUOUS
10
473.7204329999999572
20
-338.3230969999999616
11
473.7069029999999543
21
-338.3095669999999586
0
LINE
8
BLACK
6
CONTINUOUS
10
473.7069029999999543
20
-338.3095669999999586
11
473.7049999999999841
21
-338.3000000000000114
0
LINE
8
BLACK
6
CONTINUOUS
10
473.7049999999999841
20
-338.3000000000000114
11
473.7049999999999841
21
-325.0999999999999659
0
LINE
8
BLACK
6
CONTINUOUS
10
473.7049999999999841
20
-325.0999999999999659
11
473.7069029999999543
21
-325.0904329999999618
0
LINE
8
BLACK
6
CONTINUOUS
10
473.7069029999999543
20
-325.0904329999999618
11
473.7204329999999572
21
-325.0769029999999589
0
LINE
8
BLACK
6
CONTINUOUS
10
473.7204329999999572
20
-325.0769029999999589
11
473.7299999999999613
21
-325.0749999999999886
0
LINE
8
BLACK
6
CONTINUOUS
10
473.7299999999999613
20
-325.0749999999999886
11
486.92999999999995
21
-325.0749999999999886
0
LINE
8
BLACK
6
CONTINUOUS
10
486.92999999999995
20
-325.0749999999999886
11
486.9395669999999541
21
-325.0769029999999589
0
LINE
8
BLACK
6
CONTINUOUS
10
473.7549999999999955
20
-325.125
11
473.7549999999999955
21
-338.2749999999999773
0
LINE
8
BLACK
6
CONTINUOUS
10
473.7549999999999955
20
-338.2749999999999773
11
486.9049999999999727
21
-338.2749999999999773
0
LINE
8
BLACK
6
CONTINUOUS
10
486.9049999999999727
20
-338.2749999999999773
11
486.9049999999999727
21
-325.125
0
LINE
8
BLACK
6
CONTINUOUS
10
486.9049999999999727
20
-325.125
11
473.7549999999999955
21
-325.125
0
LINE
8
BLACK
6
CONTINUOUS
10
448.2095669999999927
20
-325.0469029999999862
11
448.2230969999999957
21
-325.0604329999999891
0
LINE
8
BLACK
6
CONTINUOUS
10
448.2230969999999957
20
-325.0604329999999891
11
448.2249999999999659
21
-325.0699999999999932
0
LINE
8
BLACK
6
CONTINUOUS
10
448.2249999999999659
20
-325.0699999999999932
11
448.2249999999999659
21
-338.2699999999999818
0
LINE
8
BLACK
6
CONTINUOUS
10
448.2249999999999659
20
-338.2699999999999818
11
448.2230969999999957
21
-338.2795669999999859
0
LINE
8
BLACK
6
CONTINUOUS
10
448.2230969999999957
20
-338.2795669999999859
11
448.2095669999999927
21
-338.2930969999999888
0
LINE
8
BLACK
6
CONTINUOUS
10
448.2095669999999927
20
-338.2930969999999888
11
448.1999999999999886
21
-338.2949999999999591
0
LINE
8
BLACK
6
CONTINUOUS
10
448.1999999999999886
20
-338.2949999999999591
11
435.
21
-338.2949999999999591
0
LINE
8
BLACK
6
CONTINUOUS
10
435.
20
-338.2949999999999591
11
434.9904329999999959
21
-338.2930969999999888
0
LINE
8
BLACK
6
CONTINUOUS
10
434.9904329999999959
20
-338.2930969999999888
11
434.976902999999993
21
-338.2795669999999859
0
LINE
8
BLACK
6
CONTINUOUS
10
434.976902999999993
20
-338.2795669999999859
11
434.9749999999999659
21
-338.2699999999999818
0
LINE
8
BLACK
6
CONTINUOUS
10
434.9749999999999659
20
-338.2699999999999818
11
434.9749999999999659
21
-325.0699999999999932
0
LINE
8
BLACK
6
CONTINUOUS
10
434.9749999999999659
20
-325.0699999999999932
11
434.976902999999993
21
-325.0604329999999891
0
LINE
8
BLACK
6
CONTINUOUS
10
434.976902999999993
20
-325.0604329999999891
11
434.9904329999999959
21
-325.0469029999999862
0
LINE
8
BLACK
6
CONTINUOUS
10
434.9904329999999959
20
-325.0469029999999862
11
435.
21
-325.0449999999999591
0
LINE
8
BLACK
6
CONTINUOUS
10
435.
20
-325.0449999999999591
11
448.1999999999999886
21
-325.0449999999999591
0
LINE
8
BLACK
6
CONTINUOUS
10
448.1999999999999886
20
-325.0449999999999591
11
448.2095669999999927
21
-325.0469029999999862
0
LINE
8
BLACK
6
CONTINUOUS
10
435.0249999999999773
20
-325.0949999999999704
11
435.0249999999999773
21
-338.2450000000000045
0
LINE
8
BLACK
6
CONTINUOUS
10
435.0249999999999773
20
-338.2450000000000045
11
448.1749999999999545
21
-338.2450000000000045
0
LINE
8
BLACK
6
CONTINUOUS
10
448.1749999999999545
20
-338.2450000000000045
11
448.1749999999999545
21
-325.0949999999999704
0
LINE
8
BLACK
6
CONTINUOUS
10
448.1749999999999545
20
-325.0949999999999704
11
435.0249999999999773
21
-325.0949999999999704
0
LINE
8
BLACK
6
CONTINUOUS
10
428.9395669999999541
20
-325.0169030000000134
11
428.953096999999957
21
-325.0304329999999595
0
LINE
8
BLACK
6
CONTINUOUS
10
428.953096999999957
20
-325.0304329999999595
11
428.9549999999999841
21
-325.0399999999999636
0
LINE
8
BLACK
6
CONTINUOUS
10
428.9549999999999841
20
-325.0399999999999636
11
428.9549999999999841
21
-338.2400000000000091
0
LINE
8
BLACK
6
CONTINUOUS
10
428.9549999999999841
20
-338.2400000000000091
11
428.953096999999957
21
-338.2495669999999564
0
LINE
8
BLACK
6
CONTINUOUS
10
428.953096999999957
20
-338.2495669999999564
11
428.9395669999999541
21
-338.2630969999999593
0
LINE
8
BLACK
6
CONTINUOUS
10
428.9395669999999541
20
-338.2630969999999593
11
428.9300000000000068
21
-338.2649999999999864
0
LINE
8
BLACK
6
CONTINUOUS
10
428.9300000000000068
20
-338.2649999999999864
11
415.7299999999999613
21
-338.2649999999999864
0
LINE
8
BLACK
6
CONTINUOUS
10
415.7299999999999613
20
-338.2649999999999864
11
415.7204329999999572
21
-338.2630969999999593
0
LINE
8
BLACK
6
CONTINUOUS
10
415.7204329999999572
20
-338.2630969999999593
11
415.7069029999999543
21
-338.2495669999999564
0
LINE
8
BLACK
6
CONTINUOUS
10
415.7069029999999543
20
-338.2495669999999564
11
415.7049999999999841
21
-338.2400000000000091
0
LINE
8
BLACK
6
CONTINUOUS
10
415.7049999999999841
20
-338.2400000000000091
11
415.7049999999999841
21
-325.0399999999999636
0
LINE
8
BLACK
6
CONTINUOUS
10
415.7049999999999841
20
-325.0399999999999636
11
415.7069029999999543
21
-325.0304329999999595
0
LINE
8
BLACK
6
CONTINUOUS
10
415.7069029999999543
20
-325.0304329999999595
11
415.7204329999999572
21
-325.0169030000000134
0
LINE
8
BLACK
6
CONTINUOUS
10
415.7204329999999572
20
-325.0169030000000134
11
415.7299999999999613
21
-325.0149999999999864
0
LINE
8
BLACK
6
CONTINUOUS
10
415.7299999999999613
20
-325.0149999999999864
11
428.9300000000000068
21
-325.0149999999999864
0
LINE
8
BLACK
6
CONTINUOUS
10
428.9300000000000068
20
-325.0149999999999864
11
428.9395669999999541
21
-325.0169030000000134
0
LINE
8
BLACK
6
CONTINUOUS
10
415.7549999999999955
20
-325.0649999999999977
11
415.7549999999999955
21
-338.214999999999975
0
LINE
8
BLACK
6
CONTINUOUS
10
415.7549999999999955
20
-338.214999999999975
11
428.9049999999999727
21
-338.214999999999975
0
LINE
8
BLACK
6
CONTINUOUS
10
428.9049999999999727
20
-338.214999999999975
11
428.9049999999999727
21
-325.0649999999999977
0
LINE
8
BLACK
6
CONTINUOUS
10
428.9049999999999727
20
-325.0649999999999977
11
415.7549999999999955
21
-325.0649999999999977
0
LINE
8
BLACK
6
CONTINUOUS
10
530.1320670000000064
20
-298.6569029999999998
11
530.1455969999999525
21
-298.6704330000000027
0
LINE
8
BLACK
6
CONTINUOUS
10
530.1455969999999525
20
-298.6704330000000027
11
530.1474999999999227
21
-298.6800000000000068
0
LINE
8
BLACK
6
CONTINUOUS
10
530.1474999999999227
20
-298.6800000000000068
11
530.1474999999999227
21
-305.6949999999999932
0
LINE
8
BLACK
6
CONTINUOUS
10
530.1474999999999227
20
-305.6949999999999932
11
531.6725000000000136
21
-305.6949999999999932
0
LINE
8
BLACK
6
CONTINUOUS
10
531.6725000000000136
20
-305.6949999999999932
11
531.6820669999999609
21
-305.6969029999999634
0
LINE
8
BLACK
6
CONTINUOUS
10
531.6820669999999609
20
-305.6969029999999634
11
531.6955970000000207
21
-305.7104329999999663
0
LINE
8
BLACK
6
CONTINUOUS
10
531.6955970000000207
20
-305.7104329999999663
11
531.6974999999999909
21
-305.7199999999999704
0
LINE
8
BLACK
6
CONTINUOUS
10
531.6974999999999909
20
-305.7199999999999704
11
531.6974999999999909
21
-314.7199999999999704
0
LINE
8
BLACK
6
CONTINUOUS
10
531.6974999999999909
20
-314.7199999999999704
11
531.6955970000000207
21
-314.7295669999999745
0
LINE
8
BLACK
6
CONTINUOUS
10
531.6955970000000207
20
-314.7295669999999745
11
531.6820669999999609
21
-314.7430969999999775
0
LINE
8
BLACK
6
CONTINUOUS
10
531.6820669999999609
20
-314.7430969999999775
11
531.6725000000000136
21
-314.7450000000000045
0
LINE
8
BLACK
6
CONTINUOUS
10
531.6725000000000136
20
-314.7450000000000045
11
530.1474999999999227
21
-314.7450000000000045
0
LINE
8
BLACK
6
CONTINUOUS
10
530.1474999999999227
20
-314.7450000000000045
11
530.1474999999999227
21
-321.7599999999999909
0
LINE
8
BLACK
6
CONTINUOUS
10
530.1474999999999227
20
-321.7599999999999909
11
530.1455969999999525
21
-321.769566999999995
0
LINE
8
BLACK
6
CONTINUOUS
10
530.1455969999999525
20
-321.769566999999995
11
530.1320670000000064
21
-321.7830969999999979
0
LINE
8
BLACK
6
CONTINUOUS
10
530.1320670000000064
20
-321.7830969999999979
11
530.1224999999999454
21
-321.7849999999999682
0
LINE
8
BLACK
6
CONTINUOUS
10
530.1224999999999454
20
-321.7849999999999682
11
477.8224999999999909
21
-321.7849999999999682
0
LINE
8
BLACK
6
CONTINUOUS
10
477.8224999999999909
20
-321.7849999999999682
11
477.8129329999999868
21
-321.7830969999999979
0
LINE
8
BLACK
6
CONTINUOUS
10
477.8129329999999868
20
-321.7830969999999979
11
477.7994029999999839
21
-321.769566999999995
0
LINE
8
BLACK
6
CONTINUOUS
10
477.7994029999999839
20
-321.769566999999995
11
477.7974999999999568
21
-321.7599999999999909
0
LINE
8
BLACK
6
CONTINUOUS
10
477.7974999999999568
20
-321.7599999999999909
11
477.7974999999999568
21
-316.7049999999999841
0
LINE
8
BLACK
6
CONTINUOUS
10
477.7974999999999568
20
-316.7049999999999841
11
474.6649999999999636
21
-316.7049999999999841
0
LINE
8
BLACK
6
CONTINUOUS
10
474.6649999999999636
20
-316.7049999999999841
11
474.6573459999999614
21
-316.7034779999999614
0
LINE
8
BLACK
6
CONTINUOUS
10
474.6573459999999614
20
-316.7034779999999614
11
474.6465220000000045
21
-316.6926540000000045
0
LINE
8
BLACK
6
CONTINUOUS
10
474.6465220000000045
20
-316.6926540000000045
11
474.6449999999999818
21
-316.6850000000000023
0
LINE
8
BLACK
6
CONTINUOUS
10
474.6449999999999818
20
-316.6850000000000023
11
474.6449999999999818
21
-304.6850000000000023
0
LINE
8
BLACK
6
CONTINUOUS
10
474.6449999999999818
20
-304.6850000000000023
11
474.6465220000000045
21
-304.677346
0
LINE
8
BLACK
6
CONTINUOUS
10
474.6465220000000045
20
-304.677346
11
474.6573459999999614
21
-304.6665219999999863
0
LINE
8
BLACK
6
CONTINUOUS
10
474.6573459999999614
20
-304.6665219999999863
11
474.6649999999999636
21
-304.6649999999999636
0
LINE
8
BLACK
6
CONTINUOUS
10
474.6649999999999636
20
-304.6649999999999636
11
477.7974999999999568
21
-304.6649999999999636
0
LINE
8
BLACK
6
CONTINUOUS
10
477.7974999999999568
20
-304.6649999999999636
11
477.7974999999999568
21
-298.6800000000000068
0
LINE
8
BLACK
6
CONTINUOUS
10
477.7974999999999568
20
-298.6800000000000068
11
477.7994029999999839
21
-298.6704330000000027
0
LINE
8
BLACK
6
CONTINUOUS
10
477.7994029999999839
20
-298.6704330000000027
11
477.8129329999999868
21
-298.6569029999999998
0
LINE
8
BLACK
6
CONTINUOUS
10
477.8129329999999868
20
-298.6569029999999998
11
477.8224999999999909
21
-298.6549999999999727
0
LINE
8
BLACK
6
CONTINUOUS
10
477.8224999999999909
20
-298.6549999999999727
11
530.1224999999999454
21
-298.6549999999999727
0
LINE
8
BLACK
6
CONTINUOUS
10
530.1224999999999454
20
-298.6549999999999727
11
530.1320670000000064
21
-298.6569029999999998
0
LINE
8
BLACK
6
CONTINUOUS
10
477.8474999999999682
20
-298.7049999999999841
11
477.8474999999999682
21
-304.6649999999999636
0
LINE
8
BLACK
6
CONTINUOUS
10
477.8474999999999682
20
-304.6649999999999636
11
512.6649999999999636
21
-304.6649999999999636
0
LINE
8
BLACK
6
CONTINUOUS
10
512.6649999999999636
20
-304.6649999999999636
11
512.6726539999999659
21
-304.6665219999999863
0
LINE
8
BLACK
6
CONTINUOUS
10
512.6726539999999659
20
-304.6665219999999863
11
512.6834779999999228
21
-304.677346
0
LINE
8
BLACK
6
CONTINUOUS
10
512.6834779999999228
20
-304.677346
11
512.6849999999999454
21
-304.6850000000000023
0
LINE
8
BLACK
6
CONTINUOUS
10
512.6849999999999454
20
-304.6850000000000023
11
512.6849999999999454
21
-316.6850000000000023
0
LINE
8
BLACK
6
CONTINUOUS
10
512.6849999999999454
20
-316.6850000000000023
11
512.6834779999999228
21
-316.6926540000000045
0
LINE
8
BLACK
6
CONTINUOUS
10
512.6834779999999228
20
-316.6926540000000045
11
512.6726539999999659
21
-316.7034779999999614
0
LINE
8
BLACK
6
CONTINUOUS
10
512.6726539999999659
20
-316.7034779999999614
11
512.6649999999999636
21
-316.7049999999999841
0
LINE
8
BLACK
6
CONTINUOUS
10
512.6649999999999636
20
-316.7049999999999841
11
477.8474999999999682
21
-316.7049999999999841
0
LINE
8
BLACK
6
CONTINUOUS
10
477.8474999999999682
20
-316.7049999999999841
11
477.8474999999999682
21
-321.7350000000000136
0
LINE
8
BLACK
6
CONTINUOUS
10
477.8474999999999682
20
-321.7350000000000136
11
530.0974999999999682
21
-321.7350000000000136
0
LINE
8
BLACK
6
CONTINUOUS
10
530.0974999999999682
20
-321.7350000000000136
11
530.0974999999999682
21
-314.7199999999999704
0
LINE
8
BLACK
6
CONTINUOUS
10
530.0974999999999682
20
-314.7199999999999704
11
530.0994029999999384
21
-314.7104329999999663
0
LINE
8
BLACK
6
CONTINUOUS
10
530.0994029999999384
20
-314.7104329999999663
11
530.1129329999999982
21
-314.6969029999999634
0
LINE
8
BLACK
6
CONTINUOUS
10
530.1129329999999982
20
-314.6969029999999634
11
530.1224999999999454
21
-314.6949999999999932
0
LINE
8
BLACK
6
CONTINUOUS
10
530.1224999999999454
20
-314.6949999999999932
11
531.6474999999999227
21
-314.6949999999999932
0
LINE
8
BLACK
6
CONTINUOUS
10
531.6474999999999227
20
-314.6949999999999932
11
531.6474999999999227
21
-305.7450000000000045
0
LINE
8
BLACK
6
CONTINUOUS
10
531.6474999999999227
20
-305.7450000000000045
11
530.1224999999999454
21
-305.7450000000000045
0
LINE
8
BLACK
6
CONTINUOUS
10
530.1224999999999454
20
-305.7450000000000045
11
530.1129329999999982
21
-305.7430969999999775
0
LINE
8
BLACK
6
CONTINUOUS
10
530.1129329999999982
20
-305.7430969999999775
11
530.0994029999999384
21
-305.7295669999999745
0
LINE
8
BLACK
6
CONTINUOUS
10
530.0994029999999384
20
-305.7295669999999745
11
530.0974999999999682
21
-305.7199999999999704
0
LINE
8
BLACK
6
CONTINUOUS
10
530.0974999999999682
20
-305.7199999999999704
11
530.0974999999999682
21
-298.7049999999999841
0
LINE
8
BLACK
6
CONTINUOUS
10
530.0974999999999682
20
-298.7049999999999841
11
477.8474999999999682
21
-298.7049999999999841
0
LINE
8
BLACK
6
CONTINUOUS
10
474.6850000000000023
20
-304.7049999999999841
11
474.6850000000000023
21
-316.6649999999999636
0
LINE
8
BLACK
6
CONTINUOUS
10
474.6850000000000023
20
-316.6649999999999636
11
477.7974999999999568
21
-316.6649999999999636
0
LINE
8
BLACK
6
CONTINUOUS
10
477.7974999999999568
20
-316.6649999999999636
11
477.7974999999999568
21
-304.7049999999999841
0
LINE
8
BLACK
6
CONTINUOUS
10
477.7974999999999568
20
-304.7049999999999841
11
474.6850000000000023
21
-304.7049999999999841
0
LINE
8
BLACK
6
CONTINUOUS
10
477.8474999999999682
20
-304.7049999999999841
11
477.8474999999999682
21
-316.6649999999999636
0
LINE
8
BLACK
6
CONTINUOUS
10
477.8474999999999682
20
-316.6649999999999636
11
512.6449999999999818
21
-316.6649999999999636
0
LINE
8
BLACK
6
CONTINUOUS
10
512.6449999999999818
20
-316.6649999999999636
11
512.6449999999999818
21
-304.7049999999999841
0
LINE
8
BLACK
6
CONTINUOUS
10
512.6449999999999818
20
-304.7049999999999841
11
477.8474999999999682
21
-304.7049999999999841
  0
ENDSEC
  0
EOF
