  0
SECTION
  2
HEADER
  9
$ANGBASE
  50
0.0
  9
$ANGDIR
  70
1
  9
$MEASUREMENT
  70
1
  0
ENDSEC
  0
SECTION
  2
TABLES
  0
TABLE
  2
LTYPE
  70
4
  0
LTYPE
  5
40F
  2
CONTINUOUS
  70
0
  3
Solid line
  72
65
  73
0
  40
0.0
  0
LTYPE
  5
410
  2
DASHDOT
 70
0
  3
Dash Dot ____ _ ____ _
 72
65
 73
4
 40
2.0
 49
1.25
 49
-0.25
 49
0.25
 49
-0.25
  0
LTYPE
  5
411
  2
DASHED
 70
0
  3
Dashed __ __ __ __ __
 72
65
 73
2
 40
0.75
 49
0.5
 49
-0.25
  0
LTYPE
  5
43B
  2
DOTTED
 70
0
  3
Dotted .  .  .  .
 72
65
 73
2
 40
0.2
 49
0.0
 49
-0.2
  0
ENDTAB
  0
TABLE
  2
STYLE
  70
4
  0
STYLE
  2
KICAD
  70
0
  40
0
  41
1
  42
1
  50
0
  71
0
  3
isocp.shx
  0
STYLE
  2
KICADB
  70
0
  40
0
  41
1
  42
1
  50
0
  71
0
  3
isocp.shx
  0
STYLE
  2
KICADI
  70
0
  40
0
  41
1
  42
1
  50
15
  71
0
  3
isocp.shx
  0
STYLE
  2
KICADBI
  70
0
  40
0
  41
1
  42
1
  50
15
  71
0
  3
isocp.shx
  0
ENDTAB
  0
TABLE
  2
LAYER
  70
1
  0
LAYER
  2
BLACK
  70
0
  62
7
  6
CONTINUOUS
  0
ENDTAB
  0
ENDSEC
  0
SECTION
  2
ENTITIES
0
LINE
8
BLACK
6
CONTINUOUS
10
528.0495969999999488
20
-296.1956859999999665
11
528.0495999999999412
21
-296.1956859999999665
0
LINE
8
BLACK
6
CONTINUOUS
10
528.0495999999999412
20
-296.1956859999999665
11
528.0497589999999946
21
-296.195686999999964
0
LINE
8
BLACK
6
CONTINUOUS
10
528.0497589999999946
20
-296.195686999999964
11
528.0498199999999542
21
-296.1956989999999905
0
LINE
8
BLACK
6
CONTINUOUS
10
528.0498199999999542
20
-296.1956989999999905
11
528.3451589999999669
21
-296.2122699999999895
0
LINE
8
BLACK
6
CONTINUOUS
10
528.3451589999999669
20
-296.2122699999999895
11
528.6365449999999555
21
-296.2644599999999855
0
LINE
8
BLACK
6
CONTINUOUS
10
528.6365449999999555
20
-296.2644599999999855
11
528.9194860000000062
21
-296.35149100000001
0
LINE
8
BLACK
6
CONTINUOUS
10
528.9194860000000062
20
-296.35149100000001
11
529.1898310000000265
21
-296.4720859999999902
0
LINE
8
BLACK
6
CONTINUOUS
10
529.1898310000000265
20
-296.4720859999999902
11
529.4436150000000225
21
-296.624477000000013
0
LINE
8
BLACK
6
CONTINUOUS
10
529.4436150000000225
20
-296.624477000000013
11
529.6771169999999529
21
-296.8064289999999801
0
LINE
8
BLACK
6
CONTINUOUS
10
529.6771169999999529
20
-296.8064289999999801
11
529.8869119999999384
21
-297.0152729999999792
0
LINE
8
BLACK
6
CONTINUOUS
10
529.8869119999999384
20
-297.0152729999999792
11
530.0699230000000171
21
-297.2479470000000106
0
LINE
8
BLACK
6
CONTINUOUS
10
530.0699230000000171
20
-297.2479470000000106
11
530.2234649999999192
21
-297.5010369999999966
0
LINE
8
BLACK
6
CONTINUOUS
10
530.2234649999999192
20
-297.5010369999999966
11
530.3452859999999873
21
-297.7708309999999869
0
LINE
8
BLACK
6
CONTINUOUS
10
530.3452859999999873
20
-297.7708309999999869
11
530.4336009999999533
21
-298.0533739999999625
0
LINE
8
BLACK
6
CONTINUOUS
10
530.4336009999999533
20
-298.0533739999999625
11
530.4871130000000221
21
-298.3445199999999886
0
LINE
8
BLACK
6
CONTINUOUS
10
530.4871130000000221
20
-298.3445199999999886
11
530.5050380000000132
21
-298.6399999999999864
0
LINE
8
BLACK
6
CONTINUOUS
10
530.5050380000000132
20
-298.6399999999999864
11
530.5049999999999955
21
-298.6399999999999864
0
LINE
8
BLACK
6
CONTINUOUS
10
530.5049999999999955
20
-298.6399999999999864
11
530.5049999999999955
21
-378.0401129999999625
0
LINE
8
BLACK
6
CONTINUOUS
10
530.5049999999999955
20
-378.0401129999999625
11
530.504998999999998
21
-378.5199999999999818
0
LINE
8
BLACK
6
CONTINUOUS
10
530.504998999999998
20
-378.5199999999999818
11
530.5049829999999247
21
-378.5200790000000097
0
LINE
8
BLACK
6
CONTINUOUS
10
530.5049829999999247
20
-378.5200790000000097
11
530.5049999999999955
21
-378.5201329999999871
0
LINE
8
BLACK
6
CONTINUOUS
10
530.5049999999999955
20
-378.5201329999999871
11
530.504998999999998
21
-378.5201329999999871
0
LINE
8
BLACK
6
CONTINUOUS
10
530.504998999999998
20
-378.5201329999999871
11
530.4874929999999722
21
-378.7678619999999796
0
LINE
8
BLACK
6
CONTINUOUS
10
530.4874929999999722
20
-378.7678619999999796
11
530.437909999999988
21
-379.011209000000008
0
LINE
8
BLACK
6
CONTINUOUS
10
530.437909999999988
20
-379.011209000000008
11
530.357091999999966
21
-379.2460370000000012
0
LINE
8
BLACK
6
CONTINUOUS
10
530.357091999999966
20
-379.2460370000000012
11
530.2464129999999614
21
-379.468356999999969
0
LINE
8
BLACK
6
CONTINUOUS
10
530.2464129999999614
20
-379.468356999999969
11
530.1077530000000024
21
-379.6743899999999599
0
LINE
8
BLACK
6
CONTINUOUS
10
530.1077530000000024
20
-379.6743899999999599
11
529.9434689999999364
21
-379.860635000000002
0
LINE
8
BLACK
6
CONTINUOUS
10
529.9434689999999364
20
-379.860635000000002
11
529.7563539999999875
21
-380.0239249999999629
0
LINE
8
BLACK
6
CONTINUOUS
10
529.7563539999999875
20
-380.0239249999999629
11
529.5495859999999766
21
-380.1614869999999655
0
LINE
8
BLACK
6
CONTINUOUS
10
529.5495859999999766
20
-380.1614869999999655
11
529.3266810000000078
21
-380.2709820000000036
0
LINE
8
BLACK
6
CONTINUOUS
10
529.3266810000000078
20
-380.2709820000000036
11
529.0914259999999558
21
-380.3505499999999984
0
LINE
8
BLACK
6
CONTINUOUS
10
529.0914259999999558
20
-380.3505499999999984
11
528.8478189999999586
21
-380.3988379999999552
0
LINE
8
BLACK
6
CONTINUOUS
10
528.8478189999999586
20
-380.3988379999999552
11
528.6000349999999344
21
-380.4150229999999624
0
LINE
8
BLACK
6
CONTINUOUS
10
528.6000349999999344
20
-380.4150229999999624
11
528.6000189999999748
21
-380.4150270000000091
0
LINE
8
BLACK
6
CONTINUOUS
10
528.6000189999999748
20
-380.4150270000000091
11
413.6500199999999836
21
-380.5049999999999955
0
LINE
8
BLACK
6
CONTINUOUS
10
413.6500199999999836
20
-380.5049999999999955
11
413.6494779999999878
21
-380.5048919999999839
0
LINE
8
BLACK
6
CONTINUOUS
10
413.6494779999999878
20
-380.5048919999999839
11
413.6491550000000075
21
-380.504985999999974
0
LINE
8
BLACK
6
CONTINUOUS
10
413.6491550000000075
20
-380.504985999999974
11
413.6491550000000075
21
-380.5049849999999765
0
LINE
8
BLACK
6
CONTINUOUS
10
413.6491550000000075
20
-380.5049849999999765
11
413.3857059999999706
21
-380.4790169999999989
0
LINE
8
BLACK
6
CONTINUOUS
10
413.3857059999999706
20
-380.4790169999999989
11
413.1277819999999679
21
-380.4193989999999985
0
LINE
8
BLACK
6
CONTINUOUS
10
413.1277819999999679
20
-380.4193989999999985
11
412.8796600000000012
21
-380.327118999999982
0
LINE
8
BLACK
6
CONTINUOUS
10
412.8796600000000012
20
-380.327118999999982
11
412.6454609999999548
21
-380.2037090000000035
0
LINE
8
BLACK
6
CONTINUOUS
10
412.6454609999999548
20
-380.2037090000000035
11
412.4290679999999725
21
-380.0512170000000083
0
LINE
8
BLACK
6
CONTINUOUS
10
412.4290679999999725
20
-380.0512170000000083
11
412.2340739999999641
21
-379.8721729999999752
0
LINE
8
BLACK
6
CONTINUOUS
10
412.2340739999999641
20
-379.8721729999999752
11
412.063713000000007
21
-379.6695479999999634
0
LINE
8
BLACK
6
CONTINUOUS
10
412.063713000000007
20
-379.6695479999999634
11
411.9208130000000097
21
-379.4467050000000086
0
LINE
8
BLACK
6
CONTINUOUS
10
411.9208130000000097
20
-379.4467050000000086
11
411.8077449999999544
21
-379.2073409999999853
0
LINE
8
BLACK
6
CONTINUOUS
10
411.8077449999999544
20
-379.2073409999999853
11
411.7263849999999934
21
-378.955426999999986
0
LINE
8
BLACK
6
CONTINUOUS
10
411.7263849999999934
20
-378.955426999999986
11
411.6780829999999582
21
-378.6951459999999656
0
LINE
8
BLACK
6
CONTINUOUS
10
411.6780829999999582
20
-378.6951459999999656
11
411.6636579999999981
21
-378.4311379999999758
0
LINE
8
BLACK
6
CONTINUOUS
10
411.6636579999999981
20
-378.4311379999999758
11
411.6636399999999867
21
-378.4310439999999858
0
LINE
8
BLACK
6
CONTINUOUS
10
411.6636399999999867
20
-378.4310439999999858
11
411.6636399999999867
21
-378.430813999999998
0
LINE
8
BLACK
6
CONTINUOUS
10
411.6636399999999867
20
-378.430813999999998
11
411.663612999999998
21
-378.430813999999998
0
LINE
8
BLACK
6
CONTINUOUS
10
411.663612999999998
20
-378.430813999999998
11
411.6636399999999867
21
-378.4307329999999752
0
LINE
8
BLACK
6
CONTINUOUS
10
411.6636399999999867
20
-378.4307329999999752
11
411.6749999999999545
21
-361.3299829999999702
0
LINE
8
BLACK
6
CONTINUOUS
10
411.6749999999999545
20
-361.3299829999999702
11
411.6750010000000088
21
-361.3299739999999929
0
LINE
8
BLACK
6
CONTINUOUS
10
411.6750010000000088
20
-361.3299739999999929
11
411.6905279999999721
21
-361.0930950000000053
0
LINE
8
BLACK
6
CONTINUOUS
10
411.6905279999999721
20
-361.0930950000000053
11
411.7368449999999598
21
-360.8602429999999686
0
LINE
8
BLACK
6
CONTINUOUS
10
411.7368449999999598
20
-360.8602429999999686
11
411.8131589999999846
21
-360.6354299999999853
0
LINE
8
BLACK
6
CONTINUOUS
10
411.8131589999999846
20
-360.6354299999999853
11
411.9181639999999902
21
-360.4224999999999568
0
LINE
8
BLACK
6
CONTINUOUS
10
411.9181639999999902
20
-360.4224999999999568
11
412.0500639999999635
21
-360.2250980000000027
0
LINE
8
BLACK
6
CONTINUOUS
10
412.0500639999999635
20
-360.2250980000000027
11
412.2066009999999778
21
-360.0466010000000097
0
LINE
8
BLACK
6
CONTINUOUS
10
412.2066009999999778
20
-360.0466010000000097
11
412.3850979999999709
21
-359.8900639999999953
0
LINE
8
BLACK
6
CONTINUOUS
10
412.3850979999999709
20
-359.8900639999999953
11
412.5824999999999818
21
-359.7581639999999652
0
LINE
8
BLACK
6
CONTINUOUS
10
412.5824999999999818
20
-359.7581639999999652
11
412.7954299999999535
21
-359.6531589999999596
0
LINE
8
BLACK
6
CONTINUOUS
10
412.7954299999999535
20
-359.6531589999999596
11
413.0202429999999936
21
-359.5768449999999916
0
LINE
8
BLACK
6
CONTINUOUS
10
413.0202429999999936
20
-359.5768449999999916
11
413.2530949999999734
21
-359.5305280000000039
0
LINE
8
BLACK
6
CONTINUOUS
10
413.2530949999999734
20
-359.5305280000000039
11
413.4900000000000091
21
-359.5149999999999864
0
LINE
8
BLACK
6
CONTINUOUS
10
413.4900000000000091
20
-359.5149999999999864
11
420.339999999999975
21
-359.5149999999999864
0
LINE
8
BLACK
6
CONTINUOUS
10
420.339999999999975
20
-359.5149999999999864
11
420.4427059999999869
21
-359.5149999999999864
0
LINE
8
BLACK
6
CONTINUOUS
10
420.4427059999999869
20
-359.5149999999999864
11
420.6455879999999752
21
-359.4828660000000013
0
LINE
8
BLACK
6
CONTINUOUS
10
420.6455879999999752
20
-359.4828660000000013
11
420.840945999999974
21
-359.4193909999999619
0
LINE
8
BLACK
6
CONTINUOUS
10
420.840945999999974
20
-359.4193909999999619
11
421.0239689999999655
21
-359.3261359999999627
0
LINE
8
BLACK
6
CONTINUOUS
10
421.0239689999999655
20
-359.3261359999999627
11
421.1901499999999601
21
-359.2053980000000024
0
LINE
8
BLACK
6
CONTINUOUS
10
421.1901499999999601
20
-359.2053980000000024
11
421.3353979999999979
21
-359.0601499999999646
0
LINE
8
BLACK
6
CONTINUOUS
10
421.3353979999999979
20
-359.0601499999999646
11
421.4561359999999581
21
-358.89396899999997
0
LINE
8
BLACK
6
CONTINUOUS
10
421.4561359999999581
20
-358.89396899999997
11
421.5493909999999573
21
-358.7109459999999785
0
LINE
8
BLACK
6
CONTINUOUS
10
421.5493909999999573
20
-358.7109459999999785
11
421.6128659999999968
21
-358.5155879999999797
0
LINE
8
BLACK
6
CONTINUOUS
10
421.6128659999999968
20
-358.5155879999999797
11
421.6449999999999818
21
-358.3127059999999915
0
LINE
8
BLACK
6
CONTINUOUS
10
421.6449999999999818
20
-358.3127059999999915
11
421.6449999999999818
21
-358.2099999999999795
0
LINE
8
BLACK
6
CONTINUOUS
10
421.6449999999999818
20
-358.2099999999999795
11
421.6449999999999818
21
-343.4799999999999613
0
LINE
8
BLACK
6
CONTINUOUS
10
421.6449999999999818
20
-343.4799999999999613
11
421.6449999999999818
21
-343.3623469999999998
0
LINE
8
BLACK
6
CONTINUOUS
10
421.6449999999999818
20
-343.3623469999999998
11
421.6115130000000022
21
-343.1294369999999958
0
LINE
8
BLACK
6
CONTINUOUS
10
421.6115130000000022
20
-343.1294369999999958
11
421.5452189999999746
21
-342.9036629999999946
0
LINE
8
BLACK
6
CONTINUOUS
10
421.5452189999999746
20
-342.9036629999999946
11
421.447469999999953
21
-342.6896219999999857
0
LINE
8
BLACK
6
CONTINUOUS
10
421.447469999999953
20
-342.6896219999999857
11
421.3202539999999772
21
-342.4916699999999992
0
LINE
8
BLACK
6
CONTINUOUS
10
421.3202539999999772
20
-342.4916699999999992
11
421.1661619999999857
21
-342.3138379999999756
0
LINE
8
BLACK
6
CONTINUOUS
10
421.1661619999999857
20
-342.3138379999999756
11
420.9883299999999622
21
-342.1597459999999842
0
LINE
8
BLACK
6
CONTINUOUS
10
420.9883299999999622
20
-342.1597459999999842
11
420.7903779999999756
21
-342.0325300000000084
0
LINE
8
BLACK
6
CONTINUOUS
10
420.7903779999999756
20
-342.0325300000000084
11
420.5763369999999668
21
-341.9347809999999868
0
LINE
8
BLACK
6
CONTINUOUS
10
420.5763369999999668
20
-341.9347809999999868
11
420.3505629999999655
21
-341.8684869999999592
0
LINE
8
BLACK
6
CONTINUOUS
10
420.3505629999999655
20
-341.8684869999999592
11
420.1176529999999616
21
-341.8349999999999795
0
LINE
8
BLACK
6
CONTINUOUS
10
420.1176529999999616
20
-341.8349999999999795
11
420.
21
-341.8349999999999795
0
LINE
8
BLACK
6
CONTINUOUS
10
420.
20
-341.8349999999999795
11
414.0299999999999727
21
-341.8349999999999795
0
LINE
8
BLACK
6
CONTINUOUS
10
414.0299999999999727
20
-341.8349999999999795
11
413.4699999999999704
21
-341.8349999999999795
0
LINE
8
BLACK
6
CONTINUOUS
10
413.4699999999999704
20
-341.8349999999999795
11
413.2358919999999785
21
-341.8182559999999626
0
LINE
8
BLACK
6
CONTINUOUS
10
413.2358919999999785
20
-341.8182559999999626
11
413.0065500000000043
21
-341.7683659999999577
0
LINE
8
BLACK
6
CONTINUOUS
10
413.0065500000000043
20
-341.7683659999999577
11
412.7866419999999721
21
-341.6863449999999602
0
LINE
8
BLACK
6
CONTINUOUS
10
412.7866419999999721
20
-341.6863449999999602
11
412.5806460000000015
21
-341.5738619999999628
0
LINE
8
BLACK
6
CONTINUOUS
10
412.5806460000000015
20
-341.5738619999999628
11
412.3927539999999681
21
-341.4332079999999792
0
LINE
8
BLACK
6
CONTINUOUS
10
412.3927539999999681
20
-341.4332079999999792
11
412.226791999999989
21
-341.2672460000000001
0
LINE
8
BLACK
6
CONTINUOUS
10
412.226791999999989
20
-341.2672460000000001
11
412.0861380000000054
21
-341.0793539999999666
0
LINE
8
BLACK
6
CONTINUOUS
10
412.0861380000000054
20
-341.0793539999999666
11
411.9736550000000079
21
-340.8733579999999961
0
LINE
8
BLACK
6
CONTINUOUS
10
411.9736550000000079
20
-340.8733579999999961
11
411.8916339999999536
21
-340.6534499999999639
0
LINE
8
BLACK
6
CONTINUOUS
10
411.8916339999999536
20
-340.6534499999999639
11
411.8417440000000056
21
-340.4241079999999897
0
LINE
8
BLACK
6
CONTINUOUS
10
411.8417440000000056
20
-340.4241079999999897
11
411.8250009999999861
21
-340.1900210000000015
0
LINE
8
BLACK
6
CONTINUOUS
10
411.8250009999999861
20
-340.1900210000000015
11
411.8249999999999886
21
-340.1900139999999624
0
LINE
8
BLACK
6
CONTINUOUS
10
411.8249999999999886
20
-340.1900139999999624
11
411.8149999999999977
21
-322.6800139999999715
0
LINE
8
BLACK
6
CONTINUOUS
10
411.8149999999999977
20
-322.6800139999999715
11
411.8168979999999806
21
-322.6704459999999699
0
LINE
8
BLACK
6
CONTINUOUS
10
411.8168979999999806
20
-322.6704459999999699
11
411.8200309999999718
21
-322.6673079999999914
0
LINE
8
BLACK
6
CONTINUOUS
10
411.8200309999999718
20
-322.6673079999999914
11
411.8333599999999706
21
-322.4413099999999872
0
LINE
8
BLACK
6
CONTINUOUS
10
411.8333599999999706
20
-322.4413099999999872
11
411.8753939999999716
21
-322.2059299999999666
0
LINE
8
BLACK
6
CONTINUOUS
10
411.8753939999999716
20
-322.2059299999999666
11
411.9448039999999764
21
-321.977121000000011
0
LINE
8
BLACK
6
CONTINUOUS
10
411.9448039999999764
20
-321.977121000000011
11
412.0406259999999747
21
-321.758057000000008
0
LINE
8
BLACK
6
CONTINUOUS
10
412.0406259999999747
20
-321.758057000000008
11
412.1615329999999631
21
-321.5517749999999637
0
LINE
8
BLACK
6
CONTINUOUS
10
412.1615329999999631
20
-321.5517749999999637
11
412.3058489999999665
21
-321.3611339999999927
0
LINE
8
BLACK
6
CONTINUOUS
10
412.3058489999999665
20
-321.3611339999999927
11
412.4715719999999806
21
-321.1887769999999591
0
LINE
8
BLACK
6
CONTINUOUS
10
412.4715719999999806
20
-321.1887769999999591
11
412.6564040000000091
21
-321.0370939999999678
0
LINE
8
BLACK
6
CONTINUOUS
10
412.6564040000000091
20
-321.0370939999999678
11
412.8577849999999785
21
-320.9081869999999981
0
LINE
8
BLACK
6
CONTINUOUS
10
412.8577849999999785
20
-320.9081869999999981
11
412.8585199999999986
21
-320.9080399999999713
0
LINE
8
BLACK
6
CONTINUOUS
10
412.8585199999999986
20
-320.9080399999999713
11
412.8595770000000016
21
-320.9072759999999676
0
LINE
8
BLACK
6
CONTINUOUS
10
412.8595770000000016
20
-320.9072759999999676
11
466.9692909999999983
21
-296.087963000000002
0
LINE
8
BLACK
6
CONTINUOUS
10
466.9692909999999983
20
-296.087963000000002
11
466.9699559999999678
21
-296.0878040000000055
0
LINE
8
BLACK
6
CONTINUOUS
10
466.9699559999999678
20
-296.0878040000000055
11
466.9701890000000049
21
-296.0875729999999635
0
LINE
8
BLACK
6
CONTINUOUS
10
466.9701890000000049
20
-296.0875729999999635
11
466.9744910000000004
21
-296.0867250000000013
0
LINE
8
BLACK
6
CONTINUOUS
10
466.9744910000000004
20
-296.0867250000000013
11
466.9787809999999695
21
-296.0857039999999643
0
LINE
8
BLACK
6
CONTINUOUS
10
466.9787809999999695
20
-296.0857039999999643
11
466.9790899999999851
21
-296.0858179999999606
0
LINE
8
BLACK
6
CONTINUOUS
10
466.9790899999999851
20
-296.0858179999999606
11
466.9797590000000014
21
-296.0856870000000072
0
LINE
8
BLACK
6
CONTINUOUS
10
466.9797590000000014
20
-296.0856870000000072
11
528.0495969999999488
21
-296.1956859999999665
0
LINE
8
BLACK
6
CONTINUOUS
10
412.8813289999999938
20
-320.9523079999999595
11
412.7674799999999777
21
-321.0159769999999639
0
LINE
8
BLACK
6
CONTINUOUS
10
412.7674799999999777
20
-321.0159769999999639
11
412.5570720000000051
21
-321.1736270000000104
0
LINE
8
BLACK
6
CONTINUOUS
10
412.5570720000000051
20
-321.1736270000000104
11
412.369342999999958
21
-321.3576999999999657
0
LINE
8
BLACK
6
CONTINUOUS
10
412.369342999999958
20
-321.3576999999999657
11
412.2075859999999921
21
-321.5649669999999674
0
LINE
8
BLACK
6
CONTINUOUS
10
412.2075859999999921
20
-321.5649669999999674
11
412.0746379999999931
21
-321.7917929999999842
0
LINE
8
BLACK
6
CONTINUOUS
10
412.0746379999999931
20
-321.7917929999999842
11
411.9728319999999826
21
-322.0341980000000035
0
LINE
8
BLACK
6
CONTINUOUS
10
411.9728319999999826
20
-322.0341980000000035
11
411.9039520000000039
21
-322.2879309999999577
0
LINE
8
BLACK
6
CONTINUOUS
10
411.9039520000000039
20
-322.2879309999999577
11
411.8692069999999603
21
-322.5485419999999976
0
LINE
8
BLACK
6
CONTINUOUS
10
411.8692069999999603
20
-322.5485419999999976
11
411.8692829999999958
21
-322.6800000000000068
0
LINE
8
BLACK
6
CONTINUOUS
10
411.8692829999999958
20
-322.6800000000000068
11
411.8650069999999914
21
-322.6931569999999851
0
LINE
8
BLACK
6
CONTINUOUS
10
411.8650069999999914
20
-322.6931569999999851
11
411.875
21
-340.1899859999999762
0
LINE
8
BLACK
6
CONTINUOUS
10
411.875
20
-340.1899859999999762
11
411.874998000000005
21
-340.1899940000000129
0
LINE
8
BLACK
6
CONTINUOUS
10
411.874998000000005
20
-340.1899940000000129
11
411.875
21
-340.1899999999999977
0
LINE
8
BLACK
6
CONTINUOUS
10
411.875
20
-340.1899999999999977
11
411.875
21
-340.3040770000000066
0
LINE
8
BLACK
6
CONTINUOUS
10
411.875
20
-340.3040770000000066
11
411.9074699999999893
21
-340.5299079999999776
0
LINE
8
BLACK
6
CONTINUOUS
10
411.9074699999999893
20
-340.5299079999999776
11
411.971747999999991
21
-340.748818999999969
0
LINE
8
BLACK
6
CONTINUOUS
10
411.971747999999991
20
-340.748818999999969
11
412.0665259999999535
21
-340.9563549999999736
0
LINE
8
BLACK
6
CONTINUOUS
10
412.0665259999999535
20
-340.9563549999999736
11
412.1898749999999723
21
-341.148288999999977
0
LINE
8
BLACK
6
CONTINUOUS
10
412.1898749999999723
20
-341.148288999999977
11
412.3392839999999637
21
-341.3207160000000044
0
LINE
8
BLACK
6
CONTINUOUS
10
412.3392839999999637
20
-341.3207160000000044
11
412.5117109999999911
21
-341.4701249999999959
0
LINE
8
BLACK
6
CONTINUOUS
10
412.5117109999999911
20
-341.4701249999999959
11
412.7036449999999945
21
-341.5934739999999579
0
LINE
8
BLACK
6
CONTINUOUS
10
412.7036449999999945
20
-341.5934739999999579
11
412.9111809999999991
21
-341.6882519999999772
0
LINE
8
BLACK
6
CONTINUOUS
10
412.9111809999999991
20
-341.6882519999999772
11
413.1300919999999905
21
-341.7525299999999788
0
LINE
8
BLACK
6
CONTINUOUS
10
413.1300919999999905
20
-341.7525299999999788
11
413.3559229999999616
21
-341.7849999999999682
0
LINE
8
BLACK
6
CONTINUOUS
10
413.3559229999999616
20
-341.7849999999999682
11
413.4699999999999704
21
-341.7849999999999682
0
LINE
8
BLACK
6
CONTINUOUS
10
413.4699999999999704
20
-341.7849999999999682
11
414.0299999999999727
21
-341.7849999999999682
0
LINE
8
BLACK
6
CONTINUOUS
10
414.0299999999999727
20
-341.7849999999999682
11
420.
21
-341.7849999999999682
0
LINE
8
BLACK
6
CONTINUOUS
10
420.
20
-341.7849999999999682
11
420.2412239999999883
21
-341.8022530000000074
0
LINE
8
BLACK
6
CONTINUOUS
10
420.2412239999999883
20
-341.8022530000000074
11
420.4775369999999839
21
-341.8536589999999933
0
LINE
8
BLACK
6
CONTINUOUS
10
420.4775369999999839
20
-341.8536589999999933
11
420.7041279999999688
21
-341.9381740000000036
0
LINE
8
BLACK
6
CONTINUOUS
10
420.7041279999999688
20
-341.9381740000000036
11
420.9163859999999886
21
-342.0540750000000116
0
LINE
8
BLACK
6
CONTINUOUS
10
420.9163859999999886
20
-342.0540750000000116
11
421.1099889999999846
21
-342.1990040000000022
0
LINE
8
BLACK
6
CONTINUOUS
10
421.1099889999999846
20
-342.1990040000000022
11
421.2809959999999592
21
-342.3700109999999768
0
LINE
8
BLACK
6
CONTINUOUS
10
421.2809959999999592
20
-342.3700109999999768
11
421.4259250000000065
21
-342.5636139999999727
0
LINE
8
BLACK
6
CONTINUOUS
10
421.4259250000000065
20
-342.5636139999999727
11
421.5418259999999577
21
-342.7758719999999926
0
LINE
8
BLACK
6
CONTINUOUS
10
421.5418259999999577
20
-342.7758719999999926
11
421.6263409999999681
21
-343.0024629999999775
0
LINE
8
BLACK
6
CONTINUOUS
10
421.6263409999999681
20
-343.0024629999999775
11
421.6777469999999539
21
-343.238775999999973
0
LINE
8
BLACK
6
CONTINUOUS
10
421.6777469999999539
20
-343.238775999999973
11
421.6949999999999932
21
-343.4799999999999613
0
LINE
8
BLACK
6
CONTINUOUS
10
421.6949999999999932
20
-343.4799999999999613
11
421.6949999999999932
21
-358.2099999999999795
0
LINE
8
BLACK
6
CONTINUOUS
10
421.6949999999999932
20
-358.2099999999999795
11
421.6783179999999902
21
-358.42196899999999
0
LINE
8
BLACK
6
CONTINUOUS
10
421.6783179999999902
20
-358.42196899999999
11
421.6286819999999693
21
-358.6287179999999921
0
LINE
8
BLACK
6
CONTINUOUS
10
421.6286819999999693
20
-358.6287179999999921
11
421.5473139999999717
21
-358.8251569999999901
0
LINE
8
BLACK
6
CONTINUOUS
10
421.5473139999999717
20
-358.8251569999999901
11
421.4362179999999967
21
-359.0064489999999751
0
LINE
8
BLACK
6
CONTINUOUS
10
421.4362179999999967
20
-359.0064489999999751
11
421.2981299999999578
21
-359.1681299999999624
0
LINE
8
BLACK
6
CONTINUOUS
10
421.2981299999999578
20
-359.1681299999999624
11
421.1364489999999705
21
-359.3062180000000012
0
LINE
8
BLACK
6
CONTINUOUS
10
421.1364489999999705
20
-359.3062180000000012
11
420.9551569999999856
21
-359.4173139999999762
0
LINE
8
BLACK
6
CONTINUOUS
10
420.9551569999999856
20
-359.4173139999999762
11
420.7587179999999876
21
-359.4986819999999739
0
LINE
8
BLACK
6
CONTINUOUS
10
420.7587179999999876
20
-359.4986819999999739
11
420.5519689999999855
21
-359.5483179999999948
0
LINE
8
BLACK
6
CONTINUOUS
10
420.5519689999999855
20
-359.5483179999999948
11
420.339999999999975
21
-359.5649999999999977
0
LINE
8
BLACK
6
CONTINUOUS
10
420.339999999999975
20
-359.5649999999999977
11
413.4900000000000091
21
-359.5649999999999977
0
LINE
8
BLACK
6
CONTINUOUS
10
413.4900000000000091
20
-359.5649999999999977
11
413.3637650000000008
21
-359.5649999999999977
0
LINE
8
BLACK
6
CONTINUOUS
10
413.3637650000000008
20
-359.5649999999999977
11
413.1138639999999782
21
-359.6009300000000053
0
LINE
8
BLACK
6
CONTINUOUS
10
413.1138639999999782
20
-359.6009300000000053
11
412.8716200000000072
21
-359.6720589999999902
0
LINE
8
BLACK
6
CONTINUOUS
10
412.8716200000000072
20
-359.6720589999999902
11
412.6419649999999706
21
-359.7769389999999703
0
LINE
8
BLACK
6
CONTINUOUS
10
412.6419649999999706
20
-359.7769389999999703
11
412.4295730000000049
21
-359.9134349999999927
0
LINE
8
BLACK
6
CONTINUOUS
10
412.4295730000000049
20
-359.9134349999999927
11
412.2387679999999932
21
-360.0787679999999682
0
LINE
8
BLACK
6
CONTINUOUS
10
412.2387679999999932
20
-360.0787679999999682
11
412.0734349999999608
21
-360.2695729999999799
0
LINE
8
BLACK
6
CONTINUOUS
10
412.0734349999999608
20
-360.2695729999999799
11
411.9369389999999953
21
-360.4819650000000024
0
LINE
8
BLACK
6
CONTINUOUS
10
411.9369389999999953
20
-360.4819650000000024
11
411.8320589999999584
21
-360.7116199999999822
0
LINE
8
BLACK
6
CONTINUOUS
10
411.8320589999999584
20
-360.7116199999999822
11
411.7609299999999735
21
-360.95386400000001
0
LINE
8
BLACK
6
CONTINUOUS
10
411.7609299999999735
20
-360.95386400000001
11
411.7249999999999659
21
-361.2037649999999758
0
LINE
8
BLACK
6
CONTINUOUS
10
411.7249999999999659
20
-361.2037649999999758
11
411.7249999999999659
21
-361.3299999999999841
0
LINE
8
BLACK
6
CONTINUOUS
10
411.7249999999999659
20
-361.3299999999999841
11
411.7249979999999709
21
-361.3300059999999689
0
LINE
8
BLACK
6
CONTINUOUS
10
411.7249979999999709
20
-361.3300059999999689
11
411.7249999999999659
21
-361.3300160000000005
0
LINE
8
BLACK
6
CONTINUOUS
10
411.7249999999999659
20
-361.3300160000000005
11
411.7136399999999981
21
-378.4310779999999568
0
LINE
8
BLACK
6
CONTINUOUS
10
411.7136399999999981
20
-378.4310779999999568
11
411.7135999999999854
21
-378.431274999999971
0
LINE
8
BLACK
6
CONTINUOUS
10
411.7135999999999854
20
-378.431274999999971
11
411.7136109999999576
21
-378.4313080000000014
0
LINE
8
BLACK
6
CONTINUOUS
10
411.7136109999999576
20
-378.4313080000000014
11
411.7136390000000006
21
-378.4313080000000014
0
LINE
8
BLACK
6
CONTINUOUS
10
411.7136390000000006
20
-378.4313080000000014
11
411.7124049999999897
21
-378.5607099999999718
0
LINE
8
BLACK
6
CONTINUOUS
10
411.7124049999999897
20
-378.5607099999999718
11
411.7431409999999801
21
-378.8176949999999579
0
LINE
8
BLACK
6
CONTINUOUS
10
411.7431409999999801
20
-378.8176949999999579
11
411.8066559999999754
21
-379.0685970000000111
0
LINE
8
BLACK
6
CONTINUOUS
10
411.8066559999999754
20
-379.0685970000000111
11
411.9018979999999601
21
-379.3092529999999556
0
LINE
8
BLACK
6
CONTINUOUS
10
411.9018979999999601
20
-379.3092529999999556
11
412.0272850000000062
21
-379.5356679999999869
0
LINE
8
BLACK
6
CONTINUOUS
10
412.0272850000000062
20
-379.5356679999999869
11
412.1807379999999625
21
-379.7440859999999816
0
LINE
8
BLACK
6
CONTINUOUS
10
412.1807379999999625
20
-379.7440859999999816
11
412.3597100000000069
21
-379.9310489999999731
0
LINE
8
BLACK
6
CONTINUOUS
10
412.3597100000000069
20
-379.9310489999999731
11
412.5612299999999664
21
-380.0934540000000084
0
LINE
8
BLACK
6
CONTINUOUS
10
412.5612299999999664
20
-380.0934540000000084
11
412.7819559999999797
21
-380.2286070000000109
0
LINE
8
BLACK
6
CONTINUOUS
10
412.7819559999999797
20
-380.2286070000000109
11
413.0182239999999751
21
-380.3342639999999619
0
LINE
8
BLACK
6
CONTINUOUS
10
413.0182239999999751
20
-380.3342639999999619
11
413.2661139999999591
21
-380.4086719999999673
0
LINE
8
BLACK
6
CONTINUOUS
10
413.2661139999999591
20
-380.4086719999999673
11
413.5215119999999729
21
-380.4505969999999593
0
LINE
8
BLACK
6
CONTINUOUS
10
413.5215119999999729
20
-380.4505969999999593
11
413.6504239999999868
21
-380.4549989999999866
0
LINE
8
BLACK
6
CONTINUOUS
10
413.6504239999999868
20
-380.4549989999999866
11
528.5999799999999595
21
-380.3650269999999978
0
LINE
8
BLACK
6
CONTINUOUS
10
528.5999799999999595
20
-380.3650269999999978
11
528.5999919999999292
21
-380.3650289999999927
0
LINE
8
BLACK
6
CONTINUOUS
10
528.5999919999999292
20
-380.3650289999999927
11
528.6000000000000227
21
-380.3650269999999978
0
LINE
8
BLACK
6
CONTINUOUS
10
528.6000000000000227
20
-380.3650269999999978
11
528.6000000000000227
21
-380.3650260000000003
0
LINE
8
BLACK
6
CONTINUOUS
10
528.6000000000000227
20
-380.3650260000000003
11
528.7211740000000191
21
-380.365052999999989
0
LINE
8
BLACK
6
CONTINUOUS
10
528.7211740000000191
20
-380.365052999999989
11
528.9614619999999832
21
-380.3335260000000062
0
LINE
8
BLACK
6
CONTINUOUS
10
528.9614619999999832
20
-380.3335260000000062
11
529.1956069999999954
21
-380.2710099999999898
0
LINE
8
BLACK
6
CONTINUOUS
10
529.1956069999999954
20
-380.2710099999999898
11
529.4196299999999837
21
-380.1785649999999919
0
LINE
8
BLACK
6
CONTINUOUS
10
529.4196299999999837
20
-380.1785649999999919
11
529.6297230000000127
21
-380.0577639999999633
0
LINE
8
BLACK
6
CONTINUOUS
10
529.6297230000000127
20
-380.0577639999999633
11
529.8223169999999982
21
-379.9106590000000097
0
LINE
8
BLACK
6
CONTINUOUS
10
529.8223169999999982
20
-379.9106590000000097
11
529.9941370000000234
21
-379.7397499999999582
0
LINE
8
BLACK
6
CONTINUOUS
10
529.9941370000000234
20
-379.7397499999999582
11
530.1422649999999521
21
-379.5479409999999802
0
LINE
8
BLACK
6
CONTINUOUS
10
530.1422649999999521
20
-379.5479409999999802
11
530.2641820000000052
21
-379.3384929999999713
0
LINE
8
BLACK
6
CONTINUOUS
10
530.2641820000000052
20
-379.3384929999999713
11
530.3578169999999545
21
-379.1149649999999838
0
LINE
8
BLACK
6
CONTINUOUS
10
530.3578169999999545
20
-379.1149649999999838
11
530.421577999999954
21
-378.8811559999999758
0
LINE
8
BLACK
6
CONTINUOUS
10
530.421577999999954
20
-378.8811559999999758
11
530.4543820000000096
21
-378.6410389999999779
0
LINE
8
BLACK
6
CONTINUOUS
10
530.4543820000000096
20
-378.6410389999999779
11
530.4549989999999298
21
-378.5199999999999818
0
LINE
8
BLACK
6
CONTINUOUS
10
530.4549989999999298
20
-378.5199999999999818
11
530.4549999999999272
21
-378.0401129999999625
0
LINE
8
BLACK
6
CONTINUOUS
10
530.4549999999999272
20
-378.0401129999999625
11
530.4549999999999272
21
-298.6399999999999864
0
LINE
8
BLACK
6
CONTINUOUS
10
530.4549999999999272
20
-298.6399999999999864
11
530.4550369999999475
21
-298.6398090000000138
0
LINE
8
BLACK
6
CONTINUOUS
10
530.4550369999999475
20
-298.6398090000000138
11
530.4550120000000106
21
-298.4947510000000079
0
LINE
8
BLACK
6
CONTINUOUS
10
530.4550120000000106
20
-298.4947510000000079
11
530.4198959999999943
21
-298.2063840000000141
0
LINE
8
BLACK
6
CONTINUOUS
10
530.4198959999999943
20
-298.2063840000000141
11
530.3501780000000281
21
-297.9243759999999952
0
LINE
8
BLACK
6
CONTINUOUS
10
530.3501780000000281
20
-297.9243759999999952
11
530.2468820000000278
21
-297.6528639999999655
0
LINE
8
BLACK
6
CONTINUOUS
10
530.2468820000000278
20
-297.6528639999999655
11
530.1115209999999252
21
-297.395828999999992
0
LINE
8
BLACK
6
CONTINUOUS
10
530.1115209999999252
20
-297.395828999999992
11
529.9460829999999305
21
-297.1570429999999874
0
LINE
8
BLACK
6
CONTINUOUS
10
529.9460829999999305
20
-297.1570429999999874
11
529.7529919999999493
21
-296.9400059999999826
0
LINE
8
BLACK
6
CONTINUOUS
10
529.7529919999999493
20
-296.9400059999999826
11
529.5350799999999936
21
-296.747903000000008
0
LINE
8
BLACK
6
CONTINUOUS
10
529.5350799999999936
20
-296.747903000000008
11
529.2955449999999473
21
-296.5835500000000025
0
LINE
8
BLACK
6
CONTINUOUS
10
529.2955449999999473
20
-296.5835500000000025
11
529.0378989999999249
21
-296.4493579999999611
0
LINE
8
BLACK
6
CONTINUOUS
10
529.0378989999999249
20
-296.4493579999999611
11
528.7659209999999348
21
-296.3472959999999716
0
LINE
8
BLACK
6
CONTINUOUS
10
528.7659209999999348
20
-296.3472959999999716
11
528.4835990000000265
21
-296.2788590000000113
0
LINE
8
BLACK
6
CONTINUOUS
10
528.4835990000000265
20
-296.2788590000000113
11
528.1950749999999744
21
-296.2450529999999844
0
LINE
8
BLACK
6
CONTINUOUS
10
528.1950749999999744
20
-296.2450529999999844
11
528.049827999999934
21
-296.2456869999999753
0
LINE
8
BLACK
6
CONTINUOUS
10
528.049827999999934
20
-296.2456869999999753
11
528.049827999999934
21
-296.2456859999999779
0
LINE
8
BLACK
6
CONTINUOUS
10
528.049827999999934
20
-296.2456859999999779
11
528.0497689999999693
21
-296.245666999999969
0
LINE
8
BLACK
6
CONTINUOUS
10
528.0497689999999693
20
-296.245666999999969
11
528.0496689999999944
21
-296.2456869999999753
0
LINE
8
BLACK
6
CONTINUOUS
10
528.0496689999999944
20
-296.2456869999999753
11
466.9851509999999735
21
-296.1356959999999958
0
LINE
8
BLACK
6
CONTINUOUS
10
466.9851509999999735
20
-296.1356959999999958
11
412.8813289999999938
21
-320.9523079999999595
  0
ENDSEC
  0
EOF
