<?xml version="1.0" standalone="no"?>
 <!DOCTYPE svg PUBLIC "-//W3C//DTD SVG 1.1//EN" 
 "http://www.w3.org/Graphics/SVG/1.1/DTD/svg11.dtd"> 
<svg
  xmlns:svg="http://www.w3.org/2000/svg"
  xmlns="http://www.w3.org/2000/svg"
  xmlns:xlink="http://www.w3.org/1999/xlink"
  version="1.1"
  width="1188.9994mm" height="840.9940mm" viewBox="0.0000 0.0000 1188.9994 840.9940">
<title>SVG Image created as custom_Hackboard-Edge_Cuts.svg date 2025/06/13 10:09:39 </title>
  <desc>Image generated by PCBNEW </desc>
<g style="fill:#000000; fill-opacity:1.0000;stroke:#000000; stroke-opacity:1.0000;
stroke-linecap:round; stroke-linejoin:round;"
 transform="translate(0 0) scale(1 1)">
</g>
<g style="fill:none; 
stroke:#000000; stroke-width:0.0500; stroke-opacity:1; 
stroke-linecap:round; stroke-linejoin:round;">
<path d="M421.6700 343.4800 A1.6700 1.6700 0.0 0 0 420.0000 341.8100" />
<path d="M420.3400 359.5400 A1.3300 1.3300 0.0 0 0 421.6700 358.2100" />
<path d="M411.6886 378.4311
L411.7000 361.3300
" />
<path d="M528.6000 380.3900
L413.6500 380.4800
" />
<path d="M530.4800 298.6400 A2.4193 2.4193 0.0 0 0 528.0497 296.2207" />
<path d="M412.8700 320.9300 A2.0057 2.0057 0.0 0 0 411.8443 322.6800" />
<path d="M421.6700 358.2100
L421.6700 343.4800
" />
<path d="M413.4900 359.5400
L420.3400 359.5400
" />
<path d="M411.8500 340.1900 A1.6200 1.6200 0.0 0 0 413.4700 341.8100" />
<path d="M420.0000 341.8100
L414.0300 341.8100
" />
<path d="M412.8700 320.9300
L466.9797 296.1107
" />
<path d="M413.4900 359.5400 A1.7900 1.7900 0.0 0 0 411.7000 361.3300" />
<path d="M414.0300 341.8100
L413.4700 341.8100
" />
<path d="M411.6886 378.4311 A2.0301 2.0301 0.0 0 0 413.6500 380.4800" />
<path d="M466.9797 296.1107
L528.0497 296.2207
" />
<path d="M530.4800 378.0401
L530.4800 378.5200
" />
<path d="M411.8500 340.1900
L411.8400 322.6800
" />
<path d="M528.6000 380.3900 A1.8800 1.8800 0.0 0 0 530.4800 378.5200" />
<path d="M530.4800 378.0401
L530.4800 298.6400
" />
</g> 
</svg>
