%TF.GenerationSoftware,KiCad,Pcbnew,9.0.2-9.0.2-0~ubuntu24.04.1*%
%TF.CreationDate,2025-07-03T20:15:36-04:00*%
%TF.ProjectId,custom_Hackboard,63757374-6f6d-45f4-9861-636b626f6172,rev?*%
%TF.SameCoordinates,Original*%
%TF.FileFunction,Plated,1,2,PTH,Mixed*%
%TF.FilePolarity,Positive*%
%FSLAX46Y46*%
G04 Gerber Fmt 4.6, Leading zero omitted, Abs format (unit mm)*
G04 Created by KiCad (PCBNEW 9.0.2-9.0.2-0~ubuntu24.04.1) date 2025-07-03 20:15:36*
%MOMM*%
%LPD*%
G01*
G04 APERTURE LIST*
%TA.AperFunction,ViaDrill*%
%ADD10C,0.300000*%
%TD*%
G04 aperture for slot hole*
%TA.AperFunction,ComponentDrill*%
%ADD11C,0.700000*%
%TD*%
%TA.AperFunction,ComponentDrill*%
%ADD12C,0.800000*%
%TD*%
%TA.AperFunction,ComponentDrill*%
%ADD13C,1.000000*%
%TD*%
%TA.AperFunction,ComponentDrill*%
%ADD14C,1.100000*%
%TD*%
%TA.AperFunction,ComponentDrill*%
%ADD15C,1.500000*%
%TD*%
%TA.AperFunction,ComponentDrill*%
%ADD16C,4.000000*%
%TD*%
G04 APERTURE END LIST*
D10*
X440507200Y-312078500D03*
X440887200Y-265042400D03*
X440959700Y-270893300D03*
X441225100Y-314742700D03*
X444412600Y-329217800D03*
X449822900Y-318840000D03*
X465903700Y-272584500D03*
X466015700Y-274148600D03*
X476567500Y-282206400D03*
D11*
%TO.C,U3*%
X448699941Y-333739700D02*
X448007121Y-334139700D01*
X451298017Y-332239700D02*
X450605197Y-332639700D01*
X454762119Y-330239700D02*
X454069299Y-330639700D01*
X457828144Y-333550212D02*
X457135324Y-333950212D01*
D12*
%TO.C,D6*%
X458241846Y-343378154D03*
X463630000Y-337990000D03*
%TO.C,D1*%
X470290000Y-269460000D03*
%TO.C,D12*%
X470320000Y-288670000D03*
%TO.C,D13*%
X470470000Y-307860000D03*
%TO.C,D7*%
X476749986Y-327140000D03*
%TO.C,D1*%
X477910000Y-269460000D03*
%TO.C,D12*%
X477940000Y-288670000D03*
%TO.C,D13*%
X478090000Y-307860000D03*
%TO.C,D7*%
X483349100Y-323330000D03*
%TO.C,D14*%
X489520000Y-305150000D03*
%TO.C,D2*%
X489700000Y-266760000D03*
%TO.C,D11*%
X489890000Y-285890000D03*
%TO.C,D14*%
X497140000Y-305150000D03*
%TO.C,D2*%
X497320000Y-266760000D03*
%TO.C,D11*%
X497510000Y-285890000D03*
%TO.C,D18*%
X498609845Y-316966101D03*
X505970200Y-314993900D03*
%TO.C,D15*%
X508620000Y-297990000D03*
%TO.C,D10*%
X508670000Y-278730000D03*
%TO.C,D3*%
X508690000Y-259660000D03*
%TO.C,D15*%
X516240000Y-297990000D03*
%TO.C,D10*%
X516290000Y-278730000D03*
%TO.C,D3*%
X516310000Y-259660000D03*
%TO.C,D4*%
X527540000Y-266150000D03*
%TO.C,D16*%
X527750000Y-304440000D03*
%TO.C,D9*%
X532440000Y-285120000D03*
%TO.C,D4*%
X535160000Y-266150000D03*
%TO.C,D16*%
X535370000Y-304440000D03*
%TO.C,D9*%
X540060000Y-285120000D03*
%TO.C,D17*%
X546490000Y-316300000D03*
%TO.C,D5*%
X546500000Y-277790000D03*
%TO.C,D8*%
X546590000Y-297210000D03*
%TO.C,D17*%
X554110000Y-316300000D03*
%TO.C,D5*%
X554120000Y-277790000D03*
%TO.C,D8*%
X554210000Y-297210000D03*
D13*
%TO.C,A1*%
X445200000Y-261410000D03*
X445200000Y-263950000D03*
X445200000Y-266490000D03*
X445200000Y-269030000D03*
X445200000Y-271570000D03*
X445200000Y-274110000D03*
X445200000Y-276650000D03*
X445200000Y-279190000D03*
X445200000Y-281730000D03*
X445200000Y-284270000D03*
X445200000Y-286810000D03*
X445200000Y-289350000D03*
X445200000Y-291890000D03*
X445200000Y-294430000D03*
X445200000Y-296970000D03*
X445200000Y-299510000D03*
X445200000Y-302050000D03*
X445200000Y-304590000D03*
X445200000Y-307130000D03*
X445200000Y-309670000D03*
%TO.C,J1*%
X450300000Y-312960000D03*
X452840000Y-312960000D03*
X455380000Y-312960000D03*
X457920000Y-312960000D03*
%TO.C,A1*%
X462980000Y-261410000D03*
X462980000Y-263950000D03*
X462980000Y-266490000D03*
X462980000Y-269030000D03*
X462980000Y-271570000D03*
X462980000Y-274110000D03*
X462980000Y-276650000D03*
X462980000Y-279190000D03*
X462980000Y-281730000D03*
X462980000Y-284270000D03*
X462980000Y-286810000D03*
X462980000Y-289350000D03*
X462980000Y-291890000D03*
X462980000Y-294430000D03*
X462980000Y-296970000D03*
X462980000Y-299510000D03*
X462980000Y-302050000D03*
X462980000Y-304590000D03*
X462980000Y-307130000D03*
X462980000Y-309670000D03*
D14*
%TO.C,Reset*%
X457820000Y-316320000D03*
X457820000Y-320820000D03*
X464320000Y-316320000D03*
X464320000Y-320820000D03*
D15*
%TO.C,SW6*%
X463879923Y-348988079D03*
X466574000Y-342701900D03*
%TO.C,SW7*%
X472690000Y-276560000D03*
%TO.C,SW1*%
X472740000Y-257260000D03*
%TO.C,SW13*%
X472770000Y-295760000D03*
%TO.C,SW7*%
X479040000Y-274020000D03*
%TO.C,SW1*%
X479090000Y-254720000D03*
%TO.C,SW13*%
X479120000Y-293220000D03*
%TO.C,SW12*%
X481010439Y-334205305D03*
X485239700Y-328830600D03*
%TO.C,SW14*%
X491820000Y-292960000D03*
%TO.C,SW2*%
X491830000Y-254650000D03*
%TO.C,SW8*%
X491900000Y-273750000D03*
%TO.C,SW14*%
X498170000Y-290420000D03*
%TO.C,SW2*%
X498180000Y-252110000D03*
%TO.C,SW8*%
X498250000Y-271210000D03*
%TO.C,SW18*%
X501172471Y-324732653D03*
X506648700Y-320635700D03*
%TO.C,SW3*%
X510930000Y-247650000D03*
%TO.C,SW9*%
X510950000Y-266740000D03*
%TO.C,SW15*%
X510960000Y-285790000D03*
%TO.C,SW3*%
X517280000Y-245110000D03*
%TO.C,SW9*%
X517300000Y-264200000D03*
%TO.C,SW15*%
X517310000Y-283250000D03*
%TO.C,SW4*%
X529950000Y-254040000D03*
%TO.C,SW16*%
X529980000Y-292350000D03*
%TO.C,SW10*%
X529990000Y-273100000D03*
%TO.C,SW4*%
X536300000Y-251500000D03*
%TO.C,SW16*%
X536330000Y-289810000D03*
%TO.C,SW10*%
X536340000Y-270560000D03*
%TO.C,SW11*%
X548760000Y-284980000D03*
%TO.C,SW17*%
X548760000Y-304090000D03*
%TO.C,SW5*%
X548770000Y-265840000D03*
%TO.C,SW11*%
X555110000Y-282440000D03*
%TO.C,SW17*%
X555110000Y-301550000D03*
%TO.C,SW5*%
X555120000Y-263300000D03*
D16*
%TO.C,*%
X452740000Y-345170000D03*
X504680000Y-266860000D03*
X521190000Y-327330000D03*
X542470000Y-266310000D03*
M02*
