%TF.GenerationSoftware,KiCad,Pcbnew,9.0.2-9.0.2-0~ubuntu24.04.1*%
%TF.CreationDate,2025-07-03T20:15:36-04:00*%
%TF.ProjectId,custom_Hackboard,63757374-6f6d-45f4-9861-636b626f6172,rev?*%
%TF.SameCoordinates,Original*%
%TF.FileFunction,NonPlated,1,2,NPTH,Drill*%
%TF.FilePolarity,Positive*%
%FSLAX46Y46*%
G04 Gerber Fmt 4.6, Leading zero omitted, Abs format (unit mm)*
G04 Created by KiCad (PCBNEW 9.0.2-9.0.2-0~ubuntu24.04.1) date 2025-07-03 20:15:36*
%MOMM*%
%LPD*%
G01*
G04 APERTURE LIST*
%TA.AperFunction,ComponentDrill*%
%ADD10C,1.500000*%
%TD*%
%TA.AperFunction,ComponentDrill*%
%ADD11C,1.700000*%
%TD*%
%TA.AperFunction,ComponentDrill*%
%ADD12C,1.850000*%
%TD*%
%TA.AperFunction,ComponentDrill*%
%ADD13C,2.200000*%
%TD*%
%TA.AperFunction,ComponentDrill*%
%ADD14C,4.000000*%
%TD*%
G04 APERTURE END LIST*
D10*
%TO.C,U3*%
X448197794Y-336569956D03*
X454259972Y-333069956D03*
D11*
%TO.C,SW6*%
X464777949Y-351682156D03*
%TO.C,SW7*%
X471420000Y-279100000D03*
%TO.C,SW1*%
X471470000Y-259800000D03*
%TO.C,SW13*%
X471500000Y-298300000D03*
%TO.C,SW6*%
X471962154Y-344497951D03*
%TO.C,SW12*%
X481180586Y-337040009D03*
%TO.C,SW7*%
X481580000Y-279100000D03*
%TO.C,SW1*%
X481630000Y-259800000D03*
%TO.C,SW13*%
X481660000Y-298300000D03*
%TO.C,SW12*%
X489979405Y-331960009D03*
%TO.C,SW14*%
X490550000Y-295500000D03*
%TO.C,SW2*%
X490560000Y-257190000D03*
%TO.C,SW8*%
X490630000Y-276290000D03*
%TO.C,SW18*%
X500603146Y-327514804D03*
%TO.C,SW14*%
X500710000Y-295500000D03*
%TO.C,SW2*%
X500720000Y-257190000D03*
%TO.C,SW8*%
X500790000Y-276290000D03*
%TO.C,SW3*%
X509660000Y-250190000D03*
%TO.C,SW9*%
X509680000Y-269280000D03*
%TO.C,SW15*%
X509690000Y-288330000D03*
%TO.C,SW18*%
X510416952Y-324885203D03*
%TO.C,SW3*%
X519820000Y-250190000D03*
%TO.C,SW9*%
X519840000Y-269280000D03*
%TO.C,SW15*%
X519850000Y-288330000D03*
%TO.C,SW4*%
X528680000Y-256580000D03*
%TO.C,SW16*%
X528710000Y-294890000D03*
%TO.C,SW10*%
X528720000Y-275640000D03*
%TO.C,SW4*%
X538840000Y-256580000D03*
%TO.C,SW16*%
X538870000Y-294890000D03*
%TO.C,SW10*%
X538880000Y-275640000D03*
%TO.C,SW11*%
X547490000Y-287520000D03*
%TO.C,SW17*%
X547490000Y-306630000D03*
%TO.C,SW5*%
X547500000Y-268380000D03*
%TO.C,SW11*%
X557650000Y-287520000D03*
%TO.C,SW17*%
X557650000Y-306630000D03*
%TO.C,SW5*%
X557660000Y-268380000D03*
D12*
%TO.C,A1*%
X451665000Y-264570000D03*
X456515000Y-264570000D03*
D13*
X451365000Y-261540000D03*
X456815000Y-261540000D03*
D14*
%TO.C,SW6*%
X468370051Y-348090054D03*
%TO.C,SW7*%
X476500000Y-279100000D03*
%TO.C,SW1*%
X476550000Y-259800000D03*
%TO.C,SW13*%
X476580000Y-298300000D03*
%TO.C,SW12*%
X485579995Y-334500009D03*
%TO.C,SW14*%
X495630000Y-295500000D03*
%TO.C,SW2*%
X495640000Y-257190000D03*
%TO.C,SW8*%
X495710000Y-276290000D03*
%TO.C,SW18*%
X505510049Y-326200004D03*
%TO.C,SW3*%
X514740000Y-250190000D03*
%TO.C,SW9*%
X514760000Y-269280000D03*
%TO.C,SW15*%
X514770000Y-288330000D03*
%TO.C,SW4*%
X533760000Y-256580000D03*
%TO.C,SW16*%
X533790000Y-294890000D03*
%TO.C,SW10*%
X533800000Y-275640000D03*
%TO.C,SW11*%
X552570000Y-287520000D03*
%TO.C,SW17*%
X552570000Y-306630000D03*
%TO.C,SW5*%
X552580000Y-268380000D03*
M02*
