%TF.GenerationSoftware,KiCad,Pcbnew,9.0.2-9.0.2-0~ubuntu24.04.1*%
%TF.CreationDate,2025-07-03T20:15:33-04:00*%
%TF.ProjectId,custom_Hackboard,63757374-6f6d-45f4-9861-636b626f6172,rev?*%
%TF.SameCoordinates,Original*%
%TF.FileFunction,Legend,Bot*%
%TF.FilePolarity,Positive*%
%FSLAX46Y46*%
G04 Gerber Fmt 4.6, Leading zero omitted, Abs format (unit mm)*
G04 Created by KiCad (PCBNEW 9.0.2-9.0.2-0~ubuntu24.04.1) date 2025-07-03 20:15:33*
%MOMM*%
%LPD*%
G01*
G04 APERTURE LIST*
%ADD10C,0.150000*%
%ADD11C,0.300000*%
%ADD12C,0.120000*%
%ADD13C,0.000000*%
G04 APERTURE END LIST*
D10*
X494914285Y-284224819D02*
X494914285Y-283224819D01*
X494914285Y-283224819D02*
X494676190Y-283224819D01*
X494676190Y-283224819D02*
X494533333Y-283272438D01*
X494533333Y-283272438D02*
X494438095Y-283367676D01*
X494438095Y-283367676D02*
X494390476Y-283462914D01*
X494390476Y-283462914D02*
X494342857Y-283653390D01*
X494342857Y-283653390D02*
X494342857Y-283796247D01*
X494342857Y-283796247D02*
X494390476Y-283986723D01*
X494390476Y-283986723D02*
X494438095Y-284081961D01*
X494438095Y-284081961D02*
X494533333Y-284177200D01*
X494533333Y-284177200D02*
X494676190Y-284224819D01*
X494676190Y-284224819D02*
X494914285Y-284224819D01*
X493390476Y-284224819D02*
X493961904Y-284224819D01*
X493676190Y-284224819D02*
X493676190Y-283224819D01*
X493676190Y-283224819D02*
X493771428Y-283367676D01*
X493771428Y-283367676D02*
X493866666Y-283462914D01*
X493866666Y-283462914D02*
X493961904Y-283510533D01*
X492438095Y-284224819D02*
X493009523Y-284224819D01*
X492723809Y-284224819D02*
X492723809Y-283224819D01*
X492723809Y-283224819D02*
X492819047Y-283367676D01*
X492819047Y-283367676D02*
X492914285Y-283462914D01*
X492914285Y-283462914D02*
X493009523Y-283510533D01*
X497771904Y-284544820D02*
X497771904Y-283544820D01*
X497200476Y-284544820D02*
X497629047Y-283973391D01*
X497200476Y-283544820D02*
X497771904Y-284116248D01*
X513694285Y-277064819D02*
X513694285Y-276064819D01*
X513694285Y-276064819D02*
X513456190Y-276064819D01*
X513456190Y-276064819D02*
X513313333Y-276112438D01*
X513313333Y-276112438D02*
X513218095Y-276207676D01*
X513218095Y-276207676D02*
X513170476Y-276302914D01*
X513170476Y-276302914D02*
X513122857Y-276493390D01*
X513122857Y-276493390D02*
X513122857Y-276636247D01*
X513122857Y-276636247D02*
X513170476Y-276826723D01*
X513170476Y-276826723D02*
X513218095Y-276921961D01*
X513218095Y-276921961D02*
X513313333Y-277017200D01*
X513313333Y-277017200D02*
X513456190Y-277064819D01*
X513456190Y-277064819D02*
X513694285Y-277064819D01*
X512170476Y-277064819D02*
X512741904Y-277064819D01*
X512456190Y-277064819D02*
X512456190Y-276064819D01*
X512456190Y-276064819D02*
X512551428Y-276207676D01*
X512551428Y-276207676D02*
X512646666Y-276302914D01*
X512646666Y-276302914D02*
X512741904Y-276350533D01*
X511551428Y-276064819D02*
X511456190Y-276064819D01*
X511456190Y-276064819D02*
X511360952Y-276112438D01*
X511360952Y-276112438D02*
X511313333Y-276160057D01*
X511313333Y-276160057D02*
X511265714Y-276255295D01*
X511265714Y-276255295D02*
X511218095Y-276445771D01*
X511218095Y-276445771D02*
X511218095Y-276683866D01*
X511218095Y-276683866D02*
X511265714Y-276874342D01*
X511265714Y-276874342D02*
X511313333Y-276969580D01*
X511313333Y-276969580D02*
X511360952Y-277017200D01*
X511360952Y-277017200D02*
X511456190Y-277064819D01*
X511456190Y-277064819D02*
X511551428Y-277064819D01*
X511551428Y-277064819D02*
X511646666Y-277017200D01*
X511646666Y-277017200D02*
X511694285Y-276969580D01*
X511694285Y-276969580D02*
X511741904Y-276874342D01*
X511741904Y-276874342D02*
X511789523Y-276683866D01*
X511789523Y-276683866D02*
X511789523Y-276445771D01*
X511789523Y-276445771D02*
X511741904Y-276255295D01*
X511741904Y-276255295D02*
X511694285Y-276160057D01*
X511694285Y-276160057D02*
X511646666Y-276112438D01*
X511646666Y-276112438D02*
X511551428Y-276064819D01*
X516551904Y-277384820D02*
X516551904Y-276384820D01*
X515980476Y-277384820D02*
X516409047Y-276813391D01*
X515980476Y-276384820D02*
X516551904Y-276956248D01*
X532774283Y-307014820D02*
X532774283Y-306014820D01*
X532774283Y-306014820D02*
X532536188Y-306014820D01*
X532536188Y-306014820D02*
X532393331Y-306062439D01*
X532393331Y-306062439D02*
X532298093Y-306157677D01*
X532298093Y-306157677D02*
X532250474Y-306252915D01*
X532250474Y-306252915D02*
X532202855Y-306443391D01*
X532202855Y-306443391D02*
X532202855Y-306586248D01*
X532202855Y-306586248D02*
X532250474Y-306776724D01*
X532250474Y-306776724D02*
X532298093Y-306871962D01*
X532298093Y-306871962D02*
X532393331Y-306967201D01*
X532393331Y-306967201D02*
X532536188Y-307014820D01*
X532536188Y-307014820D02*
X532774283Y-307014820D01*
X531250474Y-307014820D02*
X531821902Y-307014820D01*
X531536188Y-307014820D02*
X531536188Y-306014820D01*
X531536188Y-306014820D02*
X531631426Y-306157677D01*
X531631426Y-306157677D02*
X531726664Y-306252915D01*
X531726664Y-306252915D02*
X531821902Y-306300534D01*
X530393331Y-306014820D02*
X530583807Y-306014820D01*
X530583807Y-306014820D02*
X530679045Y-306062439D01*
X530679045Y-306062439D02*
X530726664Y-306110058D01*
X530726664Y-306110058D02*
X530821902Y-306252915D01*
X530821902Y-306252915D02*
X530869521Y-306443391D01*
X530869521Y-306443391D02*
X530869521Y-306824343D01*
X530869521Y-306824343D02*
X530821902Y-306919581D01*
X530821902Y-306919581D02*
X530774283Y-306967201D01*
X530774283Y-306967201D02*
X530679045Y-307014820D01*
X530679045Y-307014820D02*
X530488569Y-307014820D01*
X530488569Y-307014820D02*
X530393331Y-306967201D01*
X530393331Y-306967201D02*
X530345712Y-306919581D01*
X530345712Y-306919581D02*
X530298093Y-306824343D01*
X530298093Y-306824343D02*
X530298093Y-306586248D01*
X530298093Y-306586248D02*
X530345712Y-306491010D01*
X530345712Y-306491010D02*
X530393331Y-306443391D01*
X530393331Y-306443391D02*
X530488569Y-306395772D01*
X530488569Y-306395772D02*
X530679045Y-306395772D01*
X530679045Y-306395772D02*
X530774283Y-306443391D01*
X530774283Y-306443391D02*
X530821902Y-306491010D01*
X530821902Y-306491010D02*
X530869521Y-306586248D01*
X528011904Y-306694818D02*
X528011904Y-305694818D01*
X527440476Y-306694818D02*
X527869047Y-306123389D01*
X527440476Y-305694818D02*
X528011904Y-306266246D01*
X532088093Y-268724819D02*
X532088093Y-267724819D01*
X532088093Y-267724819D02*
X531849998Y-267724819D01*
X531849998Y-267724819D02*
X531707141Y-267772438D01*
X531707141Y-267772438D02*
X531611903Y-267867676D01*
X531611903Y-267867676D02*
X531564284Y-267962914D01*
X531564284Y-267962914D02*
X531516665Y-268153390D01*
X531516665Y-268153390D02*
X531516665Y-268296247D01*
X531516665Y-268296247D02*
X531564284Y-268486723D01*
X531564284Y-268486723D02*
X531611903Y-268581961D01*
X531611903Y-268581961D02*
X531707141Y-268677200D01*
X531707141Y-268677200D02*
X531849998Y-268724819D01*
X531849998Y-268724819D02*
X532088093Y-268724819D01*
X530659522Y-268058152D02*
X530659522Y-268724819D01*
X530897617Y-267677200D02*
X531135712Y-268391485D01*
X531135712Y-268391485D02*
X530516665Y-268391485D01*
X527801904Y-268404818D02*
X527801904Y-267404818D01*
X527230476Y-268404818D02*
X527659047Y-267833389D01*
X527230476Y-267404818D02*
X527801904Y-267976246D01*
X551138096Y-299784819D02*
X551138096Y-298784819D01*
X551138096Y-298784819D02*
X550900001Y-298784819D01*
X550900001Y-298784819D02*
X550757144Y-298832438D01*
X550757144Y-298832438D02*
X550661906Y-298927676D01*
X550661906Y-298927676D02*
X550614287Y-299022914D01*
X550614287Y-299022914D02*
X550566668Y-299213390D01*
X550566668Y-299213390D02*
X550566668Y-299356247D01*
X550566668Y-299356247D02*
X550614287Y-299546723D01*
X550614287Y-299546723D02*
X550661906Y-299641961D01*
X550661906Y-299641961D02*
X550757144Y-299737200D01*
X550757144Y-299737200D02*
X550900001Y-299784819D01*
X550900001Y-299784819D02*
X551138096Y-299784819D01*
X549995239Y-299213390D02*
X550090477Y-299165771D01*
X550090477Y-299165771D02*
X550138096Y-299118152D01*
X550138096Y-299118152D02*
X550185715Y-299022914D01*
X550185715Y-299022914D02*
X550185715Y-298975295D01*
X550185715Y-298975295D02*
X550138096Y-298880057D01*
X550138096Y-298880057D02*
X550090477Y-298832438D01*
X550090477Y-298832438D02*
X549995239Y-298784819D01*
X549995239Y-298784819D02*
X549804763Y-298784819D01*
X549804763Y-298784819D02*
X549709525Y-298832438D01*
X549709525Y-298832438D02*
X549661906Y-298880057D01*
X549661906Y-298880057D02*
X549614287Y-298975295D01*
X549614287Y-298975295D02*
X549614287Y-299022914D01*
X549614287Y-299022914D02*
X549661906Y-299118152D01*
X549661906Y-299118152D02*
X549709525Y-299165771D01*
X549709525Y-299165771D02*
X549804763Y-299213390D01*
X549804763Y-299213390D02*
X549995239Y-299213390D01*
X549995239Y-299213390D02*
X550090477Y-299261009D01*
X550090477Y-299261009D02*
X550138096Y-299308628D01*
X550138096Y-299308628D02*
X550185715Y-299403866D01*
X550185715Y-299403866D02*
X550185715Y-299594342D01*
X550185715Y-299594342D02*
X550138096Y-299689580D01*
X550138096Y-299689580D02*
X550090477Y-299737200D01*
X550090477Y-299737200D02*
X549995239Y-299784819D01*
X549995239Y-299784819D02*
X549804763Y-299784819D01*
X549804763Y-299784819D02*
X549709525Y-299737200D01*
X549709525Y-299737200D02*
X549661906Y-299689580D01*
X549661906Y-299689580D02*
X549614287Y-299594342D01*
X549614287Y-299594342D02*
X549614287Y-299403866D01*
X549614287Y-299403866D02*
X549661906Y-299308628D01*
X549661906Y-299308628D02*
X549709525Y-299261009D01*
X549709525Y-299261009D02*
X549804763Y-299213390D01*
X546851904Y-299464818D02*
X546851904Y-298464818D01*
X546280476Y-299464818D02*
X546709047Y-298893389D01*
X546280476Y-298464818D02*
X546851904Y-299036246D01*
X513644286Y-300564819D02*
X513644286Y-299564819D01*
X513644286Y-299564819D02*
X513406191Y-299564819D01*
X513406191Y-299564819D02*
X513263334Y-299612438D01*
X513263334Y-299612438D02*
X513168096Y-299707676D01*
X513168096Y-299707676D02*
X513120477Y-299802914D01*
X513120477Y-299802914D02*
X513072858Y-299993390D01*
X513072858Y-299993390D02*
X513072858Y-300136247D01*
X513072858Y-300136247D02*
X513120477Y-300326723D01*
X513120477Y-300326723D02*
X513168096Y-300421961D01*
X513168096Y-300421961D02*
X513263334Y-300517200D01*
X513263334Y-300517200D02*
X513406191Y-300564819D01*
X513406191Y-300564819D02*
X513644286Y-300564819D01*
X512120477Y-300564819D02*
X512691905Y-300564819D01*
X512406191Y-300564819D02*
X512406191Y-299564819D01*
X512406191Y-299564819D02*
X512501429Y-299707676D01*
X512501429Y-299707676D02*
X512596667Y-299802914D01*
X512596667Y-299802914D02*
X512691905Y-299850533D01*
X511215715Y-299564819D02*
X511691905Y-299564819D01*
X511691905Y-299564819D02*
X511739524Y-300041009D01*
X511739524Y-300041009D02*
X511691905Y-299993390D01*
X511691905Y-299993390D02*
X511596667Y-299945771D01*
X511596667Y-299945771D02*
X511358572Y-299945771D01*
X511358572Y-299945771D02*
X511263334Y-299993390D01*
X511263334Y-299993390D02*
X511215715Y-300041009D01*
X511215715Y-300041009D02*
X511168096Y-300136247D01*
X511168096Y-300136247D02*
X511168096Y-300374342D01*
X511168096Y-300374342D02*
X511215715Y-300469580D01*
X511215715Y-300469580D02*
X511263334Y-300517200D01*
X511263334Y-300517200D02*
X511358572Y-300564819D01*
X511358572Y-300564819D02*
X511596667Y-300564819D01*
X511596667Y-300564819D02*
X511691905Y-300517200D01*
X511691905Y-300517200D02*
X511739524Y-300469580D01*
X508881904Y-300244818D02*
X508881904Y-299244818D01*
X508310476Y-300244818D02*
X508739047Y-299673389D01*
X508310476Y-299244818D02*
X508881904Y-299816246D01*
X494544283Y-307724820D02*
X494544283Y-306724820D01*
X494544283Y-306724820D02*
X494306188Y-306724820D01*
X494306188Y-306724820D02*
X494163331Y-306772439D01*
X494163331Y-306772439D02*
X494068093Y-306867677D01*
X494068093Y-306867677D02*
X494020474Y-306962915D01*
X494020474Y-306962915D02*
X493972855Y-307153391D01*
X493972855Y-307153391D02*
X493972855Y-307296248D01*
X493972855Y-307296248D02*
X494020474Y-307486724D01*
X494020474Y-307486724D02*
X494068093Y-307581962D01*
X494068093Y-307581962D02*
X494163331Y-307677201D01*
X494163331Y-307677201D02*
X494306188Y-307724820D01*
X494306188Y-307724820D02*
X494544283Y-307724820D01*
X493020474Y-307724820D02*
X493591902Y-307724820D01*
X493306188Y-307724820D02*
X493306188Y-306724820D01*
X493306188Y-306724820D02*
X493401426Y-306867677D01*
X493401426Y-306867677D02*
X493496664Y-306962915D01*
X493496664Y-306962915D02*
X493591902Y-307010534D01*
X492163331Y-307058153D02*
X492163331Y-307724820D01*
X492401426Y-306677201D02*
X492639521Y-307391486D01*
X492639521Y-307391486D02*
X492020474Y-307391486D01*
X489781904Y-307404818D02*
X489781904Y-306404818D01*
X489210476Y-307404818D02*
X489639047Y-306833389D01*
X489210476Y-306404818D02*
X489781904Y-306976246D01*
X460280374Y-338984703D02*
X459573267Y-338277597D01*
X459573267Y-338277597D02*
X459404908Y-338445955D01*
X459404908Y-338445955D02*
X459337565Y-338580642D01*
X459337565Y-338580642D02*
X459337565Y-338715329D01*
X459337565Y-338715329D02*
X459371237Y-338816345D01*
X459371237Y-338816345D02*
X459472252Y-338984703D01*
X459472252Y-338984703D02*
X459573267Y-339085719D01*
X459573267Y-339085719D02*
X459741626Y-339186734D01*
X459741626Y-339186734D02*
X459842641Y-339220406D01*
X459842641Y-339220406D02*
X459977328Y-339220406D01*
X459977328Y-339220406D02*
X460112015Y-339153062D01*
X460112015Y-339153062D02*
X460280374Y-338984703D01*
X458563115Y-339287749D02*
X458697802Y-339153062D01*
X458697802Y-339153062D02*
X458798817Y-339119390D01*
X458798817Y-339119390D02*
X458866160Y-339119390D01*
X458866160Y-339119390D02*
X459034519Y-339153062D01*
X459034519Y-339153062D02*
X459202878Y-339254077D01*
X459202878Y-339254077D02*
X459472252Y-339523451D01*
X459472252Y-339523451D02*
X459505924Y-339624467D01*
X459505924Y-339624467D02*
X459505924Y-339691810D01*
X459505924Y-339691810D02*
X459472252Y-339792825D01*
X459472252Y-339792825D02*
X459337565Y-339927512D01*
X459337565Y-339927512D02*
X459236550Y-339961184D01*
X459236550Y-339961184D02*
X459169206Y-339961184D01*
X459169206Y-339961184D02*
X459068191Y-339927512D01*
X459068191Y-339927512D02*
X458899832Y-339759154D01*
X458899832Y-339759154D02*
X458866160Y-339658138D01*
X458866160Y-339658138D02*
X458866160Y-339590795D01*
X458866160Y-339590795D02*
X458899832Y-339489780D01*
X458899832Y-339489780D02*
X459034519Y-339355093D01*
X459034519Y-339355093D02*
X459135534Y-339321421D01*
X459135534Y-339321421D02*
X459202878Y-339321421D01*
X459202878Y-339321421D02*
X459303893Y-339355093D01*
X462864008Y-336853618D02*
X462156901Y-336146512D01*
X462459947Y-337257680D02*
X462358931Y-336550573D01*
X461752840Y-336550573D02*
X462560962Y-336550573D01*
X536988097Y-283454819D02*
X536988097Y-282454819D01*
X536988097Y-282454819D02*
X536750002Y-282454819D01*
X536750002Y-282454819D02*
X536607145Y-282502438D01*
X536607145Y-282502438D02*
X536511907Y-282597676D01*
X536511907Y-282597676D02*
X536464288Y-282692914D01*
X536464288Y-282692914D02*
X536416669Y-282883390D01*
X536416669Y-282883390D02*
X536416669Y-283026247D01*
X536416669Y-283026247D02*
X536464288Y-283216723D01*
X536464288Y-283216723D02*
X536511907Y-283311961D01*
X536511907Y-283311961D02*
X536607145Y-283407200D01*
X536607145Y-283407200D02*
X536750002Y-283454819D01*
X536750002Y-283454819D02*
X536988097Y-283454819D01*
X535940478Y-283454819D02*
X535750002Y-283454819D01*
X535750002Y-283454819D02*
X535654764Y-283407200D01*
X535654764Y-283407200D02*
X535607145Y-283359580D01*
X535607145Y-283359580D02*
X535511907Y-283216723D01*
X535511907Y-283216723D02*
X535464288Y-283026247D01*
X535464288Y-283026247D02*
X535464288Y-282645295D01*
X535464288Y-282645295D02*
X535511907Y-282550057D01*
X535511907Y-282550057D02*
X535559526Y-282502438D01*
X535559526Y-282502438D02*
X535654764Y-282454819D01*
X535654764Y-282454819D02*
X535845240Y-282454819D01*
X535845240Y-282454819D02*
X535940478Y-282502438D01*
X535940478Y-282502438D02*
X535988097Y-282550057D01*
X535988097Y-282550057D02*
X536035716Y-282645295D01*
X536035716Y-282645295D02*
X536035716Y-282883390D01*
X536035716Y-282883390D02*
X535988097Y-282978628D01*
X535988097Y-282978628D02*
X535940478Y-283026247D01*
X535940478Y-283026247D02*
X535845240Y-283073866D01*
X535845240Y-283073866D02*
X535654764Y-283073866D01*
X535654764Y-283073866D02*
X535559526Y-283026247D01*
X535559526Y-283026247D02*
X535511907Y-282978628D01*
X535511907Y-282978628D02*
X535464288Y-282883390D01*
X540321904Y-283774820D02*
X540321904Y-282774820D01*
X539750476Y-283774820D02*
X540179047Y-283203391D01*
X539750476Y-282774820D02*
X540321904Y-283346248D01*
X551048093Y-280364819D02*
X551048093Y-279364819D01*
X551048093Y-279364819D02*
X550809998Y-279364819D01*
X550809998Y-279364819D02*
X550667141Y-279412438D01*
X550667141Y-279412438D02*
X550571903Y-279507676D01*
X550571903Y-279507676D02*
X550524284Y-279602914D01*
X550524284Y-279602914D02*
X550476665Y-279793390D01*
X550476665Y-279793390D02*
X550476665Y-279936247D01*
X550476665Y-279936247D02*
X550524284Y-280126723D01*
X550524284Y-280126723D02*
X550571903Y-280221961D01*
X550571903Y-280221961D02*
X550667141Y-280317200D01*
X550667141Y-280317200D02*
X550809998Y-280364819D01*
X550809998Y-280364819D02*
X551048093Y-280364819D01*
X549571903Y-279364819D02*
X550048093Y-279364819D01*
X550048093Y-279364819D02*
X550095712Y-279841009D01*
X550095712Y-279841009D02*
X550048093Y-279793390D01*
X550048093Y-279793390D02*
X549952855Y-279745771D01*
X549952855Y-279745771D02*
X549714760Y-279745771D01*
X549714760Y-279745771D02*
X549619522Y-279793390D01*
X549619522Y-279793390D02*
X549571903Y-279841009D01*
X549571903Y-279841009D02*
X549524284Y-279936247D01*
X549524284Y-279936247D02*
X549524284Y-280174342D01*
X549524284Y-280174342D02*
X549571903Y-280269580D01*
X549571903Y-280269580D02*
X549619522Y-280317200D01*
X549619522Y-280317200D02*
X549714760Y-280364819D01*
X549714760Y-280364819D02*
X549952855Y-280364819D01*
X549952855Y-280364819D02*
X550048093Y-280317200D01*
X550048093Y-280317200D02*
X550095712Y-280269580D01*
X546761904Y-280044818D02*
X546761904Y-279044818D01*
X546190476Y-280044818D02*
X546619047Y-279473389D01*
X546190476Y-279044818D02*
X546761904Y-279616246D01*
X479856161Y-323423863D02*
X479356161Y-322557838D01*
X479356161Y-322557838D02*
X479149964Y-322676885D01*
X479149964Y-322676885D02*
X479050056Y-322789553D01*
X479050056Y-322789553D02*
X479015196Y-322919651D01*
X479015196Y-322919651D02*
X479021576Y-323025939D01*
X479021576Y-323025939D02*
X479075575Y-323214706D01*
X479075575Y-323214706D02*
X479147003Y-323338424D01*
X479147003Y-323338424D02*
X479283481Y-323479571D01*
X479283481Y-323479571D02*
X479372339Y-323538240D01*
X479372339Y-323538240D02*
X479502437Y-323573100D01*
X479502437Y-323573100D02*
X479649964Y-323542911D01*
X479649964Y-323542911D02*
X479856161Y-323423863D01*
X478572614Y-323010219D02*
X477995264Y-323343552D01*
X477995264Y-323343552D02*
X478866418Y-323995292D01*
X482903325Y-322034087D02*
X482403325Y-321168062D01*
X482408454Y-322319801D02*
X482493893Y-321610644D01*
X481908454Y-321453776D02*
X482689039Y-321662933D01*
X474838094Y-267794819D02*
X474838094Y-266794819D01*
X474838094Y-266794819D02*
X474599999Y-266794819D01*
X474599999Y-266794819D02*
X474457142Y-266842438D01*
X474457142Y-266842438D02*
X474361904Y-266937676D01*
X474361904Y-266937676D02*
X474314285Y-267032914D01*
X474314285Y-267032914D02*
X474266666Y-267223390D01*
X474266666Y-267223390D02*
X474266666Y-267366247D01*
X474266666Y-267366247D02*
X474314285Y-267556723D01*
X474314285Y-267556723D02*
X474361904Y-267651961D01*
X474361904Y-267651961D02*
X474457142Y-267747200D01*
X474457142Y-267747200D02*
X474599999Y-267794819D01*
X474599999Y-267794819D02*
X474838094Y-267794819D01*
X473314285Y-267794819D02*
X473885713Y-267794819D01*
X473599999Y-267794819D02*
X473599999Y-266794819D01*
X473599999Y-266794819D02*
X473695237Y-266937676D01*
X473695237Y-266937676D02*
X473790475Y-267032914D01*
X473790475Y-267032914D02*
X473885713Y-267080533D01*
X478171904Y-268114819D02*
X478171904Y-267114819D01*
X477600476Y-268114819D02*
X478029047Y-267543390D01*
X477600476Y-267114819D02*
X478171904Y-267686247D01*
X551514283Y-318874820D02*
X551514283Y-317874820D01*
X551514283Y-317874820D02*
X551276188Y-317874820D01*
X551276188Y-317874820D02*
X551133331Y-317922439D01*
X551133331Y-317922439D02*
X551038093Y-318017677D01*
X551038093Y-318017677D02*
X550990474Y-318112915D01*
X550990474Y-318112915D02*
X550942855Y-318303391D01*
X550942855Y-318303391D02*
X550942855Y-318446248D01*
X550942855Y-318446248D02*
X550990474Y-318636724D01*
X550990474Y-318636724D02*
X551038093Y-318731962D01*
X551038093Y-318731962D02*
X551133331Y-318827201D01*
X551133331Y-318827201D02*
X551276188Y-318874820D01*
X551276188Y-318874820D02*
X551514283Y-318874820D01*
X549990474Y-318874820D02*
X550561902Y-318874820D01*
X550276188Y-318874820D02*
X550276188Y-317874820D01*
X550276188Y-317874820D02*
X550371426Y-318017677D01*
X550371426Y-318017677D02*
X550466664Y-318112915D01*
X550466664Y-318112915D02*
X550561902Y-318160534D01*
X549657140Y-317874820D02*
X548990474Y-317874820D01*
X548990474Y-317874820D02*
X549419045Y-318874820D01*
X546751904Y-318554818D02*
X546751904Y-317554818D01*
X546180476Y-318554818D02*
X546609047Y-317983389D01*
X546180476Y-317554818D02*
X546751904Y-318126246D01*
X503031951Y-314057279D02*
X502773132Y-313091353D01*
X502773132Y-313091353D02*
X502543150Y-313152976D01*
X502543150Y-313152976D02*
X502417485Y-313235947D01*
X502417485Y-313235947D02*
X502350142Y-313352589D01*
X502350142Y-313352589D02*
X502328795Y-313456907D01*
X502328795Y-313456907D02*
X502332097Y-313653218D01*
X502332097Y-313653218D02*
X502369071Y-313791207D01*
X502369071Y-313791207D02*
X502464367Y-313962868D01*
X502464367Y-313962868D02*
X502535012Y-314042536D01*
X502535012Y-314042536D02*
X502651655Y-314109880D01*
X502651655Y-314109880D02*
X502801969Y-314118902D01*
X502801969Y-314118902D02*
X503031951Y-314057279D01*
X501560064Y-314451670D02*
X502112022Y-314303773D01*
X501836043Y-314377721D02*
X501577224Y-313411795D01*
X501577224Y-313411795D02*
X501706191Y-313525135D01*
X501706191Y-313525135D02*
X501822834Y-313592479D01*
X501822834Y-313592479D02*
X501927151Y-313613826D01*
X500860210Y-314047609D02*
X500939878Y-313976963D01*
X500939878Y-313976963D02*
X500973550Y-313918642D01*
X500973550Y-313918642D02*
X500994897Y-313814324D01*
X500994897Y-313814324D02*
X500982572Y-313768327D01*
X500982572Y-313768327D02*
X500911926Y-313688659D01*
X500911926Y-313688659D02*
X500853605Y-313654987D01*
X500853605Y-313654987D02*
X500749288Y-313633640D01*
X500749288Y-313633640D02*
X500565302Y-313682939D01*
X500565302Y-313682939D02*
X500485634Y-313753585D01*
X500485634Y-313753585D02*
X500451962Y-313811906D01*
X500451962Y-313811906D02*
X500430615Y-313916224D01*
X500430615Y-313916224D02*
X500442939Y-313962220D01*
X500442939Y-313962220D02*
X500513585Y-314041889D01*
X500513585Y-314041889D02*
X500571907Y-314075560D01*
X500571907Y-314075560D02*
X500676224Y-314096907D01*
X500676224Y-314096907D02*
X500860210Y-314047609D01*
X500860210Y-314047609D02*
X500964528Y-314068956D01*
X500964528Y-314068956D02*
X501022849Y-314102627D01*
X501022849Y-314102627D02*
X501093495Y-314182296D01*
X501093495Y-314182296D02*
X501142794Y-314366281D01*
X501142794Y-314366281D02*
X501121447Y-314470599D01*
X501121447Y-314470599D02*
X501087775Y-314528920D01*
X501087775Y-314528920D02*
X501008107Y-314599566D01*
X501008107Y-314599566D02*
X500824121Y-314648865D01*
X500824121Y-314648865D02*
X500719803Y-314627518D01*
X500719803Y-314627518D02*
X500661482Y-314593846D01*
X500661482Y-314593846D02*
X500590836Y-314514178D01*
X500590836Y-314514178D02*
X500541537Y-314330192D01*
X500541537Y-314330192D02*
X500562884Y-314225875D01*
X500562884Y-314225875D02*
X500596556Y-314167553D01*
X500596556Y-314167553D02*
X500676224Y-314096907D01*
X505875022Y-313626769D02*
X505616203Y-312660843D01*
X505323064Y-313774666D02*
X505589136Y-313111786D01*
X505064245Y-312808740D02*
X505764099Y-313212801D01*
X513238097Y-257994819D02*
X513238097Y-256994819D01*
X513238097Y-256994819D02*
X513000002Y-256994819D01*
X513000002Y-256994819D02*
X512857145Y-257042438D01*
X512857145Y-257042438D02*
X512761907Y-257137676D01*
X512761907Y-257137676D02*
X512714288Y-257232914D01*
X512714288Y-257232914D02*
X512666669Y-257423390D01*
X512666669Y-257423390D02*
X512666669Y-257566247D01*
X512666669Y-257566247D02*
X512714288Y-257756723D01*
X512714288Y-257756723D02*
X512761907Y-257851961D01*
X512761907Y-257851961D02*
X512857145Y-257947200D01*
X512857145Y-257947200D02*
X513000002Y-257994819D01*
X513000002Y-257994819D02*
X513238097Y-257994819D01*
X512333335Y-256994819D02*
X511714288Y-256994819D01*
X511714288Y-256994819D02*
X512047621Y-257375771D01*
X512047621Y-257375771D02*
X511904764Y-257375771D01*
X511904764Y-257375771D02*
X511809526Y-257423390D01*
X511809526Y-257423390D02*
X511761907Y-257471009D01*
X511761907Y-257471009D02*
X511714288Y-257566247D01*
X511714288Y-257566247D02*
X511714288Y-257804342D01*
X511714288Y-257804342D02*
X511761907Y-257899580D01*
X511761907Y-257899580D02*
X511809526Y-257947200D01*
X511809526Y-257947200D02*
X511904764Y-257994819D01*
X511904764Y-257994819D02*
X512190478Y-257994819D01*
X512190478Y-257994819D02*
X512285716Y-257947200D01*
X512285716Y-257947200D02*
X512333335Y-257899580D01*
X516571904Y-258314820D02*
X516571904Y-257314820D01*
X516000476Y-258314820D02*
X516429047Y-257743391D01*
X516000476Y-257314820D02*
X516571904Y-257886248D01*
X475494283Y-310434820D02*
X475494283Y-309434820D01*
X475494283Y-309434820D02*
X475256188Y-309434820D01*
X475256188Y-309434820D02*
X475113331Y-309482439D01*
X475113331Y-309482439D02*
X475018093Y-309577677D01*
X475018093Y-309577677D02*
X474970474Y-309672915D01*
X474970474Y-309672915D02*
X474922855Y-309863391D01*
X474922855Y-309863391D02*
X474922855Y-310006248D01*
X474922855Y-310006248D02*
X474970474Y-310196724D01*
X474970474Y-310196724D02*
X475018093Y-310291962D01*
X475018093Y-310291962D02*
X475113331Y-310387201D01*
X475113331Y-310387201D02*
X475256188Y-310434820D01*
X475256188Y-310434820D02*
X475494283Y-310434820D01*
X473970474Y-310434820D02*
X474541902Y-310434820D01*
X474256188Y-310434820D02*
X474256188Y-309434820D01*
X474256188Y-309434820D02*
X474351426Y-309577677D01*
X474351426Y-309577677D02*
X474446664Y-309672915D01*
X474446664Y-309672915D02*
X474541902Y-309720534D01*
X473637140Y-309434820D02*
X473018093Y-309434820D01*
X473018093Y-309434820D02*
X473351426Y-309815772D01*
X473351426Y-309815772D02*
X473208569Y-309815772D01*
X473208569Y-309815772D02*
X473113331Y-309863391D01*
X473113331Y-309863391D02*
X473065712Y-309911010D01*
X473065712Y-309911010D02*
X473018093Y-310006248D01*
X473018093Y-310006248D02*
X473018093Y-310244343D01*
X473018093Y-310244343D02*
X473065712Y-310339581D01*
X473065712Y-310339581D02*
X473113331Y-310387201D01*
X473113331Y-310387201D02*
X473208569Y-310434820D01*
X473208569Y-310434820D02*
X473494283Y-310434820D01*
X473494283Y-310434820D02*
X473589521Y-310387201D01*
X473589521Y-310387201D02*
X473637140Y-310339581D01*
X470731904Y-310114818D02*
X470731904Y-309114818D01*
X470160476Y-310114818D02*
X470589047Y-309543389D01*
X470160476Y-309114818D02*
X470731904Y-309686246D01*
X475344285Y-287004819D02*
X475344285Y-286004819D01*
X475344285Y-286004819D02*
X475106190Y-286004819D01*
X475106190Y-286004819D02*
X474963333Y-286052438D01*
X474963333Y-286052438D02*
X474868095Y-286147676D01*
X474868095Y-286147676D02*
X474820476Y-286242914D01*
X474820476Y-286242914D02*
X474772857Y-286433390D01*
X474772857Y-286433390D02*
X474772857Y-286576247D01*
X474772857Y-286576247D02*
X474820476Y-286766723D01*
X474820476Y-286766723D02*
X474868095Y-286861961D01*
X474868095Y-286861961D02*
X474963333Y-286957200D01*
X474963333Y-286957200D02*
X475106190Y-287004819D01*
X475106190Y-287004819D02*
X475344285Y-287004819D01*
X473820476Y-287004819D02*
X474391904Y-287004819D01*
X474106190Y-287004819D02*
X474106190Y-286004819D01*
X474106190Y-286004819D02*
X474201428Y-286147676D01*
X474201428Y-286147676D02*
X474296666Y-286242914D01*
X474296666Y-286242914D02*
X474391904Y-286290533D01*
X473439523Y-286100057D02*
X473391904Y-286052438D01*
X473391904Y-286052438D02*
X473296666Y-286004819D01*
X473296666Y-286004819D02*
X473058571Y-286004819D01*
X473058571Y-286004819D02*
X472963333Y-286052438D01*
X472963333Y-286052438D02*
X472915714Y-286100057D01*
X472915714Y-286100057D02*
X472868095Y-286195295D01*
X472868095Y-286195295D02*
X472868095Y-286290533D01*
X472868095Y-286290533D02*
X472915714Y-286433390D01*
X472915714Y-286433390D02*
X473487142Y-287004819D01*
X473487142Y-287004819D02*
X472868095Y-287004819D01*
X478201904Y-287324819D02*
X478201904Y-286324819D01*
X477630476Y-287324819D02*
X478059047Y-286753390D01*
X477630476Y-286324819D02*
X478201904Y-286896247D01*
X494248094Y-265094819D02*
X494248094Y-264094819D01*
X494248094Y-264094819D02*
X494009999Y-264094819D01*
X494009999Y-264094819D02*
X493867142Y-264142438D01*
X493867142Y-264142438D02*
X493771904Y-264237676D01*
X493771904Y-264237676D02*
X493724285Y-264332914D01*
X493724285Y-264332914D02*
X493676666Y-264523390D01*
X493676666Y-264523390D02*
X493676666Y-264666247D01*
X493676666Y-264666247D02*
X493724285Y-264856723D01*
X493724285Y-264856723D02*
X493771904Y-264951961D01*
X493771904Y-264951961D02*
X493867142Y-265047200D01*
X493867142Y-265047200D02*
X494009999Y-265094819D01*
X494009999Y-265094819D02*
X494248094Y-265094819D01*
X493295713Y-264190057D02*
X493248094Y-264142438D01*
X493248094Y-264142438D02*
X493152856Y-264094819D01*
X493152856Y-264094819D02*
X492914761Y-264094819D01*
X492914761Y-264094819D02*
X492819523Y-264142438D01*
X492819523Y-264142438D02*
X492771904Y-264190057D01*
X492771904Y-264190057D02*
X492724285Y-264285295D01*
X492724285Y-264285295D02*
X492724285Y-264380533D01*
X492724285Y-264380533D02*
X492771904Y-264523390D01*
X492771904Y-264523390D02*
X493343332Y-265094819D01*
X493343332Y-265094819D02*
X492724285Y-265094819D01*
X497581904Y-265414819D02*
X497581904Y-264414819D01*
X497010476Y-265414819D02*
X497439047Y-264843390D01*
X497010476Y-264414819D02*
X497581904Y-264986247D01*
D11*
D12*
%TO.C,D11*%
X496470000Y-285890000D02*
X495820000Y-285890000D01*
X495220000Y-284770000D02*
X495220000Y-287010000D01*
X495100000Y-284770000D02*
X495100000Y-287010000D01*
X494980000Y-284770000D02*
X494980000Y-287010000D01*
X490930000Y-285890000D02*
X491580000Y-285890000D01*
X495820000Y-284770000D02*
X491580000Y-284770000D01*
X491580000Y-287010000D01*
X495820000Y-287010000D01*
X495820000Y-284770000D01*
%TO.C,D10*%
X515250000Y-278730000D02*
X514600000Y-278730000D01*
X514000000Y-277610000D02*
X514000000Y-279850000D01*
X513880000Y-277610000D02*
X513880000Y-279850000D01*
X513760000Y-277610000D02*
X513760000Y-279850000D01*
X509710000Y-278730000D02*
X510360000Y-278730000D01*
X514600000Y-277610000D02*
X510360000Y-277610000D01*
X510360000Y-279850000D01*
X514600000Y-279850000D01*
X514600000Y-277610000D01*
%TO.C,D16*%
X528790000Y-304440000D02*
X529440000Y-304440000D01*
X530040000Y-305560000D02*
X530040000Y-303320000D01*
X530160000Y-305560000D02*
X530160000Y-303320000D01*
X530280000Y-305560000D02*
X530280000Y-303320000D01*
X534330000Y-304440000D02*
X533680000Y-304440000D01*
X529440000Y-305560000D02*
X533680000Y-305560000D01*
X533680000Y-303320000D01*
X529440000Y-303320000D01*
X529440000Y-305560000D01*
%TO.C,D4*%
X528580000Y-266150000D02*
X529230000Y-266150000D01*
X529830000Y-267270000D02*
X529830000Y-265030000D01*
X529950000Y-267270000D02*
X529950000Y-265030000D01*
X530070000Y-267270000D02*
X530070000Y-265030000D01*
X534120000Y-266150000D02*
X533470000Y-266150000D01*
X529230000Y-267270000D02*
X533470000Y-267270000D01*
X533470000Y-265030000D01*
X529230000Y-265030000D01*
X529230000Y-267270000D01*
%TO.C,D8*%
X547630000Y-297210000D02*
X548280000Y-297210000D01*
X548880000Y-298330000D02*
X548880000Y-296090000D01*
X549000000Y-298330000D02*
X549000000Y-296090000D01*
X549120000Y-298330000D02*
X549120000Y-296090000D01*
X553170000Y-297210000D02*
X552520000Y-297210000D01*
X548280000Y-298330000D02*
X552520000Y-298330000D01*
X552520000Y-296090000D01*
X548280000Y-296090000D01*
X548280000Y-298330000D01*
%TO.C,D15*%
X509660000Y-297990000D02*
X510310000Y-297990000D01*
X510910000Y-299110000D02*
X510910000Y-296870000D01*
X511030000Y-299110000D02*
X511030000Y-296870000D01*
X511150000Y-299110000D02*
X511150000Y-296870000D01*
X515200000Y-297990000D02*
X514550000Y-297990000D01*
X510310000Y-299110000D02*
X514550000Y-299110000D01*
X514550000Y-296870000D01*
X510310000Y-296870000D01*
X510310000Y-299110000D01*
%TO.C,D14*%
X490560000Y-305150000D02*
X491210000Y-305150000D01*
X491810000Y-306270000D02*
X491810000Y-304030000D01*
X491930000Y-306270000D02*
X491930000Y-304030000D01*
X492050000Y-306270000D02*
X492050000Y-304030000D01*
X496100000Y-305150000D02*
X495450000Y-305150000D01*
X491210000Y-306270000D02*
X495450000Y-306270000D01*
X495450000Y-304030000D01*
X491210000Y-304030000D01*
X491210000Y-306270000D01*
%TO.C,D6*%
X462894609Y-338725391D02*
X462434990Y-339185010D01*
X461218766Y-338817315D02*
X462802685Y-340401234D01*
X461133913Y-338902168D02*
X462717832Y-340486087D01*
X461049060Y-338987021D02*
X462632979Y-340570940D01*
X458977237Y-342642763D02*
X459436857Y-342183143D01*
X463226949Y-339976970D02*
X460228816Y-342975103D01*
X458644897Y-341391184D01*
X461643030Y-338393051D01*
X463226949Y-339976970D01*
%TO.C,D9*%
X539020000Y-285120000D02*
X538370000Y-285120000D01*
X537770000Y-284000000D02*
X537770000Y-286240000D01*
X537650000Y-284000000D02*
X537650000Y-286240000D01*
X537530000Y-284000000D02*
X537530000Y-286240000D01*
X533480000Y-285120000D02*
X534130000Y-285120000D01*
X538370000Y-284000000D02*
X534130000Y-284000000D01*
X534130000Y-286240000D01*
X538370000Y-286240000D01*
X538370000Y-284000000D01*
%TO.C,D5*%
X547540000Y-277790000D02*
X548190000Y-277790000D01*
X548790000Y-278910000D02*
X548790000Y-276670000D01*
X548910000Y-278910000D02*
X548910000Y-276670000D01*
X549030000Y-278910000D02*
X549030000Y-276670000D01*
X553080000Y-277790000D02*
X552430000Y-277790000D01*
X548190000Y-278910000D02*
X552430000Y-278910000D01*
X552430000Y-276670000D01*
X548190000Y-276670000D01*
X548190000Y-278910000D01*
%TO.C,D7*%
X482448434Y-323850000D02*
X481885517Y-324175000D01*
X480805902Y-323505052D02*
X481925902Y-325444948D01*
X480701979Y-323565052D02*
X481821979Y-325504948D01*
X480598056Y-323625052D02*
X481718056Y-325564948D01*
X477650653Y-326620000D02*
X478213569Y-326295000D01*
X482445517Y-325144948D02*
X478773569Y-327264948D01*
X477653569Y-325325052D01*
X481325517Y-323205052D01*
X482445517Y-325144948D01*
%TO.C,D1*%
X476870000Y-269460000D02*
X476220000Y-269460000D01*
X475620000Y-268340000D02*
X475620000Y-270580000D01*
X475500000Y-268340000D02*
X475500000Y-270580000D01*
X475380000Y-268340000D02*
X475380000Y-270580000D01*
X471330000Y-269460000D02*
X471980000Y-269460000D01*
X476220000Y-268340000D02*
X471980000Y-268340000D01*
X471980000Y-270580000D01*
X476220000Y-270580000D01*
X476220000Y-268340000D01*
%TO.C,D17*%
X547530000Y-316300000D02*
X548180000Y-316300000D01*
X548780000Y-317420000D02*
X548780000Y-315180000D01*
X548900000Y-317420000D02*
X548900000Y-315180000D01*
X549020000Y-317420000D02*
X549020000Y-315180000D01*
X553070000Y-316300000D02*
X552420000Y-316300000D01*
X548180000Y-317420000D02*
X552420000Y-317420000D01*
X552420000Y-315180000D01*
X548180000Y-315180000D01*
X548180000Y-317420000D01*
%TO.C,D18*%
X504965637Y-315263072D02*
X504337785Y-315431304D01*
X503468353Y-314504759D02*
X504048107Y-316668433D01*
X503352441Y-314535817D02*
X503932196Y-316699491D01*
X503236530Y-314566875D02*
X503816285Y-316730549D01*
X499614408Y-316696929D02*
X500242260Y-316528697D01*
X504627663Y-316513141D02*
X500532137Y-317610534D01*
X499952383Y-315446860D01*
X504047908Y-314349467D01*
X504627663Y-316513141D01*
%TO.C,D3*%
X515270000Y-259660000D02*
X514620000Y-259660000D01*
X514020000Y-258540000D02*
X514020000Y-260780000D01*
X513900000Y-258540000D02*
X513900000Y-260780000D01*
X513780000Y-258540000D02*
X513780000Y-260780000D01*
X509730000Y-259660000D02*
X510380000Y-259660000D01*
X514620000Y-258540000D02*
X510380000Y-258540000D01*
X510380000Y-260780000D01*
X514620000Y-260780000D01*
X514620000Y-258540000D01*
%TO.C,D13*%
X471510000Y-307860000D02*
X472160000Y-307860000D01*
X472760000Y-308980000D02*
X472760000Y-306740000D01*
X472880000Y-308980000D02*
X472880000Y-306740000D01*
X473000000Y-308980000D02*
X473000000Y-306740000D01*
X477050000Y-307860000D02*
X476400000Y-307860000D01*
X472160000Y-308980000D02*
X476400000Y-308980000D01*
X476400000Y-306740000D01*
X472160000Y-306740000D01*
X472160000Y-308980000D01*
%TO.C,D12*%
X476900000Y-288670000D02*
X476250000Y-288670000D01*
X475650000Y-287550000D02*
X475650000Y-289790000D01*
X475530000Y-287550000D02*
X475530000Y-289790000D01*
X475410000Y-287550000D02*
X475410000Y-289790000D01*
X471360000Y-288670000D02*
X472010000Y-288670000D01*
X476250000Y-287550000D02*
X472010000Y-287550000D01*
X472010000Y-289790000D01*
X476250000Y-289790000D01*
X476250000Y-287550000D01*
%TO.C,D2*%
X496280000Y-266760000D02*
X495630000Y-266760000D01*
X495030000Y-265640000D02*
X495030000Y-267880000D01*
X494910000Y-265640000D02*
X494910000Y-267880000D01*
X494790000Y-265640000D02*
X494790000Y-267880000D01*
X490740000Y-266760000D02*
X491390000Y-266760000D01*
X495630000Y-265640000D02*
X491390000Y-265640000D01*
X491390000Y-267880000D01*
X495630000Y-267880000D01*
X495630000Y-265640000D01*
D13*
%TO.C,  *%
G36*
X463781130Y-327793848D02*
G01*
X463910074Y-327831322D01*
X464007002Y-327883212D01*
X464015901Y-327891146D01*
X464054568Y-327945044D01*
X464032225Y-327995440D01*
X463977408Y-328044398D01*
X463855954Y-328108726D01*
X463742637Y-328130950D01*
X463660544Y-328123720D01*
X463623482Y-328085193D01*
X463613703Y-327990113D01*
X463613436Y-327947100D01*
X463613436Y-327763250D01*
X463781130Y-327793848D01*
G37*
G36*
X463725182Y-328448282D02*
G01*
X463843711Y-328476919D01*
X463916515Y-328513591D01*
X464001339Y-328606836D01*
X464006728Y-328699347D01*
X463941880Y-328778432D01*
X463815994Y-328831400D01*
X463675293Y-328846443D01*
X463475229Y-328846443D01*
X463505488Y-328678749D01*
X463529863Y-328561280D01*
X463551512Y-328484815D01*
X463554871Y-328477517D01*
X463616877Y-328447282D01*
X463725182Y-328448282D01*
G37*
G36*
X455596397Y-323810624D02*
G01*
X455590216Y-323860201D01*
X455547653Y-323959546D01*
X455482458Y-324084361D01*
X455408385Y-324210350D01*
X455339184Y-324313217D01*
X455288607Y-324368665D01*
X455278421Y-324372419D01*
X455212197Y-324346892D01*
X455111146Y-324286508D01*
X455086646Y-324269630D01*
X454944538Y-324169034D01*
X455259934Y-323979296D01*
X455407199Y-323894499D01*
X455523306Y-323834754D01*
X455589058Y-323809685D01*
X455596397Y-323810624D01*
G37*
G36*
X442522174Y-318259383D02*
G01*
X442454655Y-319112944D01*
X442407380Y-319939741D01*
X442380301Y-320731261D01*
X442373370Y-321478991D01*
X442386538Y-322174416D01*
X442419757Y-322809023D01*
X442472977Y-323374298D01*
X442546151Y-323861728D01*
X442554409Y-323905070D01*
X442685937Y-324391662D01*
X442883193Y-324860386D01*
X443135408Y-325289997D01*
X443431811Y-325659252D01*
X443457148Y-325685587D01*
X443608811Y-325834088D01*
X443753726Y-325963997D01*
X443871153Y-326057275D01*
X443920168Y-326088350D01*
X444059471Y-326159402D01*
X444083205Y-325897656D01*
X444349698Y-325897656D01*
X444358039Y-326111871D01*
X444433540Y-326275709D01*
X444582177Y-326396774D01*
X444809387Y-326482528D01*
X444968572Y-326503275D01*
X445191743Y-326503642D01*
X445456231Y-326485374D01*
X445739364Y-326450215D01*
X446018473Y-326399907D01*
X446089851Y-326384035D01*
X446270937Y-326341015D01*
X446415788Y-326304910D01*
X446504704Y-326280720D01*
X446522935Y-326274076D01*
X446506418Y-326234491D01*
X446449301Y-326143313D01*
X446369808Y-326028562D01*
X446271744Y-325872675D01*
X446576823Y-325872675D01*
X446730800Y-326096267D01*
X446850582Y-326285479D01*
X446910357Y-326427516D01*
X446912229Y-326539557D01*
X446858300Y-326638778D01*
X446804177Y-326695457D01*
X446695758Y-326837923D01*
X446666158Y-326974943D01*
X446709948Y-327090294D01*
X446821700Y-327167755D01*
X446970240Y-327191698D01*
X447124205Y-327166902D01*
X447273169Y-327107011D01*
X447280483Y-327102670D01*
X447452353Y-326953707D01*
X447559872Y-326767279D01*
X447599600Y-326562951D01*
X447568102Y-326360288D01*
X447461937Y-326178855D01*
X447445888Y-326161383D01*
X447312865Y-326058549D01*
X447133181Y-325964826D01*
X446940284Y-325893814D01*
X446914502Y-325888632D01*
X447538477Y-325888632D01*
X447582435Y-325876358D01*
X447678526Y-325806536D01*
X447710058Y-325779532D01*
X447785061Y-325701003D01*
X447812422Y-325645689D01*
X447809240Y-325637904D01*
X447763734Y-325648951D01*
X447681789Y-325710165D01*
X447637247Y-325751993D01*
X447554224Y-325846223D01*
X447538477Y-325888632D01*
X446914502Y-325888632D01*
X446767623Y-325859111D01*
X446702734Y-325859238D01*
X446576823Y-325872675D01*
X446271744Y-325872675D01*
X446269793Y-325869573D01*
X446240381Y-325757994D01*
X446285226Y-325681934D01*
X446407978Y-325629506D01*
X446498807Y-325608616D01*
X446697615Y-325591573D01*
X446919542Y-325621469D01*
X446970173Y-325633206D01*
X447236481Y-325698265D01*
X447423395Y-325523914D01*
X447610308Y-325349563D01*
X447489583Y-325167134D01*
X447433572Y-325067746D01*
X447739499Y-325067746D01*
X447893476Y-325291337D01*
X448013258Y-325480549D01*
X448073033Y-325622586D01*
X448074905Y-325734627D01*
X448020976Y-325833848D01*
X447966853Y-325890527D01*
X447858434Y-326032994D01*
X447828834Y-326170014D01*
X447872624Y-326285365D01*
X447984376Y-326362825D01*
X448132916Y-326386769D01*
X448286881Y-326361973D01*
X448435845Y-326302081D01*
X448443159Y-326297741D01*
X448615029Y-326148777D01*
X448722548Y-325962349D01*
X448762276Y-325758022D01*
X448730778Y-325555359D01*
X448624613Y-325373926D01*
X448608564Y-325356453D01*
X448475541Y-325253619D01*
X448295857Y-325159896D01*
X448102960Y-325088884D01*
X447930299Y-325054182D01*
X447865410Y-325054308D01*
X447739499Y-325067746D01*
X447433572Y-325067746D01*
X447414950Y-325034703D01*
X447399889Y-324947024D01*
X447411734Y-324916732D01*
X447412308Y-324916280D01*
X448476289Y-324916280D01*
X448588084Y-325002198D01*
X448674008Y-325064692D01*
X448731898Y-325078361D01*
X448797053Y-325040036D01*
X448870090Y-324976876D01*
X448950082Y-324900760D01*
X448970022Y-324844241D01*
X448937312Y-324768188D01*
X448916347Y-324732339D01*
X448856676Y-324642776D01*
X448814267Y-324599053D01*
X448810807Y-324598204D01*
X448767128Y-324627603D01*
X448684992Y-324702561D01*
X448630395Y-324757242D01*
X448476289Y-324916280D01*
X447412308Y-324916280D01*
X447509085Y-324840091D01*
X447673038Y-324797151D01*
X447885829Y-324791935D01*
X447941855Y-324796708D01*
X448058975Y-324806370D01*
X448142247Y-324797264D01*
X448217604Y-324757286D01*
X448310976Y-324674335D01*
X448404189Y-324580930D01*
X448524063Y-324455754D01*
X448588674Y-324373425D01*
X448607966Y-324315583D01*
X448591888Y-324263869D01*
X448591263Y-324262816D01*
X448902175Y-324262816D01*
X449056152Y-324486408D01*
X449175934Y-324675619D01*
X449235709Y-324817657D01*
X449237581Y-324929697D01*
X449183652Y-325028919D01*
X449129529Y-325085597D01*
X449021110Y-325228064D01*
X448991510Y-325365084D01*
X449035300Y-325480435D01*
X449147052Y-325557895D01*
X449295592Y-325581839D01*
X449449557Y-325557043D01*
X449598521Y-325497152D01*
X449605835Y-325492811D01*
X449777705Y-325343848D01*
X449885224Y-325157420D01*
X449924953Y-324953092D01*
X449893454Y-324750429D01*
X449787289Y-324568996D01*
X449771240Y-324551523D01*
X449638217Y-324448690D01*
X449458533Y-324354967D01*
X449265636Y-324283955D01*
X449092975Y-324249252D01*
X449028086Y-324249379D01*
X448902175Y-324262816D01*
X448591263Y-324262816D01*
X448583566Y-324249840D01*
X448555136Y-324146285D01*
X448612082Y-324065765D01*
X448705226Y-324028667D01*
X449400854Y-324028667D01*
X449631705Y-324145741D01*
X449862556Y-324262816D01*
X449916437Y-324151020D01*
X449947027Y-324043661D01*
X449967474Y-323888609D01*
X449972335Y-323782094D01*
X449968336Y-323643953D01*
X449955906Y-323550618D01*
X449942110Y-323524964D01*
X449897365Y-323554335D01*
X449807262Y-323632313D01*
X449689111Y-323743694D01*
X449655361Y-323776815D01*
X449400854Y-324028667D01*
X448705226Y-324028667D01*
X448753013Y-324009634D01*
X448848871Y-323991921D01*
X448947407Y-323972435D01*
X449035404Y-323936796D01*
X449130530Y-323872999D01*
X449250455Y-323769038D01*
X449412847Y-323612911D01*
X449426553Y-323599432D01*
X449572404Y-323451624D01*
X449691034Y-323323343D01*
X449769606Y-323229021D01*
X449774677Y-323220313D01*
X452165549Y-323220313D01*
X452197313Y-323343951D01*
X452285771Y-323409072D01*
X452420679Y-323416465D01*
X452591788Y-323366923D01*
X452788851Y-323261236D01*
X452927715Y-323161458D01*
X453158881Y-322978733D01*
X453375181Y-323191781D01*
X453591481Y-323404828D01*
X453364680Y-323729665D01*
X453249935Y-323901995D01*
X453184744Y-324023401D01*
X453161126Y-324111436D01*
X453166005Y-324166566D01*
X453229688Y-324270799D01*
X453347761Y-324308328D01*
X453514160Y-324278361D01*
X453634153Y-324227907D01*
X453702989Y-324174238D01*
X453816072Y-324064368D01*
X453961523Y-323911732D01*
X454127462Y-323729764D01*
X454302013Y-323531897D01*
X454473295Y-323331565D01*
X454629431Y-323142202D01*
X454758541Y-322977243D01*
X454838191Y-322866209D01*
X454922900Y-322732993D01*
X454962300Y-322644385D01*
X454964066Y-322572943D01*
X454940196Y-322501541D01*
X454866480Y-322391418D01*
X454761629Y-322350139D01*
X454620943Y-322378848D01*
X454439723Y-322478687D01*
X454213270Y-322650800D01*
X454167310Y-322689572D01*
X453925243Y-322896377D01*
X453755174Y-322722210D01*
X453585105Y-322548044D01*
X453702616Y-322312231D01*
X453786094Y-322097598D01*
X453822171Y-321896299D01*
X453812703Y-321723289D01*
X453759541Y-321593518D01*
X453664540Y-321521940D01*
X453603509Y-321512640D01*
X453522797Y-321519289D01*
X453450393Y-321546827D01*
X453373606Y-321606643D01*
X453279742Y-321710128D01*
X453156109Y-321868670D01*
X453055314Y-322004542D01*
X452907569Y-322198501D01*
X452747670Y-322397165D01*
X452601384Y-322568900D01*
X452545336Y-322630598D01*
X452376105Y-322817257D01*
X452263468Y-322959048D01*
X452197687Y-323071093D01*
X452169023Y-323168515D01*
X452165549Y-323220313D01*
X449774677Y-323220313D01*
X449795479Y-323184588D01*
X449760150Y-323114467D01*
X449669202Y-323019283D01*
X449545190Y-322917418D01*
X449410670Y-322827254D01*
X449288198Y-322767174D01*
X449279701Y-322764252D01*
X449026289Y-322721663D01*
X448714385Y-322739288D01*
X448349816Y-322815199D01*
X447938407Y-322947464D01*
X447485986Y-323134154D01*
X446998379Y-323373337D01*
X446481411Y-323663085D01*
X446376344Y-323726121D01*
X445854946Y-324064432D01*
X445406198Y-324402152D01*
X445032760Y-324736430D01*
X444737295Y-325064414D01*
X444522463Y-325383253D01*
X444390927Y-325690094D01*
X444349698Y-325897656D01*
X444083205Y-325897656D01*
X444084050Y-325888337D01*
X444156339Y-325565740D01*
X444314145Y-325231212D01*
X444554760Y-324887500D01*
X444875479Y-324537352D01*
X445273594Y-324183514D01*
X445746399Y-323828735D01*
X446291185Y-323475762D01*
X446687556Y-323245850D01*
X447199096Y-322980649D01*
X447682816Y-322768322D01*
X448132659Y-322610356D01*
X448542567Y-322508238D01*
X448906480Y-322463456D01*
X449218342Y-322477497D01*
X449472094Y-322551848D01*
X449486378Y-322558777D01*
X449574567Y-322597475D01*
X449616129Y-322605287D01*
X449616605Y-322603819D01*
X449595825Y-322546773D01*
X449538750Y-322426906D01*
X449453280Y-322259154D01*
X449347315Y-322058450D01*
X449228755Y-321839730D01*
X449105498Y-321617926D01*
X448985446Y-321407975D01*
X448970493Y-321382341D01*
X448782290Y-321039287D01*
X448632004Y-320711917D01*
X448515984Y-320384087D01*
X448430579Y-320039649D01*
X448372139Y-319662459D01*
X448337013Y-319236370D01*
X448321552Y-318745236D01*
X448320038Y-318505334D01*
X448319775Y-317666866D01*
X448453929Y-317666866D01*
X448588084Y-317666866D01*
X448588084Y-318439430D01*
X448597571Y-318994477D01*
X448627537Y-319474086D01*
X448680240Y-319890381D01*
X448757940Y-320255484D01*
X448862896Y-320581518D01*
X448997366Y-320880608D01*
X449066415Y-321006710D01*
X449295114Y-321406112D01*
X449481399Y-321739419D01*
X449630287Y-322016358D01*
X449746794Y-322246655D01*
X449835940Y-322440040D01*
X449902740Y-322606238D01*
X449926967Y-322675108D01*
X450044205Y-323024526D01*
X451347588Y-321776682D01*
X452650970Y-320528837D01*
X452911341Y-320529151D01*
X453219401Y-320555505D01*
X453577461Y-320629450D01*
X453964437Y-320744301D01*
X454359241Y-320893374D01*
X454740787Y-321069987D01*
X454917180Y-321164932D01*
X455528626Y-321548693D01*
X456143638Y-322009142D01*
X456765502Y-322549121D01*
X457397502Y-323171470D01*
X458007141Y-323837992D01*
X458441633Y-324314531D01*
X458856217Y-324723227D01*
X459267973Y-325077666D01*
X459693982Y-325391434D01*
X460151323Y-325678119D01*
X460657076Y-325951306D01*
X460675568Y-325960641D01*
X461501729Y-326327895D01*
X462374018Y-326621683D01*
X463284311Y-326839643D01*
X464150056Y-326971352D01*
X464395389Y-326992321D01*
X464698993Y-327008409D01*
X465039129Y-327019401D01*
X465394059Y-327025079D01*
X465742043Y-327025227D01*
X466061343Y-327019628D01*
X466330218Y-327008066D01*
X466491683Y-326994686D01*
X466669916Y-326980351D01*
X466766016Y-326986539D01*
X466782352Y-327005019D01*
X466743626Y-327046196D01*
X466646129Y-327132863D01*
X466501406Y-327255239D01*
X466321000Y-327403543D01*
X466140021Y-327549225D01*
X465936384Y-327711928D01*
X465756462Y-327856275D01*
X465612170Y-327972657D01*
X465515428Y-328051466D01*
X465479048Y-328082147D01*
X465506819Y-328109801D01*
X465604823Y-328166945D01*
X465761226Y-328247509D01*
X465964198Y-328345426D01*
X466201906Y-328454625D01*
X466228080Y-328466356D01*
X466471333Y-328576591D01*
X466683856Y-328675703D01*
X466853119Y-328757616D01*
X466966591Y-328816255D01*
X467011742Y-328845545D01*
X467012028Y-328846474D01*
X466970864Y-328873009D01*
X466855793Y-328918299D01*
X466679449Y-328978518D01*
X466454466Y-329049843D01*
X466193475Y-329128450D01*
X465909112Y-329210514D01*
X465614009Y-329292212D01*
X465320799Y-329369718D01*
X465101367Y-329424845D01*
X464304869Y-329601677D01*
X463521044Y-329740767D01*
X462761675Y-329840994D01*
X462038545Y-329901238D01*
X461363438Y-329920378D01*
X460748140Y-329897296D01*
X460447547Y-329867214D01*
X460009980Y-329792689D01*
X459563345Y-329675791D01*
X459096047Y-329512122D01*
X458596488Y-329297288D01*
X458053070Y-329026892D01*
X457645230Y-328804925D01*
X457308743Y-328611993D01*
X456989623Y-328419092D01*
X456678477Y-328219260D01*
X456365911Y-328005534D01*
X456324562Y-327975539D01*
X459052169Y-327975539D01*
X459076282Y-328220899D01*
X459153216Y-328402262D01*
X459289862Y-328532374D01*
X459379342Y-328580665D01*
X459590710Y-328652907D01*
X459761412Y-328655156D01*
X459786549Y-328644008D01*
X460330205Y-328644008D01*
X460341143Y-328729348D01*
X460388105Y-328795369D01*
X460484458Y-328849779D01*
X460643575Y-328900286D01*
X460863260Y-328951291D01*
X461099227Y-328997160D01*
X461264761Y-329017121D01*
X461374975Y-329011361D01*
X461444981Y-328980068D01*
X461466485Y-328958808D01*
X461509193Y-328890080D01*
X461505039Y-328832190D01*
X461445135Y-328779204D01*
X461320595Y-328725189D01*
X461122532Y-328664214D01*
X460959821Y-328620547D01*
X460862196Y-328593087D01*
X460798293Y-328561035D01*
X460767482Y-328510381D01*
X460769134Y-328427112D01*
X460772859Y-328412660D01*
X461735447Y-328412660D01*
X461770621Y-328663844D01*
X461872252Y-328866566D01*
X462033823Y-329010915D01*
X462166466Y-329068318D01*
X462310317Y-329090969D01*
X462436758Y-329057550D01*
X462497336Y-329012858D01*
X463166574Y-329012858D01*
X463206904Y-329071312D01*
X463314247Y-329115125D01*
X463466986Y-329141657D01*
X463643506Y-329148268D01*
X463822191Y-329132318D01*
X463935494Y-329106764D01*
X464072450Y-329044945D01*
X464183716Y-328960400D01*
X464197813Y-328944219D01*
X464262005Y-328802278D01*
X464281574Y-328621445D01*
X464255040Y-328441170D01*
X464219875Y-328355855D01*
X464185633Y-328274454D01*
X464199917Y-328206432D01*
X464266178Y-328117653D01*
X464349915Y-327970235D01*
X464372963Y-327848030D01*
X464357138Y-327705659D01*
X464298285Y-327614647D01*
X464208894Y-327556306D01*
X464102926Y-327526190D01*
X463945655Y-327509660D01*
X463767332Y-327506543D01*
X463598213Y-327516668D01*
X463468550Y-327539861D01*
X463421159Y-327560792D01*
X463386401Y-327609307D01*
X463353362Y-327707873D01*
X463319604Y-327867242D01*
X463282691Y-328098162D01*
X463256419Y-328287464D01*
X463225110Y-328525361D01*
X463198534Y-328733603D01*
X463178789Y-328895242D01*
X463167976Y-328993333D01*
X463166574Y-329012858D01*
X462497336Y-329012858D01*
X462570541Y-328958851D01*
X462637327Y-328893183D01*
X462770021Y-328707663D01*
X462883501Y-328454104D01*
X462970029Y-328153161D01*
X463015742Y-327882989D01*
X463029355Y-327658024D01*
X463006662Y-327509525D01*
X462945875Y-327431452D01*
X462877372Y-327415457D01*
X462815172Y-327419441D01*
X462768978Y-327441151D01*
X462731040Y-327495225D01*
X462693608Y-327596301D01*
X462648933Y-327759016D01*
X462607073Y-327926025D01*
X462514684Y-328253449D01*
X462421323Y-328494206D01*
X462327429Y-328647680D01*
X462233439Y-328713258D01*
X462139792Y-328690326D01*
X462093351Y-328645617D01*
X462067930Y-328593630D01*
X462058736Y-328509418D01*
X462066830Y-328380659D01*
X462093269Y-328195030D01*
X462139112Y-327940208D01*
X462165789Y-327802559D01*
X462205211Y-327558832D01*
X462210868Y-327389774D01*
X462181366Y-327286682D01*
X462115315Y-327240852D01*
X462075278Y-327236584D01*
X461972034Y-327259822D01*
X461921176Y-327295184D01*
X461890893Y-327368122D01*
X461855766Y-327508027D01*
X461819464Y-327692839D01*
X461785653Y-327900492D01*
X461758001Y-328108926D01*
X461740173Y-328296077D01*
X461735447Y-328412660D01*
X460772859Y-328412660D01*
X460802618Y-328297218D01*
X460867305Y-328106686D01*
X460928990Y-327934794D01*
X461012343Y-327670178D01*
X461064986Y-327431027D01*
X461086046Y-327230011D01*
X461074650Y-327079800D01*
X461029926Y-326993067D01*
X460994948Y-326977485D01*
X460894501Y-326998304D01*
X460831536Y-327044562D01*
X460793236Y-327115773D01*
X460737414Y-327255323D01*
X460669727Y-327445173D01*
X460595827Y-327667280D01*
X460521372Y-327903605D01*
X460452014Y-328136105D01*
X460393410Y-328346739D01*
X460351213Y-328517466D01*
X460331080Y-328630245D01*
X460330205Y-328644008D01*
X459786549Y-328644008D01*
X459894420Y-328596168D01*
X459974578Y-328499421D01*
X459982627Y-328406645D01*
X459957263Y-328323796D01*
X459888435Y-328280243D01*
X459803544Y-328261875D01*
X459632853Y-328213584D01*
X459529737Y-328125522D01*
X459475369Y-327981018D01*
X459473058Y-327969187D01*
X459466970Y-327783591D01*
X459505432Y-327579250D01*
X459578586Y-327378759D01*
X459676578Y-327204714D01*
X459789552Y-327079710D01*
X459882453Y-327030604D01*
X459982238Y-327028183D01*
X460081447Y-327085274D01*
X460125649Y-327125019D01*
X460244512Y-327212530D01*
X460330035Y-327217173D01*
X460380254Y-327139771D01*
X460393718Y-327012363D01*
X460356185Y-326833625D01*
X460254763Y-326701056D01*
X460106222Y-326622183D01*
X459927331Y-326604532D01*
X459734858Y-326655627D01*
X459671931Y-326688436D01*
X459511235Y-326824730D01*
X459359242Y-327027842D01*
X459226828Y-327275182D01*
X459124872Y-327544159D01*
X459064252Y-327812180D01*
X459052169Y-327975539D01*
X456324562Y-327975539D01*
X456042530Y-327770951D01*
X455698940Y-327508551D01*
X455325748Y-327211369D01*
X454913560Y-326872445D01*
X454778067Y-326758412D01*
X456465703Y-326758412D01*
X456467190Y-326783133D01*
X456500861Y-326876401D01*
X456589933Y-326913606D01*
X456602212Y-326915189D01*
X456751851Y-326899465D01*
X456936316Y-326832162D01*
X457127890Y-326725628D01*
X457271612Y-326616982D01*
X457397866Y-326519409D01*
X457487435Y-326477269D01*
X457529572Y-326494989D01*
X457531433Y-326509911D01*
X457521292Y-326565887D01*
X457494479Y-326686640D01*
X457455958Y-326850168D01*
X457438155Y-326923556D01*
X457383850Y-327157427D01*
X457354581Y-327323084D01*
X457349909Y-327438044D01*
X457369394Y-327519826D01*
X457412597Y-327585946D01*
X457421292Y-327595812D01*
X457531528Y-327673156D01*
X457644237Y-327661729D01*
X457743544Y-327583151D01*
X457843144Y-327417263D01*
X457910393Y-327171202D01*
X457944377Y-326848522D01*
X457946586Y-326792578D01*
X457956570Y-326478802D01*
X458180162Y-326384175D01*
X458448968Y-326256176D01*
X458629876Y-326136670D01*
X458723944Y-326024858D01*
X458739141Y-325961477D01*
X458710472Y-325879820D01*
X458621133Y-325842305D01*
X458466127Y-325848760D01*
X458240453Y-325899016D01*
X458102205Y-325939690D01*
X457966869Y-325979969D01*
X457873626Y-326004198D01*
X457844775Y-326007559D01*
X457866022Y-325966129D01*
X457921769Y-325869155D01*
X458000020Y-325737496D01*
X458001289Y-325735389D01*
X458101457Y-325529806D01*
X458150843Y-325340192D01*
X458150274Y-325180350D01*
X458100576Y-325064078D01*
X458002577Y-325005176D01*
X457957273Y-325000668D01*
X457843592Y-325044804D01*
X457718139Y-325176638D01*
X457581656Y-325395314D01*
X457531239Y-325492570D01*
X457328731Y-325830513D01*
X457068192Y-326138270D01*
X456787150Y-326392447D01*
X456628548Y-326526062D01*
X456530158Y-326621763D01*
X456479902Y-326694298D01*
X456465703Y-326758412D01*
X454778067Y-326758412D01*
X454452981Y-326484816D01*
X454047265Y-326138314D01*
X453579865Y-325740861D01*
X455566617Y-325740861D01*
X455585243Y-325974696D01*
X455668473Y-326173247D01*
X455817938Y-326325954D01*
X455845801Y-326344028D01*
X456015197Y-326419186D01*
X456161185Y-326416541D01*
X456269684Y-326362041D01*
X456354285Y-326262627D01*
X456354968Y-326151825D01*
X456273594Y-326043545D01*
X456222013Y-326006247D01*
X456102018Y-325887334D01*
X456063020Y-325731460D01*
X456104945Y-325538069D01*
X456147040Y-325444791D01*
X456248339Y-325283369D01*
X456388554Y-325106806D01*
X456544990Y-324939877D01*
X456694953Y-324807352D01*
X456786123Y-324747174D01*
X456909023Y-324708503D01*
X457025775Y-324710144D01*
X457107781Y-324747938D01*
X457129282Y-324797094D01*
X457160397Y-324878349D01*
X457230508Y-324959050D01*
X457304758Y-325000224D01*
X457311349Y-325000668D01*
X457395070Y-324961732D01*
X457472657Y-324865570D01*
X457523136Y-324743153D01*
X457531746Y-324675231D01*
X457492624Y-324492333D01*
X457385405Y-324348090D01*
X457225311Y-324248649D01*
X457027565Y-324200154D01*
X456807387Y-324208750D01*
X456580000Y-324280582D01*
X456568149Y-324286218D01*
X456449098Y-324361664D01*
X456298745Y-324481767D01*
X456144757Y-324623942D01*
X456105506Y-324663850D01*
X455882039Y-324933236D01*
X455716647Y-325209572D01*
X455610962Y-325482300D01*
X455566617Y-325740861D01*
X453579865Y-325740861D01*
X453501949Y-325674605D01*
X453013479Y-325268905D01*
X452575158Y-324916283D01*
X452250676Y-324666083D01*
X453864845Y-324666083D01*
X453897616Y-324777683D01*
X453991727Y-324828207D01*
X454140870Y-324815088D01*
X454192300Y-324799432D01*
X454323217Y-324743759D01*
X454426752Y-324681892D01*
X454439422Y-324671399D01*
X454493213Y-324634129D01*
X454552100Y-324635159D01*
X454644316Y-324679082D01*
X454705121Y-324714609D01*
X454894064Y-324827281D01*
X454714842Y-325039828D01*
X454603089Y-325198063D01*
X454543107Y-325339253D01*
X454538955Y-325447996D01*
X454591517Y-325507672D01*
X454755957Y-325529782D01*
X454939978Y-325469231D01*
X455054726Y-325380572D01*
X455196352Y-325226228D01*
X455354510Y-325021835D01*
X455518851Y-324783027D01*
X455679028Y-324525442D01*
X455824693Y-324264714D01*
X455945497Y-324016478D01*
X456014220Y-323846060D01*
X456070611Y-323667416D01*
X456090736Y-323535850D01*
X456078977Y-323418771D01*
X456074348Y-323398877D01*
X456037576Y-323288886D01*
X455979045Y-323238929D01*
X455867882Y-323220529D01*
X455730732Y-323224458D01*
X455617459Y-323252412D01*
X455609069Y-323256542D01*
X455547681Y-323297142D01*
X455426629Y-323383644D01*
X455257322Y-323507654D01*
X455051167Y-323660780D01*
X454819572Y-323834632D01*
X454690451Y-323932279D01*
X454417094Y-324141141D01*
X454208601Y-324304716D01*
X454057206Y-324429907D01*
X453955143Y-324523618D01*
X453894646Y-324592749D01*
X453867948Y-324644205D01*
X453864845Y-324666083D01*
X452250676Y-324666083D01*
X452180289Y-324611809D01*
X451822175Y-324350552D01*
X451494119Y-324127583D01*
X451189425Y-323937972D01*
X450901396Y-323776787D01*
X450704988Y-323677693D01*
X450530980Y-323595002D01*
X450388164Y-323529336D01*
X450294855Y-323488988D01*
X450268984Y-323480246D01*
X450255410Y-323520986D01*
X450245905Y-323627334D01*
X450242662Y-323762798D01*
X450230504Y-323962768D01*
X450199324Y-324170248D01*
X450173030Y-324279827D01*
X450133458Y-324441483D01*
X450129626Y-324562851D01*
X450155859Y-324673262D01*
X450199290Y-324935083D01*
X450163520Y-325187886D01*
X450058669Y-325418105D01*
X449894858Y-325612176D01*
X449682206Y-325756532D01*
X449430833Y-325837609D01*
X449277738Y-325850316D01*
X449139745Y-325853751D01*
X449065751Y-325872486D01*
X449030357Y-325919167D01*
X449013477Y-325981881D01*
X448921054Y-326205675D01*
X448759050Y-326397990D01*
X448545473Y-326545436D01*
X448298328Y-326634622D01*
X448107977Y-326655246D01*
X447972482Y-326658976D01*
X447900487Y-326678996D01*
X447866108Y-326728547D01*
X447850801Y-326786811D01*
X447766755Y-326995642D01*
X447623121Y-327175247D01*
X447437087Y-327318065D01*
X447225840Y-327416539D01*
X447006567Y-327463107D01*
X446796456Y-327450213D01*
X446612694Y-327370295D01*
X446580500Y-327345505D01*
X446463778Y-327205202D01*
X446391570Y-327034220D01*
X446377483Y-326868066D01*
X446384182Y-326833156D01*
X446380985Y-326725879D01*
X446304757Y-326666988D01*
X446158389Y-326657597D01*
X445999470Y-326684856D01*
X445642891Y-326749330D01*
X445284539Y-326777326D01*
X444952671Y-326767949D01*
X444697591Y-326726201D01*
X444237603Y-326563030D01*
X443804266Y-326320130D01*
X443406141Y-326005359D01*
X443051788Y-325626574D01*
X442749767Y-325191635D01*
X442514219Y-324721881D01*
X442378682Y-324321590D01*
X442269918Y-323836523D01*
X442187953Y-323267248D01*
X442132811Y-322614332D01*
X442104515Y-321878343D01*
X442103090Y-321059846D01*
X442128559Y-320159410D01*
X442180948Y-319177602D01*
X442242859Y-318326461D01*
X442296001Y-317666866D01*
X442435713Y-317666866D01*
X442575425Y-317666866D01*
X442522174Y-318259383D01*
G37*
%TD*%
M02*
