%TF.GenerationSoftware,KiCad,Pcbnew,9.0.2-9.0.2-0~ubuntu24.04.1*%
%TF.CreationDate,2025-07-03T20:15:33-04:00*%
%TF.ProjectId,custom_Hackboard,63757374-6f6d-45f4-9861-636b626f6172,rev?*%
%TF.SameCoordinates,Original*%
%TF.FileFunction,Legend,Top*%
%TF.FilePolarity,Positive*%
%FSLAX46Y46*%
G04 Gerber Fmt 4.6, Leading zero omitted, Abs format (unit mm)*
G04 Created by KiCad (PCBNEW 9.0.2-9.0.2-0~ubuntu24.04.1) date 2025-07-03 20:15:33*
%MOMM*%
%LPD*%
G01*
G04 APERTURE LIST*
%ADD10C,0.300000*%
%ADD11C,0.150000*%
%ADD12C,0.000000*%
%ADD13C,0.120000*%
%ADD14C,0.040000*%
G04 APERTURE END LIST*
D10*
D11*
X474770476Y-290833200D02*
X474913333Y-290880819D01*
X474913333Y-290880819D02*
X475151428Y-290880819D01*
X475151428Y-290880819D02*
X475246666Y-290833200D01*
X475246666Y-290833200D02*
X475294285Y-290785580D01*
X475294285Y-290785580D02*
X475341904Y-290690342D01*
X475341904Y-290690342D02*
X475341904Y-290595104D01*
X475341904Y-290595104D02*
X475294285Y-290499866D01*
X475294285Y-290499866D02*
X475246666Y-290452247D01*
X475246666Y-290452247D02*
X475151428Y-290404628D01*
X475151428Y-290404628D02*
X474960952Y-290357009D01*
X474960952Y-290357009D02*
X474865714Y-290309390D01*
X474865714Y-290309390D02*
X474818095Y-290261771D01*
X474818095Y-290261771D02*
X474770476Y-290166533D01*
X474770476Y-290166533D02*
X474770476Y-290071295D01*
X474770476Y-290071295D02*
X474818095Y-289976057D01*
X474818095Y-289976057D02*
X474865714Y-289928438D01*
X474865714Y-289928438D02*
X474960952Y-289880819D01*
X474960952Y-289880819D02*
X475199047Y-289880819D01*
X475199047Y-289880819D02*
X475341904Y-289928438D01*
X475675238Y-289880819D02*
X475913333Y-290880819D01*
X475913333Y-290880819D02*
X476103809Y-290166533D01*
X476103809Y-290166533D02*
X476294285Y-290880819D01*
X476294285Y-290880819D02*
X476532381Y-289880819D01*
X477437142Y-290880819D02*
X476865714Y-290880819D01*
X477151428Y-290880819D02*
X477151428Y-289880819D01*
X477151428Y-289880819D02*
X477056190Y-290023676D01*
X477056190Y-290023676D02*
X476960952Y-290118914D01*
X476960952Y-290118914D02*
X476865714Y-290166533D01*
X477770476Y-289880819D02*
X478389523Y-289880819D01*
X478389523Y-289880819D02*
X478056190Y-290261771D01*
X478056190Y-290261771D02*
X478199047Y-290261771D01*
X478199047Y-290261771D02*
X478294285Y-290309390D01*
X478294285Y-290309390D02*
X478341904Y-290357009D01*
X478341904Y-290357009D02*
X478389523Y-290452247D01*
X478389523Y-290452247D02*
X478389523Y-290690342D01*
X478389523Y-290690342D02*
X478341904Y-290785580D01*
X478341904Y-290785580D02*
X478294285Y-290833200D01*
X478294285Y-290833200D02*
X478199047Y-290880819D01*
X478199047Y-290880819D02*
X477913333Y-290880819D01*
X477913333Y-290880819D02*
X477818095Y-290833200D01*
X477818095Y-290833200D02*
X477770476Y-290785580D01*
X475166667Y-271633200D02*
X475309524Y-271680819D01*
X475309524Y-271680819D02*
X475547619Y-271680819D01*
X475547619Y-271680819D02*
X475642857Y-271633200D01*
X475642857Y-271633200D02*
X475690476Y-271585580D01*
X475690476Y-271585580D02*
X475738095Y-271490342D01*
X475738095Y-271490342D02*
X475738095Y-271395104D01*
X475738095Y-271395104D02*
X475690476Y-271299866D01*
X475690476Y-271299866D02*
X475642857Y-271252247D01*
X475642857Y-271252247D02*
X475547619Y-271204628D01*
X475547619Y-271204628D02*
X475357143Y-271157009D01*
X475357143Y-271157009D02*
X475261905Y-271109390D01*
X475261905Y-271109390D02*
X475214286Y-271061771D01*
X475214286Y-271061771D02*
X475166667Y-270966533D01*
X475166667Y-270966533D02*
X475166667Y-270871295D01*
X475166667Y-270871295D02*
X475214286Y-270776057D01*
X475214286Y-270776057D02*
X475261905Y-270728438D01*
X475261905Y-270728438D02*
X475357143Y-270680819D01*
X475357143Y-270680819D02*
X475595238Y-270680819D01*
X475595238Y-270680819D02*
X475738095Y-270728438D01*
X476071429Y-270680819D02*
X476309524Y-271680819D01*
X476309524Y-271680819D02*
X476500000Y-270966533D01*
X476500000Y-270966533D02*
X476690476Y-271680819D01*
X476690476Y-271680819D02*
X476928572Y-270680819D01*
X477214286Y-270680819D02*
X477880952Y-270680819D01*
X477880952Y-270680819D02*
X477452381Y-271680819D01*
X532426667Y-249113200D02*
X532569524Y-249160819D01*
X532569524Y-249160819D02*
X532807619Y-249160819D01*
X532807619Y-249160819D02*
X532902857Y-249113200D01*
X532902857Y-249113200D02*
X532950476Y-249065580D01*
X532950476Y-249065580D02*
X532998095Y-248970342D01*
X532998095Y-248970342D02*
X532998095Y-248875104D01*
X532998095Y-248875104D02*
X532950476Y-248779866D01*
X532950476Y-248779866D02*
X532902857Y-248732247D01*
X532902857Y-248732247D02*
X532807619Y-248684628D01*
X532807619Y-248684628D02*
X532617143Y-248637009D01*
X532617143Y-248637009D02*
X532521905Y-248589390D01*
X532521905Y-248589390D02*
X532474286Y-248541771D01*
X532474286Y-248541771D02*
X532426667Y-248446533D01*
X532426667Y-248446533D02*
X532426667Y-248351295D01*
X532426667Y-248351295D02*
X532474286Y-248256057D01*
X532474286Y-248256057D02*
X532521905Y-248208438D01*
X532521905Y-248208438D02*
X532617143Y-248160819D01*
X532617143Y-248160819D02*
X532855238Y-248160819D01*
X532855238Y-248160819D02*
X532998095Y-248208438D01*
X533331429Y-248160819D02*
X533569524Y-249160819D01*
X533569524Y-249160819D02*
X533760000Y-248446533D01*
X533760000Y-248446533D02*
X533950476Y-249160819D01*
X533950476Y-249160819D02*
X534188572Y-248160819D01*
X534998095Y-248494152D02*
X534998095Y-249160819D01*
X534760000Y-248113200D02*
X534521905Y-248827485D01*
X534521905Y-248827485D02*
X535140952Y-248827485D01*
X550760476Y-299163200D02*
X550903333Y-299210819D01*
X550903333Y-299210819D02*
X551141428Y-299210819D01*
X551141428Y-299210819D02*
X551236666Y-299163200D01*
X551236666Y-299163200D02*
X551284285Y-299115580D01*
X551284285Y-299115580D02*
X551331904Y-299020342D01*
X551331904Y-299020342D02*
X551331904Y-298925104D01*
X551331904Y-298925104D02*
X551284285Y-298829866D01*
X551284285Y-298829866D02*
X551236666Y-298782247D01*
X551236666Y-298782247D02*
X551141428Y-298734628D01*
X551141428Y-298734628D02*
X550950952Y-298687009D01*
X550950952Y-298687009D02*
X550855714Y-298639390D01*
X550855714Y-298639390D02*
X550808095Y-298591771D01*
X550808095Y-298591771D02*
X550760476Y-298496533D01*
X550760476Y-298496533D02*
X550760476Y-298401295D01*
X550760476Y-298401295D02*
X550808095Y-298306057D01*
X550808095Y-298306057D02*
X550855714Y-298258438D01*
X550855714Y-298258438D02*
X550950952Y-298210819D01*
X550950952Y-298210819D02*
X551189047Y-298210819D01*
X551189047Y-298210819D02*
X551331904Y-298258438D01*
X551665238Y-298210819D02*
X551903333Y-299210819D01*
X551903333Y-299210819D02*
X552093809Y-298496533D01*
X552093809Y-298496533D02*
X552284285Y-299210819D01*
X552284285Y-299210819D02*
X552522381Y-298210819D01*
X553427142Y-299210819D02*
X552855714Y-299210819D01*
X553141428Y-299210819D02*
X553141428Y-298210819D01*
X553141428Y-298210819D02*
X553046190Y-298353676D01*
X553046190Y-298353676D02*
X552950952Y-298448914D01*
X552950952Y-298448914D02*
X552855714Y-298496533D01*
X553760476Y-298210819D02*
X554427142Y-298210819D01*
X554427142Y-298210819D02*
X553998571Y-299210819D01*
X513426667Y-261813200D02*
X513569524Y-261860819D01*
X513569524Y-261860819D02*
X513807619Y-261860819D01*
X513807619Y-261860819D02*
X513902857Y-261813200D01*
X513902857Y-261813200D02*
X513950476Y-261765580D01*
X513950476Y-261765580D02*
X513998095Y-261670342D01*
X513998095Y-261670342D02*
X513998095Y-261575104D01*
X513998095Y-261575104D02*
X513950476Y-261479866D01*
X513950476Y-261479866D02*
X513902857Y-261432247D01*
X513902857Y-261432247D02*
X513807619Y-261384628D01*
X513807619Y-261384628D02*
X513617143Y-261337009D01*
X513617143Y-261337009D02*
X513521905Y-261289390D01*
X513521905Y-261289390D02*
X513474286Y-261241771D01*
X513474286Y-261241771D02*
X513426667Y-261146533D01*
X513426667Y-261146533D02*
X513426667Y-261051295D01*
X513426667Y-261051295D02*
X513474286Y-260956057D01*
X513474286Y-260956057D02*
X513521905Y-260908438D01*
X513521905Y-260908438D02*
X513617143Y-260860819D01*
X513617143Y-260860819D02*
X513855238Y-260860819D01*
X513855238Y-260860819D02*
X513998095Y-260908438D01*
X514331429Y-260860819D02*
X514569524Y-261860819D01*
X514569524Y-261860819D02*
X514760000Y-261146533D01*
X514760000Y-261146533D02*
X514950476Y-261860819D01*
X514950476Y-261860819D02*
X515188572Y-260860819D01*
X515617143Y-261860819D02*
X515807619Y-261860819D01*
X515807619Y-261860819D02*
X515902857Y-261813200D01*
X515902857Y-261813200D02*
X515950476Y-261765580D01*
X515950476Y-261765580D02*
X516045714Y-261622723D01*
X516045714Y-261622723D02*
X516093333Y-261432247D01*
X516093333Y-261432247D02*
X516093333Y-261051295D01*
X516093333Y-261051295D02*
X516045714Y-260956057D01*
X516045714Y-260956057D02*
X515998095Y-260908438D01*
X515998095Y-260908438D02*
X515902857Y-260860819D01*
X515902857Y-260860819D02*
X515712381Y-260860819D01*
X515712381Y-260860819D02*
X515617143Y-260908438D01*
X515617143Y-260908438D02*
X515569524Y-260956057D01*
X515569524Y-260956057D02*
X515521905Y-261051295D01*
X515521905Y-261051295D02*
X515521905Y-261289390D01*
X515521905Y-261289390D02*
X515569524Y-261384628D01*
X515569524Y-261384628D02*
X515617143Y-261432247D01*
X515617143Y-261432247D02*
X515712381Y-261479866D01*
X515712381Y-261479866D02*
X515902857Y-261479866D01*
X515902857Y-261479866D02*
X515998095Y-261432247D01*
X515998095Y-261432247D02*
X516045714Y-261384628D01*
X516045714Y-261384628D02*
X516093333Y-261289390D01*
X448640598Y-329369724D02*
X449045360Y-330070793D01*
X449045360Y-330070793D02*
X449134218Y-330129462D01*
X449134218Y-330129462D02*
X449199267Y-330146891D01*
X449199267Y-330146891D02*
X449305555Y-330140512D01*
X449305555Y-330140512D02*
X449470513Y-330045274D01*
X449470513Y-330045274D02*
X449529182Y-329956415D01*
X449529182Y-329956415D02*
X449546611Y-329891366D01*
X449546611Y-329891366D02*
X449540232Y-329785078D01*
X449540232Y-329785078D02*
X449135470Y-329084010D01*
X449465384Y-328893534D02*
X450001495Y-328584010D01*
X450001495Y-328584010D02*
X449903296Y-329080591D01*
X449903296Y-329080591D02*
X450027014Y-329009163D01*
X450027014Y-329009163D02*
X450133302Y-329002783D01*
X450133302Y-329002783D02*
X450198351Y-329020213D01*
X450198351Y-329020213D02*
X450287209Y-329078882D01*
X450287209Y-329078882D02*
X450406257Y-329285078D01*
X450406257Y-329285078D02*
X450412637Y-329391366D01*
X450412637Y-329391366D02*
X450395207Y-329456415D01*
X450395207Y-329456415D02*
X450336538Y-329545274D01*
X450336538Y-329545274D02*
X450089102Y-329688131D01*
X450089102Y-329688131D02*
X449982814Y-329694510D01*
X449982814Y-329694510D02*
X449917765Y-329677081D01*
X513406667Y-242723200D02*
X513549524Y-242770819D01*
X513549524Y-242770819D02*
X513787619Y-242770819D01*
X513787619Y-242770819D02*
X513882857Y-242723200D01*
X513882857Y-242723200D02*
X513930476Y-242675580D01*
X513930476Y-242675580D02*
X513978095Y-242580342D01*
X513978095Y-242580342D02*
X513978095Y-242485104D01*
X513978095Y-242485104D02*
X513930476Y-242389866D01*
X513930476Y-242389866D02*
X513882857Y-242342247D01*
X513882857Y-242342247D02*
X513787619Y-242294628D01*
X513787619Y-242294628D02*
X513597143Y-242247009D01*
X513597143Y-242247009D02*
X513501905Y-242199390D01*
X513501905Y-242199390D02*
X513454286Y-242151771D01*
X513454286Y-242151771D02*
X513406667Y-242056533D01*
X513406667Y-242056533D02*
X513406667Y-241961295D01*
X513406667Y-241961295D02*
X513454286Y-241866057D01*
X513454286Y-241866057D02*
X513501905Y-241818438D01*
X513501905Y-241818438D02*
X513597143Y-241770819D01*
X513597143Y-241770819D02*
X513835238Y-241770819D01*
X513835238Y-241770819D02*
X513978095Y-241818438D01*
X514311429Y-241770819D02*
X514549524Y-242770819D01*
X514549524Y-242770819D02*
X514740000Y-242056533D01*
X514740000Y-242056533D02*
X514930476Y-242770819D01*
X514930476Y-242770819D02*
X515168572Y-241770819D01*
X515454286Y-241770819D02*
X516073333Y-241770819D01*
X516073333Y-241770819D02*
X515740000Y-242151771D01*
X515740000Y-242151771D02*
X515882857Y-242151771D01*
X515882857Y-242151771D02*
X515978095Y-242199390D01*
X515978095Y-242199390D02*
X516025714Y-242247009D01*
X516025714Y-242247009D02*
X516073333Y-242342247D01*
X516073333Y-242342247D02*
X516073333Y-242580342D01*
X516073333Y-242580342D02*
X516025714Y-242675580D01*
X516025714Y-242675580D02*
X515978095Y-242723200D01*
X515978095Y-242723200D02*
X515882857Y-242770819D01*
X515882857Y-242770819D02*
X515597143Y-242770819D01*
X515597143Y-242770819D02*
X515501905Y-242723200D01*
X515501905Y-242723200D02*
X515454286Y-242675580D01*
X512960476Y-280863200D02*
X513103333Y-280910819D01*
X513103333Y-280910819D02*
X513341428Y-280910819D01*
X513341428Y-280910819D02*
X513436666Y-280863200D01*
X513436666Y-280863200D02*
X513484285Y-280815580D01*
X513484285Y-280815580D02*
X513531904Y-280720342D01*
X513531904Y-280720342D02*
X513531904Y-280625104D01*
X513531904Y-280625104D02*
X513484285Y-280529866D01*
X513484285Y-280529866D02*
X513436666Y-280482247D01*
X513436666Y-280482247D02*
X513341428Y-280434628D01*
X513341428Y-280434628D02*
X513150952Y-280387009D01*
X513150952Y-280387009D02*
X513055714Y-280339390D01*
X513055714Y-280339390D02*
X513008095Y-280291771D01*
X513008095Y-280291771D02*
X512960476Y-280196533D01*
X512960476Y-280196533D02*
X512960476Y-280101295D01*
X512960476Y-280101295D02*
X513008095Y-280006057D01*
X513008095Y-280006057D02*
X513055714Y-279958438D01*
X513055714Y-279958438D02*
X513150952Y-279910819D01*
X513150952Y-279910819D02*
X513389047Y-279910819D01*
X513389047Y-279910819D02*
X513531904Y-279958438D01*
X513865238Y-279910819D02*
X514103333Y-280910819D01*
X514103333Y-280910819D02*
X514293809Y-280196533D01*
X514293809Y-280196533D02*
X514484285Y-280910819D01*
X514484285Y-280910819D02*
X514722381Y-279910819D01*
X515627142Y-280910819D02*
X515055714Y-280910819D01*
X515341428Y-280910819D02*
X515341428Y-279910819D01*
X515341428Y-279910819D02*
X515246190Y-280053676D01*
X515246190Y-280053676D02*
X515150952Y-280148914D01*
X515150952Y-280148914D02*
X515055714Y-280196533D01*
X516531904Y-279910819D02*
X516055714Y-279910819D01*
X516055714Y-279910819D02*
X516008095Y-280387009D01*
X516008095Y-280387009D02*
X516055714Y-280339390D01*
X516055714Y-280339390D02*
X516150952Y-280291771D01*
X516150952Y-280291771D02*
X516389047Y-280291771D01*
X516389047Y-280291771D02*
X516484285Y-280339390D01*
X516484285Y-280339390D02*
X516531904Y-280387009D01*
X516531904Y-280387009D02*
X516579523Y-280482247D01*
X516579523Y-280482247D02*
X516579523Y-280720342D01*
X516579523Y-280720342D02*
X516531904Y-280815580D01*
X516531904Y-280815580D02*
X516484285Y-280863200D01*
X516484285Y-280863200D02*
X516389047Y-280910819D01*
X516389047Y-280910819D02*
X516150952Y-280910819D01*
X516150952Y-280910819D02*
X516055714Y-280863200D01*
X516055714Y-280863200D02*
X516008095Y-280815580D01*
X493820476Y-288033200D02*
X493963333Y-288080819D01*
X493963333Y-288080819D02*
X494201428Y-288080819D01*
X494201428Y-288080819D02*
X494296666Y-288033200D01*
X494296666Y-288033200D02*
X494344285Y-287985580D01*
X494344285Y-287985580D02*
X494391904Y-287890342D01*
X494391904Y-287890342D02*
X494391904Y-287795104D01*
X494391904Y-287795104D02*
X494344285Y-287699866D01*
X494344285Y-287699866D02*
X494296666Y-287652247D01*
X494296666Y-287652247D02*
X494201428Y-287604628D01*
X494201428Y-287604628D02*
X494010952Y-287557009D01*
X494010952Y-287557009D02*
X493915714Y-287509390D01*
X493915714Y-287509390D02*
X493868095Y-287461771D01*
X493868095Y-287461771D02*
X493820476Y-287366533D01*
X493820476Y-287366533D02*
X493820476Y-287271295D01*
X493820476Y-287271295D02*
X493868095Y-287176057D01*
X493868095Y-287176057D02*
X493915714Y-287128438D01*
X493915714Y-287128438D02*
X494010952Y-287080819D01*
X494010952Y-287080819D02*
X494249047Y-287080819D01*
X494249047Y-287080819D02*
X494391904Y-287128438D01*
X494725238Y-287080819D02*
X494963333Y-288080819D01*
X494963333Y-288080819D02*
X495153809Y-287366533D01*
X495153809Y-287366533D02*
X495344285Y-288080819D01*
X495344285Y-288080819D02*
X495582381Y-287080819D01*
X496487142Y-288080819D02*
X495915714Y-288080819D01*
X496201428Y-288080819D02*
X496201428Y-287080819D01*
X496201428Y-287080819D02*
X496106190Y-287223676D01*
X496106190Y-287223676D02*
X496010952Y-287318914D01*
X496010952Y-287318914D02*
X495915714Y-287366533D01*
X497344285Y-287414152D02*
X497344285Y-288080819D01*
X497106190Y-287033200D02*
X496868095Y-287747485D01*
X496868095Y-287747485D02*
X497487142Y-287747485D01*
X462147419Y-343753034D02*
X462282106Y-343685691D01*
X462282106Y-343685691D02*
X462450464Y-343517332D01*
X462450464Y-343517332D02*
X462484136Y-343416317D01*
X462484136Y-343416317D02*
X462484136Y-343348973D01*
X462484136Y-343348973D02*
X462450464Y-343247958D01*
X462450464Y-343247958D02*
X462383121Y-343180614D01*
X462383121Y-343180614D02*
X462282106Y-343146943D01*
X462282106Y-343146943D02*
X462214762Y-343146943D01*
X462214762Y-343146943D02*
X462113747Y-343180614D01*
X462113747Y-343180614D02*
X461945388Y-343281630D01*
X461945388Y-343281630D02*
X461844373Y-343315301D01*
X461844373Y-343315301D02*
X461777029Y-343315301D01*
X461777029Y-343315301D02*
X461676014Y-343281630D01*
X461676014Y-343281630D02*
X461608671Y-343214286D01*
X461608671Y-343214286D02*
X461574999Y-343113271D01*
X461574999Y-343113271D02*
X461574999Y-343045927D01*
X461574999Y-343045927D02*
X461608671Y-342944912D01*
X461608671Y-342944912D02*
X461777029Y-342776553D01*
X461777029Y-342776553D02*
X461911716Y-342709210D01*
X462113747Y-342439836D02*
X462989213Y-342978584D01*
X462989213Y-342978584D02*
X462618823Y-342338820D01*
X462618823Y-342338820D02*
X463258587Y-342709210D01*
X463258587Y-342709210D02*
X462719839Y-341833744D01*
X463292258Y-341261325D02*
X463157571Y-341396012D01*
X463157571Y-341396012D02*
X463123899Y-341497027D01*
X463123899Y-341497027D02*
X463123899Y-341564370D01*
X463123899Y-341564370D02*
X463157571Y-341732729D01*
X463157571Y-341732729D02*
X463258586Y-341901088D01*
X463258586Y-341901088D02*
X463527960Y-342170462D01*
X463527960Y-342170462D02*
X463628976Y-342204134D01*
X463628976Y-342204134D02*
X463696319Y-342204134D01*
X463696319Y-342204134D02*
X463797334Y-342170462D01*
X463797334Y-342170462D02*
X463932021Y-342035775D01*
X463932021Y-342035775D02*
X463965693Y-341934760D01*
X463965693Y-341934760D02*
X463965693Y-341867416D01*
X463965693Y-341867416D02*
X463932021Y-341766401D01*
X463932021Y-341766401D02*
X463763663Y-341598042D01*
X463763663Y-341598042D02*
X463662647Y-341564370D01*
X463662647Y-341564370D02*
X463595304Y-341564370D01*
X463595304Y-341564370D02*
X463494289Y-341598042D01*
X463494289Y-341598042D02*
X463359602Y-341732729D01*
X463359602Y-341732729D02*
X463325930Y-341833744D01*
X463325930Y-341833744D02*
X463325930Y-341901088D01*
X463325930Y-341901088D02*
X463359602Y-342002103D01*
X459831904Y-314774819D02*
X459498571Y-314298628D01*
X459260476Y-314774819D02*
X459260476Y-313774819D01*
X459260476Y-313774819D02*
X459641428Y-313774819D01*
X459641428Y-313774819D02*
X459736666Y-313822438D01*
X459736666Y-313822438D02*
X459784285Y-313870057D01*
X459784285Y-313870057D02*
X459831904Y-313965295D01*
X459831904Y-313965295D02*
X459831904Y-314108152D01*
X459831904Y-314108152D02*
X459784285Y-314203390D01*
X459784285Y-314203390D02*
X459736666Y-314251009D01*
X459736666Y-314251009D02*
X459641428Y-314298628D01*
X459641428Y-314298628D02*
X459260476Y-314298628D01*
X460641428Y-314727200D02*
X460546190Y-314774819D01*
X460546190Y-314774819D02*
X460355714Y-314774819D01*
X460355714Y-314774819D02*
X460260476Y-314727200D01*
X460260476Y-314727200D02*
X460212857Y-314631961D01*
X460212857Y-314631961D02*
X460212857Y-314251009D01*
X460212857Y-314251009D02*
X460260476Y-314155771D01*
X460260476Y-314155771D02*
X460355714Y-314108152D01*
X460355714Y-314108152D02*
X460546190Y-314108152D01*
X460546190Y-314108152D02*
X460641428Y-314155771D01*
X460641428Y-314155771D02*
X460689047Y-314251009D01*
X460689047Y-314251009D02*
X460689047Y-314346247D01*
X460689047Y-314346247D02*
X460212857Y-314441485D01*
X461070000Y-314727200D02*
X461165238Y-314774819D01*
X461165238Y-314774819D02*
X461355714Y-314774819D01*
X461355714Y-314774819D02*
X461450952Y-314727200D01*
X461450952Y-314727200D02*
X461498571Y-314631961D01*
X461498571Y-314631961D02*
X461498571Y-314584342D01*
X461498571Y-314584342D02*
X461450952Y-314489104D01*
X461450952Y-314489104D02*
X461355714Y-314441485D01*
X461355714Y-314441485D02*
X461212857Y-314441485D01*
X461212857Y-314441485D02*
X461117619Y-314393866D01*
X461117619Y-314393866D02*
X461070000Y-314298628D01*
X461070000Y-314298628D02*
X461070000Y-314251009D01*
X461070000Y-314251009D02*
X461117619Y-314155771D01*
X461117619Y-314155771D02*
X461212857Y-314108152D01*
X461212857Y-314108152D02*
X461355714Y-314108152D01*
X461355714Y-314108152D02*
X461450952Y-314155771D01*
X462308095Y-314727200D02*
X462212857Y-314774819D01*
X462212857Y-314774819D02*
X462022381Y-314774819D01*
X462022381Y-314774819D02*
X461927143Y-314727200D01*
X461927143Y-314727200D02*
X461879524Y-314631961D01*
X461879524Y-314631961D02*
X461879524Y-314251009D01*
X461879524Y-314251009D02*
X461927143Y-314155771D01*
X461927143Y-314155771D02*
X462022381Y-314108152D01*
X462022381Y-314108152D02*
X462212857Y-314108152D01*
X462212857Y-314108152D02*
X462308095Y-314155771D01*
X462308095Y-314155771D02*
X462355714Y-314251009D01*
X462355714Y-314251009D02*
X462355714Y-314346247D01*
X462355714Y-314346247D02*
X461879524Y-314441485D01*
X462641429Y-314108152D02*
X463022381Y-314108152D01*
X462784286Y-313774819D02*
X462784286Y-314631961D01*
X462784286Y-314631961D02*
X462831905Y-314727200D01*
X462831905Y-314727200D02*
X462927143Y-314774819D01*
X462927143Y-314774819D02*
X463022381Y-314774819D01*
X494306667Y-249723200D02*
X494449524Y-249770819D01*
X494449524Y-249770819D02*
X494687619Y-249770819D01*
X494687619Y-249770819D02*
X494782857Y-249723200D01*
X494782857Y-249723200D02*
X494830476Y-249675580D01*
X494830476Y-249675580D02*
X494878095Y-249580342D01*
X494878095Y-249580342D02*
X494878095Y-249485104D01*
X494878095Y-249485104D02*
X494830476Y-249389866D01*
X494830476Y-249389866D02*
X494782857Y-249342247D01*
X494782857Y-249342247D02*
X494687619Y-249294628D01*
X494687619Y-249294628D02*
X494497143Y-249247009D01*
X494497143Y-249247009D02*
X494401905Y-249199390D01*
X494401905Y-249199390D02*
X494354286Y-249151771D01*
X494354286Y-249151771D02*
X494306667Y-249056533D01*
X494306667Y-249056533D02*
X494306667Y-248961295D01*
X494306667Y-248961295D02*
X494354286Y-248866057D01*
X494354286Y-248866057D02*
X494401905Y-248818438D01*
X494401905Y-248818438D02*
X494497143Y-248770819D01*
X494497143Y-248770819D02*
X494735238Y-248770819D01*
X494735238Y-248770819D02*
X494878095Y-248818438D01*
X495211429Y-248770819D02*
X495449524Y-249770819D01*
X495449524Y-249770819D02*
X495640000Y-249056533D01*
X495640000Y-249056533D02*
X495830476Y-249770819D01*
X495830476Y-249770819D02*
X496068572Y-248770819D01*
X496401905Y-248866057D02*
X496449524Y-248818438D01*
X496449524Y-248818438D02*
X496544762Y-248770819D01*
X496544762Y-248770819D02*
X496782857Y-248770819D01*
X496782857Y-248770819D02*
X496878095Y-248818438D01*
X496878095Y-248818438D02*
X496925714Y-248866057D01*
X496925714Y-248866057D02*
X496973333Y-248961295D01*
X496973333Y-248961295D02*
X496973333Y-249056533D01*
X496973333Y-249056533D02*
X496925714Y-249199390D01*
X496925714Y-249199390D02*
X496354286Y-249770819D01*
X496354286Y-249770819D02*
X496973333Y-249770819D01*
X550760476Y-280053200D02*
X550903333Y-280100819D01*
X550903333Y-280100819D02*
X551141428Y-280100819D01*
X551141428Y-280100819D02*
X551236666Y-280053200D01*
X551236666Y-280053200D02*
X551284285Y-280005580D01*
X551284285Y-280005580D02*
X551331904Y-279910342D01*
X551331904Y-279910342D02*
X551331904Y-279815104D01*
X551331904Y-279815104D02*
X551284285Y-279719866D01*
X551284285Y-279719866D02*
X551236666Y-279672247D01*
X551236666Y-279672247D02*
X551141428Y-279624628D01*
X551141428Y-279624628D02*
X550950952Y-279577009D01*
X550950952Y-279577009D02*
X550855714Y-279529390D01*
X550855714Y-279529390D02*
X550808095Y-279481771D01*
X550808095Y-279481771D02*
X550760476Y-279386533D01*
X550760476Y-279386533D02*
X550760476Y-279291295D01*
X550760476Y-279291295D02*
X550808095Y-279196057D01*
X550808095Y-279196057D02*
X550855714Y-279148438D01*
X550855714Y-279148438D02*
X550950952Y-279100819D01*
X550950952Y-279100819D02*
X551189047Y-279100819D01*
X551189047Y-279100819D02*
X551331904Y-279148438D01*
X551665238Y-279100819D02*
X551903333Y-280100819D01*
X551903333Y-280100819D02*
X552093809Y-279386533D01*
X552093809Y-279386533D02*
X552284285Y-280100819D01*
X552284285Y-280100819D02*
X552522381Y-279100819D01*
X553427142Y-280100819D02*
X552855714Y-280100819D01*
X553141428Y-280100819D02*
X553141428Y-279100819D01*
X553141428Y-279100819D02*
X553046190Y-279243676D01*
X553046190Y-279243676D02*
X552950952Y-279338914D01*
X552950952Y-279338914D02*
X552855714Y-279386533D01*
X554379523Y-280100819D02*
X553808095Y-280100819D01*
X554093809Y-280100819D02*
X554093809Y-279100819D01*
X554093809Y-279100819D02*
X553998571Y-279243676D01*
X553998571Y-279243676D02*
X553903333Y-279338914D01*
X553903333Y-279338914D02*
X553808095Y-279386533D01*
X466126660Y-310474104D02*
X466602850Y-310474104D01*
X466031422Y-310759819D02*
X466364755Y-309759819D01*
X466364755Y-309759819D02*
X466698088Y-310759819D01*
X467555231Y-310759819D02*
X466983803Y-310759819D01*
X467269517Y-310759819D02*
X467269517Y-309759819D01*
X467269517Y-309759819D02*
X467174279Y-309902676D01*
X467174279Y-309902676D02*
X467079041Y-309997914D01*
X467079041Y-309997914D02*
X466983803Y-310045533D01*
X475216667Y-252333200D02*
X475359524Y-252380819D01*
X475359524Y-252380819D02*
X475597619Y-252380819D01*
X475597619Y-252380819D02*
X475692857Y-252333200D01*
X475692857Y-252333200D02*
X475740476Y-252285580D01*
X475740476Y-252285580D02*
X475788095Y-252190342D01*
X475788095Y-252190342D02*
X475788095Y-252095104D01*
X475788095Y-252095104D02*
X475740476Y-251999866D01*
X475740476Y-251999866D02*
X475692857Y-251952247D01*
X475692857Y-251952247D02*
X475597619Y-251904628D01*
X475597619Y-251904628D02*
X475407143Y-251857009D01*
X475407143Y-251857009D02*
X475311905Y-251809390D01*
X475311905Y-251809390D02*
X475264286Y-251761771D01*
X475264286Y-251761771D02*
X475216667Y-251666533D01*
X475216667Y-251666533D02*
X475216667Y-251571295D01*
X475216667Y-251571295D02*
X475264286Y-251476057D01*
X475264286Y-251476057D02*
X475311905Y-251428438D01*
X475311905Y-251428438D02*
X475407143Y-251380819D01*
X475407143Y-251380819D02*
X475645238Y-251380819D01*
X475645238Y-251380819D02*
X475788095Y-251428438D01*
X476121429Y-251380819D02*
X476359524Y-252380819D01*
X476359524Y-252380819D02*
X476550000Y-251666533D01*
X476550000Y-251666533D02*
X476740476Y-252380819D01*
X476740476Y-252380819D02*
X476978572Y-251380819D01*
X477883333Y-252380819D02*
X477311905Y-252380819D01*
X477597619Y-252380819D02*
X477597619Y-251380819D01*
X477597619Y-251380819D02*
X477502381Y-251523676D01*
X477502381Y-251523676D02*
X477407143Y-251618914D01*
X477407143Y-251618914D02*
X477311905Y-251666533D01*
X551246667Y-260913200D02*
X551389524Y-260960819D01*
X551389524Y-260960819D02*
X551627619Y-260960819D01*
X551627619Y-260960819D02*
X551722857Y-260913200D01*
X551722857Y-260913200D02*
X551770476Y-260865580D01*
X551770476Y-260865580D02*
X551818095Y-260770342D01*
X551818095Y-260770342D02*
X551818095Y-260675104D01*
X551818095Y-260675104D02*
X551770476Y-260579866D01*
X551770476Y-260579866D02*
X551722857Y-260532247D01*
X551722857Y-260532247D02*
X551627619Y-260484628D01*
X551627619Y-260484628D02*
X551437143Y-260437009D01*
X551437143Y-260437009D02*
X551341905Y-260389390D01*
X551341905Y-260389390D02*
X551294286Y-260341771D01*
X551294286Y-260341771D02*
X551246667Y-260246533D01*
X551246667Y-260246533D02*
X551246667Y-260151295D01*
X551246667Y-260151295D02*
X551294286Y-260056057D01*
X551294286Y-260056057D02*
X551341905Y-260008438D01*
X551341905Y-260008438D02*
X551437143Y-259960819D01*
X551437143Y-259960819D02*
X551675238Y-259960819D01*
X551675238Y-259960819D02*
X551818095Y-260008438D01*
X552151429Y-259960819D02*
X552389524Y-260960819D01*
X552389524Y-260960819D02*
X552580000Y-260246533D01*
X552580000Y-260246533D02*
X552770476Y-260960819D01*
X552770476Y-260960819D02*
X553008572Y-259960819D01*
X553865714Y-259960819D02*
X553389524Y-259960819D01*
X553389524Y-259960819D02*
X553341905Y-260437009D01*
X553341905Y-260437009D02*
X553389524Y-260389390D01*
X553389524Y-260389390D02*
X553484762Y-260341771D01*
X553484762Y-260341771D02*
X553722857Y-260341771D01*
X553722857Y-260341771D02*
X553818095Y-260389390D01*
X553818095Y-260389390D02*
X553865714Y-260437009D01*
X553865714Y-260437009D02*
X553913333Y-260532247D01*
X553913333Y-260532247D02*
X553913333Y-260770342D01*
X553913333Y-260770342D02*
X553865714Y-260865580D01*
X553865714Y-260865580D02*
X553818095Y-260913200D01*
X553818095Y-260913200D02*
X553722857Y-260960819D01*
X553722857Y-260960819D02*
X553484762Y-260960819D01*
X553484762Y-260960819D02*
X553389524Y-260913200D01*
X553389524Y-260913200D02*
X553341905Y-260865580D01*
X453866668Y-277814819D02*
X453866668Y-278529104D01*
X453866668Y-278529104D02*
X453819049Y-278671961D01*
X453819049Y-278671961D02*
X453723811Y-278767200D01*
X453723811Y-278767200D02*
X453580954Y-278814819D01*
X453580954Y-278814819D02*
X453485716Y-278814819D01*
X454866668Y-278814819D02*
X454295240Y-278814819D01*
X454580954Y-278814819D02*
X454580954Y-277814819D01*
X454580954Y-277814819D02*
X454485716Y-277957676D01*
X454485716Y-277957676D02*
X454390478Y-278052914D01*
X454390478Y-278052914D02*
X454295240Y-278100533D01*
X453564817Y-299388572D02*
X453564817Y-299198096D01*
X453564817Y-299198096D02*
X453612436Y-299102858D01*
X453612436Y-299102858D02*
X453707674Y-299007620D01*
X453707674Y-299007620D02*
X453898150Y-298960001D01*
X453898150Y-298960001D02*
X454231483Y-298960001D01*
X454231483Y-298960001D02*
X454421959Y-299007620D01*
X454421959Y-299007620D02*
X454517198Y-299102858D01*
X454517198Y-299102858D02*
X454564817Y-299198096D01*
X454564817Y-299198096D02*
X454564817Y-299388572D01*
X454564817Y-299388572D02*
X454517198Y-299483810D01*
X454517198Y-299483810D02*
X454421959Y-299579048D01*
X454421959Y-299579048D02*
X454231483Y-299626667D01*
X454231483Y-299626667D02*
X453898150Y-299626667D01*
X453898150Y-299626667D02*
X453707674Y-299579048D01*
X453707674Y-299579048D02*
X453612436Y-299483810D01*
X453612436Y-299483810D02*
X453564817Y-299388572D01*
X454564817Y-298055239D02*
X454564817Y-298531429D01*
X454564817Y-298531429D02*
X453564817Y-298531429D01*
X454041007Y-297721905D02*
X454041007Y-297388572D01*
X454564817Y-297245715D02*
X454564817Y-297721905D01*
X454564817Y-297721905D02*
X453564817Y-297721905D01*
X453564817Y-297721905D02*
X453564817Y-297245715D01*
X454564817Y-296817143D02*
X453564817Y-296817143D01*
X453564817Y-296817143D02*
X453564817Y-296579048D01*
X453564817Y-296579048D02*
X453612436Y-296436191D01*
X453612436Y-296436191D02*
X453707674Y-296340953D01*
X453707674Y-296340953D02*
X453802912Y-296293334D01*
X453802912Y-296293334D02*
X453993388Y-296245715D01*
X453993388Y-296245715D02*
X454136245Y-296245715D01*
X454136245Y-296245715D02*
X454326721Y-296293334D01*
X454326721Y-296293334D02*
X454421959Y-296340953D01*
X454421959Y-296340953D02*
X454517198Y-296436191D01*
X454517198Y-296436191D02*
X454564817Y-296579048D01*
X454564817Y-296579048D02*
X454564817Y-296817143D01*
X454564817Y-295055238D02*
X453564817Y-295055238D01*
X453564817Y-295055238D02*
X453564817Y-294674286D01*
X453564817Y-294674286D02*
X453612436Y-294579048D01*
X453612436Y-294579048D02*
X453660055Y-294531429D01*
X453660055Y-294531429D02*
X453755293Y-294483810D01*
X453755293Y-294483810D02*
X453898150Y-294483810D01*
X453898150Y-294483810D02*
X453993388Y-294531429D01*
X453993388Y-294531429D02*
X454041007Y-294579048D01*
X454041007Y-294579048D02*
X454088626Y-294674286D01*
X454088626Y-294674286D02*
X454088626Y-295055238D01*
X454564817Y-293626667D02*
X454041007Y-293626667D01*
X454041007Y-293626667D02*
X453945769Y-293674286D01*
X453945769Y-293674286D02*
X453898150Y-293769524D01*
X453898150Y-293769524D02*
X453898150Y-293960000D01*
X453898150Y-293960000D02*
X453945769Y-294055238D01*
X454517198Y-293626667D02*
X454564817Y-293721905D01*
X454564817Y-293721905D02*
X454564817Y-293960000D01*
X454564817Y-293960000D02*
X454517198Y-294055238D01*
X454517198Y-294055238D02*
X454421959Y-294102857D01*
X454421959Y-294102857D02*
X454326721Y-294102857D01*
X454326721Y-294102857D02*
X454231483Y-294055238D01*
X454231483Y-294055238D02*
X454183864Y-293960000D01*
X454183864Y-293960000D02*
X454183864Y-293721905D01*
X454183864Y-293721905D02*
X454136245Y-293626667D01*
X453898150Y-293150476D02*
X454564817Y-293150476D01*
X453993388Y-293150476D02*
X453945769Y-293102857D01*
X453945769Y-293102857D02*
X453898150Y-293007619D01*
X453898150Y-293007619D02*
X453898150Y-292864762D01*
X453898150Y-292864762D02*
X453945769Y-292769524D01*
X453945769Y-292769524D02*
X454041007Y-292721905D01*
X454041007Y-292721905D02*
X454564817Y-292721905D01*
X454517198Y-291864762D02*
X454564817Y-291960000D01*
X454564817Y-291960000D02*
X454564817Y-292150476D01*
X454564817Y-292150476D02*
X454517198Y-292245714D01*
X454517198Y-292245714D02*
X454421959Y-292293333D01*
X454421959Y-292293333D02*
X454041007Y-292293333D01*
X454041007Y-292293333D02*
X453945769Y-292245714D01*
X453945769Y-292245714D02*
X453898150Y-292150476D01*
X453898150Y-292150476D02*
X453898150Y-291960000D01*
X453898150Y-291960000D02*
X453945769Y-291864762D01*
X453945769Y-291864762D02*
X454041007Y-291817143D01*
X454041007Y-291817143D02*
X454136245Y-291817143D01*
X454136245Y-291817143D02*
X454231483Y-292293333D01*
X454564817Y-291245714D02*
X454517198Y-291340952D01*
X454517198Y-291340952D02*
X454421959Y-291388571D01*
X454421959Y-291388571D02*
X453564817Y-291388571D01*
X457348571Y-310584878D02*
X457277143Y-310549164D01*
X457277143Y-310549164D02*
X457170000Y-310549164D01*
X457170000Y-310549164D02*
X457062857Y-310584878D01*
X457062857Y-310584878D02*
X456991428Y-310656307D01*
X456991428Y-310656307D02*
X456955714Y-310727735D01*
X456955714Y-310727735D02*
X456920000Y-310870592D01*
X456920000Y-310870592D02*
X456920000Y-310977735D01*
X456920000Y-310977735D02*
X456955714Y-311120592D01*
X456955714Y-311120592D02*
X456991428Y-311192021D01*
X456991428Y-311192021D02*
X457062857Y-311263450D01*
X457062857Y-311263450D02*
X457170000Y-311299164D01*
X457170000Y-311299164D02*
X457241428Y-311299164D01*
X457241428Y-311299164D02*
X457348571Y-311263450D01*
X457348571Y-311263450D02*
X457384285Y-311227735D01*
X457384285Y-311227735D02*
X457384285Y-310977735D01*
X457384285Y-310977735D02*
X457241428Y-310977735D01*
X457705714Y-311299164D02*
X457705714Y-310549164D01*
X457705714Y-310549164D02*
X458134285Y-311299164D01*
X458134285Y-311299164D02*
X458134285Y-310549164D01*
X458491428Y-311299164D02*
X458491428Y-310549164D01*
X458491428Y-310549164D02*
X458669999Y-310549164D01*
X458669999Y-310549164D02*
X458777142Y-310584878D01*
X458777142Y-310584878D02*
X458848571Y-310656307D01*
X458848571Y-310656307D02*
X458884285Y-310727735D01*
X458884285Y-310727735D02*
X458919999Y-310870592D01*
X458919999Y-310870592D02*
X458919999Y-310977735D01*
X458919999Y-310977735D02*
X458884285Y-311120592D01*
X458884285Y-311120592D02*
X458848571Y-311192021D01*
X458848571Y-311192021D02*
X458777142Y-311263450D01*
X458777142Y-311263450D02*
X458669999Y-311299164D01*
X458669999Y-311299164D02*
X458491428Y-311299164D01*
X454380000Y-310549164D02*
X454630000Y-311299164D01*
X454630000Y-311299164D02*
X454880000Y-310549164D01*
X455558571Y-311227735D02*
X455522857Y-311263450D01*
X455522857Y-311263450D02*
X455415714Y-311299164D01*
X455415714Y-311299164D02*
X455344286Y-311299164D01*
X455344286Y-311299164D02*
X455237143Y-311263450D01*
X455237143Y-311263450D02*
X455165714Y-311192021D01*
X455165714Y-311192021D02*
X455130000Y-311120592D01*
X455130000Y-311120592D02*
X455094286Y-310977735D01*
X455094286Y-310977735D02*
X455094286Y-310870592D01*
X455094286Y-310870592D02*
X455130000Y-310727735D01*
X455130000Y-310727735D02*
X455165714Y-310656307D01*
X455165714Y-310656307D02*
X455237143Y-310584878D01*
X455237143Y-310584878D02*
X455344286Y-310549164D01*
X455344286Y-310549164D02*
X455415714Y-310549164D01*
X455415714Y-310549164D02*
X455522857Y-310584878D01*
X455522857Y-310584878D02*
X455558571Y-310620592D01*
X456308571Y-311227735D02*
X456272857Y-311263450D01*
X456272857Y-311263450D02*
X456165714Y-311299164D01*
X456165714Y-311299164D02*
X456094286Y-311299164D01*
X456094286Y-311299164D02*
X455987143Y-311263450D01*
X455987143Y-311263450D02*
X455915714Y-311192021D01*
X455915714Y-311192021D02*
X455880000Y-311120592D01*
X455880000Y-311120592D02*
X455844286Y-310977735D01*
X455844286Y-310977735D02*
X455844286Y-310870592D01*
X455844286Y-310870592D02*
X455880000Y-310727735D01*
X455880000Y-310727735D02*
X455915714Y-310656307D01*
X455915714Y-310656307D02*
X455987143Y-310584878D01*
X455987143Y-310584878D02*
X456094286Y-310549164D01*
X456094286Y-310549164D02*
X456165714Y-310549164D01*
X456165714Y-310549164D02*
X456272857Y-310584878D01*
X456272857Y-310584878D02*
X456308571Y-310620592D01*
X451947143Y-311263450D02*
X452054286Y-311299164D01*
X452054286Y-311299164D02*
X452232857Y-311299164D01*
X452232857Y-311299164D02*
X452304286Y-311263450D01*
X452304286Y-311263450D02*
X452340000Y-311227735D01*
X452340000Y-311227735D02*
X452375714Y-311156307D01*
X452375714Y-311156307D02*
X452375714Y-311084878D01*
X452375714Y-311084878D02*
X452340000Y-311013450D01*
X452340000Y-311013450D02*
X452304286Y-310977735D01*
X452304286Y-310977735D02*
X452232857Y-310942021D01*
X452232857Y-310942021D02*
X452090000Y-310906307D01*
X452090000Y-310906307D02*
X452018571Y-310870592D01*
X452018571Y-310870592D02*
X451982857Y-310834878D01*
X451982857Y-310834878D02*
X451947143Y-310763450D01*
X451947143Y-310763450D02*
X451947143Y-310692021D01*
X451947143Y-310692021D02*
X451982857Y-310620592D01*
X451982857Y-310620592D02*
X452018571Y-310584878D01*
X452018571Y-310584878D02*
X452090000Y-310549164D01*
X452090000Y-310549164D02*
X452268571Y-310549164D01*
X452268571Y-310549164D02*
X452375714Y-310584878D01*
X453125714Y-311227735D02*
X453090000Y-311263450D01*
X453090000Y-311263450D02*
X452982857Y-311299164D01*
X452982857Y-311299164D02*
X452911429Y-311299164D01*
X452911429Y-311299164D02*
X452804286Y-311263450D01*
X452804286Y-311263450D02*
X452732857Y-311192021D01*
X452732857Y-311192021D02*
X452697143Y-311120592D01*
X452697143Y-311120592D02*
X452661429Y-310977735D01*
X452661429Y-310977735D02*
X452661429Y-310870592D01*
X452661429Y-310870592D02*
X452697143Y-310727735D01*
X452697143Y-310727735D02*
X452732857Y-310656307D01*
X452732857Y-310656307D02*
X452804286Y-310584878D01*
X452804286Y-310584878D02*
X452911429Y-310549164D01*
X452911429Y-310549164D02*
X452982857Y-310549164D01*
X452982857Y-310549164D02*
X453090000Y-310584878D01*
X453090000Y-310584878D02*
X453125714Y-310620592D01*
X453804286Y-311299164D02*
X453447143Y-311299164D01*
X453447143Y-311299164D02*
X453447143Y-310549164D01*
X449389286Y-311263451D02*
X449496429Y-311299165D01*
X449496429Y-311299165D02*
X449675000Y-311299165D01*
X449675000Y-311299165D02*
X449746429Y-311263451D01*
X449746429Y-311263451D02*
X449782143Y-311227736D01*
X449782143Y-311227736D02*
X449817857Y-311156308D01*
X449817857Y-311156308D02*
X449817857Y-311084879D01*
X449817857Y-311084879D02*
X449782143Y-311013451D01*
X449782143Y-311013451D02*
X449746429Y-310977736D01*
X449746429Y-310977736D02*
X449675000Y-310942022D01*
X449675000Y-310942022D02*
X449532143Y-310906308D01*
X449532143Y-310906308D02*
X449460714Y-310870593D01*
X449460714Y-310870593D02*
X449425000Y-310834879D01*
X449425000Y-310834879D02*
X449389286Y-310763451D01*
X449389286Y-310763451D02*
X449389286Y-310692022D01*
X449389286Y-310692022D02*
X449425000Y-310620593D01*
X449425000Y-310620593D02*
X449460714Y-310584879D01*
X449460714Y-310584879D02*
X449532143Y-310549165D01*
X449532143Y-310549165D02*
X449710714Y-310549165D01*
X449710714Y-310549165D02*
X449817857Y-310584879D01*
X450139286Y-311299165D02*
X450139286Y-310549165D01*
X450139286Y-310549165D02*
X450317857Y-310549165D01*
X450317857Y-310549165D02*
X450425000Y-310584879D01*
X450425000Y-310584879D02*
X450496429Y-310656308D01*
X450496429Y-310656308D02*
X450532143Y-310727736D01*
X450532143Y-310727736D02*
X450567857Y-310870593D01*
X450567857Y-310870593D02*
X450567857Y-310977736D01*
X450567857Y-310977736D02*
X450532143Y-311120593D01*
X450532143Y-311120593D02*
X450496429Y-311192022D01*
X450496429Y-311192022D02*
X450425000Y-311263451D01*
X450425000Y-311263451D02*
X450317857Y-311299165D01*
X450317857Y-311299165D02*
X450139286Y-311299165D01*
X450853572Y-311084879D02*
X451210715Y-311084879D01*
X450782143Y-311299165D02*
X451032143Y-310549165D01*
X451032143Y-310549165D02*
X451282143Y-311299165D01*
X501829636Y-319455966D02*
X501979950Y-319464988D01*
X501979950Y-319464988D02*
X502209932Y-319403364D01*
X502209932Y-319403364D02*
X502289601Y-319332719D01*
X502289601Y-319332719D02*
X502323272Y-319274397D01*
X502323272Y-319274397D02*
X502344619Y-319170080D01*
X502344619Y-319170080D02*
X502319970Y-319078087D01*
X502319970Y-319078087D02*
X502249324Y-318998419D01*
X502249324Y-318998419D02*
X502191003Y-318964747D01*
X502191003Y-318964747D02*
X502086685Y-318943400D01*
X502086685Y-318943400D02*
X501890375Y-318946702D01*
X501890375Y-318946702D02*
X501786057Y-318925355D01*
X501786057Y-318925355D02*
X501727736Y-318891683D01*
X501727736Y-318891683D02*
X501657090Y-318812015D01*
X501657090Y-318812015D02*
X501632440Y-318720022D01*
X501632440Y-318720022D02*
X501653787Y-318615705D01*
X501653787Y-318615705D02*
X501687459Y-318557383D01*
X501687459Y-318557383D02*
X501767127Y-318486737D01*
X501767127Y-318486737D02*
X501997110Y-318425114D01*
X501997110Y-318425114D02*
X502147424Y-318434136D01*
X502457074Y-318301867D02*
X502945876Y-319206169D01*
X502945876Y-319206169D02*
X502944991Y-318466923D01*
X502944991Y-318466923D02*
X503313848Y-319107571D01*
X503313848Y-319107571D02*
X503285011Y-318080022D01*
X504417763Y-318811778D02*
X503865805Y-318959675D01*
X504141784Y-318885726D02*
X503882965Y-317919801D01*
X503882965Y-317919801D02*
X503827946Y-318082439D01*
X503827946Y-318082439D02*
X503760603Y-318199082D01*
X503760603Y-318199082D02*
X503680934Y-318269728D01*
X504821824Y-318111924D02*
X504717506Y-318090577D01*
X504717506Y-318090577D02*
X504659185Y-318056905D01*
X504659185Y-318056905D02*
X504588539Y-317977237D01*
X504588539Y-317977237D02*
X504576214Y-317931240D01*
X504576214Y-317931240D02*
X504597561Y-317826923D01*
X504597561Y-317826923D02*
X504631233Y-317768602D01*
X504631233Y-317768602D02*
X504710901Y-317697956D01*
X504710901Y-317697956D02*
X504894887Y-317648657D01*
X504894887Y-317648657D02*
X504999205Y-317670004D01*
X504999205Y-317670004D02*
X505057526Y-317703676D01*
X505057526Y-317703676D02*
X505128172Y-317783344D01*
X505128172Y-317783344D02*
X505140497Y-317829340D01*
X505140497Y-317829340D02*
X505119150Y-317933658D01*
X505119150Y-317933658D02*
X505085478Y-317991979D01*
X505085478Y-317991979D02*
X505005810Y-318062625D01*
X505005810Y-318062625D02*
X504821824Y-318111924D01*
X504821824Y-318111924D02*
X504742156Y-318182570D01*
X504742156Y-318182570D02*
X504708484Y-318240891D01*
X504708484Y-318240891D02*
X504687137Y-318345209D01*
X504687137Y-318345209D02*
X504736436Y-318529194D01*
X504736436Y-318529194D02*
X504807081Y-318608863D01*
X504807081Y-318608863D02*
X504865403Y-318642534D01*
X504865403Y-318642534D02*
X504969720Y-318663881D01*
X504969720Y-318663881D02*
X505153706Y-318614583D01*
X505153706Y-318614583D02*
X505233374Y-318543937D01*
X505233374Y-318543937D02*
X505267046Y-318485616D01*
X505267046Y-318485616D02*
X505288393Y-318381298D01*
X505288393Y-318381298D02*
X505239094Y-318197312D01*
X505239094Y-318197312D02*
X505168448Y-318117644D01*
X505168448Y-318117644D02*
X505110127Y-318083972D01*
X505110127Y-318083972D02*
X505005810Y-318062625D01*
X531990476Y-268173200D02*
X532133333Y-268220819D01*
X532133333Y-268220819D02*
X532371428Y-268220819D01*
X532371428Y-268220819D02*
X532466666Y-268173200D01*
X532466666Y-268173200D02*
X532514285Y-268125580D01*
X532514285Y-268125580D02*
X532561904Y-268030342D01*
X532561904Y-268030342D02*
X532561904Y-267935104D01*
X532561904Y-267935104D02*
X532514285Y-267839866D01*
X532514285Y-267839866D02*
X532466666Y-267792247D01*
X532466666Y-267792247D02*
X532371428Y-267744628D01*
X532371428Y-267744628D02*
X532180952Y-267697009D01*
X532180952Y-267697009D02*
X532085714Y-267649390D01*
X532085714Y-267649390D02*
X532038095Y-267601771D01*
X532038095Y-267601771D02*
X531990476Y-267506533D01*
X531990476Y-267506533D02*
X531990476Y-267411295D01*
X531990476Y-267411295D02*
X532038095Y-267316057D01*
X532038095Y-267316057D02*
X532085714Y-267268438D01*
X532085714Y-267268438D02*
X532180952Y-267220819D01*
X532180952Y-267220819D02*
X532419047Y-267220819D01*
X532419047Y-267220819D02*
X532561904Y-267268438D01*
X532895238Y-267220819D02*
X533133333Y-268220819D01*
X533133333Y-268220819D02*
X533323809Y-267506533D01*
X533323809Y-267506533D02*
X533514285Y-268220819D01*
X533514285Y-268220819D02*
X533752381Y-267220819D01*
X534657142Y-268220819D02*
X534085714Y-268220819D01*
X534371428Y-268220819D02*
X534371428Y-267220819D01*
X534371428Y-267220819D02*
X534276190Y-267363676D01*
X534276190Y-267363676D02*
X534180952Y-267458914D01*
X534180952Y-267458914D02*
X534085714Y-267506533D01*
X535276190Y-267220819D02*
X535371428Y-267220819D01*
X535371428Y-267220819D02*
X535466666Y-267268438D01*
X535466666Y-267268438D02*
X535514285Y-267316057D01*
X535514285Y-267316057D02*
X535561904Y-267411295D01*
X535561904Y-267411295D02*
X535609523Y-267601771D01*
X535609523Y-267601771D02*
X535609523Y-267839866D01*
X535609523Y-267839866D02*
X535561904Y-268030342D01*
X535561904Y-268030342D02*
X535514285Y-268125580D01*
X535514285Y-268125580D02*
X535466666Y-268173200D01*
X535466666Y-268173200D02*
X535371428Y-268220819D01*
X535371428Y-268220819D02*
X535276190Y-268220819D01*
X535276190Y-268220819D02*
X535180952Y-268173200D01*
X535180952Y-268173200D02*
X535133333Y-268125580D01*
X535133333Y-268125580D02*
X535085714Y-268030342D01*
X535085714Y-268030342D02*
X535038095Y-267839866D01*
X535038095Y-267839866D02*
X535038095Y-267601771D01*
X535038095Y-267601771D02*
X535085714Y-267411295D01*
X535085714Y-267411295D02*
X535133333Y-267316057D01*
X535133333Y-267316057D02*
X535180952Y-267268438D01*
X535180952Y-267268438D02*
X535276190Y-267220819D01*
X494376667Y-268823200D02*
X494519524Y-268870819D01*
X494519524Y-268870819D02*
X494757619Y-268870819D01*
X494757619Y-268870819D02*
X494852857Y-268823200D01*
X494852857Y-268823200D02*
X494900476Y-268775580D01*
X494900476Y-268775580D02*
X494948095Y-268680342D01*
X494948095Y-268680342D02*
X494948095Y-268585104D01*
X494948095Y-268585104D02*
X494900476Y-268489866D01*
X494900476Y-268489866D02*
X494852857Y-268442247D01*
X494852857Y-268442247D02*
X494757619Y-268394628D01*
X494757619Y-268394628D02*
X494567143Y-268347009D01*
X494567143Y-268347009D02*
X494471905Y-268299390D01*
X494471905Y-268299390D02*
X494424286Y-268251771D01*
X494424286Y-268251771D02*
X494376667Y-268156533D01*
X494376667Y-268156533D02*
X494376667Y-268061295D01*
X494376667Y-268061295D02*
X494424286Y-267966057D01*
X494424286Y-267966057D02*
X494471905Y-267918438D01*
X494471905Y-267918438D02*
X494567143Y-267870819D01*
X494567143Y-267870819D02*
X494805238Y-267870819D01*
X494805238Y-267870819D02*
X494948095Y-267918438D01*
X495281429Y-267870819D02*
X495519524Y-268870819D01*
X495519524Y-268870819D02*
X495710000Y-268156533D01*
X495710000Y-268156533D02*
X495900476Y-268870819D01*
X495900476Y-268870819D02*
X496138572Y-267870819D01*
X496662381Y-268299390D02*
X496567143Y-268251771D01*
X496567143Y-268251771D02*
X496519524Y-268204152D01*
X496519524Y-268204152D02*
X496471905Y-268108914D01*
X496471905Y-268108914D02*
X496471905Y-268061295D01*
X496471905Y-268061295D02*
X496519524Y-267966057D01*
X496519524Y-267966057D02*
X496567143Y-267918438D01*
X496567143Y-267918438D02*
X496662381Y-267870819D01*
X496662381Y-267870819D02*
X496852857Y-267870819D01*
X496852857Y-267870819D02*
X496948095Y-267918438D01*
X496948095Y-267918438D02*
X496995714Y-267966057D01*
X496995714Y-267966057D02*
X497043333Y-268061295D01*
X497043333Y-268061295D02*
X497043333Y-268108914D01*
X497043333Y-268108914D02*
X496995714Y-268204152D01*
X496995714Y-268204152D02*
X496948095Y-268251771D01*
X496948095Y-268251771D02*
X496852857Y-268299390D01*
X496852857Y-268299390D02*
X496662381Y-268299390D01*
X496662381Y-268299390D02*
X496567143Y-268347009D01*
X496567143Y-268347009D02*
X496519524Y-268394628D01*
X496519524Y-268394628D02*
X496471905Y-268489866D01*
X496471905Y-268489866D02*
X496471905Y-268680342D01*
X496471905Y-268680342D02*
X496519524Y-268775580D01*
X496519524Y-268775580D02*
X496567143Y-268823200D01*
X496567143Y-268823200D02*
X496662381Y-268870819D01*
X496662381Y-268870819D02*
X496852857Y-268870819D01*
X496852857Y-268870819D02*
X496948095Y-268823200D01*
X496948095Y-268823200D02*
X496995714Y-268775580D01*
X496995714Y-268775580D02*
X497043333Y-268680342D01*
X497043333Y-268680342D02*
X497043333Y-268489866D01*
X497043333Y-268489866D02*
X496995714Y-268394628D01*
X496995714Y-268394628D02*
X496948095Y-268347009D01*
X496948095Y-268347009D02*
X496852857Y-268299390D01*
X531980476Y-287423200D02*
X532123333Y-287470819D01*
X532123333Y-287470819D02*
X532361428Y-287470819D01*
X532361428Y-287470819D02*
X532456666Y-287423200D01*
X532456666Y-287423200D02*
X532504285Y-287375580D01*
X532504285Y-287375580D02*
X532551904Y-287280342D01*
X532551904Y-287280342D02*
X532551904Y-287185104D01*
X532551904Y-287185104D02*
X532504285Y-287089866D01*
X532504285Y-287089866D02*
X532456666Y-287042247D01*
X532456666Y-287042247D02*
X532361428Y-286994628D01*
X532361428Y-286994628D02*
X532170952Y-286947009D01*
X532170952Y-286947009D02*
X532075714Y-286899390D01*
X532075714Y-286899390D02*
X532028095Y-286851771D01*
X532028095Y-286851771D02*
X531980476Y-286756533D01*
X531980476Y-286756533D02*
X531980476Y-286661295D01*
X531980476Y-286661295D02*
X532028095Y-286566057D01*
X532028095Y-286566057D02*
X532075714Y-286518438D01*
X532075714Y-286518438D02*
X532170952Y-286470819D01*
X532170952Y-286470819D02*
X532409047Y-286470819D01*
X532409047Y-286470819D02*
X532551904Y-286518438D01*
X532885238Y-286470819D02*
X533123333Y-287470819D01*
X533123333Y-287470819D02*
X533313809Y-286756533D01*
X533313809Y-286756533D02*
X533504285Y-287470819D01*
X533504285Y-287470819D02*
X533742381Y-286470819D01*
X534647142Y-287470819D02*
X534075714Y-287470819D01*
X534361428Y-287470819D02*
X534361428Y-286470819D01*
X534361428Y-286470819D02*
X534266190Y-286613676D01*
X534266190Y-286613676D02*
X534170952Y-286708914D01*
X534170952Y-286708914D02*
X534075714Y-286756533D01*
X535504285Y-286470819D02*
X535313809Y-286470819D01*
X535313809Y-286470819D02*
X535218571Y-286518438D01*
X535218571Y-286518438D02*
X535170952Y-286566057D01*
X535170952Y-286566057D02*
X535075714Y-286708914D01*
X535075714Y-286708914D02*
X535028095Y-286899390D01*
X535028095Y-286899390D02*
X535028095Y-287280342D01*
X535028095Y-287280342D02*
X535075714Y-287375580D01*
X535075714Y-287375580D02*
X535123333Y-287423200D01*
X535123333Y-287423200D02*
X535218571Y-287470819D01*
X535218571Y-287470819D02*
X535409047Y-287470819D01*
X535409047Y-287470819D02*
X535504285Y-287423200D01*
X535504285Y-287423200D02*
X535551904Y-287375580D01*
X535551904Y-287375580D02*
X535599523Y-287280342D01*
X535599523Y-287280342D02*
X535599523Y-287042247D01*
X535599523Y-287042247D02*
X535551904Y-286947009D01*
X535551904Y-286947009D02*
X535504285Y-286899390D01*
X535504285Y-286899390D02*
X535409047Y-286851771D01*
X535409047Y-286851771D02*
X535218571Y-286851771D01*
X535218571Y-286851771D02*
X535123333Y-286899390D01*
X535123333Y-286899390D02*
X535075714Y-286947009D01*
X535075714Y-286947009D02*
X535028095Y-287042247D01*
X480279504Y-328938331D02*
X480427031Y-328908142D01*
X480427031Y-328908142D02*
X480633228Y-328789094D01*
X480633228Y-328789094D02*
X480691897Y-328700236D01*
X480691897Y-328700236D02*
X480709327Y-328635187D01*
X480709327Y-328635187D02*
X480702947Y-328528899D01*
X480702947Y-328528899D02*
X480655328Y-328446420D01*
X480655328Y-328446420D02*
X480566470Y-328387751D01*
X480566470Y-328387751D02*
X480501421Y-328370321D01*
X480501421Y-328370321D02*
X480395133Y-328376701D01*
X480395133Y-328376701D02*
X480206366Y-328430700D01*
X480206366Y-328430700D02*
X480100078Y-328437080D01*
X480100078Y-328437080D02*
X480035029Y-328419650D01*
X480035029Y-328419650D02*
X479946171Y-328360981D01*
X479946171Y-328360981D02*
X479898552Y-328278502D01*
X479898552Y-328278502D02*
X479892172Y-328172214D01*
X479892172Y-328172214D02*
X479909602Y-328107165D01*
X479909602Y-328107165D02*
X479968271Y-328018307D01*
X479968271Y-328018307D02*
X480174467Y-327899259D01*
X480174467Y-327899259D02*
X480321995Y-327869070D01*
X480586860Y-327661164D02*
X481293057Y-328408142D01*
X481293057Y-328408142D02*
X481100871Y-327694314D01*
X481100871Y-327694314D02*
X481622971Y-328217665D01*
X481622971Y-328217665D02*
X481329168Y-327232592D01*
X482612714Y-327646237D02*
X482117843Y-327931951D01*
X482365279Y-327789094D02*
X481865279Y-326923069D01*
X481865279Y-326923069D02*
X481854229Y-327094406D01*
X481854229Y-327094406D02*
X481819369Y-327224503D01*
X481819369Y-327224503D02*
X481760700Y-327313362D01*
X482490248Y-326672214D02*
X482507678Y-326607165D01*
X482507678Y-326607165D02*
X482566347Y-326518307D01*
X482566347Y-326518307D02*
X482772543Y-326399259D01*
X482772543Y-326399259D02*
X482878831Y-326392879D01*
X482878831Y-326392879D02*
X482943880Y-326410309D01*
X482943880Y-326410309D02*
X483032739Y-326468978D01*
X483032739Y-326468978D02*
X483080358Y-326551457D01*
X483080358Y-326551457D02*
X483110547Y-326698984D01*
X483110547Y-326698984D02*
X482901390Y-327479570D01*
X482901390Y-327479570D02*
X483437501Y-327170046D01*
D12*
%TO.C,  *%
G36*
X442627347Y-317594427D02*
G01*
X442661144Y-317628842D01*
X442655389Y-317687482D01*
X442644084Y-317768316D01*
X442628184Y-317918311D01*
X442609641Y-318117430D01*
X442590409Y-318345636D01*
X442586746Y-318391795D01*
X442515719Y-319425104D01*
X442471592Y-320373584D01*
X442454386Y-321237710D01*
X442464123Y-322017954D01*
X442500823Y-322714790D01*
X442564509Y-323328692D01*
X442655201Y-323860133D01*
X442772920Y-324309587D01*
X442862150Y-324553700D01*
X443095160Y-325014679D01*
X443387820Y-325429974D01*
X443728527Y-325784462D01*
X443931664Y-325947648D01*
X444128274Y-326090324D01*
X444154125Y-325828155D01*
X444154720Y-325825467D01*
X444440291Y-325825467D01*
X444450348Y-326020644D01*
X444501413Y-326173696D01*
X444537865Y-326222039D01*
X444709548Y-326333495D01*
X444952623Y-326399151D01*
X445261502Y-326418737D01*
X445630597Y-326391984D01*
X446054320Y-326318622D01*
X446140598Y-326299379D01*
X446320818Y-326256624D01*
X446467259Y-326219624D01*
X446558483Y-326193903D01*
X446576624Y-326187037D01*
X446569996Y-326144492D01*
X446518569Y-326054098D01*
X446452019Y-325960331D01*
X446368199Y-325836675D01*
X446327988Y-325756244D01*
X446640880Y-325756244D01*
X446781844Y-325961129D01*
X446923590Y-326194973D01*
X446992654Y-326380847D01*
X446989427Y-326522350D01*
X446914298Y-326623082D01*
X446857163Y-326656057D01*
X446768738Y-326738508D01*
X446743685Y-326858065D01*
X446785004Y-326985851D01*
X446818303Y-327030087D01*
X446933538Y-327096357D01*
X447091142Y-327108860D01*
X447262781Y-327068600D01*
X447374918Y-327010358D01*
X447532013Y-326860686D01*
X447641029Y-326667644D01*
X447683270Y-326464664D01*
X447683310Y-326458884D01*
X447640997Y-326274834D01*
X447523067Y-326104139D01*
X447343316Y-325958080D01*
X447115540Y-325847938D01*
X446960049Y-325810139D01*
X447620715Y-325810139D01*
X447630295Y-325815035D01*
X447680211Y-325786441D01*
X447683380Y-325771744D01*
X447718905Y-325722263D01*
X447801560Y-325666533D01*
X447870956Y-325616033D01*
X447877262Y-325578482D01*
X447875480Y-325577259D01*
X447820092Y-325589263D01*
X447735010Y-325652354D01*
X447704215Y-325682470D01*
X447637957Y-325763147D01*
X447620715Y-325810139D01*
X446960049Y-325810139D01*
X446860281Y-325785886D01*
X446640880Y-325756244D01*
X446327988Y-325756244D01*
X446316270Y-325732805D01*
X446307058Y-325684618D01*
X446366431Y-325596176D01*
X446493152Y-325536593D01*
X446669037Y-325508599D01*
X446875899Y-325514926D01*
X447095553Y-325558303D01*
X447113422Y-325563542D01*
X447317889Y-325625078D01*
X447500155Y-325439362D01*
X447682421Y-325253647D01*
X447565494Y-325089310D01*
X447498027Y-324971710D01*
X447492452Y-324951314D01*
X447803556Y-324951314D01*
X447944520Y-325156199D01*
X448086266Y-325390043D01*
X448155330Y-325575917D01*
X448152103Y-325717421D01*
X448076974Y-325818153D01*
X448019839Y-325851128D01*
X447931414Y-325933578D01*
X447906361Y-326053136D01*
X447947680Y-326180921D01*
X447980979Y-326225158D01*
X448096214Y-326291427D01*
X448253818Y-326303930D01*
X448425457Y-326263670D01*
X448537594Y-326205428D01*
X448694689Y-326055756D01*
X448803705Y-325862714D01*
X448845946Y-325659734D01*
X448845986Y-325653954D01*
X448803673Y-325469904D01*
X448685743Y-325299210D01*
X448505992Y-325153151D01*
X448278216Y-325043008D01*
X448022957Y-324980956D01*
X447803556Y-324951314D01*
X447492452Y-324951314D01*
X447472153Y-324877058D01*
X447475391Y-324855072D01*
X447492374Y-324836964D01*
X448556213Y-324836964D01*
X448667596Y-324922540D01*
X448777956Y-324995202D01*
X448835108Y-325001043D01*
X448846056Y-324966815D01*
X448881340Y-324916133D01*
X448954001Y-324866199D01*
X449023257Y-324823131D01*
X449036778Y-324776461D01*
X449000311Y-324692199D01*
X448987540Y-324667873D01*
X448913133Y-324526873D01*
X448734673Y-324681918D01*
X448556213Y-324836964D01*
X447492374Y-324836964D01*
X447552134Y-324773247D01*
X447698135Y-324721934D01*
X447897074Y-324705655D01*
X447996408Y-324710689D01*
X448125894Y-324719431D01*
X448215776Y-324709838D01*
X448294583Y-324669751D01*
X448390848Y-324587010D01*
X448473435Y-324507377D01*
X448592867Y-324387116D01*
X448656579Y-324306702D01*
X448675450Y-324246290D01*
X448660360Y-324186034D01*
X448655558Y-324175161D01*
X448651397Y-324146384D01*
X448966232Y-324146384D01*
X449107197Y-324351270D01*
X449248942Y-324585114D01*
X449318006Y-324770988D01*
X449314779Y-324912491D01*
X449239650Y-325013223D01*
X449182515Y-325046198D01*
X449094090Y-325128648D01*
X449069037Y-325248206D01*
X449110356Y-325375992D01*
X449143655Y-325420228D01*
X449258890Y-325486498D01*
X449416494Y-325499001D01*
X449588133Y-325458741D01*
X449700270Y-325400499D01*
X449857365Y-325250827D01*
X449966381Y-325057785D01*
X450008622Y-324854805D01*
X450008662Y-324849024D01*
X449966349Y-324664975D01*
X449848419Y-324494280D01*
X449668668Y-324348221D01*
X449440892Y-324238078D01*
X449185633Y-324176027D01*
X448966232Y-324146384D01*
X448651397Y-324146384D01*
X448638964Y-324060395D01*
X448706313Y-323974914D01*
X448744145Y-323960981D01*
X449535440Y-323960981D01*
X449539189Y-323965365D01*
X449602688Y-323997083D01*
X449710688Y-324056347D01*
X449762781Y-324085973D01*
X449873267Y-324141205D01*
X449947033Y-324148234D01*
X449993543Y-324096712D01*
X450022264Y-323976294D01*
X450042362Y-323780364D01*
X450047824Y-323628928D01*
X450039174Y-323518228D01*
X450021975Y-323475508D01*
X449972953Y-323492723D01*
X449881413Y-323562095D01*
X449765136Y-323669729D01*
X449736854Y-323698341D01*
X449628678Y-323817039D01*
X449557544Y-323909983D01*
X449535440Y-323960981D01*
X448744145Y-323960981D01*
X448856773Y-323919502D01*
X448940519Y-323905875D01*
X449034434Y-323888038D01*
X449120799Y-323852108D01*
X449216835Y-323786295D01*
X449339767Y-323678809D01*
X449505651Y-323519007D01*
X449651541Y-323371327D01*
X449770190Y-323243157D01*
X449828971Y-323172653D01*
X452250486Y-323172653D01*
X452286723Y-323244724D01*
X452298309Y-323257147D01*
X452416827Y-323315227D01*
X452578172Y-323303538D01*
X452772277Y-323224428D01*
X452959624Y-323102844D01*
X453236279Y-322894879D01*
X453461291Y-323119891D01*
X453686303Y-323344903D01*
X453501863Y-323594570D01*
X453363674Y-323789484D01*
X453279524Y-323930644D01*
X453243912Y-324031031D01*
X453251337Y-324103627D01*
X453272069Y-324136774D01*
X453370117Y-324192114D01*
X453510760Y-324199807D01*
X453661085Y-324160134D01*
X453713452Y-324132971D01*
X453784141Y-324073758D01*
X453899439Y-323959126D01*
X454047129Y-323802722D01*
X454214993Y-323618190D01*
X454390814Y-323419177D01*
X454562376Y-323219326D01*
X454717462Y-323032284D01*
X454843853Y-322871695D01*
X454849936Y-322863626D01*
X454965806Y-322699570D01*
X455026468Y-322581429D01*
X455037825Y-322489814D01*
X455005781Y-322405338D01*
X454994807Y-322387783D01*
X454909363Y-322301511D01*
X454801693Y-322279544D01*
X454663380Y-322323983D01*
X454486009Y-322436929D01*
X454342774Y-322550598D01*
X454200267Y-322667419D01*
X454083384Y-322758510D01*
X454008860Y-322811061D01*
X453992259Y-322818908D01*
X453946790Y-322789435D01*
X453861755Y-322713570D01*
X453790916Y-322643606D01*
X453619739Y-322468304D01*
X453716839Y-322331940D01*
X453781932Y-322208540D01*
X453841366Y-322043355D01*
X453866406Y-321945435D01*
X453893626Y-321788390D01*
X453892946Y-321683227D01*
X453863031Y-321596428D01*
X453851657Y-321575147D01*
X453755721Y-321473533D01*
X453635142Y-321438699D01*
X453518420Y-321478240D01*
X453510731Y-321484320D01*
X453452644Y-321546015D01*
X453359303Y-321659409D01*
X453247696Y-321803605D01*
X453208056Y-321856679D01*
X453080632Y-322022492D01*
X452917007Y-322226251D01*
X452740563Y-322439200D01*
X452610286Y-322591794D01*
X452434690Y-322802080D01*
X452319503Y-322961923D01*
X452259757Y-323081917D01*
X452250486Y-323172653D01*
X449828971Y-323172653D01*
X449848751Y-323148928D01*
X449874577Y-323104588D01*
X449838335Y-323030831D01*
X449744687Y-322934653D01*
X449616247Y-322833579D01*
X449475630Y-322745133D01*
X449345451Y-322686837D01*
X449329312Y-322682070D01*
X449064232Y-322645951D01*
X448751113Y-322669474D01*
X448386673Y-322753509D01*
X447967629Y-322898924D01*
X447490701Y-323106588D01*
X447213837Y-323241933D01*
X446626605Y-323558742D01*
X446096301Y-323886175D01*
X445628479Y-324219724D01*
X445228693Y-324554876D01*
X444902495Y-324887122D01*
X444655441Y-325211951D01*
X444542601Y-325411437D01*
X444471092Y-325613840D01*
X444440291Y-325825467D01*
X444154720Y-325825467D01*
X444232562Y-325473762D01*
X444398459Y-325116688D01*
X444652176Y-324756501D01*
X444994074Y-324392770D01*
X445424514Y-324025062D01*
X445943857Y-323652947D01*
X446006443Y-323611717D01*
X446553313Y-323273591D01*
X447079724Y-322986221D01*
X447579750Y-322751617D01*
X448047468Y-322571792D01*
X448476952Y-322448757D01*
X448862277Y-322384524D01*
X449197520Y-322381105D01*
X449466490Y-322436818D01*
X449583457Y-322469059D01*
X449645719Y-322467079D01*
X449650985Y-322457396D01*
X449636130Y-322399955D01*
X449589408Y-322294699D01*
X449507583Y-322135486D01*
X449387420Y-321916178D01*
X449225682Y-321630634D01*
X449102535Y-321416649D01*
X448906777Y-321063506D01*
X448749800Y-320741823D01*
X448627621Y-320434791D01*
X448536257Y-320125597D01*
X448471725Y-319797431D01*
X448430041Y-319433481D01*
X448407224Y-319016936D01*
X448399290Y-318530985D01*
X448399136Y-318447693D01*
X448398873Y-317586866D01*
X448527398Y-317586866D01*
X448655924Y-317586866D01*
X448678614Y-318626566D01*
X448686982Y-318971705D01*
X448696196Y-319243611D01*
X448707767Y-319458486D01*
X448723206Y-319632531D01*
X448744023Y-319781947D01*
X448771731Y-319922937D01*
X448807840Y-320071702D01*
X448816512Y-320104989D01*
X448860451Y-320266335D01*
X448903948Y-320406216D01*
X448953993Y-320539524D01*
X449017578Y-320681151D01*
X449101694Y-320845988D01*
X449213332Y-321048927D01*
X449359485Y-321304860D01*
X449467242Y-321491071D01*
X449670119Y-321852314D01*
X449827369Y-322160129D01*
X449947433Y-322432329D01*
X450038750Y-322686729D01*
X450048496Y-322717946D01*
X450120527Y-322952372D01*
X451426190Y-321700605D01*
X452731852Y-320448837D01*
X452959677Y-320448837D01*
X453211473Y-320467171D01*
X453510793Y-320517582D01*
X453824656Y-320593185D01*
X454120082Y-320687092D01*
X454144937Y-320696318D01*
X454743751Y-320960007D01*
X455346683Y-321302435D01*
X455955987Y-321725348D01*
X456573913Y-322230490D01*
X457202714Y-322819605D01*
X457844641Y-323494437D01*
X458039881Y-323713595D01*
X458561589Y-324276649D01*
X459073785Y-324763393D01*
X459590073Y-325183918D01*
X460124058Y-325548312D01*
X460689344Y-325866665D01*
X461299533Y-326149065D01*
X461354975Y-326172177D01*
X462013340Y-326412086D01*
X462724524Y-326612710D01*
X463469454Y-326771428D01*
X464229056Y-326885617D01*
X464984254Y-326952655D01*
X465715977Y-326969922D01*
X466405149Y-326934795D01*
X466677482Y-326903766D01*
X466792777Y-326896179D01*
X466860087Y-326907175D01*
X466867244Y-326916735D01*
X466833728Y-326955308D01*
X466740569Y-327039782D01*
X466598569Y-327160953D01*
X466418530Y-327309618D01*
X466211254Y-327476574D01*
X466194921Y-327489569D01*
X465963197Y-327674408D01*
X465794026Y-327812040D01*
X465679638Y-327910515D01*
X465612260Y-327977884D01*
X465584122Y-328022195D01*
X465587451Y-328051500D01*
X465614476Y-328073848D01*
X465625052Y-328079856D01*
X465699434Y-328116461D01*
X465839442Y-328181641D01*
X466028835Y-328267973D01*
X466251370Y-328368032D01*
X466409172Y-328438278D01*
X466635321Y-328540133D01*
X466829773Y-328630744D01*
X466979059Y-328703587D01*
X467069711Y-328752141D01*
X467091126Y-328768574D01*
X467050080Y-328793755D01*
X466935597Y-328837973D01*
X466760659Y-328897230D01*
X466538246Y-328967525D01*
X466281341Y-329044861D01*
X466002924Y-329125236D01*
X465715978Y-329204652D01*
X465436549Y-329278324D01*
X464699184Y-329455872D01*
X464019628Y-329594360D01*
X463376819Y-329696900D01*
X462749694Y-329766601D01*
X462117189Y-329806572D01*
X461792006Y-329816387D01*
X461494000Y-329820052D01*
X461204421Y-329819422D01*
X460943535Y-329814851D01*
X460731613Y-329806695D01*
X460589476Y-329795376D01*
X460255703Y-329746404D01*
X459949289Y-329684857D01*
X459653222Y-329604846D01*
X459350485Y-329500480D01*
X459024064Y-329365870D01*
X458656943Y-329195128D01*
X458232109Y-328982363D01*
X458214542Y-328973341D01*
X457577611Y-328628963D01*
X460383380Y-328628963D01*
X460417857Y-328685297D01*
X460525037Y-328741432D01*
X460710541Y-328799599D01*
X460960221Y-328857883D01*
X461166027Y-328901029D01*
X461302923Y-328927000D01*
X461389608Y-328936601D01*
X461444784Y-328930639D01*
X461487150Y-328909921D01*
X461525735Y-328882278D01*
X461584164Y-328829624D01*
X461574349Y-328780852D01*
X461535717Y-328735007D01*
X461451181Y-328680080D01*
X461312973Y-328626658D01*
X461198314Y-328596830D01*
X461011211Y-328555010D01*
X460893028Y-328510896D01*
X460836214Y-328447660D01*
X460834344Y-328385719D01*
X461814365Y-328385719D01*
X461853733Y-328602118D01*
X461961448Y-328785041D01*
X462121923Y-328918145D01*
X462319574Y-328985083D01*
X462390423Y-328989867D01*
X462514398Y-328968615D01*
X462629068Y-328892900D01*
X462665146Y-328857330D01*
X463273209Y-328857330D01*
X463279967Y-328946371D01*
X463286509Y-328959643D01*
X463397441Y-329018661D01*
X463565332Y-329049377D01*
X463762284Y-329051739D01*
X463960399Y-329025697D01*
X464131778Y-328971201D01*
X464152229Y-328961205D01*
X464271858Y-328853379D01*
X464345048Y-328695150D01*
X464365683Y-328515948D01*
X464327649Y-328345198D01*
X464293042Y-328283558D01*
X464252666Y-328212997D01*
X464258706Y-328153564D01*
X464317695Y-328070631D01*
X464337760Y-328046585D01*
X464429175Y-327887409D01*
X464450808Y-327724809D01*
X464401711Y-327581993D01*
X464358752Y-327532565D01*
X464259689Y-327483531D01*
X464104160Y-327448269D01*
X463921373Y-327428667D01*
X463740535Y-327426617D01*
X463590854Y-327444007D01*
X463507373Y-327477474D01*
X463476057Y-327540527D01*
X463439759Y-327672202D01*
X463401262Y-327853820D01*
X463363349Y-328066703D01*
X463328804Y-328292174D01*
X463300410Y-328511554D01*
X463280951Y-328706166D01*
X463273209Y-328857330D01*
X462665146Y-328857330D01*
X462688921Y-328833890D01*
X462800232Y-328680124D01*
X462902822Y-328474440D01*
X462990534Y-328238842D01*
X463057211Y-327995332D01*
X463096699Y-327765914D01*
X463102841Y-327572592D01*
X463076013Y-327450322D01*
X463003328Y-327355543D01*
X462917468Y-327343565D01*
X462848678Y-327395557D01*
X462816891Y-327462803D01*
X462771700Y-327595168D01*
X462720197Y-327770716D01*
X462688081Y-327892122D01*
X462607477Y-328181052D01*
X462531297Y-328389063D01*
X462455261Y-328524248D01*
X462375092Y-328594700D01*
X462308634Y-328609929D01*
X462224804Y-328598797D01*
X462170074Y-328557675D01*
X462142764Y-328474973D01*
X462141194Y-328339098D01*
X462163684Y-328138461D01*
X462203984Y-327887850D01*
X462247818Y-327611052D01*
X462269717Y-327413639D01*
X462270274Y-327288447D01*
X462257709Y-327238846D01*
X462181272Y-327165654D01*
X462084665Y-327175743D01*
X462024848Y-327220799D01*
X461992981Y-327289401D01*
X461955313Y-327425661D01*
X461915686Y-327608322D01*
X461877940Y-327816127D01*
X461845916Y-328027818D01*
X461823456Y-328222139D01*
X461814399Y-328377833D01*
X461814365Y-328385719D01*
X460834344Y-328385719D01*
X460833220Y-328348475D01*
X460876497Y-328196513D01*
X460940590Y-328022372D01*
X461028577Y-327768008D01*
X461100512Y-327518783D01*
X461152405Y-327292839D01*
X461180266Y-327108317D01*
X461180105Y-326983357D01*
X461174128Y-326960537D01*
X461112438Y-326898537D01*
X461020259Y-326897760D01*
X460929051Y-326954920D01*
X460902613Y-326988890D01*
X460872512Y-327057481D01*
X460822958Y-327193541D01*
X460759434Y-327379758D01*
X460687421Y-327598817D01*
X460612400Y-327833405D01*
X460539853Y-328066207D01*
X460475260Y-328279909D01*
X460424105Y-328457197D01*
X460391867Y-328580758D01*
X460383380Y-328628963D01*
X457577611Y-328628963D01*
X457561803Y-328620416D01*
X456940486Y-328246737D01*
X456520025Y-327965345D01*
X459132692Y-327965345D01*
X459168520Y-328165456D01*
X459188312Y-328210423D01*
X459316163Y-328390794D01*
X459486666Y-328503035D01*
X459578450Y-328535008D01*
X459703733Y-328569283D01*
X459779057Y-328579810D01*
X459840683Y-328566609D01*
X459912805Y-328535185D01*
X460004912Y-328462804D01*
X460056517Y-328365041D01*
X460057081Y-328272183D01*
X460020506Y-328225708D01*
X459929912Y-328195378D01*
X459838826Y-328185790D01*
X459707007Y-328142271D01*
X459621657Y-328062130D01*
X459564276Y-327972370D01*
X459540496Y-327872820D01*
X459543206Y-327728222D01*
X459546436Y-327689275D01*
X459588252Y-327457803D01*
X459663962Y-327257172D01*
X459764010Y-327096491D01*
X459878838Y-326984868D01*
X459998887Y-326931409D01*
X460114600Y-326945224D01*
X460216420Y-327035420D01*
X460222753Y-327044788D01*
X460309421Y-327136151D01*
X460387835Y-327146357D01*
X460444971Y-327075404D01*
X460454453Y-327044788D01*
X460463903Y-326858729D01*
X460402664Y-326705746D01*
X460286421Y-326595711D01*
X460130860Y-326538495D01*
X459951667Y-326543972D01*
X459773682Y-326616324D01*
X459600886Y-326760964D01*
X459444892Y-326963778D01*
X459312889Y-327205195D01*
X459212063Y-327465643D01*
X459149602Y-327725551D01*
X459132692Y-327965345D01*
X456520025Y-327965345D01*
X456333294Y-327840376D01*
X455722933Y-327389400D01*
X455092105Y-326881880D01*
X454903068Y-326721050D01*
X456546278Y-326721050D01*
X456604985Y-326799089D01*
X456707392Y-326830219D01*
X456854465Y-326806318D01*
X457026568Y-326734515D01*
X457204063Y-326621938D01*
X457291819Y-326549786D01*
X457430300Y-326437173D01*
X457523260Y-326391208D01*
X457567217Y-326397047D01*
X457593418Y-326427860D01*
X457600436Y-326487631D01*
X457586831Y-326592826D01*
X457551165Y-326759915D01*
X457526354Y-326864580D01*
X457471388Y-327124474D01*
X457451389Y-327313104D01*
X457467221Y-327441884D01*
X457519747Y-327522229D01*
X457578643Y-327555700D01*
X457711796Y-327565998D01*
X457825156Y-327489473D01*
X457911099Y-327343037D01*
X457945972Y-327221084D01*
X457977192Y-327043025D01*
X457999245Y-326842170D01*
X458002915Y-326788325D01*
X458025638Y-326397708D01*
X458329723Y-326257546D01*
X458573517Y-326127042D01*
X458731145Y-326006220D01*
X458805857Y-325902927D01*
X458800906Y-325825010D01*
X458719541Y-325780314D01*
X458565016Y-325776686D01*
X458340580Y-325821973D01*
X458171857Y-325876562D01*
X458027567Y-325926178D01*
X457923022Y-325956867D01*
X457879382Y-325962473D01*
X457879154Y-325961722D01*
X457902278Y-325914367D01*
X457958376Y-325828178D01*
X457962751Y-325821938D01*
X458119216Y-325566402D01*
X458207966Y-325343046D01*
X458227444Y-325158246D01*
X458176092Y-325018378D01*
X458162892Y-325002447D01*
X458082004Y-324933739D01*
X458004015Y-324919202D01*
X457921387Y-324964940D01*
X457826585Y-325077059D01*
X457712069Y-325261663D01*
X457608769Y-325451249D01*
X457355656Y-325837717D01*
X457019918Y-326194937D01*
X456800093Y-326378493D01*
X456638448Y-326517503D01*
X456555094Y-326628993D01*
X456546278Y-326721050D01*
X454903068Y-326721050D01*
X454704154Y-326551817D01*
X454112022Y-326042360D01*
X453694354Y-325689004D01*
X455667806Y-325689004D01*
X455670485Y-325855972D01*
X455687817Y-325964945D01*
X455729171Y-326047208D01*
X455799753Y-326129654D01*
X455904549Y-326227287D01*
X456001303Y-326296740D01*
X456023344Y-326307646D01*
X456158458Y-326325263D01*
X456308155Y-326295353D01*
X456392270Y-326250576D01*
X456444119Y-326162339D01*
X456427784Y-326061919D01*
X456362219Y-325995774D01*
X456211388Y-325875249D01*
X456140932Y-325720899D01*
X456150052Y-325536440D01*
X456237947Y-325325590D01*
X456403818Y-325092067D01*
X456601854Y-324882037D01*
X456758537Y-324739065D01*
X456874805Y-324653396D01*
X456967790Y-324613872D01*
X457023196Y-324607640D01*
X457138314Y-324631298D01*
X457211412Y-324718211D01*
X457217538Y-324730616D01*
X457302464Y-324836262D01*
X457406590Y-324865747D01*
X457508411Y-324815831D01*
X457539449Y-324779108D01*
X457601607Y-324624779D01*
X457586786Y-324469214D01*
X457506105Y-324326588D01*
X457370684Y-324211072D01*
X457191644Y-324136841D01*
X457019763Y-324116721D01*
X456811360Y-324157309D01*
X456583968Y-324268240D01*
X456352653Y-324437160D01*
X456132482Y-324651713D01*
X455938519Y-324899544D01*
X455818087Y-325102197D01*
X455732537Y-325285611D01*
X455686796Y-325440624D01*
X455669376Y-325612097D01*
X455667806Y-325689004D01*
X453694354Y-325689004D01*
X453578653Y-325591119D01*
X453098656Y-325193995D01*
X452666636Y-324846892D01*
X452386951Y-324630589D01*
X453946078Y-324630589D01*
X453964731Y-324694535D01*
X454039222Y-324736538D01*
X454165813Y-324731680D01*
X454322349Y-324682950D01*
X454423659Y-324632625D01*
X454612706Y-324524532D01*
X454792216Y-324621984D01*
X454899450Y-324686294D01*
X454963829Y-324736661D01*
X454972095Y-324750255D01*
X454945187Y-324797830D01*
X454874879Y-324890386D01*
X454793591Y-324987746D01*
X454669294Y-325153469D01*
X454620417Y-325279020D01*
X454645600Y-325370089D01*
X454692975Y-325408988D01*
X454785041Y-325449126D01*
X454872461Y-325442358D01*
X454984807Y-325391983D01*
X455123973Y-325288018D01*
X455285253Y-325116878D01*
X455458184Y-324894679D01*
X455632302Y-324637538D01*
X455797143Y-324361573D01*
X455942245Y-324082899D01*
X456057144Y-323817635D01*
X456111858Y-323655990D01*
X456154940Y-323437039D01*
X456136848Y-323280853D01*
X456056032Y-323183531D01*
X455910941Y-323141175D01*
X455906981Y-323140829D01*
X455828411Y-323141466D01*
X455748265Y-323163285D01*
X455649766Y-323215158D01*
X455516140Y-323305956D01*
X455330611Y-323444551D01*
X455325960Y-323448097D01*
X455108527Y-323613184D01*
X454855652Y-323804057D01*
X454603762Y-323993269D01*
X454447599Y-324109979D01*
X454219691Y-324287631D01*
X454064049Y-324428878D01*
X453974802Y-324540828D01*
X453946078Y-324630589D01*
X452386951Y-324630589D01*
X452277202Y-324545711D01*
X451924960Y-324286357D01*
X451604519Y-324064729D01*
X451310485Y-323876733D01*
X451037466Y-323718269D01*
X450836020Y-323612727D01*
X450626977Y-323508598D01*
X450485458Y-323445635D01*
X450397587Y-323427955D01*
X450349485Y-323459678D01*
X450327276Y-323544921D01*
X450317080Y-323687803D01*
X450312936Y-323767958D01*
X450294873Y-323962215D01*
X450265530Y-324136324D01*
X450230511Y-324258459D01*
X450224147Y-324272253D01*
X450181118Y-324383471D01*
X450190871Y-324480798D01*
X450214266Y-324540563D01*
X450268895Y-324769634D01*
X450252271Y-325017297D01*
X450171937Y-325259835D01*
X450035439Y-325473534D01*
X449870233Y-325621984D01*
X449734180Y-325698966D01*
X449600533Y-325736933D01*
X449425668Y-325747785D01*
X449408805Y-325747838D01*
X449137375Y-325747957D01*
X449039845Y-325986617D01*
X448949445Y-326181418D01*
X448853649Y-326315577D01*
X448728591Y-326415961D01*
X448593603Y-326488957D01*
X448371933Y-326561758D01*
X448181150Y-326568342D01*
X447964612Y-326552887D01*
X447885337Y-326776478D01*
X447752657Y-327030951D01*
X447563169Y-327219074D01*
X447325734Y-327335209D01*
X447049214Y-327373719D01*
X446954150Y-327368750D01*
X446735929Y-327313766D01*
X446583020Y-327197784D01*
X446496562Y-327022051D01*
X446475985Y-326845072D01*
X446465721Y-326695637D01*
X446425088Y-326607325D01*
X446339325Y-326571618D01*
X446193672Y-326580000D01*
X446059959Y-326605044D01*
X445634067Y-326677184D01*
X445267186Y-326699710D01*
X444944042Y-326672818D01*
X444726681Y-326622001D01*
X444234264Y-326427674D01*
X443782796Y-326157963D01*
X443379103Y-325820157D01*
X443030015Y-325421544D01*
X442742361Y-324969412D01*
X442522968Y-324471051D01*
X442432004Y-324172693D01*
X442345763Y-323760510D01*
X442278222Y-323267140D01*
X442229492Y-322698883D01*
X442199687Y-322062036D01*
X442188920Y-321362898D01*
X442197303Y-320607766D01*
X442224949Y-319802939D01*
X442271972Y-318954716D01*
X442325415Y-318226947D01*
X442377449Y-317586866D01*
X442527041Y-317586866D01*
X442627347Y-317594427D01*
G37*
G36*
X463901080Y-328377351D02*
G01*
X464007207Y-328409585D01*
X464008502Y-328410270D01*
X464076208Y-328490030D01*
X464092301Y-328601257D01*
X464052289Y-328699600D01*
X464039101Y-328712247D01*
X463945184Y-328757326D01*
X463814626Y-328786250D01*
X463688543Y-328792981D01*
X463612554Y-328774866D01*
X463576820Y-328709305D01*
X463580611Y-328578036D01*
X463584730Y-328550327D01*
X463609067Y-328432758D01*
X463647970Y-328379129D01*
X463726001Y-328364500D01*
X463768267Y-328363978D01*
X463901080Y-328377351D01*
G37*
G36*
X463978566Y-327716416D02*
G01*
X464091032Y-327775578D01*
X464135494Y-327854976D01*
X464108629Y-327938896D01*
X464007116Y-328011625D01*
X463876853Y-328049954D01*
X463692534Y-328083659D01*
X463692534Y-327888431D01*
X463697633Y-327766497D01*
X463721920Y-327709631D01*
X463778886Y-327693647D01*
X463801419Y-327693204D01*
X463978566Y-327716416D01*
G37*
G36*
X455687957Y-323742102D02*
G01*
X455668814Y-323809805D01*
X455619867Y-323922342D01*
X455553844Y-324055456D01*
X455483469Y-324184890D01*
X455421469Y-324286387D01*
X455380569Y-324335691D01*
X455375786Y-324337137D01*
X455327914Y-324312258D01*
X455237019Y-324252917D01*
X455205147Y-324230706D01*
X455106390Y-324159350D01*
X455042583Y-324110431D01*
X455034900Y-324103644D01*
X455059992Y-324072157D01*
X455146395Y-324007138D01*
X455278167Y-323920124D01*
X455350016Y-323875650D01*
X455518762Y-323777336D01*
X455624535Y-323726921D01*
X455677259Y-323720486D01*
X455687957Y-323742102D01*
G37*
D13*
%TO.C,SW13*%
X469595000Y-291315000D02*
X483565000Y-291315000D01*
X469595000Y-305285000D02*
X469595000Y-291315000D01*
X483565000Y-291315000D02*
X483565000Y-305285000D01*
X483565000Y-305285000D02*
X469595000Y-305285000D01*
%TO.C,SW7*%
X469515000Y-272115000D02*
X483485000Y-272115000D01*
X469515000Y-286085000D02*
X469515000Y-272115000D01*
X483485000Y-272115000D02*
X483485000Y-286085000D01*
X483485000Y-286085000D02*
X469515000Y-286085000D01*
%TO.C,SW4*%
X526775000Y-249595000D02*
X540745000Y-249595000D01*
X526775000Y-263565000D02*
X526775000Y-249595000D01*
X540745000Y-249595000D02*
X540745000Y-263565000D01*
X540745000Y-263565000D02*
X526775000Y-263565000D01*
%TO.C,SW17*%
X545585000Y-299645000D02*
X559555000Y-299645000D01*
X545585000Y-313615000D02*
X545585000Y-299645000D01*
X559555000Y-299645000D02*
X559555000Y-313615000D01*
X559555000Y-313615000D02*
X545585000Y-313615000D01*
%TO.C,SW9*%
X507775000Y-262295000D02*
X521745000Y-262295000D01*
X507775000Y-276265000D02*
X507775000Y-262295000D01*
X521745000Y-262295000D02*
X521745000Y-276265000D01*
X521745000Y-276265000D02*
X507775000Y-276265000D01*
%TO.C,U3*%
X443893500Y-336514700D02*
X443743500Y-336254892D01*
X443743500Y-336254892D02*
X445475551Y-335254892D01*
X443893500Y-336514700D02*
X446243500Y-340585019D01*
X446243500Y-340585019D02*
X447975551Y-339585019D01*
X445475551Y-335254892D02*
X445075551Y-334562072D01*
X445075551Y-334562072D02*
X456333881Y-328062072D01*
X447975551Y-339585019D02*
X448375551Y-340277840D01*
X448375551Y-340277840D02*
X459633881Y-333777840D01*
X456333881Y-328062072D02*
X459633881Y-333777840D01*
%TO.C,SW3*%
X507755000Y-243205000D02*
X521725000Y-243205000D01*
X507755000Y-257175000D02*
X507755000Y-243205000D01*
X521725000Y-243205000D02*
X521725000Y-257175000D01*
X521725000Y-257175000D02*
X507755000Y-257175000D01*
%TO.C,SW15*%
X507785000Y-281345000D02*
X521755000Y-281345000D01*
X507785000Y-295315000D02*
X507785000Y-281345000D01*
X521755000Y-281345000D02*
X521755000Y-295315000D01*
X521755000Y-295315000D02*
X507785000Y-295315000D01*
%TO.C,SW14*%
X488645000Y-288515000D02*
X502615000Y-288515000D01*
X488645000Y-302485000D02*
X488645000Y-288515000D01*
X502615000Y-288515000D02*
X502615000Y-302485000D01*
X502615000Y-302485000D02*
X488645000Y-302485000D01*
%TO.C,SW6*%
X458491769Y-348090054D02*
X468370051Y-338211772D01*
X468370051Y-357968335D02*
X458491769Y-348090054D01*
X468370051Y-338211772D02*
X478248333Y-348090054D01*
X478248333Y-348090054D02*
X468370051Y-357968335D01*
%TO.C,Reset*%
X457570000Y-317820000D02*
X457570000Y-319320000D01*
X458820000Y-321820000D02*
X463320000Y-321820000D01*
X463320000Y-315320000D02*
X458820000Y-315320000D01*
X464570000Y-319320000D02*
X464570000Y-317820000D01*
%TO.C,SW2*%
X488655000Y-250205000D02*
X502625000Y-250205000D01*
X488655000Y-264175000D02*
X488655000Y-250205000D01*
X502625000Y-250205000D02*
X502625000Y-264175000D01*
X502625000Y-264175000D02*
X488655000Y-264175000D01*
%TO.C,SW11*%
X545585000Y-280535000D02*
X559555000Y-280535000D01*
X545585000Y-294505000D02*
X545585000Y-280535000D01*
X559555000Y-280535000D02*
X559555000Y-294505000D01*
X559555000Y-294505000D02*
X545585000Y-294505000D01*
%TO.C,A1*%
X443480000Y-262470000D02*
X443000000Y-262470000D01*
X443480000Y-262470000D02*
X443480000Y-262890000D01*
X443480000Y-265010000D02*
X443480000Y-265430000D01*
X443480000Y-267550000D02*
X443480000Y-267970000D01*
X443480000Y-270090000D02*
X443480000Y-270510000D01*
X443480000Y-272630000D02*
X443480000Y-273050000D01*
X443480000Y-275170000D02*
X443480000Y-275590000D01*
X443480000Y-277710000D02*
X443480000Y-278130000D01*
X443480000Y-280250000D02*
X443480000Y-280670000D01*
X443480000Y-282790000D02*
X443480000Y-283210000D01*
X443480000Y-285330000D02*
X443480000Y-285750000D01*
X443480000Y-287870000D02*
X443480000Y-288290000D01*
X443480000Y-290410000D02*
X443480000Y-290830000D01*
X443480000Y-292950000D02*
X443480000Y-293370000D01*
X443480000Y-295490000D02*
X443480000Y-295910000D01*
X443480000Y-298030000D02*
X443480000Y-298450000D01*
X443480000Y-300570000D02*
X443480000Y-300990000D01*
X443480000Y-303110000D02*
X443480000Y-303530000D01*
X443480000Y-305650000D02*
X443480000Y-306070000D01*
X443480000Y-308190000D02*
X443480000Y-308610000D01*
X443510324Y-260350000D02*
X443000000Y-260350000D01*
X443820000Y-260350063D02*
X443820000Y-259993000D01*
X443820000Y-262470000D02*
X443820000Y-262890000D01*
X443820000Y-265010000D02*
X443820000Y-265430000D01*
X443820000Y-267550000D02*
X443820000Y-267970000D01*
X443820000Y-270090000D02*
X443820000Y-270510000D01*
X443820000Y-272630000D02*
X443820000Y-273050000D01*
X443820000Y-275170000D02*
X443820000Y-275590000D01*
X443820000Y-277710000D02*
X443820000Y-278130000D01*
X443820000Y-280250000D02*
X443820000Y-280670000D01*
X443820000Y-282790000D02*
X443820000Y-283210000D01*
X443820000Y-285330000D02*
X443820000Y-285750000D01*
X443820000Y-287870000D02*
X443820000Y-288290000D01*
X443820000Y-290410000D02*
X443820000Y-290830000D01*
X443820000Y-292950000D02*
X443820000Y-293370000D01*
X443820000Y-295490000D02*
X443820000Y-295910000D01*
X443820000Y-298030000D02*
X443820000Y-298450000D01*
X443820000Y-300570000D02*
X443820000Y-300990000D01*
X443820000Y-303110000D02*
X443820000Y-303530000D01*
X443820000Y-305650000D02*
X443820000Y-306070000D01*
X443820000Y-308190000D02*
X443820000Y-308610000D01*
X443820000Y-310729937D02*
X443820000Y-311087000D01*
X444090000Y-259930000D02*
X446580000Y-259930000D01*
X444090000Y-311150000D02*
X447927939Y-311150000D01*
X446580000Y-259930000D02*
X446580000Y-260843520D01*
X446580000Y-259930000D02*
X447927940Y-259930000D01*
X446580000Y-263236480D02*
X446580000Y-307843520D01*
X446580000Y-310236480D02*
X446580000Y-311150000D01*
X448852061Y-259930000D02*
X449855000Y-259930000D01*
X449855000Y-259930000D02*
X458325000Y-259930000D01*
X450190000Y-259930000D02*
X450190000Y-260846000D01*
X450190000Y-263234000D02*
X450190000Y-264450000D01*
X450190000Y-264450000D02*
X450486090Y-264450000D01*
X450490000Y-311150000D02*
X448852061Y-311150000D01*
X452843910Y-264450000D02*
X455336090Y-264450000D01*
X457690000Y-311150000D02*
X450490000Y-311150000D01*
X457693910Y-264450000D02*
X457990000Y-264450000D01*
X457990000Y-259930000D02*
X457990000Y-260846000D01*
X457990000Y-263234000D02*
X457990000Y-264450000D01*
X458325000Y-259930000D02*
X459327939Y-259930000D01*
X459327939Y-311150000D02*
X457690000Y-311150000D01*
X460252061Y-259930000D02*
X461600000Y-259930000D01*
X460252061Y-311150000D02*
X464090000Y-311150000D01*
X461600000Y-259930000D02*
X461600000Y-260843520D01*
X461600000Y-263236480D02*
X461600000Y-307843520D01*
X461600000Y-310236480D02*
X461600000Y-311150000D01*
X464090000Y-259930000D02*
X461600000Y-259930000D01*
X464360000Y-260350063D02*
X464360000Y-259993000D01*
X464360000Y-262470000D02*
X464360000Y-262890000D01*
X464360000Y-265010000D02*
X464360000Y-265430000D01*
X464360000Y-267550000D02*
X464360000Y-267970000D01*
X464360000Y-270090000D02*
X464360000Y-270510000D01*
X464360000Y-272630000D02*
X464360000Y-273050000D01*
X464360000Y-275170000D02*
X464360000Y-275590000D01*
X464360000Y-277710000D02*
X464360000Y-278130000D01*
X464360000Y-280250000D02*
X464360000Y-280670000D01*
X464360000Y-282790000D02*
X464360000Y-283210000D01*
X464360000Y-285330000D02*
X464360000Y-285750000D01*
X464360000Y-287870000D02*
X464360000Y-288290000D01*
X464360000Y-290410000D02*
X464360000Y-290830000D01*
X464360000Y-292950000D02*
X464360000Y-293370000D01*
X464360000Y-295490000D02*
X464360000Y-295910000D01*
X464360000Y-298030000D02*
X464360000Y-298450000D01*
X464360000Y-300570000D02*
X464360000Y-300990000D01*
X464360000Y-303110000D02*
X464360000Y-303530000D01*
X464360000Y-305650000D02*
X464360000Y-306070000D01*
X464360000Y-308190000D02*
X464360000Y-308610000D01*
X464360000Y-310729937D02*
X464360000Y-311087000D01*
X464700000Y-262470000D02*
X464700000Y-262890000D01*
X464700000Y-265010000D02*
X464700000Y-265430000D01*
X464700000Y-267550000D02*
X464700000Y-267970000D01*
X464700000Y-270090000D02*
X464700000Y-270510000D01*
X464700000Y-272630000D02*
X464700000Y-273050000D01*
X464700000Y-275170000D02*
X464700000Y-275590000D01*
X464700000Y-277710000D02*
X464700000Y-278130000D01*
X464700000Y-280250000D02*
X464700000Y-280670000D01*
X464700000Y-282790000D02*
X464700000Y-283210000D01*
X464700000Y-285330000D02*
X464700000Y-285750000D01*
X464700000Y-287870000D02*
X464700000Y-288290000D01*
X464700000Y-290410000D02*
X464700000Y-290830000D01*
X464700000Y-292950000D02*
X464700000Y-293370000D01*
X464700000Y-295490000D02*
X464700000Y-295910000D01*
X464700000Y-298030000D02*
X464700000Y-298450000D01*
X464700000Y-300570000D02*
X464700000Y-300990000D01*
X464700000Y-303110000D02*
X464700000Y-303530000D01*
X464700000Y-305650000D02*
X464700000Y-306070000D01*
X464700000Y-308190000D02*
X464700000Y-308610000D01*
X443510324Y-260350000D02*
G75*
G02*
X444090000Y-259930000I579692J-190051D01*
G01*
X444090000Y-311150000D02*
G75*
G02*
X443510324Y-310729937I1J610002D01*
G01*
X464090000Y-259930000D02*
G75*
G02*
X464669676Y-260350063I0J-610000D01*
G01*
X464669676Y-310729937D02*
G75*
G02*
X464090000Y-311150069I-579676J189837D01*
G01*
%TO.C,SW1*%
X469565000Y-252815000D02*
X483535000Y-252815000D01*
X469565000Y-266785000D02*
X469565000Y-252815000D01*
X483535000Y-252815000D02*
X483535000Y-266785000D01*
X483535000Y-266785000D02*
X469565000Y-266785000D01*
%TO.C,SW5*%
X545595000Y-261395000D02*
X559565000Y-261395000D01*
X545595000Y-275365000D02*
X545595000Y-261395000D01*
X559565000Y-261395000D02*
X559565000Y-275365000D01*
X559565000Y-275365000D02*
X545595000Y-275365000D01*
D14*
%TO.C,J1*%
X460110000Y-279960000D02*
X448110000Y-279960000D01*
X460110000Y-309460000D02*
X448110000Y-309460000D01*
X460110000Y-314460000D02*
X460110000Y-276460000D01*
X460110000Y-276460000D02*
X448110000Y-276460000D01*
X448110000Y-276460000D02*
X448110000Y-314460000D01*
X448110000Y-314460000D02*
X460110000Y-314460000D01*
D13*
%TO.C,SW18*%
X496955206Y-321260863D02*
X510449190Y-317645161D01*
X500570908Y-334754846D02*
X496955206Y-321260863D01*
X510449190Y-317645161D02*
X514064892Y-331139144D01*
X514064892Y-331139144D02*
X500570908Y-334754846D01*
%TO.C,SW10*%
X526815000Y-268655000D02*
X540785000Y-268655000D01*
X526815000Y-282625000D02*
X526815000Y-268655000D01*
X540785000Y-268655000D02*
X540785000Y-282625000D01*
X540785000Y-282625000D02*
X526815000Y-282625000D01*
%TO.C,SW8*%
X488725000Y-269305000D02*
X502695000Y-269305000D01*
X488725000Y-283275000D02*
X488725000Y-269305000D01*
X502695000Y-269305000D02*
X502695000Y-283275000D01*
X502695000Y-283275000D02*
X488725000Y-283275000D01*
%TO.C,SW16*%
X526805000Y-287905000D02*
X540775000Y-287905000D01*
X526805000Y-301875000D02*
X526805000Y-287905000D01*
X540775000Y-287905000D02*
X540775000Y-301875000D01*
X540775000Y-301875000D02*
X526805000Y-301875000D01*
%TO.C,SW12*%
X476038308Y-331943322D02*
X488136683Y-324958322D01*
X483023308Y-344041696D02*
X476038308Y-331943322D01*
X488136683Y-324958322D02*
X495121683Y-337056696D01*
X495121683Y-337056696D02*
X483023308Y-344041696D01*
%TD*%
M02*
