%TF.GenerationSoftware,KiCad,Pcbnew,9.0.2-9.0.2-0~ubuntu24.04.1*%
%TF.CreationDate,2025-07-03T20:15:33-04:00*%
%TF.ProjectId,custom_Hackboard,63757374-6f6d-45f4-9861-636b626f6172,rev?*%
%TF.SameCoordinates,Original*%
%TF.FileFunction,Other,User*%
%FSLAX46Y46*%
G04 Gerber Fmt 4.6, Leading zero omitted, Abs format (unit mm)*
G04 Created by KiCad (PCBNEW 9.0.2-9.0.2-0~ubuntu24.04.1) date 2025-07-03 20:15:33*
%MOMM*%
%LPD*%
G01*
G04 APERTURE LIST*
%ADD10C,0.050000*%
%ADD11C,0.040000*%
G04 APERTURE END LIST*
D10*
%TO.C,SW13*%
X469980000Y-291700000D02*
X483180000Y-291700000D01*
X469980000Y-304900000D02*
X469980000Y-291700000D01*
X483180000Y-291700000D02*
X483180000Y-304900000D01*
X483180000Y-304900000D02*
X469980000Y-304900000D01*
%TO.C,SW7*%
X469900000Y-272500000D02*
X483100000Y-272500000D01*
X469900000Y-285700000D02*
X469900000Y-272500000D01*
X483100000Y-272500000D02*
X483100000Y-285700000D01*
X483100000Y-285700000D02*
X469900000Y-285700000D01*
%TO.C,SW4*%
X527160000Y-249980000D02*
X540360000Y-249980000D01*
X527160000Y-263180000D02*
X527160000Y-249980000D01*
X540360000Y-249980000D02*
X540360000Y-263180000D01*
X540360000Y-263180000D02*
X527160000Y-263180000D01*
%TO.C,SW17*%
X545970000Y-300030000D02*
X559170000Y-300030000D01*
X545970000Y-313230000D02*
X545970000Y-300030000D01*
X559170000Y-300030000D02*
X559170000Y-313230000D01*
X559170000Y-313230000D02*
X545970000Y-313230000D01*
%TO.C,SW9*%
X508160000Y-262680000D02*
X521360000Y-262680000D01*
X508160000Y-275880000D02*
X508160000Y-262680000D01*
X521360000Y-262680000D02*
X521360000Y-275880000D01*
X521360000Y-275880000D02*
X508160000Y-275880000D01*
%TO.C,SW3*%
X508140000Y-243590000D02*
X521340000Y-243590000D01*
X508140000Y-256790000D02*
X508140000Y-243590000D01*
X521340000Y-243590000D02*
X521340000Y-256790000D01*
X521340000Y-256790000D02*
X508140000Y-256790000D01*
%TO.C,SW15*%
X508170000Y-281730000D02*
X521370000Y-281730000D01*
X508170000Y-294930000D02*
X508170000Y-281730000D01*
X521370000Y-281730000D02*
X521370000Y-294930000D01*
X521370000Y-294930000D02*
X508170000Y-294930000D01*
%TO.C,SW14*%
X489030000Y-288900000D02*
X502230000Y-288900000D01*
X489030000Y-302100000D02*
X489030000Y-288900000D01*
X502230000Y-288900000D02*
X502230000Y-302100000D01*
X502230000Y-302100000D02*
X489030000Y-302100000D01*
%TO.C,SW6*%
X459036242Y-348090054D02*
X468370051Y-338756244D01*
X468370051Y-357423863D02*
X459036242Y-348090054D01*
X468370051Y-338756244D02*
X477703861Y-348090054D01*
X477703861Y-348090054D02*
X468370051Y-357423863D01*
%TO.C,Reset*%
X456320000Y-314820000D02*
X456570000Y-314820000D01*
X456320000Y-315070000D02*
X456320000Y-314820000D01*
X456320000Y-322070000D02*
X456320000Y-315070000D01*
X456320000Y-322070000D02*
X456320000Y-322320000D01*
X456320000Y-322320000D02*
X456570000Y-322320000D01*
X456570000Y-314820000D02*
X465570000Y-314820000D01*
X465570000Y-314820000D02*
X465820000Y-314820000D01*
X465570000Y-322320000D02*
X456570000Y-322320000D01*
X465570000Y-322320000D02*
X465820000Y-322320000D01*
X465820000Y-314820000D02*
X465820000Y-315070000D01*
X465820000Y-315070000D02*
X465820000Y-322070000D01*
X465820000Y-322320000D02*
X465820000Y-322070000D01*
%TO.C,SW2*%
X489040000Y-250590000D02*
X502240000Y-250590000D01*
X489040000Y-263790000D02*
X489040000Y-250590000D01*
X502240000Y-250590000D02*
X502240000Y-263790000D01*
X502240000Y-263790000D02*
X489040000Y-263790000D01*
%TO.C,SW11*%
X545970000Y-280920000D02*
X559170000Y-280920000D01*
X545970000Y-294120000D02*
X545970000Y-280920000D01*
X559170000Y-280920000D02*
X559170000Y-294120000D01*
X559170000Y-294120000D02*
X545970000Y-294120000D01*
%TO.C,A1*%
X458590000Y-259790000D02*
X465630000Y-259790000D01*
X465630000Y-312090000D01*
X442550000Y-312090000D01*
X442550000Y-259790000D01*
X449590000Y-259790000D01*
X449590000Y-258240000D01*
X458590000Y-258240000D01*
X458590000Y-259790000D01*
%TO.C,SW1*%
X469950000Y-253200000D02*
X483150000Y-253200000D01*
X469950000Y-266400000D02*
X469950000Y-253200000D01*
X483150000Y-253200000D02*
X483150000Y-266400000D01*
X483150000Y-266400000D02*
X469950000Y-266400000D01*
%TO.C,SW5*%
X545980000Y-261780000D02*
X559180000Y-261780000D01*
X545980000Y-274980000D02*
X545980000Y-261780000D01*
X559180000Y-261780000D02*
X559180000Y-274980000D01*
X559180000Y-274980000D02*
X545980000Y-274980000D01*
D11*
%TO.C,J1*%
X448110000Y-314460000D02*
X460110000Y-314460000D01*
X448110000Y-276460000D02*
X448110000Y-314460000D01*
X460110000Y-276460000D02*
X448110000Y-276460000D01*
X460110000Y-314460000D02*
X460110000Y-276460000D01*
D10*
%TO.C,SW18*%
X497426733Y-321533099D02*
X510176954Y-318116687D01*
X500843144Y-334283320D02*
X497426733Y-321533099D01*
X510176954Y-318116687D02*
X513593365Y-330866908D01*
X513593365Y-330866908D02*
X500843144Y-334283320D01*
%TO.C,SW10*%
X527200000Y-269040000D02*
X540400000Y-269040000D01*
X527200000Y-282240000D02*
X527200000Y-269040000D01*
X540400000Y-269040000D02*
X540400000Y-282240000D01*
X540400000Y-282240000D02*
X527200000Y-282240000D01*
%TO.C,SW8*%
X489110000Y-269690000D02*
X502310000Y-269690000D01*
X489110000Y-282890000D02*
X489110000Y-269690000D01*
X502310000Y-269690000D02*
X502310000Y-282890000D01*
X502310000Y-282890000D02*
X489110000Y-282890000D01*
%TO.C,SW16*%
X527190000Y-288290000D02*
X540390000Y-288290000D01*
X527190000Y-301490000D02*
X527190000Y-288290000D01*
X540390000Y-288290000D02*
X540390000Y-301490000D01*
X540390000Y-301490000D02*
X527190000Y-301490000D01*
%TO.C,SW12*%
X476564228Y-332084241D02*
X487995763Y-325484241D01*
X483164228Y-343515777D02*
X476564228Y-332084241D01*
X487995763Y-325484241D02*
X494595763Y-336915777D01*
X494595763Y-336915777D02*
X483164228Y-343515777D01*
%TD*%
M02*
