%TF.GenerationSoftware,KiCad,Pcbnew,9.0.2-9.0.2-0~ubuntu24.04.1*%
%TF.CreationDate,2025-07-03T20:23:05-04:00*%
%TF.ProjectId,top,746f702e-6b69-4636-9164-5f7063625858,rev?*%
%TF.SameCoordinates,Original*%
%TF.FileFunction,Legend,Top*%
%TF.FilePolarity,Positive*%
%FSLAX46Y46*%
G04 Gerber Fmt 4.6, Leading zero omitted, Abs format (unit mm)*
G04 Created by KiCad (PCBNEW 9.0.2-9.0.2-0~ubuntu24.04.1) date 2025-07-03 20:23:05*
%MOMM*%
%LPD*%
G01*
G04 APERTURE LIST*
%ADD10C,0.150000*%
%ADD11C,0.300000*%
%ADD12C,0.000000*%
G04 APERTURE END LIST*
D10*
D11*
D10*
D12*
%TO.C, *%
G36*
X164785129Y-118454004D02*
G01*
X164995477Y-118529331D01*
X165121729Y-118589624D01*
X165524386Y-118832074D01*
X165892276Y-119118892D01*
X166219260Y-119442896D01*
X166499199Y-119796908D01*
X166725956Y-120173749D01*
X166893392Y-120566237D01*
X166939606Y-120715889D01*
X166994811Y-120986588D01*
X167000623Y-121215985D01*
X166958428Y-121401942D01*
X166869613Y-121542317D01*
X166735565Y-121634973D01*
X166557671Y-121677769D01*
X166337318Y-121668565D01*
X166323494Y-121666427D01*
X166093438Y-121599426D01*
X165851040Y-121473931D01*
X165603153Y-121296692D01*
X165356630Y-121074456D01*
X165118323Y-120813971D01*
X164895086Y-120521984D01*
X164693770Y-120205244D01*
X164539359Y-119909633D01*
X164431553Y-119659315D01*
X164341588Y-119408628D01*
X164271857Y-119168164D01*
X164224751Y-118948515D01*
X164202660Y-118760273D01*
X164207977Y-118614030D01*
X164230265Y-118540401D01*
X164308544Y-118459682D01*
X164432934Y-118418697D01*
X164594705Y-118416965D01*
X164785129Y-118454004D01*
G37*
G36*
X171387867Y-118404792D02*
G01*
X171430281Y-118431593D01*
X171476787Y-118476531D01*
X171501228Y-118528850D01*
X171509211Y-118609565D01*
X171507120Y-118719584D01*
X171476773Y-118970103D01*
X171405412Y-119258101D01*
X171297118Y-119570149D01*
X171155970Y-119892822D01*
X171141705Y-119922105D01*
X170958564Y-120257743D01*
X170754511Y-120566136D01*
X170534670Y-120843425D01*
X170304167Y-121085749D01*
X170068127Y-121289250D01*
X169831676Y-121450066D01*
X169599939Y-121564339D01*
X169378040Y-121628209D01*
X169171105Y-121637816D01*
X168984260Y-121589300D01*
X168950182Y-121572513D01*
X168823770Y-121467785D01*
X168743894Y-121316053D01*
X168711245Y-121120541D01*
X168726516Y-120884476D01*
X168764094Y-120704479D01*
X168889214Y-120343600D01*
X169073610Y-119984474D01*
X169309004Y-119636693D01*
X169587121Y-119309845D01*
X169899683Y-119013519D01*
X170238414Y-118757305D01*
X170595037Y-118550792D01*
X170642796Y-118527854D01*
X170873959Y-118435025D01*
X171080482Y-118382925D01*
X171254430Y-118372524D01*
X171387867Y-118404792D01*
G37*
G36*
X169872595Y-103736486D02*
G01*
X169969029Y-103766525D01*
X170122853Y-103840715D01*
X170281746Y-103964642D01*
X170449775Y-104142440D01*
X170631009Y-104378243D01*
X170765170Y-104575831D01*
X171300437Y-105447535D01*
X171785511Y-106341996D01*
X172219347Y-107254911D01*
X172600901Y-108181979D01*
X172929130Y-109118900D01*
X173202987Y-110061371D01*
X173421430Y-111005093D01*
X173583414Y-111945763D01*
X173687895Y-112879081D01*
X173733829Y-113800746D01*
X173720171Y-114706455D01*
X173645878Y-115591909D01*
X173569344Y-116126211D01*
X173409324Y-116928106D01*
X173203818Y-117683209D01*
X172950394Y-118397376D01*
X172646615Y-119076460D01*
X172290047Y-119726314D01*
X171878256Y-120352792D01*
X171723690Y-120563561D01*
X171576938Y-120744158D01*
X171389577Y-120953131D01*
X171174888Y-121177370D01*
X170946149Y-121403765D01*
X170716639Y-121619209D01*
X170499638Y-121810591D01*
X170308424Y-121964804D01*
X170291191Y-121977707D01*
X169964659Y-122207624D01*
X169629362Y-122420506D01*
X169293461Y-122612542D01*
X168965119Y-122779918D01*
X168652498Y-122918820D01*
X168363762Y-123025437D01*
X168107072Y-123095954D01*
X167890590Y-123126560D01*
X167830327Y-123127279D01*
X167724296Y-123117563D01*
X167591341Y-123096679D01*
X167519973Y-123082283D01*
X167321910Y-123032845D01*
X167135086Y-122972907D01*
X166941243Y-122895348D01*
X166722122Y-122793047D01*
X166533895Y-122697713D01*
X165924319Y-122352205D01*
X165369565Y-121974017D01*
X164862100Y-121556413D01*
X164394388Y-121092655D01*
X163958895Y-120576010D01*
X163595161Y-120070522D01*
X163203986Y-119427493D01*
X162864228Y-118742338D01*
X162576433Y-118018063D01*
X162341150Y-117257677D01*
X162158924Y-116464186D01*
X162030303Y-115640596D01*
X161955834Y-114789916D01*
X161940547Y-114113521D01*
X162222200Y-114113521D01*
X162222441Y-114431277D01*
X162227039Y-114720062D01*
X162236258Y-114966027D01*
X162245223Y-115100822D01*
X162343791Y-115942044D01*
X162495102Y-116749606D01*
X162698280Y-117521135D01*
X162952447Y-118254259D01*
X163256725Y-118946607D01*
X163610238Y-119595807D01*
X164012109Y-120199488D01*
X164240656Y-120495555D01*
X164676313Y-120992786D01*
X165132013Y-121432705D01*
X165618716Y-121824086D01*
X166147383Y-122175703D01*
X166728975Y-122496330D01*
X166758833Y-122511302D01*
X167068403Y-122655965D01*
X167338315Y-122758265D01*
X167580570Y-122820067D01*
X167807169Y-122843237D01*
X168030113Y-122829639D01*
X168261402Y-122781139D01*
X168342673Y-122757463D01*
X168475219Y-122707896D01*
X168651622Y-122629485D01*
X168858073Y-122529427D01*
X169080759Y-122414921D01*
X169305870Y-122293165D01*
X169519595Y-122171358D01*
X169708125Y-122056697D01*
X169791872Y-122002117D01*
X170355184Y-121582829D01*
X170875063Y-121112294D01*
X171350545Y-120592379D01*
X171780663Y-120024953D01*
X172164452Y-119411884D01*
X172500947Y-118755039D01*
X172789182Y-118056287D01*
X173028191Y-117317495D01*
X173217010Y-116540533D01*
X173354673Y-115727268D01*
X173434978Y-114953119D01*
X173468134Y-114072870D01*
X173440337Y-113171112D01*
X173353101Y-112253220D01*
X173207941Y-111324565D01*
X173006370Y-110390520D01*
X172749904Y-109456458D01*
X172440055Y-108527751D01*
X172078339Y-107609772D01*
X171666270Y-106707894D01*
X171205362Y-105827490D01*
X170697130Y-104973931D01*
X170564191Y-104767410D01*
X170398270Y-104522274D01*
X170256427Y-104332697D01*
X170133524Y-104192828D01*
X170024424Y-104096816D01*
X169924554Y-104039049D01*
X169799505Y-104010490D01*
X169704342Y-104041108D01*
X169639320Y-104128866D01*
X169604697Y-104271730D01*
X169600728Y-104467664D01*
X169627671Y-104714632D01*
X169685782Y-105010600D01*
X169763863Y-105313360D01*
X169966298Y-106121086D01*
X170121014Y-106936567D01*
X170227535Y-107751595D01*
X170285381Y-108557965D01*
X170294077Y-109347469D01*
X170253144Y-110111901D01*
X170162106Y-110843054D01*
X170104103Y-111161820D01*
X169975972Y-111700674D01*
X169818729Y-112191772D01*
X169633942Y-112632391D01*
X169423182Y-113019803D01*
X169188017Y-113351285D01*
X168930017Y-113624109D01*
X168650752Y-113835552D01*
X168523052Y-113907670D01*
X168217942Y-114029013D01*
X167913663Y-114082730D01*
X167612360Y-114069189D01*
X167316175Y-113988756D01*
X167027251Y-113841800D01*
X166747732Y-113628686D01*
X166713884Y-113597716D01*
X166553688Y-113438793D01*
X166418036Y-113279839D01*
X166294565Y-113103653D01*
X166170911Y-112893031D01*
X166071460Y-112703781D01*
X165906954Y-112344904D01*
X165765632Y-111958528D01*
X165644613Y-111534641D01*
X165541018Y-111063229D01*
X165456794Y-110566774D01*
X165430542Y-110337395D01*
X165410943Y-110053351D01*
X165397920Y-109727646D01*
X165391397Y-109373285D01*
X165391296Y-109003275D01*
X165397542Y-108630620D01*
X165410057Y-108268326D01*
X165428764Y-107929398D01*
X165453587Y-107626842D01*
X165475244Y-107438527D01*
X165603200Y-106628274D01*
X165769117Y-105842107D01*
X165909112Y-105296359D01*
X165993603Y-104963635D01*
X166048515Y-104687836D01*
X166074215Y-104464827D01*
X166071073Y-104290476D01*
X166039458Y-104160651D01*
X166014571Y-104113386D01*
X165931715Y-104035780D01*
X165827700Y-104020482D01*
X165704839Y-104065977D01*
X165565447Y-104170747D01*
X165411838Y-104333275D01*
X165246326Y-104552045D01*
X165169307Y-104667309D01*
X164579470Y-105634895D01*
X164056411Y-106608029D01*
X163598945Y-107589894D01*
X163205885Y-108583672D01*
X162876046Y-109592546D01*
X162608241Y-110619698D01*
X162401285Y-111668311D01*
X162297409Y-112374018D01*
X162277074Y-112574813D01*
X162259506Y-112829720D01*
X162244969Y-113124892D01*
X162233730Y-113446480D01*
X162226052Y-113780639D01*
X162222200Y-114113521D01*
X161940547Y-114113521D01*
X161936064Y-113915152D01*
X161971539Y-113019310D01*
X162062807Y-112105399D01*
X162098765Y-111844417D01*
X162257243Y-110951873D01*
X162473107Y-110041208D01*
X162742510Y-109123877D01*
X163061600Y-108211338D01*
X163426527Y-107315046D01*
X163833443Y-106446457D01*
X164058141Y-106013660D01*
X164230004Y-105700962D01*
X164407534Y-105390786D01*
X164585391Y-105091624D01*
X164758231Y-104811973D01*
X164920712Y-104560326D01*
X165067491Y-104345178D01*
X165193228Y-104175022D01*
X165278444Y-104073329D01*
X165463684Y-103902528D01*
X165645061Y-103792227D01*
X165817395Y-103742023D01*
X165975503Y-103751515D01*
X166114206Y-103820301D01*
X166228321Y-103947979D01*
X166312668Y-104134148D01*
X166318683Y-104153966D01*
X166345882Y-104261081D01*
X166357235Y-104357354D01*
X166353504Y-104467901D01*
X166335456Y-104617837D01*
X166333272Y-104633306D01*
X166304047Y-104800570D01*
X166261353Y-104998699D01*
X166212700Y-105193871D01*
X166193595Y-105262356D01*
X165963255Y-106176258D01*
X165795149Y-107111111D01*
X165690579Y-108057663D01*
X165650848Y-109006660D01*
X165650498Y-109118620D01*
X165667832Y-109772187D01*
X165717816Y-110387864D01*
X165799455Y-110962892D01*
X165911756Y-111494511D01*
X166053724Y-111979962D01*
X166224364Y-112416483D01*
X166422682Y-112801316D01*
X166647683Y-113131700D01*
X166898373Y-113404875D01*
X167173758Y-113618083D01*
X167297599Y-113689636D01*
X167400864Y-113740717D01*
X167487237Y-113772282D01*
X167579186Y-113788813D01*
X167699181Y-113794791D01*
X167825997Y-113795015D01*
X167993434Y-113791010D01*
X168116041Y-113778760D01*
X168216864Y-113754217D01*
X168318949Y-113713333D01*
X168336037Y-113705427D01*
X168603361Y-113544068D01*
X168853808Y-113320168D01*
X169085322Y-113037559D01*
X169295848Y-112700070D01*
X169483331Y-112311533D01*
X169645714Y-111875776D01*
X169780943Y-111396632D01*
X169886962Y-110877929D01*
X169901666Y-110787791D01*
X169986674Y-110068696D01*
X170022602Y-109312926D01*
X170010175Y-108530107D01*
X169950119Y-107729867D01*
X169843161Y-106921834D01*
X169690026Y-106115636D01*
X169491441Y-105320899D01*
X169488657Y-105311020D01*
X169396841Y-104947404D01*
X169342263Y-104638204D01*
X169324750Y-104381042D01*
X169344134Y-104173543D01*
X169396046Y-104021258D01*
X169479245Y-103898430D01*
X169593157Y-103811102D01*
X169635565Y-103788650D01*
X169731891Y-103743607D01*
X169800374Y-103726917D01*
X169872595Y-103736486D01*
G37*
%TD*%
M02*
