%TF.GenerationSoftware,KiCad,Pcbnew,9.0.2-9.0.2-0~ubuntu24.04.1*%
%TF.CreationDate,2025-07-03T20:23:05-04:00*%
%TF.ProjectId,top,746f702e-6b69-4636-9164-5f7063625858,rev?*%
%TF.SameCoordinates,Original*%
%TF.FileFunction,Legend,Bot*%
%TF.FilePolarity,Positive*%
%FSLAX46Y46*%
G04 Gerber Fmt 4.6, Leading zero omitted, Abs format (unit mm)*
G04 Created by KiCad (PCBNEW 9.0.2-9.0.2-0~ubuntu24.04.1) date 2025-07-03 20:23:05*
%MOMM*%
%LPD*%
G01*
G04 APERTURE LIST*
%ADD10C,0.300000*%
%ADD11C,0.000000*%
G04 APERTURE END LIST*
D10*
D11*
%TO.C,  *%
G36*
X165615316Y-116598657D02*
G01*
X166036294Y-116797904D01*
X166343984Y-117082659D01*
X166541580Y-117472340D01*
X166606474Y-117948608D01*
X166576658Y-118271273D01*
X166411297Y-118748401D01*
X166110946Y-119148431D01*
X165686783Y-119453079D01*
X165358184Y-119559311D01*
X164957321Y-119554418D01*
X164568436Y-119427275D01*
X164230905Y-119191572D01*
X163984101Y-118861003D01*
X163921297Y-118717332D01*
X163814873Y-118241889D01*
X163828645Y-117740026D01*
X163963398Y-117272138D01*
X163993097Y-117209276D01*
X164118206Y-117012480D01*
X164293363Y-116865685D01*
X164570554Y-116721763D01*
X164712049Y-116662369D01*
X165178770Y-116553732D01*
X165615316Y-116598657D01*
G37*
G36*
X170562030Y-116699021D02*
G01*
X170972718Y-116862084D01*
X171118222Y-116940838D01*
X171372071Y-117167792D01*
X171534954Y-117485985D01*
X171625119Y-117925153D01*
X171640314Y-118136266D01*
X171584853Y-118618679D01*
X171394015Y-119016252D01*
X171068274Y-119327787D01*
X170953970Y-119403800D01*
X170748751Y-119530707D01*
X170614543Y-119600939D01*
X170315909Y-119651475D01*
X169940613Y-119595219D01*
X169568757Y-119434443D01*
X169249405Y-119184128D01*
X169179028Y-119105825D01*
X168924984Y-118696362D01*
X168813170Y-118258982D01*
X168838603Y-117821015D01*
X168996297Y-117409790D01*
X169281267Y-117052635D01*
X169688526Y-116776879D01*
X169910485Y-116687883D01*
X170223161Y-116641963D01*
X170562030Y-116699021D01*
G37*
G36*
X174691130Y-110496071D02*
G01*
X174571776Y-111171191D01*
X174512094Y-111356090D01*
X174233303Y-112015707D01*
X173862942Y-112676718D01*
X173435568Y-113275134D01*
X172990352Y-113821972D01*
X172921540Y-115278289D01*
X172874007Y-116071258D01*
X172772323Y-117104160D01*
X172628172Y-117996470D01*
X172436882Y-118757619D01*
X172193781Y-119397033D01*
X171894198Y-119924142D01*
X171533459Y-120348375D01*
X171106893Y-120679160D01*
X170609826Y-120925925D01*
X170037588Y-121098099D01*
X169664574Y-121161136D01*
X169140006Y-121213163D01*
X168532899Y-121247121D01*
X167883371Y-121262680D01*
X167231539Y-121259508D01*
X166617517Y-121237271D01*
X166081423Y-121195640D01*
X165663373Y-121134281D01*
X164954279Y-120936988D01*
X164336478Y-120653260D01*
X163843863Y-120294285D01*
X163487702Y-119866629D01*
X163311635Y-119502724D01*
X163144849Y-119008053D01*
X162994623Y-118416036D01*
X162867066Y-117758200D01*
X162768285Y-117066071D01*
X162704388Y-116371173D01*
X162681481Y-115705034D01*
X162678477Y-115353830D01*
X162667828Y-114905745D01*
X162651328Y-114502669D01*
X162630916Y-114202216D01*
X162620070Y-114091975D01*
X162589571Y-113878631D01*
X162536039Y-113707509D01*
X162438435Y-113538271D01*
X162275719Y-113330581D01*
X162026853Y-113044101D01*
X161689490Y-112629010D01*
X161232722Y-111902030D01*
X160933900Y-111157356D01*
X160791742Y-110389781D01*
X160795757Y-110148171D01*
X161080395Y-110148171D01*
X161089768Y-110427611D01*
X161191891Y-111070145D01*
X161415500Y-111674720D01*
X161771876Y-112267129D01*
X162272301Y-112873162D01*
X162304349Y-112907611D01*
X162468969Y-113083442D01*
X162599209Y-113231606D01*
X162700056Y-113372945D01*
X162776499Y-113528299D01*
X162833527Y-113718510D01*
X162876129Y-113964420D01*
X162909293Y-114286871D01*
X162938008Y-114706704D01*
X162967262Y-115244761D01*
X163002045Y-115921883D01*
X163002171Y-115924317D01*
X163061213Y-116829492D01*
X163139104Y-117594190D01*
X163240402Y-118237504D01*
X163369666Y-118778526D01*
X163531457Y-119236345D01*
X163730334Y-119630055D01*
X163970855Y-119978747D01*
X164012995Y-120031014D01*
X164286903Y-120314550D01*
X164596802Y-120525044D01*
X164984091Y-120685376D01*
X165490172Y-120818429D01*
X165562019Y-120833023D01*
X165962756Y-120890333D01*
X166471749Y-120935741D01*
X167046923Y-120967891D01*
X167646204Y-120985429D01*
X168227517Y-120987000D01*
X168748788Y-120971251D01*
X169167941Y-120936826D01*
X169870727Y-120823945D01*
X170480166Y-120660945D01*
X170971212Y-120441929D01*
X171363526Y-120155497D01*
X171676768Y-119790247D01*
X171930596Y-119334778D01*
X172030576Y-119085712D01*
X172191648Y-118544469D01*
X172333297Y-117889945D01*
X172451125Y-117151623D01*
X172540733Y-116358989D01*
X172597724Y-115541525D01*
X172617698Y-114728716D01*
X172617847Y-114627181D01*
X172626614Y-114232601D01*
X172661176Y-113930483D01*
X172738478Y-113679127D01*
X172875464Y-113436831D01*
X173089078Y-113161891D01*
X173396266Y-112812608D01*
X173502658Y-112690908D01*
X173815752Y-112270374D01*
X174038326Y-111837295D01*
X174191411Y-111343224D01*
X174296035Y-110739712D01*
X174331529Y-110156812D01*
X174246912Y-109401039D01*
X174010338Y-108694425D01*
X173623471Y-108041500D01*
X173087972Y-107446797D01*
X173042169Y-107404719D01*
X172493553Y-106958636D01*
X171967750Y-106649292D01*
X171436749Y-106463290D01*
X170872537Y-106387233D01*
X170253975Y-106360454D01*
X170628347Y-106469658D01*
X170736567Y-106505059D01*
X171006057Y-106620730D01*
X171250328Y-106757810D01*
X171427560Y-106890980D01*
X171495931Y-106994920D01*
X171459531Y-107082614D01*
X171301661Y-107190222D01*
X171059546Y-107252595D01*
X170963938Y-107266400D01*
X170913657Y-107295476D01*
X170950541Y-107357127D01*
X171088809Y-107471814D01*
X171342678Y-107659996D01*
X171736064Y-107986577D01*
X172269010Y-108596776D01*
X172682513Y-109312873D01*
X172791985Y-109604187D01*
X172901221Y-110103185D01*
X172939457Y-110623278D01*
X172904026Y-111110959D01*
X172792257Y-111512722D01*
X172625881Y-111841852D01*
X172282447Y-112306646D01*
X171869835Y-112632049D01*
X171535994Y-112823623D01*
X167993067Y-112808182D01*
X164450139Y-112792741D01*
X164068518Y-112596352D01*
X163766377Y-112395481D01*
X163400111Y-112036180D01*
X163082389Y-111599331D01*
X162850868Y-111130273D01*
X162783170Y-110917298D01*
X162690403Y-110390710D01*
X162675920Y-109835039D01*
X162739019Y-109306977D01*
X162878996Y-108863215D01*
X162885761Y-108848884D01*
X163062816Y-108545266D01*
X163302179Y-108222180D01*
X163568845Y-107919530D01*
X163827807Y-107677220D01*
X164044059Y-107535152D01*
X164244512Y-107449115D01*
X164004133Y-107418345D01*
X163848622Y-107387596D01*
X163694553Y-107301985D01*
X163682758Y-107184577D01*
X163806546Y-107045830D01*
X164059226Y-106896207D01*
X164434106Y-106746165D01*
X164641916Y-106671235D01*
X164797876Y-106596209D01*
X164813078Y-106547029D01*
X164682887Y-106521580D01*
X164402663Y-106517745D01*
X163967771Y-106533408D01*
X163542629Y-106576852D01*
X162999636Y-106728615D01*
X162527357Y-106999908D01*
X162089298Y-107407717D01*
X161686039Y-107932331D01*
X161345513Y-108599861D01*
X161145230Y-109334132D01*
X161080395Y-110148171D01*
X160795757Y-110148171D01*
X160804965Y-109594102D01*
X160972287Y-108765115D01*
X161184398Y-108185551D01*
X161550352Y-107549443D01*
X162016800Y-107028329D01*
X162574232Y-106630356D01*
X163213137Y-106363671D01*
X163924007Y-106236420D01*
X164362236Y-106224044D01*
X164764116Y-106253581D01*
X165082034Y-106321338D01*
X165291063Y-106421899D01*
X165366278Y-106549848D01*
X165360490Y-106616164D01*
X165314867Y-106701497D01*
X165199486Y-106776650D01*
X164985770Y-106857942D01*
X164645142Y-106961696D01*
X164400625Y-107036480D01*
X164273601Y-107090850D01*
X164261796Y-107134618D01*
X164344669Y-107182906D01*
X164481179Y-107277519D01*
X164515495Y-107426760D01*
X164396836Y-107604683D01*
X164126838Y-107806602D01*
X163861605Y-107994297D01*
X163439528Y-108437502D01*
X163118784Y-109001573D01*
X163014759Y-109364591D01*
X162964876Y-109832437D01*
X162973692Y-110333438D01*
X163040034Y-110808864D01*
X163162728Y-111199985D01*
X163262855Y-111392586D01*
X163507320Y-111749556D01*
X163795369Y-112068699D01*
X164091783Y-112313377D01*
X164361344Y-112446951D01*
X164364020Y-112447645D01*
X164522687Y-112466646D01*
X164828037Y-112483000D01*
X165266969Y-112496463D01*
X165826378Y-112506790D01*
X166493163Y-112513737D01*
X167254221Y-112517061D01*
X168096449Y-112516517D01*
X168765836Y-112514397D01*
X169485035Y-112511247D01*
X170071220Y-112506940D01*
X170539637Y-112500780D01*
X170905529Y-112492070D01*
X171184140Y-112480116D01*
X171390714Y-112464219D01*
X171540495Y-112443684D01*
X171648727Y-112417816D01*
X171730654Y-112385916D01*
X171801521Y-112347290D01*
X172063358Y-112129215D01*
X172337014Y-111740566D01*
X172558786Y-111228376D01*
X172627864Y-110913726D01*
X172622806Y-110387685D01*
X172494934Y-109801751D01*
X172247503Y-109177366D01*
X171984292Y-108711820D01*
X171523370Y-108151654D01*
X170935048Y-107675654D01*
X170736003Y-107519713D01*
X170594187Y-107327512D01*
X170599518Y-107164480D01*
X170754764Y-107040369D01*
X170870911Y-106978053D01*
X170935048Y-106913285D01*
X170876282Y-106874144D01*
X170700632Y-106807102D01*
X170448956Y-106730150D01*
X170239770Y-106668409D01*
X170066467Y-106597262D01*
X169993481Y-106521319D01*
X169988231Y-106418546D01*
X170033479Y-106289837D01*
X170206748Y-106138804D01*
X170482890Y-106062478D01*
X170839067Y-106058302D01*
X171252437Y-106123718D01*
X171700161Y-106256165D01*
X172159397Y-106453087D01*
X172607305Y-106711924D01*
X172611632Y-106714803D01*
X173248842Y-107217179D01*
X173781051Y-107796225D01*
X174199821Y-108432788D01*
X174496715Y-109107717D01*
X174663297Y-109801862D01*
X174677528Y-110156812D01*
X174691130Y-110496071D01*
G37*
%TD*%
M02*
