%TF.GenerationSoftware,KiCad,Pcbnew,9.0.2-9.0.2-0~ubuntu24.04.1*%
%TF.CreationDate,2025-07-03T20:08:42-04:00*%
%TF.ProjectId,raw split bottom,72617720-7370-46c6-9974-20626f74746f,rev?*%
%TF.SameCoordinates,Original*%
%TF.FileFunction,Profile,NP*%
%FSLAX46Y46*%
G04 Gerber Fmt 4.6, Leading zero omitted, Abs format (unit mm)*
G04 Created by KiCad (PCBNEW 9.0.2-9.0.2-0~ubuntu24.04.1) date 2025-07-03 20:08:42*
%MOMM*%
%LPD*%
G01*
G04 APERTURE LIST*
%TA.AperFunction,Profile*%
%ADD10C,0.050000*%
%TD*%
%ADD11C,0.050000*%
G04 APERTURE END LIST*
D10*
X215770000Y-54730000D02*
X215860000Y-123470000D01*
D11*
X119330000Y-48190000D02*
X119367738Y-48157738D01*
X119405628Y-48125452D01*
X119443670Y-48093142D01*
X119481862Y-48060808D01*
X119520206Y-48028452D01*
X119558701Y-47996072D01*
X119597348Y-47963670D01*
X119636145Y-47931246D01*
X119675093Y-47898799D01*
X119714193Y-47866332D01*
X119753442Y-47833843D01*
X119792843Y-47801334D01*
X119832394Y-47768804D01*
X119872096Y-47736254D01*
X119911947Y-47703684D01*
X119951949Y-47671095D01*
X119992101Y-47638487D01*
X120032403Y-47605861D01*
X120072855Y-47573216D01*
X120113456Y-47540553D01*
X120154207Y-47507872D01*
X120195108Y-47475175D01*
X120236158Y-47442460D01*
X120277357Y-47409729D01*
X120318704Y-47376982D01*
X120360201Y-47344219D01*
X120401846Y-47311441D01*
X120443640Y-47278648D01*
X120485583Y-47245840D01*
X120527673Y-47213017D01*
X120569912Y-47180181D01*
X120612298Y-47147331D01*
X120654833Y-47114468D01*
X120697514Y-47081592D01*
X120740344Y-47048704D01*
X120783320Y-47015804D01*
X120826443Y-46982891D01*
X120869714Y-46949968D01*
X120913131Y-46917033D01*
X120956694Y-46884088D01*
X121000403Y-46851133D01*
X121044259Y-46818167D01*
X121088261Y-46785193D01*
X121132408Y-46752209D01*
X121176701Y-46719216D01*
X121221139Y-46686215D01*
X121265722Y-46653206D01*
X121310450Y-46620189D01*
X121355322Y-46587165D01*
X121400339Y-46554134D01*
X121445500Y-46521097D01*
X121490806Y-46488053D01*
X121536254Y-46455004D01*
X121581847Y-46421949D01*
X121627583Y-46388890D01*
X121673461Y-46355825D01*
X121719483Y-46322757D01*
X121765647Y-46289684D01*
X121811954Y-46256608D01*
X121858402Y-46223529D01*
X121904993Y-46190448D01*
X121951725Y-46157363D01*
X121998598Y-46124277D01*
X122045613Y-46091189D01*
X122092768Y-46058100D01*
X122140064Y-46025011D01*
X122187500Y-45991920D01*
X122235077Y-45958830D01*
X122282793Y-45925740D01*
X122330648Y-45892650D01*
X122378643Y-45859562D01*
X122426777Y-45826475D01*
X122475050Y-45793390D01*
X122523461Y-45760306D01*
X122572010Y-45727226D01*
X122620697Y-45694148D01*
X122669522Y-45661074D01*
X122718484Y-45628003D01*
X122767583Y-45594937D01*
X122816819Y-45561875D01*
X122866191Y-45528817D01*
X122915699Y-45495765D01*
X122965343Y-45462719D01*
X123015123Y-45429678D01*
X123065038Y-45396644D01*
X123115088Y-45363616D01*
X123165273Y-45330596D01*
X123215591Y-45297583D01*
X123266044Y-45264577D01*
X123316631Y-45231580D01*
X123367351Y-45198592D01*
X123418204Y-45165612D01*
X123469190Y-45132642D01*
X123494733Y-45116160D01*
X123520308Y-45099681D01*
X123545918Y-45083204D01*
X123571558Y-45066731D01*
X123597234Y-45050259D01*
X123622940Y-45033791D01*
X123648682Y-45017324D01*
X123674454Y-45000862D01*
X123700261Y-44984401D01*
X123726099Y-44967944D01*
X123751971Y-44951488D01*
X123777874Y-44935037D01*
X123803812Y-44918588D01*
X123829781Y-44902142D01*
X123855783Y-44885699D01*
X123881817Y-44869260D01*
X123907885Y-44852823D01*
X123933983Y-44836390D01*
X123960116Y-44819960D01*
X123986279Y-44803534D01*
X124012476Y-44787110D01*
X124038703Y-44770691D01*
X124064965Y-44754274D01*
X124091257Y-44737861D01*
X124117583Y-44721451D01*
X124143939Y-44705046D01*
X124170329Y-44688643D01*
X124196749Y-44672245D01*
X124223203Y-44655850D01*
X124249687Y-44639459D01*
X124276205Y-44623071D01*
X124302753Y-44606688D01*
X124329334Y-44590308D01*
X124355945Y-44573933D01*
X124382590Y-44557561D01*
X124409264Y-44541194D01*
X124435972Y-44524830D01*
X124462710Y-44508471D01*
X124489481Y-44492115D01*
X124516282Y-44475765D01*
X124543116Y-44459418D01*
X124569979Y-44443076D01*
X124596876Y-44426737D01*
X124623802Y-44410404D01*
X124650761Y-44394074D01*
X124677750Y-44377750D01*
X124704771Y-44361429D01*
X124731822Y-44345114D01*
X124758906Y-44328803D01*
X124786019Y-44312497D01*
X124813164Y-44296195D01*
X124840340Y-44279898D01*
X124867547Y-44263606D01*
X124894784Y-44247319D01*
X124922053Y-44231037D01*
X124949351Y-44214760D01*
X124976682Y-44198487D01*
X125004042Y-44182220D01*
X125031433Y-44165957D01*
X125058854Y-44149700D01*
X125086307Y-44133448D01*
X125113789Y-44117201D01*
X125141303Y-44100960D01*
X125168846Y-44084724D01*
X125196420Y-44068492D01*
X125224024Y-44052267D01*
X125251658Y-44036047D01*
X125279323Y-44019832D01*
X125307018Y-44003623D01*
X125334742Y-43987420D01*
X125362498Y-43971221D01*
X125390282Y-43955029D01*
X125418097Y-43938842D01*
X125445942Y-43922662D01*
X125473817Y-43906486D01*
X125501721Y-43890317D01*
X125529656Y-43874154D01*
X125557620Y-43857996D01*
X125585614Y-43841844D01*
X125613637Y-43825699D01*
X125641690Y-43809559D01*
X125669772Y-43793426D01*
X125697885Y-43777298D01*
X125726026Y-43761177D01*
X125754197Y-43745062D01*
X125782397Y-43728953D01*
X125810627Y-43712851D01*
X125838886Y-43696755D01*
X125867174Y-43680665D01*
X125895491Y-43664582D01*
X125923837Y-43648505D01*
X125952213Y-43632435D01*
X125980617Y-43616371D01*
X126009051Y-43600314D01*
X126037513Y-43584263D01*
X126066004Y-43568219D01*
X126094524Y-43552182D01*
X126123073Y-43536152D01*
X126151651Y-43520128D01*
X126180257Y-43504112D01*
X126208892Y-43488102D01*
X126237556Y-43472099D01*
X126266248Y-43456103D01*
X126294969Y-43440114D01*
X126323717Y-43424132D01*
X126352495Y-43408158D01*
X126381301Y-43392190D01*
X126410135Y-43376230D01*
X126438997Y-43360277D01*
X126467888Y-43344331D01*
X126496806Y-43328392D01*
X126525753Y-43312461D01*
X126554728Y-43296537D01*
X126583731Y-43280621D01*
X126612762Y-43264712D01*
X126641821Y-43248810D01*
X126670907Y-43232917D01*
X126700022Y-43217030D01*
X126729163Y-43201152D01*
X126758334Y-43185281D01*
X126787531Y-43169418D01*
X126816757Y-43153562D01*
X126846009Y-43137715D01*
X126875290Y-43121875D01*
X126904597Y-43106043D01*
X126933932Y-43090219D01*
X126963294Y-43074403D01*
X126992685Y-43058595D01*
X127022101Y-43042796D01*
X127051546Y-43027003D01*
X127081017Y-43011220D01*
X127110516Y-42995444D01*
X127140041Y-42979677D01*
X127169595Y-42963918D01*
X127199174Y-42948167D01*
X127228781Y-42932425D01*
X127258414Y-42916691D01*
X127288075Y-42900965D01*
X127317761Y-42885248D01*
X127347476Y-42869539D01*
X127377216Y-42853839D01*
X127406983Y-42838147D01*
X127436776Y-42822465D01*
X127466597Y-42806790D01*
X127496443Y-42791125D01*
X127526317Y-42775467D01*
X127556216Y-42759820D01*
X127586142Y-42744180D01*
X127616093Y-42728550D01*
X127646073Y-42712928D01*
X127676076Y-42697315D01*
X127706108Y-42681711D01*
X127736163Y-42666117D01*
X127766247Y-42650531D01*
X127796355Y-42634955D01*
X127826490Y-42619387D01*
X127856650Y-42603829D01*
X127886837Y-42588279D01*
X127917048Y-42572740D01*
X127947287Y-42557209D01*
X127977549Y-42541688D01*
X128007839Y-42526175D01*
X128038153Y-42510673D01*
X128068494Y-42495179D01*
X128098858Y-42479696D01*
X128129250Y-42464221D01*
X128159666Y-42448757D01*
X128190108Y-42433302D01*
X128220574Y-42417857D01*
X128251067Y-42402420D01*
X128281584Y-42386995D01*
X128312127Y-42371578D01*
X128342694Y-42356172D01*
X128373287Y-42340774D01*
X128403904Y-42325388D01*
X128434547Y-42310010D01*
X128465213Y-42294643D01*
X128495906Y-42279285D01*
X128526622Y-42263939D01*
X128557365Y-42248601D01*
X128588130Y-42233274D01*
X128618922Y-42217956D01*
X128649736Y-42202650D01*
X128680577Y-42187352D01*
X128711440Y-42172066D01*
X128742330Y-42156789D01*
X128773242Y-42141524D01*
X128804181Y-42126267D01*
X128835141Y-42111022D01*
X128866128Y-42095787D01*
X128897137Y-42080563D01*
X128928172Y-42065348D01*
X128959229Y-42050145D01*
X128990313Y-42034951D01*
X129021417Y-42019769D01*
X129052549Y-42004596D01*
X129083701Y-41989435D01*
X129114880Y-41974284D01*
X129146080Y-41959145D01*
X129177307Y-41944015D01*
X129208554Y-41928897D01*
X129239828Y-41913788D01*
X129271122Y-41898692D01*
X129302443Y-41883606D01*
X129333784Y-41868531D01*
X129365152Y-41853466D01*
X129396540Y-41838414D01*
X129427954Y-41823371D01*
X129459389Y-41808341D01*
X129490850Y-41793320D01*
X129522331Y-41778312D01*
X129553838Y-41763314D01*
X129585365Y-41748328D01*
X129616918Y-41733352D01*
X129648491Y-41718389D01*
X129680090Y-41703435D01*
X129711708Y-41688495D01*
X129743353Y-41673564D01*
X129775017Y-41658646D01*
X129806707Y-41643738D01*
X129838416Y-41628843D01*
X129870152Y-41613958D01*
X129901906Y-41599087D01*
X129933686Y-41584225D01*
X129965486Y-41569376D01*
X129997311Y-41554537D01*
X130029155Y-41539712D01*
X130061025Y-41524897D01*
X130092913Y-41510095D01*
X130124827Y-41495303D01*
X130156760Y-41480524D01*
X130188719Y-41465756D01*
X130220695Y-41451001D01*
X130252698Y-41436257D01*
X130284719Y-41421526D01*
X130316765Y-41406806D01*
X130348829Y-41392099D01*
X130380919Y-41377402D01*
X130413027Y-41362719D01*
X130445161Y-41348047D01*
X130477312Y-41333388D01*
X130509489Y-41318740D01*
X130541683Y-41304106D01*
X130573902Y-41289482D01*
X130606139Y-41274872D01*
X130638402Y-41260273D01*
X130670682Y-41245688D01*
X130702987Y-41231113D01*
X130735309Y-41216553D01*
X130767657Y-41202003D01*
X130800021Y-41187467D01*
X130832411Y-41172942D01*
X130864818Y-41158432D01*
X130897249Y-41143932D01*
X130929698Y-41129447D01*
X130962171Y-41114972D01*
X130994662Y-41100512D01*
X131027177Y-41086062D01*
X131059708Y-41071627D01*
X131092265Y-41057203D01*
X131124838Y-41042794D01*
X131157436Y-41028395D01*
X131190050Y-41014011D01*
X131222689Y-40999638D01*
X131255344Y-40985280D01*
X131288023Y-40970933D01*
X131320719Y-40956601D01*
X131353439Y-40942279D01*
X131386175Y-40927973D01*
X131418936Y-40913678D01*
X131451712Y-40899397D01*
X131484514Y-40885128D01*
X131517330Y-40870874D01*
X131550171Y-40856631D01*
X131583027Y-40842403D01*
X131615908Y-40828187D01*
X131648804Y-40813985D01*
X131681725Y-40799795D01*
X131714660Y-40785620D01*
X131747620Y-40771457D01*
X131780595Y-40757309D01*
X131813594Y-40743172D01*
X131846608Y-40729051D01*
X131879646Y-40714941D01*
X131912699Y-40700846D01*
X131945776Y-40686763D01*
X131978868Y-40672696D01*
X132011984Y-40658639D01*
X132045114Y-40644599D01*
X132078268Y-40630570D01*
X132111436Y-40616557D01*
X132144629Y-40602555D01*
X132177835Y-40588570D01*
X132211066Y-40574595D01*
X132244310Y-40560637D01*
X132277579Y-40546690D01*
X132310861Y-40532760D01*
X132344167Y-40518841D01*
X132377487Y-40504937D01*
X132410830Y-40491046D01*
X132444187Y-40477171D01*
X132477568Y-40463307D01*
X132510962Y-40449460D01*
X132544381Y-40435624D01*
X132577812Y-40421805D01*
X132611267Y-40407997D01*
X132644735Y-40394206D01*
X132678226Y-40380426D01*
X132711731Y-40366663D01*
X132745259Y-40352912D01*
X132778800Y-40339177D01*
X132812364Y-40325454D01*
X132845941Y-40311748D01*
X132879542Y-40298054D01*
X132913155Y-40284376D01*
X132946792Y-40270710D01*
X132980440Y-40257061D01*
X133014113Y-40243424D01*
X133047797Y-40229804D01*
X133081505Y-40216195D01*
X133115225Y-40202604D01*
X133148968Y-40189024D01*
X133182723Y-40175462D01*
X133216502Y-40161911D01*
X133250292Y-40148378D01*
X133284106Y-40134856D01*
X133317931Y-40121352D01*
X133351779Y-40107860D01*
X133385639Y-40094385D01*
X133419521Y-40080922D01*
X133453416Y-40067476D01*
X133487333Y-40054042D01*
X133521261Y-40040626D01*
X133555213Y-40027222D01*
X133589175Y-40013835D01*
X133623161Y-40000461D01*
X133657157Y-39987104D01*
X133691177Y-39973759D01*
X133725207Y-39960432D01*
X133759260Y-39947117D01*
X133793324Y-39933819D01*
X133827411Y-39920534D01*
X133861508Y-39907267D01*
X133895628Y-39894012D01*
X133929758Y-39880774D01*
X133963911Y-39867549D01*
X133998074Y-39854342D01*
X134032260Y-39841147D01*
X134066456Y-39827970D01*
X134100675Y-39814805D01*
X134134903Y-39801658D01*
X134169155Y-39788524D01*
X134203416Y-39775408D01*
X134237699Y-39762304D01*
X134271993Y-39749218D01*
X134306308Y-39736145D01*
X134340634Y-39723090D01*
X134374982Y-39710047D01*
X134409339Y-39697023D01*
X134443719Y-39684011D01*
X134478107Y-39671017D01*
X134512519Y-39658036D01*
X134546939Y-39645073D01*
X134581382Y-39632123D01*
X134615834Y-39619191D01*
X134650308Y-39606272D01*
X134684790Y-39593371D01*
X134719296Y-39580483D01*
X134753809Y-39567613D01*
X134788345Y-39554757D01*
X134822890Y-39541918D01*
X134857457Y-39529093D01*
X134892032Y-39516285D01*
X134926629Y-39503491D01*
X134961235Y-39490716D01*
X134995863Y-39477953D01*
X135030499Y-39465209D01*
X135065156Y-39452478D01*
X135099822Y-39439765D01*
X135134510Y-39427065D01*
X135169206Y-39414384D01*
X135203924Y-39401716D01*
X135238649Y-39389067D01*
X135273397Y-39376431D01*
X135308152Y-39363814D01*
X135342929Y-39351210D01*
X135377713Y-39338624D01*
X135412519Y-39326052D01*
X135447333Y-39313498D01*
X135482168Y-39300958D01*
X135517011Y-39288437D01*
X135551875Y-39275929D01*
X135586746Y-39263439D01*
X135621639Y-39250964D01*
X135656539Y-39238507D01*
X135691461Y-39226063D01*
X135726389Y-39213638D01*
X135761339Y-39201227D01*
X135796296Y-39188835D01*
X135831274Y-39176456D01*
X135866259Y-39164096D01*
X135901266Y-39151750D01*
X135936278Y-39139423D01*
X135971313Y-39127109D01*
X136006353Y-39114815D01*
X136041415Y-39102534D01*
X136076483Y-39090272D01*
X136111573Y-39078024D01*
X136146669Y-39065795D01*
X136181785Y-39053580D01*
X136216908Y-39041384D01*
X136252052Y-39029201D01*
X136287202Y-39017038D01*
X136322373Y-39004889D01*
X136357550Y-38992759D01*
X136392748Y-38980642D01*
X136427952Y-38968545D01*
X136463177Y-38956462D01*
X136498407Y-38944398D01*
X136533658Y-38932348D01*
X136568915Y-38920318D01*
X136604192Y-38908301D01*
X136639475Y-38896304D01*
X136674779Y-38884321D01*
X136710088Y-38872357D01*
X136745417Y-38860407D01*
X136780752Y-38848477D01*
X136816108Y-38836560D01*
X136851468Y-38824663D01*
X136886850Y-38812781D01*
X136922236Y-38800918D01*
X136957643Y-38789069D01*
X136993054Y-38777239D01*
X137028486Y-38765424D01*
X137063923Y-38753628D01*
X137099380Y-38741846D01*
X137134842Y-38730085D01*
X137170324Y-38718337D01*
X137205811Y-38706609D01*
X137241318Y-38694895D01*
X137276830Y-38683201D01*
X137312362Y-38671521D01*
X137347898Y-38659861D01*
X137383454Y-38648216D01*
X137419014Y-38636590D01*
X137454595Y-38624979D01*
X137490180Y-38613387D01*
X137525785Y-38601810D01*
X137561393Y-38590252D01*
X137597022Y-38578709D01*
X137632655Y-38567186D01*
X137668308Y-38555677D01*
X137703964Y-38544189D01*
X137739641Y-38532714D01*
X137775321Y-38521260D01*
X137811021Y-38509820D01*
X137846724Y-38498400D01*
X137882448Y-38486995D01*
X137918174Y-38475610D01*
X137953921Y-38464239D01*
X137989671Y-38452889D01*
X138025441Y-38441553D01*
X138061213Y-38430237D01*
X138097006Y-38418936D01*
X138132802Y-38407655D01*
X138168617Y-38396388D01*
X138204435Y-38385142D01*
X138240273Y-38373910D01*
X138276114Y-38362699D01*
X138311974Y-38351502D01*
X138347837Y-38340326D01*
X138383720Y-38329164D01*
X138419605Y-38318023D01*
X138455510Y-38306896D01*
X138491417Y-38295790D01*
X138527344Y-38284698D01*
X138563273Y-38273627D01*
X138599221Y-38262571D01*
X138635172Y-38251535D01*
X138671142Y-38240514D01*
X138707115Y-38229513D01*
X138743106Y-38218527D01*
X138779100Y-38207561D01*
X138815113Y-38196611D01*
X138851128Y-38185681D01*
X138887162Y-38174766D01*
X138923198Y-38163871D01*
X138959253Y-38152991D01*
X138995310Y-38142132D01*
X139031387Y-38131288D01*
X139067464Y-38120464D01*
X139103561Y-38109656D01*
X139139660Y-38098867D01*
X139175777Y-38088095D01*
X139211896Y-38077342D01*
X139248033Y-38066605D01*
X139284173Y-38055888D01*
X139320331Y-38045187D01*
X139356490Y-38034506D01*
X139392668Y-38023840D01*
X139428848Y-38013195D01*
X139465046Y-38002565D01*
X139501245Y-37991955D01*
X139537463Y-37981361D01*
X139573682Y-37970788D01*
X139609920Y-37960230D01*
X139646158Y-37949693D01*
X139682415Y-37939171D01*
X139718673Y-37928669D01*
X139754950Y-37918183D01*
X139791227Y-37907718D01*
X139827523Y-37897268D01*
X139863820Y-37886839D01*
X139900134Y-37876425D01*
X139936450Y-37866032D01*
X139972784Y-37855655D01*
X140009118Y-37845298D01*
X140045470Y-37834957D01*
X140081823Y-37824636D01*
X140118195Y-37814331D01*
X140154566Y-37804047D01*
X140190956Y-37793778D01*
X140227346Y-37783531D01*
X140263754Y-37773298D01*
X140300162Y-37763087D01*
X140336588Y-37752891D01*
X140373015Y-37742717D01*
X140409459Y-37732557D01*
X140445903Y-37722419D01*
X140482366Y-37712296D01*
X140518828Y-37702195D01*
X140555308Y-37692109D01*
X140591788Y-37682043D01*
X140628286Y-37671994D01*
X140664783Y-37661966D01*
X140701298Y-37651953D01*
X140737813Y-37641961D01*
X140774346Y-37631985D01*
X140810878Y-37622030D01*
X140847428Y-37612091D01*
X140883977Y-37602173D01*
X140920544Y-37592271D01*
X140957110Y-37582389D01*
X140993694Y-37572524D01*
X141030277Y-37562680D01*
X141066878Y-37552851D01*
X141103477Y-37543044D01*
X141140095Y-37533252D01*
X141176711Y-37523482D01*
X141213345Y-37513727D01*
X141249978Y-37503994D01*
X141286628Y-37494276D01*
X141323277Y-37484580D01*
X141359944Y-37474899D01*
X141396609Y-37465240D01*
X141433292Y-37455597D01*
X141469973Y-37445975D01*
X141506672Y-37436369D01*
X141543369Y-37426784D01*
X141580083Y-37417215D01*
X141616796Y-37407667D01*
X141653527Y-37398136D01*
X141690255Y-37388625D01*
X141727001Y-37379131D01*
X141763745Y-37369658D01*
X141800506Y-37360201D01*
X141837266Y-37350766D01*
X141874043Y-37341346D01*
X141910817Y-37331948D01*
X141947609Y-37322566D01*
X141984399Y-37313205D01*
X142021206Y-37303860D01*
X142058010Y-37294537D01*
X142094832Y-37285230D01*
X142131652Y-37275944D01*
X142168488Y-37266675D01*
X142205323Y-37257426D01*
X142242174Y-37248195D01*
X142279023Y-37238984D01*
X142315888Y-37229790D01*
X142352752Y-37220616D01*
X142389632Y-37211460D01*
X142426510Y-37202324D01*
X142463404Y-37193206D01*
X142500296Y-37184108D01*
X142537204Y-37175027D01*
X142574110Y-37165967D01*
X142611033Y-37156923D01*
X142647953Y-37147901D01*
X142684889Y-37138896D01*
X142721823Y-37129911D01*
X142758773Y-37120944D01*
X142795721Y-37111997D01*
X142832684Y-37103067D01*
X142869645Y-37094159D01*
X142906623Y-37085267D01*
X142943597Y-37076396D01*
X142980588Y-37067542D01*
X143017575Y-37058709D01*
X143054579Y-37049893D01*
X143091580Y-37041099D01*
X143128597Y-37032321D01*
X143165611Y-37023564D01*
X143202641Y-37014824D01*
X143239668Y-37006106D01*
X143276711Y-36997404D01*
X143313751Y-36988723D01*
X143350806Y-36980060D01*
X143387859Y-36971417D01*
X143424927Y-36962792D01*
X143461992Y-36954187D01*
X143499073Y-36945600D01*
X143536150Y-36937034D01*
X143573244Y-36928485D01*
X143610333Y-36919957D01*
X143647439Y-36911446D01*
X143684541Y-36902957D01*
X143721658Y-36894484D01*
X143758772Y-36886033D01*
X143795902Y-36877598D01*
X143833028Y-36869185D01*
X143870170Y-36860789D01*
X143907307Y-36852415D01*
X143944461Y-36844057D01*
X143981610Y-36835721D01*
X144018775Y-36827402D01*
X144055937Y-36819104D01*
X144093113Y-36810823D01*
X144130286Y-36802564D01*
X144167474Y-36794322D01*
X144204658Y-36786101D01*
X144241857Y-36777897D01*
X144279052Y-36769714D01*
X144316263Y-36761549D01*
X144353469Y-36753405D01*
X144390691Y-36745279D01*
X144427909Y-36737173D01*
X144465141Y-36729085D01*
X144502370Y-36721018D01*
X144539613Y-36712969D01*
X144576852Y-36704941D01*
X144614106Y-36696930D01*
X144651356Y-36688940D01*
X144688621Y-36680968D01*
X144725881Y-36673017D01*
X144763157Y-36665083D01*
X144800428Y-36657171D01*
X144837713Y-36649276D01*
X144874995Y-36641403D01*
X144912291Y-36633547D01*
X144949582Y-36625712D01*
X144986888Y-36617895D01*
X145024190Y-36610099D01*
X145061506Y-36602320D01*
X145098817Y-36594563D01*
X145136144Y-36586823D01*
X145173465Y-36579105D01*
X145210801Y-36571404D01*
X145248132Y-36563724D01*
X145285478Y-36556062D01*
X145322819Y-36548422D01*
X145360174Y-36540798D01*
X145397525Y-36533197D01*
X145434890Y-36525612D01*
X145472250Y-36518050D01*
X145509624Y-36510504D01*
X145546993Y-36502980D01*
X145584377Y-36495474D01*
X145621755Y-36487989D01*
X145659148Y-36480522D01*
X145696535Y-36473076D01*
X145733937Y-36465647D01*
X145771334Y-36458240D01*
X145808745Y-36450851D01*
X145846150Y-36443483D01*
X145883570Y-36436133D01*
X145920984Y-36428804D01*
X145958413Y-36421493D01*
X145995835Y-36414203D01*
X146033273Y-36406931D01*
X146070704Y-36399680D01*
X146108150Y-36392447D01*
X146145590Y-36385236D01*
X146183044Y-36378042D01*
X146220492Y-36370869D01*
X146257955Y-36363715D01*
X146295411Y-36356581D01*
X146332882Y-36349466D01*
X146370347Y-36342372D01*
X146407826Y-36335295D01*
X146445299Y-36328240D01*
X146482786Y-36321203D01*
X146520266Y-36314188D01*
X146557761Y-36307190D01*
X146595250Y-36300213D01*
X146632752Y-36293255D01*
X146670249Y-36286318D01*
X146707759Y-36279398D01*
X146745263Y-36272500D01*
X146782781Y-36265620D01*
X146820293Y-36258762D01*
X146857818Y-36251921D01*
X146895337Y-36245102D01*
X146932870Y-36238300D01*
X146970397Y-36231520D01*
X147007937Y-36224758D01*
X147045470Y-36218018D01*
X147083018Y-36211295D01*
X147120559Y-36204594D01*
X147158113Y-36197910D01*
X147195661Y-36191249D01*
X147233223Y-36184605D01*
X147270777Y-36177982D01*
X147308346Y-36171378D01*
X147345908Y-36164795D01*
X147383483Y-36158230D01*
X147421051Y-36151686D01*
X147458633Y-36145161D01*
X147496209Y-36138657D01*
X147533797Y-36132171D01*
X147571379Y-36125706D01*
X147608974Y-36119259D01*
X147646562Y-36112834D01*
X147684164Y-36106427D01*
X147721758Y-36100042D01*
X147759366Y-36093674D01*
X147796967Y-36087328D01*
X147834581Y-36081000D01*
X147872188Y-36074693D01*
X147909808Y-36068405D01*
X147947422Y-36062138D01*
X147985048Y-36055889D01*
X148022667Y-36049662D01*
X148060299Y-36043452D01*
X148097924Y-36037264D01*
X148135562Y-36031095D01*
X148173193Y-36024947D01*
X148210837Y-36018816D01*
X148248474Y-36012708D01*
X148286123Y-36006617D01*
X148323765Y-36000548D01*
X148361421Y-35994498D01*
X148399068Y-35988468D01*
X148436729Y-35982457D01*
X148474382Y-35976467D01*
X148512048Y-35970496D01*
X148549706Y-35964546D01*
X148587378Y-35958614D01*
X148625042Y-35952704D01*
X148662718Y-35946811D01*
X148700387Y-35940941D01*
X148738069Y-35935088D01*
X148775743Y-35929258D01*
X148813429Y-35923445D01*
X148851108Y-35917654D01*
X148888800Y-35911881D01*
X148926484Y-35906129D01*
X148964180Y-35900396D01*
X149001869Y-35894684D01*
X149039570Y-35888991D01*
X149077264Y-35883319D01*
X149114970Y-35877665D01*
X149152668Y-35872033D01*
X149190378Y-35866419D01*
X149228081Y-35860827D01*
X149265796Y-35855253D01*
X149303503Y-35849700D01*
X149341222Y-35844166D01*
X149378934Y-35838653D01*
X149416658Y-35833158D01*
X149454373Y-35827685D01*
X149492101Y-35822231D01*
X149529821Y-35816798D01*
X149567553Y-35811383D01*
X149605277Y-35805989D01*
X149643014Y-35800615D01*
X149680742Y-35795261D01*
X149718482Y-35789926D01*
X149756214Y-35784612D01*
X149793958Y-35779317D01*
X149831694Y-35774043D01*
X149869442Y-35768788D01*
X149907181Y-35763554D01*
X149944933Y-35758339D01*
X149982676Y-35753145D01*
X150020432Y-35747969D01*
X150058179Y-35742815D01*
X150095938Y-35737679D01*
X150133688Y-35732565D01*
X150171450Y-35727470D01*
X150209204Y-35722395D01*
X150246970Y-35717340D01*
X150284727Y-35712305D01*
X150322496Y-35707289D01*
X150360257Y-35702295D01*
X150398029Y-35697319D01*
X150435793Y-35692365D01*
X150473569Y-35687429D01*
X150511335Y-35682514D01*
X150549114Y-35677618D01*
X150586884Y-35672744D01*
X150624665Y-35667888D01*
X150662438Y-35663053D01*
X150700223Y-35658237D01*
X150737998Y-35653442D01*
X150775786Y-35648666D01*
X150813564Y-35643912D01*
X150851354Y-35639176D01*
X150889135Y-35634461D01*
X150926928Y-35629765D01*
X150964712Y-35625090D01*
X151002507Y-35620434D01*
X151040294Y-35615800D01*
X151078092Y-35611184D01*
X151115880Y-35606589D01*
X151153681Y-35602013D01*
X151191472Y-35597458D01*
X151229275Y-35592922D01*
X151267068Y-35588408D01*
X151304873Y-35583912D01*
X151342669Y-35579437D01*
X151380476Y-35574981D01*
X151418274Y-35570547D01*
X151456084Y-35566131D01*
X151493884Y-35561737D01*
X151531695Y-35557361D01*
X151569497Y-35553006D01*
X151607311Y-35548671D01*
X151645115Y-35544356D01*
X151682930Y-35540061D01*
X151720736Y-35535786D01*
X151758553Y-35531531D01*
X151796361Y-35527297D01*
X151834179Y-35523081D01*
X151871989Y-35518887D01*
X151909809Y-35514712D01*
X151947621Y-35510558D01*
X151985443Y-35506422D01*
X152023255Y-35502308D01*
X152061079Y-35498213D01*
X152098893Y-35494139D01*
X152136718Y-35490084D01*
X152174534Y-35486050D01*
X152212361Y-35482035D01*
X152250177Y-35478041D01*
X152288005Y-35474067D01*
X152325824Y-35470113D01*
X152363653Y-35466178D01*
X152401472Y-35462265D01*
X152439302Y-35458370D01*
X152477123Y-35454497D01*
X152514954Y-35450642D01*
X152552776Y-35446809D01*
X152590608Y-35442994D01*
X152628431Y-35439201D01*
X152666264Y-35435427D01*
X152704088Y-35431674D01*
X152741922Y-35427940D01*
X152779747Y-35424227D01*
X152817582Y-35420533D01*
X152855407Y-35416860D01*
X152893243Y-35413206D01*
X152931069Y-35409574D01*
X152968905Y-35405960D01*
X153006732Y-35402367D01*
X153044569Y-35398794D01*
X153082396Y-35395241D01*
X153120234Y-35391708D01*
X153158062Y-35388196D01*
X153195900Y-35384703D01*
X153233728Y-35381230D01*
X153271566Y-35377777D01*
X153309395Y-35374345D01*
X153347234Y-35370933D01*
X153385063Y-35367541D01*
X153422902Y-35364168D01*
X153460731Y-35360816D01*
X153498570Y-35357484D01*
X153536399Y-35354172D01*
X153574239Y-35350880D01*
X153612068Y-35347608D01*
X153649908Y-35344356D01*
X153687737Y-35341125D01*
X153725577Y-35337913D01*
X153763406Y-35334722D01*
X153801246Y-35331550D01*
X153839075Y-35328399D01*
X153876914Y-35325267D01*
X153914744Y-35322157D01*
X153952583Y-35319065D01*
X153990412Y-35315995D01*
X154028251Y-35312943D01*
X154066079Y-35309913D01*
X154103918Y-35306902D01*
X154141746Y-35303912D01*
X154179584Y-35300941D01*
X154217412Y-35297991D01*
X154255250Y-35295060D01*
X154293078Y-35292150D01*
X154330915Y-35289259D01*
X154368742Y-35286390D01*
X154406578Y-35283539D01*
X154444405Y-35280710D01*
X154482241Y-35277899D01*
X154520066Y-35275110D01*
X154557902Y-35272340D01*
X154595727Y-35269591D01*
X154633561Y-35266861D01*
X154671385Y-35264152D01*
X154709219Y-35261462D01*
X154747042Y-35258794D01*
X154784875Y-35256144D01*
X154822698Y-35253515D01*
X154860530Y-35250906D01*
X154898351Y-35248318D01*
X154936182Y-35245749D01*
X154974002Y-35243200D01*
X155011832Y-35240671D01*
X155049652Y-35238163D01*
X155087481Y-35235675D01*
X155125299Y-35233207D01*
X155163126Y-35230758D01*
X155200943Y-35228330D01*
X155238770Y-35225922D01*
X155276585Y-35223535D01*
X155314410Y-35221166D01*
X155352224Y-35218819D01*
X155390048Y-35216491D01*
X155427861Y-35214184D01*
X155465683Y-35211896D01*
X155503495Y-35209629D01*
X155541316Y-35207381D01*
X155579126Y-35205155D01*
X155616945Y-35202947D01*
X155654753Y-35200760D01*
X155692571Y-35198593D01*
X155730378Y-35196447D01*
X155768194Y-35194320D01*
X155805999Y-35192213D01*
X155843813Y-35190127D01*
X155881617Y-35188060D01*
X155919429Y-35186014D01*
X155957231Y-35183988D01*
X155995042Y-35181981D01*
X156032841Y-35179995D01*
X156070650Y-35178029D01*
X156108448Y-35176083D01*
X156146255Y-35174157D01*
X156184051Y-35172252D01*
X156221856Y-35170366D01*
X156259650Y-35168501D01*
X156297452Y-35166655D01*
X156335244Y-35164830D01*
X156373045Y-35163024D01*
X156410835Y-35161239D01*
X156448633Y-35159474D01*
X156486421Y-35157729D01*
X156524217Y-35156004D01*
X156562002Y-35154299D01*
X156599797Y-35152614D01*
X156637580Y-35150949D01*
X156675371Y-35149305D01*
X156713152Y-35147680D01*
X156750942Y-35146075D01*
X156788720Y-35144491D01*
X156826507Y-35142927D01*
X156864283Y-35141383D01*
X156902067Y-35139858D01*
X156939840Y-35138354D01*
X156977623Y-35136870D01*
X157015393Y-35135406D01*
X157053173Y-35133962D01*
X157090941Y-35132539D01*
X157128718Y-35131135D01*
X157166483Y-35129751D01*
X157204257Y-35128387D01*
X157242020Y-35127044D01*
X157279791Y-35125720D01*
X157317551Y-35124417D01*
X157355320Y-35123134D01*
X157393077Y-35121871D01*
X157430843Y-35120627D01*
X157468597Y-35119404D01*
X157506360Y-35118201D01*
X157544112Y-35117018D01*
X157581872Y-35115855D01*
X157619620Y-35114713D01*
X157657377Y-35113590D01*
X157695122Y-35112487D01*
X157732876Y-35111404D01*
X157770619Y-35110342D01*
X157808369Y-35109299D01*
X157846109Y-35108277D01*
X157883856Y-35107274D01*
X157921592Y-35106292D01*
X157959337Y-35105330D01*
X157997070Y-35104388D01*
X158034811Y-35103465D01*
X158072541Y-35102563D01*
X158110279Y-35101681D01*
X158148005Y-35100819D01*
X158185739Y-35099977D01*
X158223462Y-35099156D01*
X158261194Y-35098354D01*
X158298913Y-35097572D01*
X158336641Y-35096810D01*
X158374357Y-35096069D01*
X158412081Y-35095347D01*
X158449794Y-35094645D01*
X158487515Y-35093964D01*
X158525224Y-35093302D01*
X158562941Y-35092661D01*
X158600646Y-35092039D01*
X158638360Y-35091438D01*
X158676062Y-35090857D01*
X158713772Y-35090295D01*
X158751470Y-35089754D01*
X158789176Y-35089233D01*
X158826870Y-35088732D01*
X158864573Y-35088251D01*
X158902263Y-35087789D01*
X158939962Y-35087348D01*
X158977649Y-35086927D01*
X159015343Y-35086526D01*
X159053026Y-35086145D01*
X159090717Y-35085784D01*
X159128396Y-35085444D01*
X159166083Y-35085123D01*
X159203758Y-35084822D01*
X159241441Y-35084541D01*
X159279112Y-35084280D01*
X159316791Y-35084039D01*
X159354458Y-35083819D01*
X159392132Y-35083618D01*
X159429795Y-35083437D01*
X159467466Y-35083277D01*
X159505125Y-35083136D01*
X159542791Y-35083015D01*
X159580446Y-35082915D01*
X159618108Y-35082834D01*
X159655758Y-35082773D01*
X159693416Y-35082733D01*
X159731062Y-35082712D01*
X159768716Y-35082712D01*
X159806358Y-35082731D01*
X159844007Y-35082771D01*
X159881645Y-35082830D01*
X159919290Y-35082909D01*
X159956923Y-35083009D01*
X159994563Y-35083128D01*
X160032192Y-35083268D01*
X160069828Y-35083427D01*
X160107452Y-35083607D01*
X160145084Y-35083806D01*
X160182703Y-35084026D01*
X160220330Y-35084265D01*
X160257945Y-35084525D01*
X160295568Y-35084804D01*
X160333178Y-35085104D01*
X160370796Y-35085423D01*
X160408401Y-35085763D01*
X160446015Y-35086122D01*
X160483616Y-35086501D01*
X160521224Y-35086901D01*
X160558820Y-35087320D01*
X160596424Y-35087760D01*
X160634015Y-35088219D01*
X160671614Y-35088698D01*
X160709201Y-35089198D01*
X160746795Y-35089717D01*
X160784377Y-35090256D01*
X160821966Y-35090815D01*
X160859543Y-35091395D01*
X160897127Y-35091994D01*
X160934699Y-35092613D01*
X160972278Y-35093252D01*
X161009846Y-35093911D01*
X161047420Y-35094590D01*
X161084982Y-35095289D01*
X161122551Y-35096009D01*
X161160108Y-35096747D01*
X161197672Y-35097507D01*
X161235224Y-35098285D01*
X161272783Y-35099084D01*
X161310330Y-35099903D01*
X161347884Y-35100742D01*
X161385425Y-35101601D01*
X161422974Y-35102479D01*
X161460511Y-35103378D01*
X161498054Y-35104297D01*
X161535585Y-35105235D01*
X161573123Y-35106194D01*
X161610649Y-35107172D01*
X161648182Y-35108171D01*
X161685703Y-35109189D01*
X161723230Y-35110227D01*
X161760746Y-35111285D01*
X161798268Y-35112364D01*
X161835778Y-35113462D01*
X161873294Y-35114580D01*
X161910799Y-35115718D01*
X161948310Y-35116876D01*
X161985809Y-35118054D01*
X162023315Y-35119252D01*
X162060808Y-35120469D01*
X162098309Y-35121707D01*
X162135797Y-35122964D01*
X162173291Y-35124242D01*
X162210774Y-35125539D01*
X162248263Y-35126857D01*
X162285740Y-35128194D01*
X162323223Y-35129551D01*
X162360694Y-35130928D01*
X162398172Y-35132326D01*
X162435638Y-35133742D01*
X162473110Y-35135180D01*
X162510569Y-35136636D01*
X162548036Y-35138113D01*
X162585490Y-35139610D01*
X162622950Y-35141126D01*
X162660399Y-35142663D01*
X162697853Y-35144219D01*
X162735296Y-35145795D01*
X162772745Y-35147391D01*
X162810181Y-35149007D01*
X162847624Y-35150644D01*
X162885055Y-35152299D01*
X162922492Y-35153975D01*
X162959917Y-35155671D01*
X162997348Y-35157386D01*
X163034767Y-35159122D01*
X163072192Y-35160877D01*
X163109605Y-35162652D01*
X163147024Y-35164448D01*
X163184431Y-35166262D01*
X163221844Y-35168098D01*
X163259245Y-35169952D01*
X163296652Y-35171827D01*
X163334047Y-35173721D01*
X163371448Y-35175636D01*
X163408836Y-35177570D01*
X163446231Y-35179525D01*
X163483614Y-35181498D01*
X163521002Y-35183493D01*
X163558379Y-35185506D01*
X163595761Y-35187540D01*
X163633131Y-35189593D01*
X163670507Y-35191667D01*
X163707871Y-35193760D01*
X163745241Y-35195873D01*
X163782598Y-35198006D01*
X163819962Y-35200159D01*
X163857313Y-35202332D01*
X163894671Y-35204525D01*
X163932015Y-35206737D01*
X163969366Y-35208969D01*
X164006705Y-35211221D01*
X164044049Y-35213494D01*
X164081382Y-35215785D01*
X164118720Y-35218097D01*
X164156045Y-35220429D01*
X164193377Y-35222780D01*
X164230696Y-35225151D01*
X164268021Y-35227543D01*
X164305334Y-35229953D01*
X164342653Y-35232384D01*
X164379959Y-35234835D01*
X164417271Y-35237305D01*
X164454571Y-35239795D01*
X164491876Y-35242306D01*
X164529169Y-35244836D01*
X164566468Y-35247386D01*
X164603754Y-35249955D01*
X164641047Y-35252545D01*
X164678326Y-35255154D01*
X164715612Y-35257783D01*
X164752885Y-35260432D01*
X164790164Y-35263101D01*
X164827430Y-35265789D01*
X164864703Y-35268498D01*
X164901962Y-35271226D01*
X164939228Y-35273974D01*
X164976481Y-35276742D01*
X165013739Y-35279530D01*
X165020000Y-35280000D01*
D10*
X115490000Y-60260000D02*
X94000000Y-60230000D01*
X91310000Y-62920000D02*
G75*
G02*
X94000000Y-60230000I2690000J0D01*
G01*
X91310000Y-62920000D02*
X91280000Y-129110000D01*
D11*
X116950000Y-58800000D02*
X116950010Y-58768086D01*
X116950040Y-58736235D01*
X116950090Y-58704432D01*
X116950160Y-58672692D01*
X116950249Y-58640999D01*
X116950359Y-58609369D01*
X116950488Y-58577788D01*
X116950637Y-58546268D01*
X116950805Y-58514797D01*
X116950994Y-58483388D01*
X116951202Y-58452026D01*
X116951429Y-58420727D01*
X116951677Y-58389476D01*
X116951943Y-58358287D01*
X116952229Y-58327146D01*
X116952535Y-58296066D01*
X116952860Y-58265035D01*
X116953205Y-58234065D01*
X116953569Y-58203143D01*
X116953952Y-58172283D01*
X116954354Y-58141470D01*
X116954776Y-58110719D01*
X116955217Y-58080016D01*
X116955677Y-58049374D01*
X116956157Y-58018779D01*
X116956655Y-57988247D01*
X116957173Y-57957761D01*
X116957709Y-57927337D01*
X116958265Y-57896960D01*
X116958840Y-57866645D01*
X116959433Y-57836377D01*
X116960046Y-57806170D01*
X116960677Y-57776010D01*
X116961327Y-57745912D01*
X116961996Y-57715860D01*
X116962684Y-57685870D01*
X116963390Y-57655927D01*
X116964116Y-57626045D01*
X116964860Y-57596209D01*
X116965622Y-57566435D01*
X116966403Y-57536707D01*
X116967203Y-57507041D01*
X116968021Y-57477420D01*
X116968858Y-57447862D01*
X116969713Y-57418349D01*
X116970586Y-57388897D01*
X116971478Y-57359492D01*
X116972389Y-57330148D01*
X116973317Y-57300849D01*
X116974264Y-57271612D01*
X116975230Y-57242421D01*
X116976213Y-57213290D01*
X116977215Y-57184206D01*
X116978234Y-57155182D01*
X116979272Y-57126205D01*
X116980328Y-57097288D01*
X116981402Y-57068416D01*
X116982494Y-57039606D01*
X116983604Y-57010841D01*
X116984732Y-56982137D01*
X116985877Y-56953478D01*
X116987041Y-56924880D01*
X116988223Y-56896327D01*
X116989422Y-56867835D01*
X116990639Y-56839388D01*
X116991873Y-56811002D01*
X116993126Y-56782661D01*
X116994396Y-56754380D01*
X116995684Y-56726144D01*
X116996989Y-56697969D01*
X116998312Y-56669839D01*
X116999652Y-56641769D01*
X117001010Y-56613744D01*
X117002385Y-56585780D01*
X117003778Y-56557860D01*
X117005188Y-56530000D01*
X117006616Y-56502185D01*
X117008060Y-56474431D01*
X117009522Y-56446720D01*
X117011001Y-56419070D01*
X117012498Y-56391465D01*
X117014012Y-56363919D01*
X117015543Y-56336418D01*
X117017090Y-56308977D01*
X117018655Y-56281580D01*
X117020237Y-56254243D01*
X117021836Y-56226951D01*
X117023452Y-56199718D01*
X117025085Y-56172529D01*
X117026734Y-56145400D01*
X117028401Y-56118315D01*
X117030084Y-56091290D01*
X117031784Y-56064309D01*
X117033501Y-56037388D01*
X117035235Y-56010510D01*
X117036985Y-55983692D01*
X117038752Y-55956918D01*
X117040535Y-55930203D01*
X117042336Y-55903532D01*
X117044152Y-55876920D01*
X117045985Y-55850352D01*
X117047835Y-55823844D01*
X117049701Y-55797378D01*
X117051583Y-55770973D01*
X117053482Y-55744610D01*
X117055397Y-55718307D01*
X117057329Y-55692047D01*
X117059276Y-55665847D01*
X117061240Y-55639689D01*
X117063220Y-55613591D01*
X117065216Y-55587536D01*
X117067228Y-55561540D01*
X117069257Y-55535587D01*
X117071301Y-55509693D01*
X117073362Y-55483842D01*
X117075438Y-55458050D01*
X117077530Y-55432300D01*
X117079638Y-55406610D01*
X117081763Y-55380963D01*
X117083902Y-55355374D01*
X117086058Y-55329828D01*
X117088229Y-55304341D01*
X117090417Y-55278896D01*
X117092619Y-55253510D01*
X117094838Y-55228166D01*
X117097072Y-55202881D01*
X117099322Y-55177639D01*
X117101587Y-55152455D01*
X117103868Y-55127313D01*
X117106164Y-55102230D01*
X117108476Y-55077189D01*
X117110803Y-55052207D01*
X117113146Y-55027266D01*
X117115503Y-55002385D01*
X117117877Y-54977545D01*
X117120265Y-54952763D01*
X117122669Y-54928023D01*
X117125087Y-54903342D01*
X117127522Y-54878702D01*
X117129970Y-54854121D01*
X117132435Y-54829582D01*
X117134914Y-54805100D01*
X117137408Y-54780660D01*
X117139917Y-54756279D01*
X117142442Y-54731939D01*
X117144981Y-54707657D01*
X117147535Y-54683416D01*
X117150103Y-54659234D01*
X117152687Y-54635092D01*
X117155285Y-54611009D01*
X117157899Y-54586967D01*
X117160526Y-54562983D01*
X117163169Y-54539040D01*
X117165826Y-54515155D01*
X117168498Y-54491311D01*
X117171184Y-54467525D01*
X117173885Y-54443779D01*
X117176600Y-54420092D01*
X117179330Y-54396445D01*
X117182073Y-54372856D01*
X117184832Y-54349307D01*
X117187605Y-54325817D01*
X117190392Y-54302367D01*
X117193193Y-54278974D01*
X117196009Y-54255622D01*
X117198839Y-54232328D01*
X117201683Y-54209074D01*
X117204541Y-54185878D01*
X117207413Y-54162722D01*
X117210299Y-54139623D01*
X117213200Y-54116565D01*
X117216114Y-54093564D01*
X117219042Y-54070603D01*
X117221984Y-54047700D01*
X117224941Y-54024836D01*
X117227910Y-54002030D01*
X117230894Y-53979264D01*
X117233891Y-53956555D01*
X117236902Y-53933886D01*
X117239927Y-53911274D01*
X117242966Y-53888702D01*
X117246017Y-53866187D01*
X117249084Y-53843712D01*
X117252162Y-53821294D01*
X117255256Y-53798915D01*
X117258361Y-53776594D01*
X117261481Y-53754311D01*
X117264614Y-53732086D01*
X117267761Y-53709900D01*
X117270920Y-53687772D01*
X117274094Y-53665682D01*
X117277280Y-53643649D01*
X117280480Y-53621656D01*
X117283692Y-53599719D01*
X117286919Y-53577821D01*
X117290157Y-53555981D01*
X117293410Y-53534179D01*
X117296674Y-53512434D01*
X117299953Y-53490727D01*
X117303243Y-53469078D01*
X117306548Y-53447467D01*
X117309864Y-53425914D01*
X117313195Y-53404398D01*
X117316537Y-53382939D01*
X117319893Y-53361519D01*
X117323261Y-53340156D01*
X117326642Y-53318830D01*
X117330035Y-53297562D01*
X117333442Y-53276331D01*
X117336860Y-53255158D01*
X117340293Y-53234022D01*
X117343736Y-53212943D01*
X117347193Y-53191902D01*
X117350661Y-53170918D01*
X117354143Y-53149971D01*
X117357636Y-53129081D01*
X117361143Y-53108229D01*
X117364661Y-53087433D01*
X117368193Y-53066675D01*
X117371735Y-53045974D01*
X117375291Y-53025309D01*
X117378857Y-53004702D01*
X117382437Y-52984132D01*
X117386028Y-52963618D01*
X117389633Y-52943142D01*
X117393247Y-52922722D01*
X117396876Y-52902339D01*
X117400515Y-52882013D01*
X117404167Y-52861723D01*
X117407829Y-52841490D01*
X117411506Y-52821294D01*
X117415192Y-52801155D01*
X117418891Y-52781051D01*
X117422601Y-52761005D01*
X117426324Y-52740995D01*
X117430057Y-52721042D01*
X117433803Y-52701125D01*
X117437559Y-52681264D01*
X117441329Y-52661440D01*
X117445108Y-52641672D01*
X117448901Y-52621940D01*
X117452703Y-52602265D01*
X117456518Y-52582626D01*
X117460343Y-52563043D01*
X117464181Y-52543496D01*
X117468028Y-52524006D01*
X117471889Y-52504551D01*
X117475758Y-52485153D01*
X117479641Y-52465790D01*
X117483533Y-52446484D01*
X117487439Y-52427213D01*
X117491353Y-52407999D01*
X117495280Y-52388820D01*
X117499216Y-52369697D01*
X117503166Y-52350610D01*
X117507124Y-52331579D01*
X117511095Y-52312583D01*
X117515074Y-52293644D01*
X117519067Y-52274739D01*
X117523068Y-52255891D01*
X117527082Y-52237078D01*
X117531105Y-52218321D01*
X117535140Y-52199599D01*
X117539184Y-52180933D01*
X117543241Y-52162302D01*
X117547306Y-52143727D01*
X117551384Y-52125187D01*
X117555469Y-52106703D01*
X117559568Y-52088253D01*
X117563675Y-52069860D01*
X117567794Y-52051501D01*
X117571921Y-52033198D01*
X117576061Y-52014929D01*
X117580209Y-51996717D01*
X117584369Y-51978538D01*
X117588537Y-51960416D01*
X117592718Y-51942328D01*
X117596906Y-51924296D01*
X117601106Y-51906298D01*
X117605315Y-51888356D01*
X117609535Y-51870448D01*
X117613763Y-51852596D01*
X117618004Y-51834777D01*
X117622251Y-51817015D01*
X117626511Y-51799286D01*
X117630779Y-51781613D01*
X117635058Y-51763974D01*
X117639345Y-51746391D01*
X117643644Y-51728841D01*
X117647950Y-51711347D01*
X117652268Y-51693886D01*
X117656593Y-51676481D01*
X117660930Y-51659110D01*
X117665274Y-51641794D01*
X117669630Y-51624512D01*
X117673992Y-51607285D01*
X117678367Y-51590092D01*
X117682748Y-51572954D01*
X117687142Y-51555849D01*
X117691541Y-51538800D01*
X117695953Y-51521784D01*
X117700371Y-51504823D01*
X117704801Y-51487895D01*
X117709237Y-51471023D01*
X117713685Y-51454184D01*
X117718139Y-51437400D01*
X117722605Y-51420649D01*
X117727076Y-51403954D01*
X117731560Y-51387291D01*
X117736050Y-51370684D01*
X117740551Y-51354108D01*
X117745058Y-51337589D01*
X117749577Y-51321102D01*
X117754101Y-51304671D01*
X117758637Y-51288271D01*
X117763178Y-51271927D01*
X117767731Y-51255615D01*
X117772290Y-51239359D01*
X117776860Y-51223135D01*
X117781435Y-51206967D01*
X117786022Y-51190830D01*
X117790614Y-51174748D01*
X117795217Y-51158699D01*
X117799826Y-51142705D01*
X117804446Y-51126742D01*
X117809070Y-51110835D01*
X117813707Y-51094960D01*
X117818348Y-51079140D01*
X117827657Y-51047619D01*
X117836998Y-51016271D01*
X117846371Y-50985096D01*
X117855775Y-50954095D01*
X117865209Y-50923267D01*
X117874674Y-50892611D01*
X117884170Y-50862127D01*
X117893695Y-50831816D01*
X117903249Y-50801677D01*
X117912833Y-50771710D01*
X117922445Y-50741914D01*
X117932086Y-50712290D01*
X117941755Y-50682836D01*
X117951451Y-50653554D01*
X117961175Y-50624442D01*
X117970926Y-50595501D01*
X117980704Y-50566730D01*
X117990508Y-50538130D01*
X118000338Y-50509699D01*
X118010193Y-50481438D01*
X118020074Y-50453346D01*
X118029980Y-50425424D01*
X118039910Y-50397670D01*
X118049864Y-50370086D01*
X118059842Y-50342670D01*
X118069844Y-50315423D01*
X118079868Y-50288345D01*
X118089916Y-50261434D01*
X118099985Y-50234692D01*
X118110076Y-50208117D01*
X118120189Y-50181710D01*
X118130323Y-50155470D01*
X118140478Y-50129398D01*
X118150653Y-50103493D01*
X118160848Y-50077754D01*
X118171062Y-50052183D01*
X118181296Y-50026778D01*
X118191548Y-50001540D01*
X118201819Y-49976468D01*
X118212107Y-49951562D01*
X118222413Y-49926822D01*
X118232737Y-49902248D01*
X118243076Y-49877840D01*
X118253433Y-49853598D01*
X118263805Y-49829521D01*
X118274192Y-49805610D01*
X118284594Y-49781863D01*
X118295011Y-49758282D01*
X118305442Y-49734866D01*
X118315887Y-49711615D01*
X118326344Y-49688528D01*
X118336815Y-49665607D01*
X118347297Y-49642849D01*
X118357792Y-49620257D01*
X118368298Y-49597829D01*
X118378814Y-49575565D01*
X118389341Y-49553465D01*
X118399878Y-49531529D01*
X118410425Y-49509758D01*
X118420980Y-49488151D01*
X118431543Y-49466707D01*
X118442115Y-49445428D01*
X118452694Y-49424312D01*
X118463279Y-49403360D01*
X118473871Y-49382572D01*
X118484469Y-49361948D01*
X118495072Y-49341487D01*
X118505679Y-49321190D01*
X118516291Y-49301057D01*
X118526906Y-49281088D01*
X118537524Y-49261282D01*
X118548144Y-49241640D01*
X118558767Y-49222162D01*
X118569390Y-49202847D01*
X118580014Y-49183697D01*
X118590638Y-49164710D01*
X118601261Y-49145887D01*
X118611883Y-49127227D01*
X118622502Y-49108732D01*
X118633119Y-49090401D01*
X118643733Y-49072235D01*
X118654343Y-49054232D01*
X118664948Y-49036394D01*
X118675547Y-49018720D01*
X118686140Y-49001211D01*
X118696726Y-48983867D01*
X118707304Y-48966688D01*
X118717874Y-48949673D01*
X118728435Y-48932824D01*
X118738985Y-48916141D01*
X118749524Y-48899623D01*
X118760052Y-48883271D01*
X118770566Y-48867086D01*
X118781068Y-48851066D01*
X118791554Y-48835214D01*
X118802025Y-48819528D01*
X118812480Y-48804009D01*
X118822917Y-48788658D01*
X118833336Y-48773475D01*
X118843735Y-48758461D01*
X118854113Y-48743614D01*
X118864470Y-48728937D01*
X118874805Y-48714430D01*
X118885115Y-48700092D01*
X118895400Y-48685924D01*
X118905658Y-48671928D01*
X118915889Y-48658103D01*
X118926091Y-48644449D01*
X118936263Y-48630969D01*
X118946402Y-48617661D01*
X118956509Y-48604527D01*
X118966581Y-48591567D01*
X118976617Y-48578782D01*
X118986615Y-48566173D01*
X118996573Y-48553741D01*
X119006490Y-48541485D01*
X119016365Y-48529408D01*
X119026194Y-48517509D01*
X119035978Y-48505790D01*
X119045712Y-48494251D01*
X119055397Y-48482894D01*
X119065029Y-48471718D01*
X119074607Y-48460726D01*
X119084128Y-48449917D01*
X119093591Y-48439293D01*
X119102993Y-48428854D01*
X119112333Y-48418600D01*
X119121610Y-48408532D01*
X119130820Y-48398649D01*
X119139965Y-48388951D01*
X119149042Y-48379436D01*
X119158054Y-48370101D01*
X119167003Y-48360942D01*
X119175894Y-48351950D01*
X119184740Y-48343113D01*
X119193561Y-48334406D01*
X119202398Y-48325787D01*
X119211334Y-48317171D01*
X119220578Y-48308356D01*
X119230953Y-48298544D01*
X119237483Y-48292373D01*
X119242850Y-48287245D01*
X119245091Y-48285063D01*
X119247031Y-48283131D01*
X119248668Y-48281444D01*
X119250000Y-48280000D01*
X119250000Y-48280000D02*
X119330000Y-48190000D01*
X165020000Y-35280000D02*
X165073715Y-35284359D01*
X165127371Y-35288733D01*
X165180958Y-35293121D01*
X165234487Y-35297525D01*
X165287948Y-35301943D01*
X165341350Y-35306376D01*
X165394684Y-35310824D01*
X165447959Y-35315287D01*
X165501167Y-35319764D01*
X165554316Y-35324257D01*
X165607398Y-35328763D01*
X165660421Y-35333285D01*
X165713377Y-35337821D01*
X165766274Y-35342373D01*
X165819104Y-35346938D01*
X165871875Y-35351519D01*
X165924580Y-35356114D01*
X165977226Y-35360723D01*
X166029806Y-35365347D01*
X166082327Y-35369986D01*
X166134781Y-35374640D01*
X166187177Y-35379308D01*
X166239507Y-35383990D01*
X166291779Y-35388687D01*
X166343984Y-35393398D01*
X166396131Y-35398124D01*
X166448212Y-35402864D01*
X166500235Y-35407619D01*
X166552192Y-35412388D01*
X166604091Y-35417171D01*
X166655924Y-35421969D01*
X166707699Y-35426782D01*
X166759408Y-35431608D01*
X166811060Y-35436449D01*
X166862646Y-35441304D01*
X166914175Y-35446174D01*
X166965638Y-35451057D01*
X167017044Y-35455955D01*
X167068384Y-35460867D01*
X167119667Y-35465794D01*
X167170884Y-35470734D01*
X167222045Y-35475689D01*
X167273140Y-35480658D01*
X167324178Y-35485641D01*
X167375151Y-35490638D01*
X167426067Y-35495650D01*
X167476918Y-35500675D01*
X167527712Y-35505715D01*
X167578442Y-35510768D01*
X167629114Y-35515836D01*
X167679722Y-35520917D01*
X167730273Y-35526013D01*
X167780760Y-35531123D01*
X167831190Y-35536246D01*
X167881556Y-35541384D01*
X167931865Y-35546535D01*
X167982110Y-35551700D01*
X168032298Y-35556880D01*
X168082423Y-35562073D01*
X168132491Y-35567280D01*
X168182495Y-35572501D01*
X168232443Y-35577736D01*
X168282327Y-35582984D01*
X168332155Y-35588246D01*
X168381919Y-35593522D01*
X168431627Y-35598812D01*
X168481272Y-35604116D01*
X168530860Y-35609433D01*
X168580385Y-35614764D01*
X168629855Y-35620109D01*
X168679261Y-35625467D01*
X168728611Y-35630839D01*
X168777898Y-35636224D01*
X168827130Y-35641624D01*
X168876298Y-35647037D01*
X168925411Y-35652463D01*
X168974461Y-35657903D01*
X169023456Y-35663357D01*
X169072388Y-35668824D01*
X169121264Y-35674305D01*
X169170078Y-35679799D01*
X169218836Y-35685307D01*
X169267532Y-35690827D01*
X169316173Y-35696362D01*
X169364752Y-35701910D01*
X169413275Y-35707472D01*
X169461737Y-35713046D01*
X169510143Y-35718635D01*
X169558487Y-35724236D01*
X169606776Y-35729851D01*
X169655003Y-35735479D01*
X169703176Y-35741121D01*
X169751287Y-35746776D01*
X169799343Y-35752444D01*
X169847337Y-35758125D01*
X169895277Y-35763820D01*
X169943155Y-35769528D01*
X169990978Y-35775249D01*
X170038741Y-35780984D01*
X170086448Y-35786731D01*
X170134095Y-35792492D01*
X170181687Y-35798266D01*
X170229218Y-35804053D01*
X170276695Y-35809853D01*
X170324111Y-35815666D01*
X170371472Y-35821492D01*
X170418773Y-35827332D01*
X170466020Y-35833184D01*
X170513206Y-35839050D01*
X170560338Y-35844928D01*
X170607409Y-35850819D01*
X170654427Y-35856724D01*
X170701384Y-35862641D01*
X170748287Y-35868572D01*
X170795130Y-35874515D01*
X170841919Y-35880472D01*
X170888648Y-35886441D01*
X170935324Y-35892423D01*
X170981939Y-35898418D01*
X171028501Y-35904426D01*
X171075003Y-35910446D01*
X171121452Y-35916480D01*
X171167840Y-35922526D01*
X171214176Y-35928585D01*
X171260451Y-35934657D01*
X171306674Y-35940741D01*
X171352837Y-35946839D01*
X171398947Y-35952949D01*
X171444997Y-35959071D01*
X171490995Y-35965207D01*
X171536933Y-35971355D01*
X171582818Y-35977516D01*
X171628644Y-35983689D01*
X171674417Y-35989876D01*
X171720132Y-35996074D01*
X171765793Y-36002286D01*
X171811396Y-36008509D01*
X171856945Y-36014746D01*
X171902437Y-36020995D01*
X171947875Y-36027257D01*
X171993255Y-36033531D01*
X172038583Y-36039817D01*
X172083852Y-36046116D01*
X172129068Y-36052428D01*
X172174226Y-36058752D01*
X172219332Y-36065088D01*
X172264380Y-36071437D01*
X172309376Y-36077799D01*
X172354313Y-36084172D01*
X172399198Y-36090558D01*
X172444026Y-36096957D01*
X172488801Y-36103368D01*
X172533519Y-36109790D01*
X172578184Y-36116226D01*
X172622792Y-36122674D01*
X172667348Y-36129134D01*
X172711846Y-36135606D01*
X172756293Y-36142091D01*
X172800682Y-36148587D01*
X172845020Y-36155097D01*
X172889300Y-36161618D01*
X172933529Y-36168151D01*
X172977700Y-36174697D01*
X173021820Y-36181255D01*
X173065884Y-36187824D01*
X173109895Y-36194407D01*
X173153850Y-36201001D01*
X173197753Y-36207607D01*
X173241600Y-36214225D01*
X173285395Y-36220856D01*
X173329134Y-36227498D01*
X173372822Y-36234153D01*
X173416453Y-36240819D01*
X173460033Y-36247498D01*
X173503557Y-36254188D01*
X173547029Y-36260891D01*
X173590446Y-36267605D01*
X173633811Y-36274332D01*
X173677121Y-36281070D01*
X173720380Y-36287821D01*
X173763583Y-36294583D01*
X173806735Y-36301357D01*
X173849831Y-36308143D01*
X173892876Y-36314941D01*
X173935866Y-36321750D01*
X173978806Y-36328572D01*
X174021690Y-36335405D01*
X174064523Y-36342250D01*
X174107301Y-36349107D01*
X174150028Y-36355976D01*
X174192701Y-36362856D01*
X174235322Y-36369749D01*
X174277889Y-36376652D01*
X174320406Y-36383568D01*
X174362867Y-36390495D01*
X174405279Y-36397435D01*
X174447635Y-36404385D01*
X174489942Y-36411348D01*
X174532194Y-36418321D01*
X174574395Y-36425307D01*
X174616543Y-36432304D01*
X174658640Y-36439313D01*
X174700683Y-36446334D01*
X174742676Y-36453366D01*
X174784614Y-36460409D01*
X174826503Y-36467464D01*
X174868338Y-36474531D01*
X174910123Y-36481609D01*
X174951854Y-36488698D01*
X174993536Y-36495800D01*
X175035163Y-36502912D01*
X175076741Y-36510036D01*
X175118266Y-36517171D01*
X175159740Y-36524318D01*
X175201162Y-36531476D01*
X175242534Y-36538646D01*
X175283852Y-36545827D01*
X175325121Y-36553020D01*
X175366337Y-36560223D01*
X175407503Y-36567438D01*
X175448617Y-36574665D01*
X175489681Y-36581902D01*
X175530692Y-36589151D01*
X175571654Y-36596412D01*
X175612563Y-36603683D01*
X175653423Y-36610966D01*
X175694231Y-36618260D01*
X175734989Y-36625565D01*
X175775695Y-36632882D01*
X175816352Y-36640210D01*
X175856956Y-36647548D01*
X175897512Y-36654898D01*
X175938016Y-36662259D01*
X175978470Y-36669632D01*
X176018873Y-36677015D01*
X176059226Y-36684410D01*
X176099528Y-36691815D01*
X176139781Y-36699232D01*
X176179983Y-36706660D01*
X176220136Y-36714099D01*
X176260236Y-36721549D01*
X176300289Y-36729010D01*
X176340290Y-36736482D01*
X176380243Y-36743965D01*
X176420144Y-36751459D01*
X176459997Y-36758964D01*
X176499798Y-36766480D01*
X176539551Y-36774007D01*
X176579253Y-36781544D01*
X176618907Y-36789093D01*
X176658510Y-36796653D01*
X176698065Y-36804223D01*
X176737569Y-36811804D01*
X176777024Y-36819397D01*
X176816429Y-36827000D01*
X176855787Y-36834614D01*
X176895093Y-36842239D01*
X176934352Y-36849874D01*
X176973560Y-36857521D01*
X177012720Y-36865178D01*
X177051830Y-36872846D01*
X177090892Y-36880525D01*
X177129904Y-36888214D01*
X177168869Y-36895914D01*
X177207783Y-36903625D01*
X177246650Y-36911347D01*
X177285467Y-36919079D01*
X177324236Y-36926823D01*
X177362955Y-36934576D01*
X177401627Y-36942341D01*
X177440250Y-36950115D01*
X177478825Y-36957901D01*
X177517350Y-36965697D01*
X177555828Y-36973504D01*
X177594257Y-36981322D01*
X177632639Y-36989150D01*
X177670971Y-36996988D01*
X177709256Y-37004838D01*
X177747492Y-37012697D01*
X177785681Y-37020568D01*
X177823821Y-37028448D01*
X177861914Y-37036340D01*
X177899959Y-37044241D01*
X177937956Y-37052154D01*
X177975904Y-37060076D01*
X178013806Y-37068009D01*
X178051659Y-37075953D01*
X178089466Y-37083907D01*
X178127223Y-37091871D01*
X178164935Y-37099846D01*
X178202597Y-37107831D01*
X178240214Y-37115827D01*
X178277782Y-37123833D01*
X178315303Y-37131849D01*
X178352777Y-37139876D01*
X178390204Y-37147913D01*
X178427583Y-37155960D01*
X178464915Y-37164018D01*
X178502200Y-37172086D01*
X178539439Y-37180164D01*
X178576630Y-37188252D01*
X178613775Y-37196351D01*
X178650872Y-37204460D01*
X178687923Y-37212579D01*
X178724926Y-37220708D01*
X178761884Y-37228848D01*
X178798794Y-37236998D01*
X178835658Y-37245158D01*
X178872475Y-37253328D01*
X178909246Y-37261508D01*
X178945970Y-37269698D01*
X178982649Y-37277899D01*
X179019280Y-37286110D01*
X179055866Y-37294331D01*
X179092405Y-37302561D01*
X179128898Y-37310802D01*
X179165344Y-37319053D01*
X179201745Y-37327314D01*
X179238100Y-37335585D01*
X179274409Y-37343867D01*
X179310671Y-37352158D01*
X179346888Y-37360459D01*
X179383059Y-37368770D01*
X179419184Y-37377092D01*
X179455264Y-37385423D01*
X179491298Y-37393764D01*
X179527286Y-37402115D01*
X179563228Y-37410476D01*
X179599125Y-37418847D01*
X179634977Y-37427228D01*
X179670783Y-37435619D01*
X179706544Y-37444019D01*
X179742259Y-37452430D01*
X179777929Y-37460850D01*
X179813554Y-37469281D01*
X179849134Y-37477721D01*
X179884669Y-37486171D01*
X179920158Y-37494631D01*
X179955603Y-37503100D01*
X179991002Y-37511580D01*
X180026357Y-37520069D01*
X180061667Y-37528568D01*
X180096932Y-37537077D01*
X180132152Y-37545595D01*
X180167327Y-37554124D01*
X180202458Y-37562662D01*
X180237544Y-37571210D01*
X180272586Y-37579767D01*
X180307583Y-37588334D01*
X180342536Y-37596911D01*
X180377444Y-37605498D01*
X180412308Y-37614094D01*
X180447127Y-37622700D01*
X180481903Y-37631316D01*
X180516634Y-37639941D01*
X180551321Y-37648576D01*
X180585964Y-37657220D01*
X180620562Y-37665874D01*
X180655117Y-37674538D01*
X180689628Y-37683211D01*
X180724095Y-37691894D01*
X180758518Y-37700586D01*
X180792897Y-37709288D01*
X180827232Y-37718000D01*
X180861524Y-37726721D01*
X180895772Y-37735451D01*
X180929977Y-37744191D01*
X180964138Y-37752941D01*
X180998255Y-37761700D01*
X181032329Y-37770468D01*
X181066359Y-37779246D01*
X181100347Y-37788034D01*
X181134291Y-37796831D01*
X181168191Y-37805637D01*
X181202049Y-37814453D01*
X181235863Y-37823278D01*
X181269634Y-37832113D01*
X181303362Y-37840957D01*
X181337047Y-37849810D01*
X181370689Y-37858673D01*
X181404288Y-37867545D01*
X181437845Y-37876426D01*
X181471358Y-37885317D01*
X181504829Y-37894217D01*
X181538257Y-37903127D01*
X181571642Y-37912046D01*
X181604985Y-37920974D01*
X181638285Y-37929911D01*
X181671543Y-37938858D01*
X181704758Y-37947814D01*
X181737931Y-37956779D01*
X181771062Y-37965753D01*
X181804150Y-37974737D01*
X181837196Y-37983730D01*
X181870199Y-37992732D01*
X181903161Y-38001744D01*
X181936080Y-38010764D01*
X181968957Y-38019794D01*
X182001793Y-38028833D01*
X182034586Y-38037881D01*
X182067338Y-38046939D01*
X182100047Y-38056005D01*
X182132715Y-38065081D01*
X182165341Y-38074166D01*
X182197925Y-38083260D01*
X182230467Y-38092363D01*
X182262969Y-38101475D01*
X182295428Y-38110596D01*
X182327846Y-38119726D01*
X182360222Y-38128866D01*
X182392557Y-38138014D01*
X182424850Y-38147172D01*
X182457103Y-38156339D01*
X182489313Y-38165514D01*
X182521483Y-38174699D01*
X182553612Y-38183893D01*
X182585699Y-38193096D01*
X182617745Y-38202307D01*
X182649751Y-38211528D01*
X182681715Y-38220758D01*
X182713639Y-38229997D01*
X182745521Y-38239244D01*
X182777363Y-38248501D01*
X182809163Y-38257767D01*
X182840924Y-38267041D01*
X182872642Y-38276325D01*
X182904322Y-38285617D01*
X182935959Y-38294919D01*
X182967557Y-38304229D01*
X182999114Y-38313548D01*
X183030631Y-38322876D01*
X183062107Y-38332213D01*
X183093543Y-38341559D01*
X183124938Y-38350914D01*
X183156294Y-38360278D01*
X183187609Y-38369650D01*
X183218884Y-38379031D01*
X183250119Y-38388421D01*
X183281314Y-38397820D01*
X183312468Y-38407228D01*
X183343583Y-38416645D01*
X183374658Y-38426070D01*
X183405693Y-38435504D01*
X183436688Y-38444947D01*
X183467644Y-38454399D01*
X183498559Y-38463860D01*
X183529436Y-38473329D01*
X183560271Y-38482807D01*
X183591069Y-38492294D01*
X183621825Y-38501789D01*
X183652544Y-38511294D01*
X183683222Y-38520806D01*
X183713861Y-38530328D01*
X183744460Y-38539858D01*
X183775021Y-38549398D01*
X183805542Y-38558945D01*
X183836024Y-38568502D01*
X183866466Y-38578067D01*
X183896871Y-38587641D01*
X183927234Y-38597223D01*
X183957561Y-38606814D01*
X183987847Y-38616414D01*
X184018095Y-38626023D01*
X184048303Y-38635639D01*
X184078474Y-38645265D01*
X184108605Y-38654899D01*
X184138698Y-38664542D01*
X184168751Y-38674193D01*
X184198767Y-38683854D01*
X184228743Y-38693522D01*
X184258682Y-38703199D01*
X184288581Y-38712885D01*
X184318443Y-38722580D01*
X184348265Y-38732282D01*
X184378051Y-38741994D01*
X184407796Y-38751714D01*
X184437505Y-38761442D01*
X184467174Y-38771179D01*
X184496806Y-38780925D01*
X184526399Y-38790679D01*
X184555956Y-38800441D01*
X184585472Y-38810212D01*
X184614953Y-38819992D01*
X184644394Y-38829780D01*
X184673798Y-38839577D01*
X184703164Y-38849381D01*
X184732493Y-38859195D01*
X184761782Y-38869016D01*
X184791036Y-38878847D01*
X184820250Y-38888686D01*
X184849429Y-38898533D01*
X184878568Y-38908388D01*
X184907672Y-38918253D01*
X184936736Y-38928125D01*
X184965765Y-38938006D01*
X184994755Y-38947895D01*
X185023709Y-38957793D01*
X185052624Y-38967699D01*
X185081504Y-38977614D01*
X185110344Y-38987536D01*
X185139150Y-38997468D01*
X185167916Y-39007407D01*
X185196648Y-39017355D01*
X185225340Y-39027311D01*
X185253998Y-39037276D01*
X185282617Y-39047249D01*
X185311201Y-39057230D01*
X185339746Y-39067220D01*
X185368256Y-39077218D01*
X185396728Y-39087224D01*
X185425165Y-39097239D01*
X185453563Y-39107261D01*
X185481927Y-39117293D01*
X185510253Y-39127332D01*
X185538544Y-39137380D01*
X185566796Y-39147436D01*
X185595015Y-39157501D01*
X185623195Y-39167573D01*
X185651341Y-39177654D01*
X185679448Y-39187743D01*
X185707521Y-39197841D01*
X185735557Y-39207946D01*
X185763558Y-39218060D01*
X185791521Y-39228182D01*
X185819450Y-39238312D01*
X185847341Y-39248451D01*
X185875199Y-39258598D01*
X185903018Y-39268752D01*
X185930804Y-39278916D01*
X185958552Y-39289087D01*
X185986266Y-39299267D01*
X186013943Y-39309454D01*
X186041586Y-39319651D01*
X186069191Y-39329855D01*
X186096763Y-39340068D01*
X186124297Y-39350288D01*
X186151799Y-39360517D01*
X186179262Y-39370753D01*
X186206693Y-39380999D01*
X186234086Y-39391251D01*
X186261446Y-39401513D01*
X186288768Y-39411782D01*
X186316058Y-39422061D01*
X186343310Y-39432346D01*
X186370530Y-39442640D01*
X186397712Y-39452942D01*
X186424862Y-39463252D01*
X186451974Y-39473570D01*
X186479054Y-39483897D01*
X186506096Y-39494231D01*
X186533107Y-39504574D01*
X186560079Y-39514925D01*
X186587021Y-39525284D01*
X186613924Y-39535650D01*
X186640796Y-39546026D01*
X186667630Y-39556408D01*
X186694433Y-39566800D01*
X186721199Y-39577199D01*
X186747933Y-39587607D01*
X186774629Y-39598022D01*
X186801295Y-39608446D01*
X186827923Y-39618877D01*
X186854520Y-39629317D01*
X186881080Y-39639764D01*
X186907608Y-39650220D01*
X186934100Y-39660684D01*
X186960560Y-39671156D01*
X186986984Y-39681635D01*
X187013376Y-39692124D01*
X187039732Y-39702619D01*
X187066057Y-39713124D01*
X187092345Y-39723635D01*
X187118602Y-39734156D01*
X187144822Y-39744683D01*
X187171012Y-39755220D01*
X187197165Y-39765763D01*
X187223288Y-39776316D01*
X187249374Y-39786875D01*
X187275430Y-39797444D01*
X187301449Y-39808019D01*
X187327438Y-39818604D01*
X187353390Y-39829196D01*
X187379313Y-39839796D01*
X187405198Y-39850404D01*
X187431054Y-39861021D01*
X187456874Y-39871644D01*
X187482663Y-39882277D01*
X187508416Y-39892916D01*
X187534140Y-39903565D01*
X187559827Y-39914220D01*
X187585485Y-39924885D01*
X187611106Y-39935556D01*
X187636698Y-39946236D01*
X187662253Y-39956924D01*
X187687780Y-39967620D01*
X187713270Y-39978323D01*
X187738731Y-39989036D01*
X187764156Y-39999755D01*
X187789551Y-40010483D01*
X187814911Y-40021218D01*
X187840242Y-40031962D01*
X187865537Y-40042713D01*
X187890803Y-40053473D01*
X187916033Y-40064240D01*
X187941234Y-40075016D01*
X187966400Y-40085798D01*
X187991537Y-40096590D01*
X188016638Y-40107389D01*
X188041710Y-40118197D01*
X188066747Y-40129011D01*
X188091756Y-40139835D01*
X188116729Y-40150665D01*
X188141673Y-40161504D01*
X188166582Y-40172350D01*
X188191463Y-40183206D01*
X188216309Y-40194068D01*
X188241126Y-40204939D01*
X188265908Y-40215817D01*
X188290662Y-40226704D01*
X188315380Y-40237597D01*
X188340071Y-40248501D01*
X188364727Y-40259410D01*
X188389355Y-40270329D01*
X188413947Y-40281254D01*
X188438512Y-40292189D01*
X188463042Y-40303130D01*
X188487544Y-40314080D01*
X188512011Y-40325037D01*
X188536451Y-40336004D01*
X188560856Y-40346976D01*
X188585234Y-40357959D01*
X188609576Y-40368947D01*
X188633892Y-40379945D01*
X188658172Y-40390950D01*
X188682426Y-40401964D01*
X188706645Y-40412984D01*
X188730837Y-40424014D01*
X188754993Y-40435050D01*
X188779124Y-40446095D01*
X188803219Y-40457147D01*
X188827288Y-40468209D01*
X188851322Y-40479276D01*
X188875330Y-40490354D01*
X188899303Y-40501437D01*
X188923250Y-40512530D01*
X188947162Y-40523629D01*
X188971048Y-40534739D01*
X188994899Y-40545854D01*
X189018725Y-40556979D01*
X189042515Y-40568109D01*
X189066280Y-40579250D01*
X189090010Y-40590397D01*
X189113715Y-40601554D01*
X189137385Y-40612716D01*
X189161029Y-40623889D01*
X189184639Y-40635067D01*
X189208224Y-40646255D01*
X189231773Y-40657450D01*
X189255298Y-40668654D01*
X189278789Y-40679864D01*
X189302254Y-40691084D01*
X189325685Y-40702310D01*
X189349090Y-40713546D01*
X189372462Y-40724788D01*
X189395808Y-40736040D01*
X189419121Y-40747297D01*
X189442408Y-40758565D01*
X189465661Y-40769839D01*
X189488890Y-40781122D01*
X189512085Y-40792412D01*
X189535255Y-40803711D01*
X189558390Y-40815017D01*
X189581502Y-40826332D01*
X189604579Y-40837653D01*
X189627633Y-40848985D01*
X189650652Y-40860322D01*
X189673647Y-40871669D01*
X189696608Y-40883022D01*
X189719545Y-40894386D01*
X189742448Y-40905755D01*
X189765327Y-40917134D01*
X189788173Y-40928519D01*
X189810995Y-40939914D01*
X189833782Y-40951315D01*
X189856547Y-40962726D01*
X189879277Y-40974143D01*
X189901984Y-40985570D01*
X189924657Y-40997003D01*
X189947308Y-41008446D01*
X189969924Y-41019895D01*
X189992517Y-41031354D01*
X190015076Y-41042819D01*
X190037613Y-41054294D01*
X190060115Y-41065775D01*
X190082595Y-41077266D01*
X190105042Y-41088763D01*
X190127465Y-41100271D01*
X190149855Y-41111783D01*
X190172223Y-41123307D01*
X190194556Y-41134836D01*
X190216868Y-41146375D01*
X190239146Y-41157920D01*
X190261402Y-41169476D01*
X190283624Y-41181037D01*
X190305824Y-41192609D01*
X190327990Y-41204186D01*
X190350135Y-41215774D01*
X190372246Y-41227367D01*
X190394335Y-41238972D01*
X190416391Y-41250581D01*
X190438425Y-41262201D01*
X190460426Y-41273827D01*
X190504352Y-41297105D01*
X190548168Y-41320416D01*
X190591875Y-41343759D01*
X190635473Y-41367135D01*
X190678963Y-41390543D01*
X190722345Y-41413984D01*
X190765619Y-41437458D01*
X190808786Y-41460964D01*
X190851846Y-41484503D01*
X190894800Y-41508075D01*
X190937647Y-41531680D01*
X190980389Y-41555318D01*
X191023025Y-41578988D01*
X191065556Y-41602692D01*
X191107982Y-41626429D01*
X191150304Y-41650199D01*
X191192523Y-41674002D01*
X191234637Y-41697838D01*
X191276648Y-41721708D01*
X191318556Y-41745611D01*
X191360362Y-41769548D01*
X191402065Y-41793518D01*
X191443667Y-41817522D01*
X191485167Y-41841559D01*
X191526566Y-41865630D01*
X191567865Y-41889736D01*
X191609063Y-41913875D01*
X191650161Y-41938048D01*
X191691159Y-41962255D01*
X191732058Y-41986496D01*
X191772858Y-42010771D01*
X191813560Y-42035081D01*
X191854163Y-42059425D01*
X191894669Y-42083804D01*
X191935077Y-42108218D01*
X191975388Y-42132666D01*
X192015603Y-42157148D01*
X192055721Y-42181666D01*
X192095743Y-42206219D01*
X192135670Y-42230807D01*
X192175502Y-42255429D01*
X192215238Y-42280088D01*
X192254880Y-42304781D01*
X192294428Y-42329510D01*
X192333883Y-42354275D01*
X192373244Y-42379076D01*
X192412512Y-42403912D01*
X192451687Y-42428784D01*
X192490771Y-42453693D01*
X192529762Y-42478637D01*
X192568662Y-42503618D01*
X192607471Y-42528635D01*
X192646189Y-42553689D01*
X192684817Y-42578780D01*
X192723355Y-42603907D01*
X192761803Y-42629072D01*
X192800163Y-42654273D01*
X192838433Y-42679512D01*
X192876615Y-42704788D01*
X192914709Y-42730102D01*
X192952716Y-42755453D01*
X192990635Y-42780842D01*
X193028467Y-42806270D01*
X193066213Y-42831735D01*
X193103873Y-42857239D01*
X193141448Y-42882781D01*
X193178937Y-42908361D01*
X193216341Y-42933981D01*
X193253660Y-42959639D01*
X193290896Y-42985337D01*
X193328048Y-43011074D01*
X193365116Y-43036850D01*
X193402102Y-43062666D01*
X193439005Y-43088522D01*
X193475827Y-43114418D01*
X193512566Y-43140354D01*
X193549225Y-43166331D01*
X193585802Y-43192348D01*
X193622299Y-43218406D01*
X193658716Y-43244505D01*
X193695054Y-43270645D01*
X193731312Y-43296826D01*
X193767491Y-43323050D01*
X193803593Y-43349315D01*
X193839616Y-43375622D01*
X193875562Y-43401971D01*
X193911430Y-43428364D01*
X193947222Y-43454798D01*
X193982938Y-43481276D01*
X194018578Y-43507797D01*
X194054143Y-43534362D01*
X194089633Y-43560970D01*
X194125049Y-43587622D01*
X194160390Y-43614319D01*
X194195658Y-43641060D01*
X194230852Y-43667846D01*
X194265974Y-43694677D01*
X194301024Y-43721553D01*
X194336002Y-43748475D01*
X194370909Y-43775442D01*
X194405745Y-43802456D01*
X194440510Y-43829517D01*
X194475206Y-43856624D01*
X194509832Y-43883778D01*
X194544389Y-43910980D01*
X194578878Y-43938229D01*
X194613298Y-43965526D01*
X194647651Y-43992872D01*
X194681937Y-44020267D01*
X194716157Y-44047710D01*
X194750310Y-44075203D01*
X194784398Y-44102745D01*
X194818421Y-44130338D01*
X194852379Y-44157981D01*
X194886273Y-44185675D01*
X194920103Y-44213420D01*
X194953871Y-44241217D01*
X194987576Y-44269066D01*
X195021219Y-44296967D01*
X195054801Y-44324920D01*
X195088321Y-44352927D01*
X195121782Y-44380988D01*
X195155182Y-44409103D01*
X195188523Y-44437272D01*
X195221806Y-44465496D01*
X195255030Y-44493775D01*
X195288197Y-44522111D01*
X195321307Y-44550502D01*
X195354360Y-44578951D01*
X195387358Y-44607456D01*
X195420300Y-44636020D01*
X195453188Y-44664642D01*
X195486021Y-44693322D01*
X195518801Y-44722062D01*
X195551529Y-44750862D01*
X195584204Y-44779722D01*
X195616827Y-44808643D01*
X195649400Y-44837626D01*
X195681922Y-44866671D01*
X195714395Y-44895779D01*
X195746819Y-44924950D01*
X195779195Y-44954185D01*
X195811523Y-44983484D01*
X195843804Y-45012849D01*
X195876039Y-45042280D01*
X195908228Y-45071777D01*
X195940373Y-45101342D01*
X195972474Y-45130974D01*
X196004531Y-45160675D01*
X196036546Y-45190446D01*
X196068520Y-45220287D01*
X196100452Y-45250199D01*
X196132344Y-45280182D01*
X196164197Y-45310239D01*
X196196011Y-45340368D01*
X196227787Y-45370572D01*
X196259527Y-45400851D01*
X196291230Y-45431205D01*
X196322899Y-45461637D01*
X196354533Y-45492146D01*
X196386134Y-45522734D01*
X196417702Y-45553402D01*
X196449239Y-45584150D01*
X196480745Y-45614980D01*
X196512222Y-45645893D01*
X196543670Y-45676890D01*
X196575090Y-45707971D01*
X196606484Y-45739138D01*
X196637853Y-45770393D01*
X196669197Y-45801736D01*
X196700518Y-45833168D01*
X196731816Y-45864692D01*
X196763094Y-45896307D01*
X196794352Y-45928016D01*
X196825591Y-45959819D01*
X196856812Y-45991718D01*
X196888018Y-46023715D01*
X196919208Y-46055811D01*
X196950385Y-46088008D01*
X196981549Y-46120306D01*
X197012703Y-46152708D01*
X197043847Y-46185216D01*
X197074984Y-46217830D01*
X197106113Y-46250553D01*
X197137238Y-46283387D01*
X197168359Y-46316332D01*
X197199479Y-46349393D01*
X197230598Y-46382569D01*
X197261719Y-46415863D01*
X197292843Y-46449278D01*
X197323972Y-46482816D01*
X197355108Y-46516478D01*
X197386254Y-46550267D01*
X197417410Y-46584185D01*
X197448578Y-46618236D01*
X197479762Y-46652421D01*
X197510963Y-46686743D01*
X197542184Y-46721205D01*
X197573426Y-46755810D01*
X197604692Y-46790561D01*
X197635985Y-46825460D01*
X197667308Y-46860511D01*
X197698662Y-46895718D01*
X197730051Y-46931084D01*
X197761477Y-46966612D01*
X197792944Y-47002306D01*
X197824455Y-47038170D01*
X197856012Y-47074208D01*
X197887620Y-47110425D01*
X197919281Y-47146824D01*
X197951000Y-47183411D01*
X197982780Y-47220190D01*
X198014626Y-47257166D01*
X198046541Y-47294346D01*
X198078529Y-47331733D01*
X198110596Y-47369335D01*
X198142747Y-47407157D01*
X198174985Y-47445205D01*
X198207317Y-47483488D01*
X198239749Y-47522011D01*
X198272285Y-47560783D01*
X198304932Y-47599811D01*
X198337698Y-47639104D01*
X198370588Y-47678671D01*
X198403611Y-47718521D01*
X198436773Y-47758665D01*
X198470084Y-47799114D01*
X198503552Y-47839879D01*
X198537186Y-47880972D01*
X198570998Y-47922406D01*
X198604997Y-47964196D01*
X198639195Y-48006358D01*
X198673605Y-48048906D01*
X198708240Y-48091859D01*
X198743115Y-48135236D01*
X198778246Y-48179058D01*
X198813649Y-48223348D01*
X198849344Y-48268129D01*
X198885351Y-48313429D01*
X198921693Y-48359277D01*
X198958394Y-48405707D01*
X198995482Y-48452754D01*
X199032987Y-48500459D01*
X199070945Y-48548866D01*
X199109392Y-48598028D01*
X199148374Y-48648000D01*
X199187938Y-48698848D01*
X199228143Y-48750648D01*
X199269053Y-48803486D01*
X199310747Y-48857465D01*
X199353313Y-48912703D01*
X199396862Y-48969344D01*
X199441525Y-49027563D01*
X199487463Y-49087575D01*
X199534884Y-49149650D01*
X199584050Y-49214141D01*
X199635314Y-49281512D01*
X199689167Y-49352412D01*
X199746320Y-49427786D01*
X199807895Y-49509117D01*
X199875847Y-49598996D01*
X199954242Y-49702808D01*
X200068420Y-49854134D01*
X200141440Y-49950921D01*
X200214127Y-50047221D01*
X200286507Y-50143023D01*
X200322591Y-50190735D01*
X200358608Y-50238318D01*
X200394561Y-50285771D01*
X200430454Y-50333093D01*
X200466291Y-50380283D01*
X200502074Y-50427340D01*
X200537807Y-50474262D01*
X200573493Y-50521048D01*
X200609136Y-50567696D01*
X200644739Y-50614206D01*
X200680304Y-50660575D01*
X200715837Y-50706804D01*
X200751339Y-50752889D01*
X200786814Y-50798831D01*
X200822265Y-50844627D01*
X200857697Y-50890277D01*
X200893111Y-50935779D01*
X200910813Y-50958475D01*
X200928512Y-50981132D01*
X200946209Y-51003753D01*
X200963903Y-51026335D01*
X200981595Y-51048880D01*
X200999286Y-51071386D01*
X201016977Y-51093854D01*
X201034666Y-51116284D01*
X201052356Y-51138675D01*
X201070046Y-51161027D01*
X201087737Y-51183341D01*
X201105429Y-51205615D01*
X201123122Y-51227850D01*
X201140818Y-51250046D01*
X201158516Y-51272202D01*
X201176216Y-51294319D01*
X201193920Y-51316395D01*
X201211628Y-51338432D01*
X201229339Y-51360428D01*
X201247056Y-51382384D01*
X201264777Y-51404300D01*
X201282503Y-51426174D01*
X201300235Y-51448008D01*
X201317973Y-51469801D01*
X201335718Y-51491553D01*
X201353470Y-51513263D01*
X201371229Y-51534932D01*
X201388996Y-51556559D01*
X201406771Y-51578144D01*
X201424555Y-51599688D01*
X201442348Y-51621189D01*
X201460150Y-51642648D01*
X201477962Y-51664064D01*
X201495784Y-51685438D01*
X201513618Y-51706769D01*
X201531462Y-51728057D01*
X201549318Y-51749301D01*
X201567185Y-51770503D01*
X201585065Y-51791661D01*
X201602958Y-51812775D01*
X201620864Y-51833846D01*
X201638784Y-51854873D01*
X201656718Y-51875855D01*
X201674666Y-51896793D01*
X201692629Y-51917687D01*
X201710607Y-51938536D01*
X201728601Y-51959341D01*
X201746611Y-51980101D01*
X201764638Y-52000815D01*
X201782681Y-52021484D01*
X201800742Y-52042108D01*
X201818820Y-52062686D01*
X201836917Y-52083219D01*
X201855032Y-52103705D01*
X201873167Y-52124146D01*
X201891321Y-52144540D01*
X201909494Y-52164888D01*
X201927688Y-52185189D01*
X201945902Y-52205444D01*
X201964138Y-52225652D01*
X201982395Y-52245813D01*
X202000674Y-52265926D01*
X202018975Y-52285992D01*
X202037299Y-52306011D01*
X202055646Y-52325982D01*
X202074017Y-52345905D01*
X202092412Y-52365780D01*
X202110831Y-52385607D01*
X202129274Y-52405386D01*
X202147744Y-52425116D01*
X202166238Y-52444797D01*
X202184759Y-52464430D01*
X202203306Y-52484013D01*
X202221880Y-52503548D01*
X202240482Y-52523033D01*
X202259111Y-52542469D01*
X202277768Y-52561855D01*
X202296454Y-52581191D01*
X202315169Y-52600477D01*
X202333913Y-52619713D01*
X202352687Y-52638899D01*
X202371491Y-52658034D01*
X202390326Y-52677119D01*
X202409191Y-52696153D01*
X202428089Y-52715136D01*
X202447018Y-52734068D01*
X202465979Y-52752949D01*
X202484973Y-52771778D01*
X202504000Y-52790556D01*
X202523061Y-52809282D01*
X202542155Y-52827956D01*
X202561284Y-52846578D01*
X202580448Y-52865147D01*
X202599647Y-52883665D01*
X202618881Y-52902129D01*
X202638152Y-52920541D01*
X202657459Y-52938900D01*
X202676802Y-52957206D01*
X202696183Y-52975459D01*
X202715602Y-52993659D01*
X202735059Y-53011804D01*
X202754554Y-53029897D01*
X202774088Y-53047935D01*
X202793662Y-53065919D01*
X202813275Y-53083849D01*
X202832928Y-53101725D01*
X202852622Y-53119546D01*
X202872357Y-53137313D01*
X202892133Y-53155024D01*
X202911951Y-53172681D01*
X202931812Y-53190283D01*
X202951715Y-53207829D01*
X202971661Y-53225319D01*
X202991650Y-53242754D01*
X203011684Y-53260134D01*
X203031761Y-53277457D01*
X203051884Y-53294724D01*
X203072051Y-53311935D01*
X203092265Y-53329089D01*
X203112524Y-53346187D01*
X203132829Y-53363228D01*
X203153181Y-53380212D01*
X203173581Y-53397138D01*
X203194028Y-53414008D01*
X203214523Y-53430820D01*
X203235067Y-53447575D01*
X203255659Y-53464271D01*
X203276301Y-53480910D01*
X203296992Y-53497491D01*
X203317734Y-53514013D01*
X203338526Y-53530477D01*
X203359369Y-53546882D01*
X203380263Y-53563229D01*
X203401209Y-53579517D01*
X203422208Y-53595746D01*
X203443258Y-53611915D01*
X203464362Y-53628025D01*
X203485520Y-53644076D01*
X203496119Y-53652078D01*
X203506731Y-53660066D01*
X203517357Y-53668039D01*
X203527996Y-53675997D01*
X203538650Y-53683940D01*
X203549316Y-53691868D01*
X203559997Y-53699781D01*
X203570692Y-53707679D01*
X203581400Y-53715561D01*
X203592122Y-53723429D01*
X203602859Y-53731281D01*
X203613609Y-53739119D01*
X203624374Y-53746941D01*
X203635152Y-53754748D01*
X203645945Y-53762540D01*
X203656752Y-53770316D01*
X203667573Y-53778077D01*
X203678409Y-53785823D01*
X203689259Y-53793554D01*
X203700123Y-53801269D01*
X203711002Y-53808969D01*
X203721896Y-53816654D01*
X203732804Y-53824323D01*
X203743726Y-53831977D01*
X203754664Y-53839615D01*
X203765616Y-53847238D01*
X203776583Y-53854846D01*
X203787565Y-53862438D01*
X203798562Y-53870014D01*
X203809574Y-53877575D01*
X203820600Y-53885121D01*
X203831642Y-53892651D01*
X203842699Y-53900165D01*
X203853771Y-53907664D01*
X203864859Y-53915147D01*
X203875961Y-53922615D01*
X203887079Y-53930067D01*
X203898213Y-53937503D01*
X203909362Y-53944923D01*
X203920526Y-53952328D01*
X203931706Y-53959717D01*
X203942901Y-53967090D01*
X203954112Y-53974447D01*
X203965339Y-53981789D01*
X203976581Y-53989115D01*
X203987840Y-53996425D01*
X203999114Y-54003719D01*
X204010404Y-54010997D01*
X204021710Y-54018260D01*
X204033032Y-54025506D01*
X204044370Y-54032736D01*
X204055724Y-54039951D01*
X204067094Y-54047149D01*
X204078480Y-54054332D01*
X204089883Y-54061498D01*
X204101302Y-54068649D01*
X204112738Y-54075783D01*
X204124189Y-54082901D01*
X204135658Y-54090003D01*
X204147143Y-54097089D01*
X204158644Y-54104159D01*
X204170162Y-54111213D01*
X204181697Y-54118250D01*
X204193248Y-54125272D01*
X204204816Y-54132277D01*
X204216401Y-54139265D01*
X204228003Y-54146238D01*
X204239622Y-54153194D01*
X204251258Y-54160134D01*
X204262911Y-54167058D01*
X204274581Y-54173965D01*
X204286268Y-54180856D01*
X204297972Y-54187730D01*
X204309694Y-54194588D01*
X204321433Y-54201430D01*
X204333189Y-54208255D01*
X204344963Y-54215064D01*
X204356754Y-54221856D01*
X204368562Y-54228632D01*
X204380388Y-54235391D01*
X204392232Y-54242133D01*
X204404093Y-54248859D01*
X204415973Y-54255569D01*
X204427869Y-54262261D01*
X204439784Y-54268938D01*
X204451717Y-54275597D01*
X204463667Y-54282240D01*
X204475636Y-54288866D01*
X204487622Y-54295475D01*
X204499627Y-54302068D01*
X204511649Y-54308644D01*
X204523690Y-54315203D01*
X204535749Y-54321745D01*
X204547827Y-54328271D01*
X204559922Y-54334780D01*
X204572036Y-54341271D01*
X204584169Y-54347746D01*
X204596320Y-54354204D01*
X204608490Y-54360645D01*
X204620678Y-54367070D01*
X204632885Y-54373477D01*
X204645110Y-54379867D01*
X204657354Y-54386240D01*
X204669617Y-54392596D01*
X204681899Y-54398935D01*
X204694200Y-54405258D01*
X204706520Y-54411563D01*
X204718859Y-54417850D01*
X204731217Y-54424121D01*
X204743593Y-54430375D01*
X204755990Y-54436611D01*
X204768405Y-54442830D01*
X204780840Y-54449033D01*
X204793293Y-54455217D01*
X204805767Y-54461385D01*
X204818260Y-54467535D01*
X204830772Y-54473668D01*
X204843303Y-54479784D01*
X204855855Y-54485882D01*
X204868426Y-54491963D01*
X204881016Y-54498027D01*
X204893627Y-54504073D01*
X204906257Y-54510102D01*
X204918907Y-54516114D01*
X204931577Y-54522108D01*
X204944267Y-54528084D01*
X204956976Y-54534043D01*
X204969706Y-54539985D01*
X204982456Y-54545909D01*
X204995226Y-54551815D01*
X205008017Y-54557704D01*
X205020827Y-54563575D01*
X205033658Y-54569429D01*
X205046509Y-54575265D01*
X205059381Y-54581083D01*
X205072273Y-54586884D01*
X205085186Y-54592667D01*
X205098119Y-54598432D01*
X205111073Y-54604180D01*
X205124047Y-54609909D01*
X205137042Y-54615621D01*
X205150058Y-54621315D01*
X205163095Y-54626992D01*
X205176153Y-54632650D01*
X205189231Y-54638291D01*
X205202331Y-54643914D01*
X205215451Y-54649519D01*
X205228593Y-54655106D01*
X205241756Y-54660675D01*
X205254940Y-54666226D01*
X205268145Y-54671759D01*
X205281372Y-54677274D01*
X205294619Y-54682771D01*
X205307889Y-54688250D01*
X205321179Y-54693711D01*
X205334492Y-54699154D01*
X205347825Y-54704579D01*
X205361181Y-54709986D01*
X205374558Y-54715374D01*
X205387957Y-54720745D01*
X205401377Y-54726097D01*
X205414819Y-54731431D01*
X205428283Y-54736747D01*
X205441770Y-54742044D01*
X205455278Y-54747324D01*
X205468808Y-54752585D01*
X205482360Y-54757827D01*
X205495934Y-54763052D01*
X205509530Y-54768258D01*
X205523149Y-54773445D01*
X205536790Y-54778615D01*
X205550453Y-54783766D01*
X205564139Y-54788898D01*
X205577847Y-54794012D01*
X205591577Y-54799108D01*
X205605330Y-54804185D01*
X205619106Y-54809243D01*
X205632904Y-54814283D01*
X205646725Y-54819305D01*
X205660569Y-54824307D01*
X205674436Y-54829292D01*
X205688325Y-54834257D01*
X205702237Y-54839205D01*
X205716172Y-54844133D01*
X205730131Y-54849043D01*
X205744112Y-54853934D01*
X205758116Y-54858806D01*
X205772144Y-54863660D01*
X205786195Y-54868495D01*
X205800269Y-54873311D01*
X205814366Y-54878108D01*
X205828487Y-54882886D01*
X205842631Y-54887646D01*
X205856798Y-54892387D01*
X205870989Y-54897109D01*
X205885204Y-54901812D01*
X205899442Y-54906496D01*
X205913704Y-54911161D01*
X205927990Y-54915807D01*
X205942299Y-54920434D01*
X205956633Y-54925043D01*
X205970990Y-54929632D01*
X205985371Y-54934202D01*
X205999776Y-54938753D01*
X206014205Y-54943285D01*
X206028659Y-54947798D01*
X206043136Y-54952292D01*
X206057637Y-54956767D01*
X206072163Y-54961222D01*
X206086713Y-54965659D01*
X206101288Y-54970076D01*
X206115887Y-54974474D01*
X206130510Y-54978853D01*
X206145158Y-54983212D01*
X206159830Y-54987552D01*
X206174527Y-54991873D01*
X206189249Y-54996175D01*
X206203995Y-55000457D01*
X206218766Y-55004720D01*
X206233562Y-55008963D01*
X206248383Y-55013187D01*
X206263229Y-55017392D01*
X206278100Y-55021577D01*
X206292995Y-55025743D01*
X206307916Y-55029889D01*
X206322862Y-55034016D01*
X206337833Y-55038123D01*
X206352830Y-55042211D01*
X206367851Y-55046279D01*
X206382898Y-55050328D01*
X206397971Y-55054357D01*
X206413068Y-55058366D01*
X206428192Y-55062356D01*
X206443341Y-55066326D01*
X206458515Y-55070276D01*
X206473715Y-55074206D01*
X206488941Y-55078117D01*
X206504192Y-55082008D01*
X206519470Y-55085880D01*
X206534773Y-55089731D01*
X206550102Y-55093563D01*
X206565457Y-55097375D01*
X206580838Y-55101167D01*
X206596245Y-55104939D01*
X206611678Y-55108692D01*
X206627138Y-55112424D01*
X206642623Y-55116137D01*
X206658135Y-55119829D01*
X206673673Y-55123502D01*
X206689238Y-55127154D01*
X206704829Y-55130787D01*
X206720446Y-55134399D01*
X206736090Y-55137992D01*
X206751761Y-55141564D01*
X206767458Y-55145117D01*
X206783182Y-55148649D01*
X206798933Y-55152161D01*
X206814710Y-55155653D01*
X206830514Y-55159124D01*
X206846346Y-55162576D01*
X206862204Y-55166007D01*
X206878089Y-55169418D01*
X206894001Y-55172809D01*
X206909940Y-55176180D01*
X206925906Y-55179530D01*
X206941900Y-55182860D01*
X206957921Y-55186170D01*
X206973969Y-55189459D01*
X206990044Y-55192728D01*
X207006147Y-55195976D01*
X207022278Y-55199204D01*
X207038436Y-55202412D01*
X207054621Y-55205599D01*
X207070834Y-55208766D01*
X207087075Y-55211912D01*
X207103343Y-55215038D01*
X207119640Y-55218143D01*
X207135964Y-55221227D01*
X207152316Y-55224291D01*
X207168695Y-55227335D01*
X207185103Y-55230357D01*
X207201539Y-55233360D01*
X207218003Y-55236341D01*
X207234495Y-55239302D01*
X207251015Y-55242242D01*
X207267564Y-55245161D01*
X207284141Y-55248060D01*
X207300746Y-55250938D01*
X207317379Y-55253795D01*
X207334041Y-55256631D01*
X207350732Y-55259446D01*
X207367451Y-55262241D01*
X207384198Y-55265015D01*
X207400975Y-55267767D01*
X207417780Y-55270499D01*
X207434613Y-55273210D01*
X207451476Y-55275900D01*
X207468367Y-55278570D01*
X207485288Y-55281218D01*
X207502237Y-55283845D01*
X207519215Y-55286451D01*
X207536223Y-55289036D01*
X207553259Y-55291600D01*
X207570325Y-55294143D01*
X207587420Y-55296664D01*
X207604544Y-55299165D01*
X207621698Y-55301644D01*
X207638880Y-55304103D01*
X207656093Y-55306540D01*
X207673335Y-55308956D01*
X207690606Y-55311350D01*
X207707907Y-55313724D01*
X207725237Y-55316076D01*
X207742598Y-55318407D01*
X207759988Y-55320716D01*
X207777407Y-55323004D01*
X207794857Y-55325271D01*
X207812337Y-55327517D01*
X207829846Y-55329741D01*
X207847386Y-55331944D01*
X207864955Y-55334125D01*
X207882555Y-55336285D01*
X207900185Y-55338423D01*
X207917845Y-55340540D01*
X207935535Y-55342635D01*
X207953255Y-55344709D01*
X207971006Y-55346761D01*
X207988788Y-55348792D01*
X208006600Y-55350801D01*
X208024442Y-55352788D01*
X208042315Y-55354754D01*
X208060218Y-55356698D01*
X208078153Y-55358620D01*
X208096118Y-55360521D01*
X208114113Y-55362400D01*
X208132140Y-55364257D01*
X208150197Y-55366093D01*
X208168286Y-55367907D01*
X208186405Y-55369698D01*
X208204556Y-55371469D01*
X208222737Y-55373217D01*
X208240950Y-55374943D01*
X208259194Y-55376648D01*
X208277469Y-55378330D01*
X208295775Y-55379991D01*
X208314113Y-55381630D01*
X208332482Y-55383247D01*
X208350882Y-55384841D01*
X208369315Y-55386414D01*
X208387778Y-55387965D01*
X208406274Y-55389494D01*
X208424800Y-55391000D01*
X208443359Y-55392485D01*
X208461950Y-55393948D01*
X208480572Y-55395388D01*
X208499226Y-55396806D01*
X208517912Y-55398202D01*
X208536630Y-55399576D01*
X208555380Y-55400928D01*
X208574162Y-55402257D01*
X208592976Y-55403564D01*
X208611823Y-55404849D01*
X208630701Y-55406112D01*
X208649612Y-55407352D01*
X208668555Y-55408570D01*
X208687531Y-55409766D01*
X208706539Y-55410939D01*
X208725580Y-55412090D01*
X208744653Y-55413218D01*
X208763758Y-55414324D01*
X208782897Y-55415408D01*
X208802068Y-55416469D01*
X208821272Y-55417508D01*
X208840508Y-55418524D01*
X208859778Y-55419517D01*
X208879080Y-55420489D01*
X208898415Y-55421437D01*
X208917784Y-55422363D01*
X208937185Y-55423266D01*
X208956619Y-55424147D01*
X208976087Y-55425005D01*
X208995588Y-55425840D01*
X209015122Y-55426653D01*
X209034690Y-55427442D01*
X209054290Y-55428210D01*
X209073925Y-55428954D01*
X209093592Y-55429676D01*
X209113294Y-55430374D01*
X209133029Y-55431050D01*
X209152797Y-55431704D01*
X209172599Y-55432334D01*
X209192435Y-55432941D01*
X209212305Y-55433526D01*
X209232208Y-55434087D01*
X209252146Y-55434626D01*
X209272117Y-55435142D01*
X209292123Y-55435635D01*
X209312162Y-55436104D01*
X209332235Y-55436551D01*
X209352343Y-55436975D01*
X209372485Y-55437375D01*
X209392661Y-55437753D01*
X209412871Y-55438107D01*
X209433116Y-55438439D01*
X209453395Y-55438747D01*
X209473709Y-55439032D01*
X209494057Y-55439294D01*
X209514440Y-55439532D01*
X209534857Y-55439748D01*
X209555309Y-55439940D01*
X209575796Y-55440109D01*
X209596317Y-55440254D01*
X209616874Y-55440376D01*
X209637465Y-55440475D01*
X209658091Y-55440551D01*
X209678752Y-55440603D01*
X209699448Y-55440632D01*
X209720180Y-55440638D01*
X209740946Y-55440620D01*
X209761747Y-55440578D01*
X209782584Y-55440513D01*
X209803456Y-55440425D01*
X209824364Y-55440313D01*
X209845307Y-55440178D01*
X209866285Y-55440019D01*
X209887299Y-55439836D01*
X209908348Y-55439630D01*
X209929433Y-55439401D01*
X209950553Y-55439147D01*
X209971710Y-55438870D01*
X209992902Y-55438570D01*
X210014129Y-55438245D01*
X210035393Y-55437897D01*
X210056693Y-55437525D01*
X210078028Y-55437130D01*
X210099400Y-55436711D01*
X210120808Y-55436267D01*
X210142251Y-55435801D01*
X210163731Y-55435310D01*
X210185247Y-55434795D01*
X210206800Y-55434257D01*
X210228389Y-55433694D01*
X210250014Y-55433108D01*
X210271675Y-55432498D01*
X210293374Y-55431864D01*
X210315108Y-55431206D01*
X210336879Y-55430523D01*
X210358687Y-55429817D01*
X210380532Y-55429087D01*
X210402413Y-55428333D01*
X210424331Y-55427554D01*
X210446286Y-55426752D01*
X210468278Y-55425925D01*
X210490307Y-55425075D01*
X210512372Y-55424200D01*
X210534475Y-55423301D01*
X210556615Y-55422378D01*
X210578792Y-55421430D01*
X210601006Y-55420459D01*
X210623258Y-55419463D01*
X210645547Y-55418442D01*
X210667873Y-55417398D01*
X210690237Y-55416329D01*
X210712638Y-55415236D01*
X210735077Y-55414118D01*
X210757553Y-55412976D01*
X210780067Y-55411810D01*
X210802618Y-55410619D01*
X210825207Y-55409404D01*
X210847834Y-55408164D01*
X210870499Y-55406900D01*
X210893202Y-55405612D01*
X210915943Y-55404299D01*
X210938721Y-55402961D01*
X210961538Y-55401599D01*
X210984393Y-55400212D01*
X211007286Y-55398800D01*
X211030217Y-55397364D01*
X211053186Y-55395903D01*
X211076194Y-55394418D01*
X211099240Y-55392908D01*
X211122324Y-55391373D01*
X211145447Y-55389814D01*
X211168608Y-55388229D01*
X211191808Y-55386620D01*
X211215047Y-55384986D01*
X211238324Y-55383328D01*
X211261640Y-55381644D01*
X211284995Y-55379936D01*
X211308388Y-55378203D01*
X211331821Y-55376445D01*
X211355292Y-55374662D01*
X211378802Y-55372854D01*
X211402352Y-55371021D01*
X211425940Y-55369163D01*
X211449567Y-55367280D01*
X211473234Y-55365372D01*
X211496940Y-55363440D01*
X211520685Y-55361482D01*
X211544470Y-55359499D01*
X211568294Y-55357491D01*
X211592157Y-55355457D01*
X211616060Y-55353399D01*
X211640002Y-55351316D01*
X211663984Y-55349207D01*
X211688006Y-55347073D01*
X211712067Y-55344914D01*
X211736168Y-55342730D01*
X211760309Y-55340520D01*
X211784490Y-55338285D01*
X211808710Y-55336025D01*
X211832971Y-55333740D01*
X211857272Y-55331429D01*
X211881612Y-55329093D01*
X211905993Y-55326731D01*
X211930414Y-55324344D01*
X211954875Y-55321932D01*
X211979377Y-55319494D01*
X212003918Y-55317031D01*
X212028500Y-55314542D01*
X212053123Y-55312028D01*
X212077786Y-55309488D01*
X212102490Y-55306923D01*
X212127234Y-55304332D01*
X212152019Y-55301716D01*
X212176844Y-55299074D01*
X212201710Y-55296406D01*
X212226617Y-55293713D01*
X212251565Y-55290994D01*
X212276554Y-55288249D01*
X212301583Y-55285479D01*
X212326654Y-55282683D01*
X212351766Y-55279861D01*
X212376918Y-55277013D01*
X212402112Y-55274140D01*
X212427347Y-55271241D01*
X212452624Y-55268316D01*
X212477942Y-55265365D01*
X212503301Y-55262388D01*
X212528701Y-55259386D01*
X212554143Y-55256357D01*
X212579626Y-55253303D01*
X212605151Y-55250222D01*
X212630718Y-55247116D01*
X212656326Y-55243984D01*
X212681976Y-55240825D01*
X212707668Y-55237641D01*
X212733402Y-55234431D01*
X212759177Y-55231194D01*
X212784995Y-55227932D01*
X212810854Y-55224643D01*
X212836755Y-55221328D01*
X212862699Y-55217987D01*
X212888685Y-55214620D01*
X212914712Y-55211227D01*
X212940782Y-55207807D01*
X212966895Y-55204362D01*
X212993049Y-55200890D01*
X213019247Y-55197391D01*
X213045486Y-55193867D01*
X213071768Y-55190316D01*
X213098093Y-55186739D01*
X213124460Y-55183135D01*
X213150870Y-55179505D01*
X213177322Y-55175849D01*
X213203818Y-55172166D01*
X213230356Y-55168457D01*
X213256937Y-55164721D01*
X213283561Y-55160959D01*
X213310228Y-55157171D01*
X213336937Y-55153355D01*
X213363690Y-55149514D01*
X213390486Y-55145646D01*
X213417326Y-55141751D01*
X213444208Y-55137829D01*
X213471134Y-55133881D01*
X213498103Y-55129907D01*
X213525115Y-55125905D01*
X213579271Y-55117823D01*
X213633600Y-55109633D01*
X213688104Y-55101337D01*
X213742783Y-55092933D01*
X213797637Y-55084422D01*
X213852667Y-55075803D01*
X213907874Y-55067077D01*
X213963257Y-55058243D01*
X214018816Y-55049300D01*
X214074554Y-55040250D01*
X214130469Y-55031091D01*
X214186563Y-55021824D01*
X214242835Y-55012448D01*
X214299287Y-55002963D01*
X214355918Y-54993370D01*
X214412729Y-54983667D01*
X214469720Y-54973854D01*
X214526892Y-54963933D01*
X214584245Y-54953901D01*
X214641780Y-54943760D01*
X214699497Y-54933509D01*
X214757396Y-54923148D01*
X214815478Y-54912677D01*
X214873744Y-54902095D01*
X214932193Y-54891402D01*
X214990826Y-54880599D01*
X215049644Y-54869684D01*
X215108647Y-54858659D01*
X215167835Y-54847522D01*
X215227209Y-54836274D01*
X215286768Y-54824914D01*
X215346515Y-54813443D01*
X215406449Y-54801860D01*
X215466569Y-54790164D01*
X215526878Y-54778356D01*
X215587375Y-54766436D01*
X215648061Y-54754404D01*
X215708936Y-54742258D01*
X215770000Y-54730000D01*
X122430000Y-164320000D02*
X122467607Y-164273648D01*
X122505321Y-164227290D01*
X122543144Y-164180925D01*
X122581075Y-164134555D01*
X122619114Y-164088178D01*
X122657262Y-164041795D01*
X122695518Y-163995406D01*
X122733883Y-163949011D01*
X122772358Y-163902610D01*
X122810941Y-163856202D01*
X122849633Y-163809788D01*
X122888435Y-163763368D01*
X122927346Y-163716942D01*
X122966367Y-163670509D01*
X123005498Y-163624070D01*
X123044739Y-163577625D01*
X123084089Y-163531173D01*
X123123550Y-163484715D01*
X123163121Y-163438250D01*
X123202803Y-163391780D01*
X123242596Y-163345303D01*
X123282499Y-163298819D01*
X123322513Y-163252329D01*
X123362638Y-163205833D01*
X123402874Y-163159330D01*
X123443222Y-163112820D01*
X123483681Y-163066305D01*
X123524252Y-163019782D01*
X123564935Y-162973253D01*
X123605730Y-162926718D01*
X123646637Y-162880176D01*
X123687656Y-162833628D01*
X123728787Y-162787073D01*
X123770031Y-162740511D01*
X123811388Y-162693943D01*
X123852857Y-162647369D01*
X123894439Y-162600787D01*
X123936135Y-162554200D01*
X123977944Y-162507605D01*
X124019866Y-162461004D01*
X124061902Y-162414396D01*
X124104051Y-162367782D01*
X124146315Y-162321161D01*
X124188692Y-162274533D01*
X124231183Y-162227899D01*
X124273789Y-162181257D01*
X124316510Y-162134610D01*
X124359345Y-162087955D01*
X124402294Y-162041294D01*
X124445359Y-161994626D01*
X124488538Y-161947951D01*
X124531833Y-161901270D01*
X124575244Y-161854581D01*
X124618769Y-161807886D01*
X124662411Y-161761185D01*
X124706168Y-161714476D01*
X124750041Y-161667761D01*
X124794030Y-161621038D01*
X124838136Y-161574309D01*
X124882358Y-161527574D01*
X124926696Y-161480831D01*
X124971152Y-161434082D01*
X125015724Y-161387325D01*
X125060413Y-161340562D01*
X125105219Y-161293792D01*
X125150143Y-161247015D01*
X125195184Y-161200232D01*
X125240343Y-161153441D01*
X125285620Y-161106643D01*
X125331015Y-161059839D01*
X125376527Y-161013028D01*
X125422158Y-160966210D01*
X125467908Y-160919385D01*
X125513776Y-160872553D01*
X125559763Y-160825714D01*
X125605868Y-160778868D01*
X125652093Y-160732015D01*
X125698437Y-160685156D01*
X125744900Y-160638289D01*
X125791483Y-160591416D01*
X125838185Y-160544535D01*
X125885007Y-160497648D01*
X125931949Y-160450754D01*
X125979012Y-160403852D01*
X126026194Y-160356944D01*
X126073497Y-160310029D01*
X126120921Y-160263107D01*
X126168465Y-160216178D01*
X126216131Y-160169242D01*
X126263917Y-160122299D01*
X126311825Y-160075349D01*
X126359854Y-160028392D01*
X126408004Y-159981428D01*
X126456277Y-159934457D01*
X126504671Y-159887479D01*
X126553187Y-159840494D01*
X126601825Y-159793502D01*
X126650586Y-159746503D01*
X126699469Y-159699497D01*
X126748475Y-159652484D01*
X126797604Y-159605464D01*
X126846856Y-159558438D01*
X126896230Y-159511404D01*
X126945728Y-159464363D01*
X126995350Y-159417315D01*
X127045095Y-159370260D01*
X127094964Y-159323199D01*
X127144957Y-159276130D01*
X127195074Y-159229054D01*
X127245316Y-159181971D01*
X127295681Y-159134882D01*
X127346172Y-159087785D01*
X127396787Y-159040681D01*
X127447527Y-158993571D01*
X127498392Y-158946453D01*
X127549382Y-158899328D01*
X127600498Y-158852197D01*
X127651739Y-158805058D01*
X127703106Y-158757913D01*
X127754599Y-158710760D01*
X127806218Y-158663601D01*
X127857963Y-158616434D01*
X127909835Y-158569261D01*
X127961833Y-158522080D01*
X128013957Y-158474893D01*
X128066209Y-158427699D01*
X128118588Y-158380497D01*
X128171093Y-158333289D01*
X128223727Y-158286074D01*
X128276487Y-158238852D01*
X128329376Y-158191623D01*
X128382392Y-158144387D01*
X128435536Y-158097144D01*
X128488808Y-158049894D01*
X128542209Y-158002638D01*
X128595738Y-157955374D01*
X128649396Y-157908104D01*
X128703183Y-157860826D01*
X128757099Y-157813542D01*
X128811143Y-157766251D01*
X128865318Y-157718953D01*
X128919621Y-157671648D01*
X128974055Y-157624336D01*
X129028618Y-157577017D01*
X129083311Y-157529692D01*
X129138134Y-157482359D01*
X129193088Y-157435020D01*
X129248172Y-157387674D01*
X129303387Y-157340321D01*
X129358732Y-157292961D01*
X129414209Y-157245595D01*
X129469817Y-157198221D01*
X129525556Y-157150841D01*
X129581426Y-157103454D01*
X129637428Y-157056061D01*
X129693562Y-157008660D01*
X129749828Y-156961253D01*
X129806226Y-156913839D01*
X129862757Y-156866418D01*
X129919420Y-156818991D01*
X129976215Y-156771557D01*
X130033144Y-156724116D01*
X130090205Y-156676668D01*
X130147399Y-156629214D01*
X130204727Y-156581753D01*
X130262189Y-156534285D01*
X130319784Y-156486811D01*
X130377512Y-156439330D01*
X130435375Y-156391842D01*
X130493372Y-156344348D01*
X130551503Y-156296847D01*
X130609769Y-156249339D01*
X130668170Y-156201825D01*
X130726705Y-156154304D01*
X130785375Y-156106777D01*
X130844181Y-156059243D01*
X130903122Y-156011703D01*
X130962198Y-155964156D01*
X131021410Y-155916602D01*
X131080758Y-155869042D01*
X131140242Y-155821476D01*
X131199862Y-155773903D01*
X131259618Y-155726323D01*
X131319511Y-155678737D01*
X131379541Y-155631145D01*
X131439707Y-155583546D01*
X131500011Y-155535941D01*
X131560451Y-155488329D01*
X131621029Y-155440711D01*
X131681745Y-155393086D01*
X131742598Y-155345456D01*
X131803590Y-155297818D01*
X131864719Y-155250175D01*
X131925986Y-155202525D01*
X131987392Y-155154869D01*
X132048937Y-155107206D01*
X132110620Y-155059538D01*
X132172442Y-155011863D01*
X132234403Y-154964181D01*
X132296503Y-154916494D01*
X132358743Y-154868800D01*
X132421123Y-154821100D01*
X132483642Y-154773394D01*
X132546301Y-154725682D01*
X132609100Y-154677964D01*
X132672039Y-154630239D01*
X132735119Y-154582509D01*
X132798340Y-154534772D01*
X132861701Y-154487029D01*
X132925203Y-154439281D01*
X132988846Y-154391526D01*
X133052631Y-154343765D01*
X133116557Y-154295998D01*
X133180624Y-154248225D01*
X133244834Y-154200446D01*
X133309185Y-154152661D01*
X133373679Y-154104871D01*
X133438315Y-154057074D01*
X133503093Y-154009272D01*
X133568014Y-153961463D01*
X133633078Y-153913649D01*
X133698285Y-153865829D01*
X133763635Y-153818003D01*
X133829128Y-153770171D01*
X133894765Y-153722334D01*
X133960545Y-153674491D01*
X134026470Y-153626642D01*
X134092538Y-153578787D01*
X134158751Y-153530927D01*
X134225108Y-153483061D01*
X134291609Y-153435190D01*
X134358255Y-153387312D01*
X134425046Y-153339430D01*
X134491982Y-153291541D01*
X134559064Y-153243647D01*
X134626290Y-153195748D01*
X134693663Y-153147843D01*
X134761181Y-153099932D01*
X134828844Y-153052016D01*
X134896654Y-153004095D01*
X134964611Y-152956168D01*
X135032713Y-152908236D01*
X135100962Y-152860298D01*
X135169358Y-152812356D01*
X135237901Y-152764407D01*
X135306591Y-152716454D01*
X135375429Y-152668495D01*
X135444413Y-152620531D01*
X135513546Y-152572562D01*
X135582826Y-152524587D01*
X135652254Y-152476608D01*
X135721830Y-152428623D01*
X135791554Y-152380633D01*
X135861427Y-152332638D01*
X135931449Y-152284638D01*
X136001619Y-152236633D01*
X136071939Y-152188623D01*
X136142407Y-152140608D01*
X136213025Y-152092587D01*
X136283792Y-152044562D01*
X136354709Y-151996533D01*
X136425776Y-151948498D01*
X136496993Y-151900458D01*
X136568360Y-151852414D01*
X136639877Y-151804364D01*
X136711545Y-151756310D01*
X136783364Y-151708251D01*
X136855333Y-151660188D01*
X136927454Y-151612120D01*
X136999725Y-151564047D01*
X137072148Y-151515969D01*
X137144723Y-151467887D01*
X137217449Y-151419801D01*
X137290327Y-151371709D01*
X137363357Y-151323614D01*
X137436539Y-151275513D01*
X137509874Y-151227409D01*
X137583361Y-151179300D01*
X137657001Y-151131186D01*
X137730794Y-151083068D01*
X137804740Y-151034946D01*
X137878839Y-150986820D01*
X137953092Y-150938689D01*
X138027498Y-150890554D01*
X138102058Y-150842415D01*
X138176772Y-150794272D01*
X138251640Y-150746124D01*
X138326662Y-150697973D01*
X138401838Y-150649817D01*
X138477169Y-150601657D01*
X138552655Y-150553494D01*
X138628296Y-150505326D01*
X138704092Y-150457154D01*
X138780043Y-150408979D01*
X138856149Y-150360799D01*
X138932411Y-150312616D01*
X139008829Y-150264429D01*
X139085403Y-150216238D01*
X139162133Y-150168044D01*
X139239019Y-150119846D01*
X139316061Y-150071644D01*
X139393260Y-150023438D01*
X139470616Y-149975229D01*
X139548129Y-149927016D01*
X139625799Y-149878800D01*
X139703626Y-149830580D01*
X139781611Y-149782357D01*
X139859753Y-149734130D01*
X139938053Y-149685900D01*
X140016511Y-149637667D01*
X140095127Y-149589430D01*
X140173901Y-149541190D01*
X140252834Y-149492947D01*
X140331925Y-149444700D01*
X140411175Y-149396451D01*
X140490584Y-149348198D01*
X140570152Y-149299942D01*
X140649879Y-149251683D01*
X140729766Y-149203422D01*
X140809812Y-149155157D01*
X140890018Y-149106889D01*
X140970384Y-149058618D01*
X141050910Y-149010345D01*
X141131596Y-148962069D01*
X141212442Y-148913789D01*
X141293449Y-148865508D01*
X141374617Y-148817223D01*
X141455946Y-148768936D01*
X141537436Y-148720646D01*
X141619087Y-148672354D01*
X141700899Y-148624059D01*
X141782873Y-148575761D01*
X141865009Y-148527462D01*
X141947306Y-148479159D01*
X142029766Y-148430855D01*
X142112388Y-148382548D01*
X142195172Y-148334238D01*
X142278118Y-148285927D01*
X142361227Y-148237613D01*
X142444499Y-148189297D01*
X142527934Y-148140980D01*
X142611533Y-148092660D01*
X142695294Y-148044337D01*
X142779219Y-147996013D01*
X142863308Y-147947687D01*
X142947560Y-147899360D01*
X143031976Y-147851030D01*
X143116557Y-147802698D01*
X143201302Y-147754365D01*
X143286211Y-147706030D01*
X143371284Y-147657693D01*
X143456523Y-147609355D01*
X143541926Y-147561015D01*
X143627495Y-147512674D01*
X143713228Y-147464331D01*
X143799127Y-147415987D01*
X143885192Y-147367641D01*
X143971422Y-147319294D01*
X144057818Y-147270945D01*
X144144380Y-147222596D01*
X144231108Y-147174245D01*
X144318003Y-147125893D01*
X144405064Y-147077540D01*
X144492291Y-147029186D01*
X144579685Y-146980830D01*
X144667247Y-146932474D01*
X144754975Y-146884117D01*
X144842870Y-146835759D01*
X144930933Y-146787400D01*
X145019164Y-146739041D01*
X145107562Y-146690681D01*
X145196128Y-146642320D01*
X145284862Y-146593958D01*
X145373764Y-146545596D01*
X145462835Y-146497234D01*
X145552073Y-146448870D01*
X145641481Y-146400507D01*
X145731057Y-146352143D01*
X145820802Y-146303779D01*
X145910716Y-146255414D01*
X146000800Y-146207050D01*
X146091052Y-146158685D01*
X146181474Y-146110320D01*
X146272066Y-146061955D01*
X146362828Y-146013590D01*
X146453759Y-145965225D01*
X146544861Y-145916860D01*
X146636133Y-145868496D01*
X146727575Y-145820131D01*
X146819188Y-145771767D01*
X146910971Y-145723403D01*
X147002925Y-145675040D01*
X147095050Y-145626677D01*
X147187347Y-145578315D01*
X147279814Y-145529953D01*
X147372453Y-145481591D01*
X147465263Y-145433231D01*
X147558245Y-145384871D01*
X147651399Y-145336511D01*
X147744725Y-145288153D01*
X147838223Y-145239795D01*
X147931893Y-145191439D01*
X148025736Y-145143083D01*
X148119751Y-145094729D01*
X148213939Y-145046376D01*
X148308299Y-144998023D01*
X148402833Y-144949672D01*
X148497539Y-144901323D01*
X148592419Y-144852974D01*
X148687472Y-144804627D01*
X148782698Y-144756282D01*
X148878099Y-144707938D01*
X148973673Y-144659596D01*
X149069420Y-144611255D01*
X149165342Y-144562916D01*
X149261438Y-144514579D01*
X149357709Y-144466244D01*
X149454153Y-144417910D01*
X149550773Y-144369579D01*
X149647567Y-144321249D01*
X149744536Y-144272922D01*
X149841679Y-144224597D01*
X149938998Y-144176274D01*
X150036492Y-144127953D01*
X150134162Y-144079634D01*
X150232007Y-144031318D01*
X150330027Y-143983005D01*
X150428223Y-143934694D01*
X150526595Y-143886385D01*
X150625144Y-143838080D01*
X150723868Y-143789776D01*
X150822768Y-143741476D01*
X150921845Y-143693179D01*
X151021098Y-143644884D01*
X151120528Y-143596593D01*
X151220135Y-143548304D01*
X151319918Y-143500019D01*
X151419879Y-143451737D01*
X151520016Y-143403458D01*
X151620331Y-143355182D01*
X151720823Y-143306910D01*
X151821493Y-143258641D01*
X151922340Y-143210376D01*
X152023365Y-143162115D01*
X152124568Y-143113857D01*
X152225948Y-143065602D01*
X152327507Y-143017352D01*
X152429244Y-142969105D01*
X152531159Y-142920863D01*
X152633252Y-142872624D01*
X152735524Y-142824390D01*
X152837975Y-142776160D01*
X152940604Y-142727933D01*
X153043413Y-142679712D01*
X153146400Y-142631494D01*
X153249566Y-142583281D01*
X153352911Y-142535073D01*
X153456436Y-142486869D01*
X153560140Y-142438670D01*
X153664024Y-142390475D01*
X153768087Y-142342286D01*
X153872330Y-142294101D01*
X153976752Y-142245921D01*
X154081355Y-142197747D01*
X154186138Y-142149577D01*
X154291100Y-142101413D01*
X154396243Y-142053253D01*
X154501567Y-142005100D01*
X154607070Y-141956951D01*
X154712755Y-141908808D01*
X154818619Y-141860671D01*
X154924665Y-141812539D01*
X155030891Y-141764414D01*
X155137299Y-141716294D01*
X155243887Y-141668179D01*
X155350656Y-141620071D01*
X155457607Y-141571969D01*
X155564739Y-141523873D01*
X155672052Y-141475783D01*
X155779547Y-141427699D01*
X155887223Y-141379622D01*
X155995081Y-141331552D01*
X156103121Y-141283487D01*
X156211342Y-141235430D01*
X156319746Y-141187379D01*
X156428331Y-141139335D01*
X156537098Y-141091298D01*
X156646048Y-141043267D01*
X156755180Y-140995244D01*
X156864494Y-140947228D01*
X156973991Y-140899219D01*
X157083670Y-140851217D01*
X157193531Y-140803223D01*
X157303575Y-140755236D01*
X157413802Y-140707257D01*
X157524212Y-140659286D01*
X157634805Y-140611322D01*
X157745580Y-140563366D01*
X157856538Y-140515417D01*
X157967680Y-140467477D01*
X158079005Y-140419545D01*
X158190513Y-140371621D01*
X158302204Y-140323705D01*
X158414078Y-140275798D01*
X158526136Y-140227899D01*
X158638378Y-140180008D01*
X158750803Y-140132127D01*
X158863411Y-140084253D01*
X158976203Y-140036389D01*
X159089179Y-139988534D01*
X159202339Y-139940687D01*
X159315682Y-139892850D01*
X159429210Y-139845021D01*
X159542921Y-139797202D01*
X159656816Y-139749393D01*
X159770896Y-139701593D01*
X159885159Y-139653802D01*
X159999607Y-139606021D01*
X160114238Y-139558250D01*
X160229054Y-139510488D01*
X160344055Y-139462737D01*
X160459239Y-139414995D01*
X160574608Y-139367264D01*
X160690162Y-139319542D01*
X160805900Y-139271832D01*
X160921822Y-139224131D01*
X161037929Y-139176441D01*
X161154220Y-139128762D01*
X161270696Y-139081093D01*
X161387357Y-139033435D01*
X161504202Y-138985789D01*
X161621232Y-138938153D01*
X161738447Y-138890528D01*
X161855846Y-138842914D01*
X161973430Y-138795312D01*
X162091199Y-138747722D01*
X162209153Y-138700142D01*
X162327292Y-138652575D01*
X162445615Y-138605019D01*
X162564124Y-138557475D01*
X162682817Y-138509943D01*
X162801695Y-138462423D01*
X162920758Y-138414915D01*
X163040006Y-138367419D01*
X163159439Y-138319936D01*
X163279057Y-138272466D01*
X163398860Y-138225007D01*
X163518848Y-138177562D01*
X163639021Y-138130130D01*
X163759379Y-138082710D01*
X163879921Y-138035303D01*
X164000649Y-137987910D01*
X164121562Y-137940530D01*
X164242659Y-137893163D01*
X164363942Y-137845810D01*
X164485409Y-137798470D01*
X164607062Y-137751144D01*
X164728899Y-137703832D01*
X164850921Y-137656534D01*
X164973128Y-137609250D01*
X165095520Y-137561980D01*
X165218097Y-137514724D01*
X165340859Y-137467483D01*
X165463805Y-137420256D01*
X165586936Y-137373044D01*
X165710252Y-137325847D01*
X165833753Y-137278664D01*
X165957438Y-137231497D01*
X166081308Y-137184345D01*
X166205363Y-137137208D01*
X166329602Y-137090086D01*
X166454026Y-137042980D01*
X166578634Y-136995889D01*
X166703426Y-136948814D01*
X166828403Y-136901756D01*
X166953565Y-136854713D01*
X167078910Y-136807686D01*
X167204440Y-136760675D01*
X167330154Y-136713681D01*
X167456052Y-136666703D01*
X167582134Y-136619742D01*
X167708401Y-136572798D01*
X167834851Y-136525871D01*
X167961485Y-136478960D01*
X168088303Y-136432067D01*
X168215304Y-136385191D01*
X168342489Y-136338332D01*
X168469858Y-136291491D01*
X168597410Y-136244668D01*
X168725146Y-136197862D01*
X168853065Y-136151075D01*
X168981167Y-136104305D01*
X169109452Y-136057554D01*
X169237921Y-136010821D01*
X169366572Y-135964107D01*
X169495406Y-135917411D01*
X169624423Y-135870734D01*
X169753623Y-135824076D01*
X169883005Y-135777436D01*
X170012570Y-135730817D01*
X170142317Y-135684216D01*
X170272246Y-135637635D01*
X170402357Y-135591073D01*
X170532650Y-135544532D01*
X170663125Y-135498010D01*
X170793782Y-135451508D01*
X170924621Y-135405026D01*
X171055640Y-135358565D01*
X171186841Y-135312124D01*
X171318224Y-135265704D01*
X171449787Y-135219305D01*
X171581532Y-135172927D01*
X171713457Y-135126569D01*
X171845562Y-135080233D01*
X171977848Y-135033919D01*
X172110315Y-134987625D01*
X172242961Y-134941354D01*
X172375788Y-134895104D01*
X172508794Y-134848877D01*
X172641980Y-134802672D01*
X172775345Y-134756489D01*
X172908890Y-134710328D01*
X173042613Y-134664190D01*
X173176516Y-134618075D01*
X173310597Y-134571983D01*
X173444857Y-134525914D01*
X173579295Y-134479868D01*
X173713911Y-134433846D01*
X173848705Y-134387847D01*
X173983677Y-134341872D01*
X174118827Y-134295922D01*
X174254153Y-134249995D01*
X174389657Y-134204092D01*
X174525338Y-134158214D01*
X174661195Y-134112361D01*
X174797228Y-134066532D01*
X174933438Y-134020729D01*
X175069824Y-133974950D01*
X175206385Y-133929197D01*
X175343122Y-133883469D01*
X175480034Y-133837767D01*
X175617120Y-133792091D01*
X175754382Y-133746441D01*
X175891818Y-133700817D01*
X176029428Y-133655220D01*
X176167211Y-133609649D01*
X176305169Y-133564105D01*
X176443299Y-133518587D01*
X176581603Y-133473097D01*
X176720079Y-133427635D01*
X176858728Y-133382199D01*
X176997548Y-133336792D01*
X177136541Y-133291412D01*
X177275705Y-133246060D01*
X177415040Y-133200737D01*
X177554546Y-133155442D01*
X177694222Y-133110175D01*
X177834069Y-133064938D01*
X177974086Y-133019729D01*
X178114272Y-132974550D01*
X178254627Y-132929400D01*
X178395150Y-132884280D01*
X178535843Y-132839190D01*
X178676703Y-132794129D01*
X178817731Y-132749099D01*
X178958927Y-132704099D01*
X179100289Y-132659130D01*
X179241818Y-132614192D01*
X179383513Y-132569285D01*
X179525373Y-132524409D01*
X179667399Y-132479565D01*
X179809590Y-132434752D01*
X179951946Y-132389972D01*
X180094465Y-132345223D01*
X180237148Y-132300507D01*
X180379995Y-132255823D01*
X180523004Y-132211172D01*
X180666175Y-132166554D01*
X180809509Y-132121969D01*
X180953003Y-132077418D01*
X181096659Y-132032901D01*
X181240475Y-131988417D01*
X181384451Y-131943968D01*
X181528587Y-131899552D01*
X181672881Y-131855172D01*
X181817334Y-131810826D01*
X181961945Y-131766515D01*
X182106713Y-131722240D01*
X182251638Y-131678000D01*
X182396720Y-131633796D01*
X182541957Y-131589628D01*
X182687350Y-131545497D01*
X182832897Y-131501401D01*
X182978598Y-131457343D01*
X183124453Y-131413322D01*
X183270461Y-131369337D01*
X183416622Y-131325391D01*
X183562934Y-131281482D01*
X183709397Y-131237611D01*
X183856011Y-131193778D01*
X184002774Y-131149984D01*
X184149687Y-131106229D01*
X184296749Y-131062513D01*
X184443959Y-131018836D01*
X184591315Y-130975199D01*
X184738819Y-130931601D01*
X184886468Y-130888044D01*
X185034263Y-130844527D01*
X185182202Y-130801051D01*
X185330286Y-130757616D01*
X185478512Y-130714222D01*
X185626880Y-130670869D01*
X185775391Y-130627559D01*
X185924042Y-130584290D01*
X186072833Y-130541064D01*
X186221764Y-130497881D01*
X186370833Y-130454740D01*
X186520040Y-130411643D01*
X186669384Y-130368589D01*
X186818864Y-130325579D01*
X186968479Y-130282613D01*
X187118229Y-130239692D01*
X187268112Y-130196816D01*
X187418128Y-130153984D01*
X187568276Y-130111198D01*
X187718555Y-130068458D01*
X187868964Y-130025764D01*
X188019502Y-129983116D01*
X188170168Y-129940515D01*
X188320962Y-129897960D01*
X188471882Y-129855453D01*
X188622927Y-129812994D01*
X188774096Y-129770583D01*
X188925389Y-129728220D01*
X189076804Y-129685905D01*
X189228340Y-129643640D01*
X189379997Y-129601424D01*
X189531773Y-129559258D01*
X189683666Y-129517142D01*
X189835677Y-129475076D01*
X189987804Y-129433061D01*
X190140046Y-129391097D01*
X190292401Y-129349184D01*
X190444869Y-129307323D01*
X190597448Y-129265515D01*
X190750137Y-129223759D01*
X190902935Y-129182056D01*
X191055840Y-129140406D01*
X191208853Y-129098811D01*
X191361970Y-129057269D01*
X191515191Y-129015782D01*
X191668515Y-128974349D01*
X191821941Y-128932972D01*
X191975466Y-128891651D01*
X192129090Y-128850386D01*
X192282811Y-128809177D01*
X192436628Y-128768025D01*
X192590539Y-128726931D01*
X192744543Y-128685894D01*
X192898639Y-128644916D01*
X193052825Y-128603996D01*
X193207099Y-128563135D01*
X193361461Y-128522334D01*
X193515908Y-128481592D01*
X193670438Y-128440911D01*
X193825051Y-128400291D01*
X193979745Y-128359733D01*
X194134518Y-128319236D01*
X194289368Y-128278801D01*
X194444294Y-128238429D01*
X194599293Y-128198120D01*
X194754365Y-128157875D01*
X194909508Y-128117694D01*
X195064718Y-128077577D01*
X195219996Y-128037526D01*
X195375338Y-127997540D01*
X195530744Y-127957621D01*
X195686210Y-127917768D01*
X195841736Y-127877983D01*
X195997319Y-127838265D01*
X196152957Y-127798615D01*
X196308648Y-127759034D01*
X196464390Y-127719523D01*
X196620181Y-127680081D01*
X196776018Y-127640710D01*
X196931900Y-127601410D01*
X197087825Y-127562181D01*
X197243789Y-127523025D01*
X197399791Y-127483941D01*
X197555829Y-127444931D01*
X197711900Y-127405995D01*
X197868001Y-127367133D01*
X198024131Y-127328346D01*
X198180286Y-127289635D01*
X198336464Y-127251001D01*
X198492663Y-127212444D01*
X198648880Y-127173964D01*
X198805112Y-127135562D01*
X198961357Y-127097240D01*
X199117612Y-127058997D01*
X199273873Y-127020835D01*
X199430139Y-126982754D01*
X199586406Y-126944754D01*
X199742671Y-126906837D01*
X199898931Y-126869003D01*
X200055183Y-126831253D01*
X200211425Y-126793588D01*
X200367652Y-126756008D01*
X200523862Y-126718515D01*
X200680051Y-126681108D01*
X200836216Y-126643789D01*
X200992353Y-126606558D01*
X201148460Y-126569417D01*
X201304531Y-126532366D01*
X201460565Y-126495406D01*
X201616557Y-126458537D01*
X201772502Y-126421762D01*
X201928399Y-126385080D01*
X202084242Y-126348492D01*
X202240027Y-126312000D01*
X202395751Y-126275604D01*
X202551409Y-126239305D01*
X202706998Y-126203104D01*
X202862512Y-126167002D01*
X203017947Y-126131000D01*
X203173299Y-126095099D01*
X203328563Y-126059301D01*
X203483735Y-126023605D01*
X203638809Y-125988013D01*
X203793781Y-125952527D01*
X203948646Y-125917147D01*
X204103398Y-125881874D01*
X204258033Y-125846710D01*
X204412545Y-125811655D01*
X204566928Y-125776711D01*
X204721178Y-125741879D01*
X204875287Y-125707160D01*
X205029251Y-125672555D01*
X205183064Y-125638066D01*
X205336718Y-125603694D01*
X205490209Y-125569440D01*
X205643529Y-125535306D01*
X205796673Y-125501293D01*
X205949632Y-125467402D01*
X206102401Y-125433634D01*
X206254972Y-125399992D01*
X206407338Y-125366477D01*
X206559492Y-125333089D01*
X206711425Y-125299832D01*
X206863131Y-125266705D01*
X207014600Y-125233712D01*
X207165826Y-125200853D01*
X207316798Y-125168130D01*
X207467509Y-125135545D01*
X207617950Y-125103100D01*
X207768111Y-125070797D01*
X207917984Y-125038637D01*
X208067557Y-125006622D01*
X208216821Y-124974755D01*
X208365767Y-124943037D01*
X208514382Y-124911471D01*
X208662657Y-124880058D01*
X208810579Y-124848801D01*
X208958138Y-124817702D01*
X209105321Y-124786763D01*
X209252116Y-124755987D01*
X209398509Y-124725375D01*
X209544489Y-124694932D01*
X209690040Y-124664659D01*
X209835149Y-124634559D01*
X209979801Y-124604635D01*
X210123981Y-124574889D01*
X210267672Y-124545325D01*
X210410860Y-124515945D01*
X210553526Y-124486754D01*
X210695653Y-124457753D01*
X210837222Y-124428947D01*
X210978215Y-124400339D01*
X211118612Y-124371933D01*
X211258392Y-124343733D01*
X211397532Y-124315742D01*
X211536012Y-124287965D01*
X211673806Y-124260405D01*
X211810891Y-124233069D01*
X211947240Y-124205959D01*
X212082827Y-124179082D01*
X212217622Y-124152442D01*
X212351596Y-124126045D01*
X212484718Y-124099896D01*
X212616953Y-124074001D01*
X212748268Y-124048367D01*
X212878624Y-124023000D01*
X213007983Y-123997908D01*
X213136302Y-123973097D01*
X213263538Y-123948576D01*
X213389642Y-123924353D01*
X213514564Y-123900437D01*
X213638249Y-123876838D01*
X213760640Y-123853565D01*
X213881672Y-123830630D01*
X214001279Y-123808045D01*
X214119387Y-123785823D01*
X214235914Y-123763977D01*
X214350772Y-123742523D01*
X214463865Y-123721478D01*
X214575086Y-123700861D01*
X214684315Y-123680691D01*
X214791418Y-123660993D01*
X214896245Y-123641791D01*
X214998624Y-123623116D01*
X215098356Y-123605002D01*
X215195210Y-123587488D01*
X215288913Y-123570620D01*
X215379134Y-123554456D01*
X215465467Y-123539064D01*
X215547393Y-123524532D01*
X215624232Y-123510977D01*
X215695034Y-123498558D01*
X215758374Y-123487516D01*
X215811834Y-123478261D01*
X215850240Y-123471664D01*
X215860000Y-123470000D01*
D10*
X116950000Y-58800000D02*
G75*
G02*
X115490000Y-60260000I-1460000J0D01*
G01*
D11*
X91280000Y-129110000D02*
X91295012Y-129152382D01*
X91310033Y-129194730D01*
X91325067Y-129237054D01*
X91340110Y-129279344D01*
X91355166Y-129321611D01*
X91370230Y-129363843D01*
X91385308Y-129406052D01*
X91400395Y-129448227D01*
X91415494Y-129490378D01*
X91430603Y-129532495D01*
X91445724Y-129574588D01*
X91460854Y-129616648D01*
X91475997Y-129658683D01*
X91491150Y-129700685D01*
X91506314Y-129742663D01*
X91521488Y-129784608D01*
X91536675Y-129826528D01*
X91551870Y-129868415D01*
X91567078Y-129910278D01*
X91582296Y-129952108D01*
X91597525Y-129993913D01*
X91612764Y-130035685D01*
X91628016Y-130077434D01*
X91643276Y-130119148D01*
X91658549Y-130160839D01*
X91673831Y-130202496D01*
X91689126Y-130244130D01*
X91704430Y-130285730D01*
X91719746Y-130327306D01*
X91735071Y-130368849D01*
X91750409Y-130410368D01*
X91765755Y-130451853D01*
X91781114Y-130493315D01*
X91796482Y-130534743D01*
X91811863Y-130576148D01*
X91827253Y-130617519D01*
X91842655Y-130658867D01*
X91858065Y-130700181D01*
X91873489Y-130741471D01*
X91888921Y-130782728D01*
X91904366Y-130823962D01*
X91919820Y-130865162D01*
X91935286Y-130906338D01*
X91950761Y-130947481D01*
X91966248Y-130988601D01*
X91981744Y-131029687D01*
X91997253Y-131070749D01*
X92012770Y-131111778D01*
X92028300Y-131152784D01*
X92043839Y-131193756D01*
X92059390Y-131234705D01*
X92074950Y-131275620D01*
X92090522Y-131316512D01*
X92106103Y-131357371D01*
X92121697Y-131398206D01*
X92137299Y-131439008D01*
X92152914Y-131479787D01*
X92168537Y-131520532D01*
X92184173Y-131561254D01*
X92199817Y-131601942D01*
X92215474Y-131642607D01*
X92231139Y-131683239D01*
X92246817Y-131723848D01*
X92262503Y-131764423D01*
X92278202Y-131804975D01*
X92293910Y-131845494D01*
X92309629Y-131885989D01*
X92325358Y-131926451D01*
X92341099Y-131966890D01*
X92356848Y-132007296D01*
X92372609Y-132047679D01*
X92388380Y-132088028D01*
X92404162Y-132128354D01*
X92419953Y-132168647D01*
X92435757Y-132208917D01*
X92451568Y-132249153D01*
X92467393Y-132289367D01*
X92483225Y-132329547D01*
X92499071Y-132369704D01*
X92514924Y-132409828D01*
X92530790Y-132449929D01*
X92546664Y-132489996D01*
X92562551Y-132530041D01*
X92578446Y-132570053D01*
X92594353Y-132610041D01*
X92610268Y-132649996D01*
X92626196Y-132689929D01*
X92642133Y-132729828D01*
X92658081Y-132769704D01*
X92674038Y-132809547D01*
X92690008Y-132849368D01*
X92705985Y-132889155D01*
X92721975Y-132928919D01*
X92737973Y-132968650D01*
X92753984Y-133008358D01*
X92770002Y-133048033D01*
X92786033Y-133087685D01*
X92802072Y-133127304D01*
X92818124Y-133166901D01*
X92834184Y-133206464D01*
X92850256Y-133246005D01*
X92866336Y-133285512D01*
X92882428Y-133324997D01*
X92898529Y-133364448D01*
X92914642Y-133403877D01*
X92930762Y-133443273D01*
X92946896Y-133482646D01*
X92963037Y-133521986D01*
X92979191Y-133561304D01*
X92995352Y-133600588D01*
X93011526Y-133639850D01*
X93027708Y-133679078D01*
X93043903Y-133718285D01*
X93060105Y-133757458D01*
X93076320Y-133796608D01*
X93092542Y-133835726D01*
X93108777Y-133874821D01*
X93125020Y-133913882D01*
X93141275Y-133952922D01*
X93157538Y-133991928D01*
X93173813Y-134030912D01*
X93190096Y-134069863D01*
X93206391Y-134108792D01*
X93222695Y-134147687D01*
X93239010Y-134186561D01*
X93255334Y-134225401D01*
X93271669Y-134264218D01*
X93288013Y-134303003D01*
X93304369Y-134341766D01*
X93320732Y-134380495D01*
X93337108Y-134419202D01*
X93353491Y-134457876D01*
X93369887Y-134496528D01*
X93386291Y-134535147D01*
X93402707Y-134573744D01*
X93419130Y-134612308D01*
X93435566Y-134650849D01*
X93452010Y-134689358D01*
X93468465Y-134727844D01*
X93484929Y-134766297D01*
X93501404Y-134804729D01*
X93517888Y-134843127D01*
X93534383Y-134881503D01*
X93550886Y-134919847D01*
X93567402Y-134958168D01*
X93583925Y-134996456D01*
X93600460Y-135034722D01*
X93617003Y-135072955D01*
X93633558Y-135111167D01*
X93650120Y-135149345D01*
X93666695Y-135187501D01*
X93683277Y-135225625D01*
X93699872Y-135263726D01*
X93716474Y-135301795D01*
X93733088Y-135339841D01*
X93749710Y-135377855D01*
X93766344Y-135415847D01*
X93782985Y-135453806D01*
X93799639Y-135491743D01*
X93816300Y-135529647D01*
X93832973Y-135567530D01*
X93849653Y-135605379D01*
X93866346Y-135643207D01*
X93883046Y-135681001D01*
X93899759Y-135718774D01*
X93916479Y-135756515D01*
X93933210Y-135794233D01*
X93949950Y-135831918D01*
X93966701Y-135869582D01*
X93983460Y-135907213D01*
X94000231Y-135944823D01*
X94017009Y-135982399D01*
X94033799Y-136019954D01*
X94050597Y-136057476D01*
X94067407Y-136094976D01*
X94084224Y-136132443D01*
X94101053Y-136169889D01*
X94117890Y-136207302D01*
X94134738Y-136244694D01*
X94151594Y-136282052D01*
X94168462Y-136319390D01*
X94185337Y-136356694D01*
X94202224Y-136393977D01*
X94219119Y-136431227D01*
X94236025Y-136468455D01*
X94252939Y-136505651D01*
X94269865Y-136542825D01*
X94286798Y-136579967D01*
X94303743Y-136617087D01*
X94320695Y-136654174D01*
X94337659Y-136691240D01*
X94354630Y-136728273D01*
X94371614Y-136765285D01*
X94388604Y-136802264D01*
X94405607Y-136839222D01*
X94422616Y-136876147D01*
X94439638Y-136913050D01*
X94456667Y-136949921D01*
X94473708Y-136986771D01*
X94490755Y-137023587D01*
X94507815Y-137060383D01*
X94524882Y-137097146D01*
X94541961Y-137133888D01*
X94559047Y-137170596D01*
X94576145Y-137207284D01*
X94593249Y-137243939D01*
X94610366Y-137280573D01*
X94627490Y-137317174D01*
X94644626Y-137353754D01*
X94661769Y-137390301D01*
X94678924Y-137426828D01*
X94696085Y-137463321D01*
X94713259Y-137499794D01*
X94730439Y-137536233D01*
X94747632Y-137572652D01*
X94764831Y-137609038D01*
X94782043Y-137645403D01*
X94799261Y-137681735D01*
X94816491Y-137718046D01*
X94833728Y-137754325D01*
X94850977Y-137790583D01*
X94868233Y-137826808D01*
X94885501Y-137863012D01*
X94902775Y-137899183D01*
X94920062Y-137935334D01*
X94937355Y-137971452D01*
X94954660Y-138007549D01*
X94971972Y-138043613D01*
X94989296Y-138079657D01*
X95006627Y-138115668D01*
X95023969Y-138151658D01*
X95041318Y-138187615D01*
X95076048Y-138259456D01*
X95110814Y-138331190D01*
X95145617Y-138402817D01*
X95180457Y-138474338D01*
X95215335Y-138545752D01*
X95250249Y-138617059D01*
X95285200Y-138688261D01*
X95320188Y-138759356D01*
X95355213Y-138830344D01*
X95390275Y-138901227D01*
X95425373Y-138972003D01*
X95460508Y-139042673D01*
X95495680Y-139113238D01*
X95530888Y-139183696D01*
X95566132Y-139254049D01*
X95601413Y-139324296D01*
X95636731Y-139394437D01*
X95672084Y-139464472D01*
X95707474Y-139534402D01*
X95742900Y-139604227D01*
X95778362Y-139673946D01*
X95813861Y-139743559D01*
X95849395Y-139813068D01*
X95884965Y-139882471D01*
X95920572Y-139951769D01*
X95956214Y-140020962D01*
X95991892Y-140090050D01*
X96027605Y-140159033D01*
X96063355Y-140227911D01*
X96099140Y-140296684D01*
X96134961Y-140365353D01*
X96170817Y-140433916D01*
X96206708Y-140502376D01*
X96242636Y-140570730D01*
X96278598Y-140638981D01*
X96314596Y-140707127D01*
X96350629Y-140775168D01*
X96386698Y-140843105D01*
X96422801Y-140910938D01*
X96458940Y-140978667D01*
X96495114Y-141046292D01*
X96531323Y-141113813D01*
X96567566Y-141181230D01*
X96603845Y-141248543D01*
X96640158Y-141315752D01*
X96676507Y-141382858D01*
X96712890Y-141449860D01*
X96749308Y-141516758D01*
X96785760Y-141583553D01*
X96822247Y-141650244D01*
X96858769Y-141716832D01*
X96895325Y-141783316D01*
X96931915Y-141849697D01*
X96968540Y-141915975D01*
X97005199Y-141982150D01*
X97041892Y-142048222D01*
X97078620Y-142114191D01*
X97115382Y-142180056D01*
X97152178Y-142245819D01*
X97189008Y-142311479D01*
X97225872Y-142377037D01*
X97262769Y-142442491D01*
X97299701Y-142507843D01*
X97336667Y-142573093D01*
X97373666Y-142638240D01*
X97410700Y-142703284D01*
X97447766Y-142768226D01*
X97484867Y-142833066D01*
X97522001Y-142897804D01*
X97559169Y-142962439D01*
X97596370Y-143026972D01*
X97633604Y-143091403D01*
X97670872Y-143155733D01*
X97708173Y-143219960D01*
X97745508Y-143284085D01*
X97782875Y-143348109D01*
X97820276Y-143412030D01*
X97857710Y-143475851D01*
X97895177Y-143539569D01*
X97932677Y-143603186D01*
X97970210Y-143666701D01*
X98007776Y-143730115D01*
X98045375Y-143793428D01*
X98083006Y-143856639D01*
X98120670Y-143919749D01*
X98158367Y-143982758D01*
X98196097Y-144045666D01*
X98233859Y-144108472D01*
X98271654Y-144171178D01*
X98309481Y-144233783D01*
X98347340Y-144296286D01*
X98385232Y-144358689D01*
X98423156Y-144420992D01*
X98461113Y-144483193D01*
X98499102Y-144545294D01*
X98537122Y-144607294D01*
X98575175Y-144669194D01*
X98613260Y-144730993D01*
X98651378Y-144792692D01*
X98689526Y-144854290D01*
X98727707Y-144915788D01*
X98765920Y-144977186D01*
X98804165Y-145038484D01*
X98842441Y-145099681D01*
X98880749Y-145160779D01*
X98919088Y-145221776D01*
X98957459Y-145282674D01*
X98995862Y-145343472D01*
X99034296Y-145404170D01*
X99072762Y-145464768D01*
X99111259Y-145525266D01*
X99149787Y-145585665D01*
X99188347Y-145645964D01*
X99226937Y-145706163D01*
X99265559Y-145766263D01*
X99304212Y-145826264D01*
X99342896Y-145886165D01*
X99381611Y-145945967D01*
X99420357Y-146005670D01*
X99459134Y-146065273D01*
X99497942Y-146124778D01*
X99536781Y-146184183D01*
X99575650Y-146243489D01*
X99614550Y-146302696D01*
X99653480Y-146361805D01*
X99692442Y-146420814D01*
X99731433Y-146479725D01*
X99770455Y-146538536D01*
X99809508Y-146597250D01*
X99848591Y-146655864D01*
X99887704Y-146714380D01*
X99926848Y-146772797D01*
X99966022Y-146831116D01*
X100005226Y-146889336D01*
X100044460Y-146947458D01*
X100083724Y-147005482D01*
X100123018Y-147063408D01*
X100162342Y-147121235D01*
X100201696Y-147178964D01*
X100241079Y-147236595D01*
X100280493Y-147294127D01*
X100319936Y-147351562D01*
X100359409Y-147408899D01*
X100398912Y-147466138D01*
X100438444Y-147523279D01*
X100478006Y-147580322D01*
X100517597Y-147637268D01*
X100557217Y-147694116D01*
X100596867Y-147750866D01*
X100636546Y-147807519D01*
X100676255Y-147864074D01*
X100715992Y-147920531D01*
X100755759Y-147976891D01*
X100795555Y-148033154D01*
X100835380Y-148089319D01*
X100875234Y-148145387D01*
X100915117Y-148201358D01*
X100955029Y-148257232D01*
X100994969Y-148313008D01*
X101034938Y-148368688D01*
X101074936Y-148424270D01*
X101114963Y-148479755D01*
X101155018Y-148535144D01*
X101195102Y-148590435D01*
X101235215Y-148645630D01*
X101275355Y-148700728D01*
X101315525Y-148755729D01*
X101355722Y-148810633D01*
X101395948Y-148865441D01*
X101436202Y-148920152D01*
X101476484Y-148974767D01*
X101516795Y-149029285D01*
X101557133Y-149083707D01*
X101597499Y-149138032D01*
X101637894Y-149192261D01*
X101678316Y-149246393D01*
X101718766Y-149300429D01*
X101759244Y-149354369D01*
X101799750Y-149408213D01*
X101840283Y-149461961D01*
X101880844Y-149515612D01*
X101921432Y-149569168D01*
X101962048Y-149622627D01*
X102002692Y-149675991D01*
X102043363Y-149729258D01*
X102084061Y-149782430D01*
X102124787Y-149835506D01*
X102165539Y-149888486D01*
X102206319Y-149941370D01*
X102247126Y-149994159D01*
X102287960Y-150046852D01*
X102328822Y-150099449D01*
X102369710Y-150151951D01*
X102410625Y-150204358D01*
X102451567Y-150256669D01*
X102492535Y-150308884D01*
X102533531Y-150361004D01*
X102574553Y-150413029D01*
X102615601Y-150464958D01*
X102656677Y-150516792D01*
X102697778Y-150568531D01*
X102738906Y-150620175D01*
X102780061Y-150671724D01*
X102821242Y-150723177D01*
X102862449Y-150774535D01*
X102903683Y-150825799D01*
X102944942Y-150876967D01*
X102986228Y-150928041D01*
X103027539Y-150979019D01*
X103068877Y-151029903D01*
X103110241Y-151080692D01*
X103151630Y-151131386D01*
X103193046Y-151181986D01*
X103234487Y-151232490D01*
X103275954Y-151282900D01*
X103317446Y-151333216D01*
X103358964Y-151383437D01*
X103400507Y-151433563D01*
X103442076Y-151483595D01*
X103483671Y-151533532D01*
X103525291Y-151583375D01*
X103566936Y-151633123D01*
X103608606Y-151682778D01*
X103650301Y-151732337D01*
X103692022Y-151781803D01*
X103733767Y-151831174D01*
X103775538Y-151880451D01*
X103817333Y-151929634D01*
X103859154Y-151978723D01*
X103900999Y-152027718D01*
X103942869Y-152076618D01*
X103984763Y-152125425D01*
X104026683Y-152174137D01*
X104068626Y-152222756D01*
X104110595Y-152271281D01*
X104152587Y-152319711D01*
X104194605Y-152368048D01*
X104236646Y-152416291D01*
X104278712Y-152464441D01*
X104320802Y-152512496D01*
X104362916Y-152560458D01*
X104405054Y-152608326D01*
X104447216Y-152656100D01*
X104489402Y-152703781D01*
X104531612Y-152751368D01*
X104573845Y-152798862D01*
X104616103Y-152846262D01*
X104658384Y-152893569D01*
X104700689Y-152940782D01*
X104743017Y-152987901D01*
X104785369Y-153034928D01*
X104827744Y-153081861D01*
X104870143Y-153128700D01*
X104912565Y-153175446D01*
X104955010Y-153222099D01*
X104997478Y-153268659D01*
X105039970Y-153315125D01*
X105082484Y-153361499D01*
X105125022Y-153407779D01*
X105167582Y-153453965D01*
X105210166Y-153500059D01*
X105252772Y-153546060D01*
X105295400Y-153591968D01*
X105338052Y-153637782D01*
X105380726Y-153683504D01*
X105423422Y-153729132D01*
X105466141Y-153774668D01*
X105508883Y-153820111D01*
X105551646Y-153865460D01*
X105594432Y-153910717D01*
X105637240Y-153955881D01*
X105680070Y-154000952D01*
X105722923Y-154045931D01*
X105765797Y-154090817D01*
X105808693Y-154135609D01*
X105851611Y-154180310D01*
X105894550Y-154224917D01*
X105937512Y-154269432D01*
X105980495Y-154313854D01*
X106023499Y-154358183D01*
X106066525Y-154402420D01*
X106109573Y-154446564D01*
X106152641Y-154490616D01*
X106195731Y-154534575D01*
X106238842Y-154578442D01*
X106281975Y-154622216D01*
X106325128Y-154665898D01*
X106368302Y-154709487D01*
X106411497Y-154752983D01*
X106454713Y-154796388D01*
X106497950Y-154839700D01*
X106541207Y-154882919D01*
X106584485Y-154926046D01*
X106627784Y-154969081D01*
X106671103Y-155012023D01*
X106714442Y-155054874D01*
X106757802Y-155097631D01*
X106801182Y-155140297D01*
X106844582Y-155182870D01*
X106888002Y-155225351D01*
X106931442Y-155267740D01*
X106974902Y-155310037D01*
X107018381Y-155352242D01*
X107061881Y-155394354D01*
X107105400Y-155436374D01*
X107148939Y-155478302D01*
X107192497Y-155520138D01*
X107236075Y-155561882D01*
X107279672Y-155603533D01*
X107323288Y-155645093D01*
X107366924Y-155686560D01*
X107410579Y-155727936D01*
X107454252Y-155769219D01*
X107497945Y-155810411D01*
X107541656Y-155851510D01*
X107585387Y-155892518D01*
X107629136Y-155933433D01*
X107672903Y-155974256D01*
X107716689Y-156014988D01*
X107760494Y-156055627D01*
X107804317Y-156096175D01*
X107848158Y-156136630D01*
X107892017Y-156176994D01*
X107935895Y-156217266D01*
X107979790Y-156257446D01*
X108023703Y-156297534D01*
X108067635Y-156337530D01*
X108111584Y-156377434D01*
X108155550Y-156417246D01*
X108199534Y-156456966D01*
X108243536Y-156496595D01*
X108287555Y-156536132D01*
X108331591Y-156575576D01*
X108375645Y-156614930D01*
X108419715Y-156654191D01*
X108463803Y-156693360D01*
X108507908Y-156732438D01*
X108552029Y-156771423D01*
X108596167Y-156810317D01*
X108640322Y-156849119D01*
X108684493Y-156887829D01*
X108728681Y-156926448D01*
X108772885Y-156964974D01*
X108817105Y-157003409D01*
X108861342Y-157041752D01*
X108905594Y-157080004D01*
X108949863Y-157118163D01*
X108994147Y-157156231D01*
X109038447Y-157194207D01*
X109082763Y-157232091D01*
X109127094Y-157269883D01*
X109171441Y-157307583D01*
X109215803Y-157345192D01*
X109260181Y-157382709D01*
X109304573Y-157420134D01*
X109348981Y-157457467D01*
X109393403Y-157494709D01*
X109437841Y-157531858D01*
X109482293Y-157568916D01*
X109526760Y-157605882D01*
X109571241Y-157642757D01*
X109615736Y-157679539D01*
X109660246Y-157716230D01*
X109704770Y-157752828D01*
X109749308Y-157789335D01*
X109793860Y-157825750D01*
X109838426Y-157862074D01*
X109883006Y-157898305D01*
X109927599Y-157934445D01*
X109972206Y-157970492D01*
X110016826Y-158006448D01*
X110061460Y-158042312D01*
X110106106Y-158078084D01*
X110150766Y-158113764D01*
X110195438Y-158149352D01*
X110240124Y-158184848D01*
X110284821Y-158220253D01*
X110329532Y-158255565D01*
X110374255Y-158290785D01*
X110418990Y-158325914D01*
X110463738Y-158360950D01*
X110508497Y-158395895D01*
X110553269Y-158430747D01*
X110598052Y-158465508D01*
X110642847Y-158500176D01*
X110687653Y-158534752D01*
X110732471Y-158569236D01*
X110777300Y-158603629D01*
X110822141Y-158637929D01*
X110866992Y-158672137D01*
X110911854Y-158706252D01*
X110956727Y-158740276D01*
X111001611Y-158774207D01*
X111046505Y-158808047D01*
X111091410Y-158841794D01*
X111136324Y-158875449D01*
X111181249Y-158909011D01*
X111226184Y-158942481D01*
X111271128Y-158975860D01*
X111316082Y-159009145D01*
X111361046Y-159042339D01*
X111406019Y-159075440D01*
X111451001Y-159108448D01*
X111495993Y-159141365D01*
X111540993Y-159174188D01*
X111586002Y-159206920D01*
X111631019Y-159239559D01*
X111676045Y-159272105D01*
X111721080Y-159304559D01*
X111766122Y-159336920D01*
X111811173Y-159369189D01*
X111856231Y-159401365D01*
X111901297Y-159433448D01*
X111946371Y-159465439D01*
X111991451Y-159497337D01*
X112036540Y-159529143D01*
X112081635Y-159560855D01*
X112126737Y-159592475D01*
X112171845Y-159624002D01*
X112216961Y-159655436D01*
X112262082Y-159686777D01*
X112307210Y-159718026D01*
X112352344Y-159749181D01*
X112397483Y-159780243D01*
X112442629Y-159811213D01*
X112487780Y-159842089D01*
X112532936Y-159872872D01*
X112578097Y-159903562D01*
X112623263Y-159934159D01*
X112668434Y-159964663D01*
X112713610Y-159995073D01*
X112758790Y-160025390D01*
X112803974Y-160055614D01*
X112849162Y-160085745D01*
X112894354Y-160115782D01*
X112939550Y-160145725D01*
X112984749Y-160175575D01*
X113029952Y-160205332D01*
X113075157Y-160234995D01*
X113120365Y-160264564D01*
X113165576Y-160294040D01*
X113210789Y-160323422D01*
X113256005Y-160352710D01*
X113301223Y-160381904D01*
X113346442Y-160411005D01*
X113391663Y-160440012D01*
X113436885Y-160468924D01*
X113482109Y-160497743D01*
X113527333Y-160526467D01*
X113572559Y-160555098D01*
X113617784Y-160583634D01*
X113663010Y-160612076D01*
X113708237Y-160640424D01*
X113753462Y-160668678D01*
X113798688Y-160696837D01*
X113843913Y-160724901D01*
X113889137Y-160752872D01*
X113934360Y-160780747D01*
X113979581Y-160808528D01*
X114024801Y-160836215D01*
X114070019Y-160863806D01*
X114115235Y-160891303D01*
X114160449Y-160918705D01*
X114205660Y-160946012D01*
X114250868Y-160973224D01*
X114296073Y-161000341D01*
X114341275Y-161027363D01*
X114386473Y-161054290D01*
X114431667Y-161081122D01*
X114476857Y-161107858D01*
X114522043Y-161134499D01*
X114567223Y-161161045D01*
X114612399Y-161187495D01*
X114657570Y-161213849D01*
X114702735Y-161240108D01*
X114747894Y-161266271D01*
X114793047Y-161292338D01*
X114838193Y-161318309D01*
X114883333Y-161344185D01*
X114928466Y-161369964D01*
X114973592Y-161395648D01*
X115018709Y-161421235D01*
X115063819Y-161446726D01*
X115108921Y-161472120D01*
X115154014Y-161497418D01*
X115199098Y-161522620D01*
X115244173Y-161547725D01*
X115289238Y-161572734D01*
X115334294Y-161597645D01*
X115379339Y-161622460D01*
X115424374Y-161647178D01*
X115469397Y-161671799D01*
X115514410Y-161696323D01*
X115559411Y-161720749D01*
X115604400Y-161745079D01*
X115649377Y-161769311D01*
X115694341Y-161793445D01*
X115739291Y-161817482D01*
X115784229Y-161841422D01*
X115829153Y-161865263D01*
X115874062Y-161889007D01*
X115918957Y-161912653D01*
X115963837Y-161936200D01*
X116008702Y-161959650D01*
X116053551Y-161983001D01*
X116098383Y-162006254D01*
X116143200Y-162029409D01*
X116187999Y-162052465D01*
X116232781Y-162075422D01*
X116277544Y-162098281D01*
X116322290Y-162121040D01*
X116367017Y-162143701D01*
X116411725Y-162166262D01*
X116456413Y-162188724D01*
X116501081Y-162211087D01*
X116545729Y-162233351D01*
X116590356Y-162255515D01*
X116634961Y-162277579D01*
X116679544Y-162299543D01*
X116724105Y-162321407D01*
X116768643Y-162343172D01*
X116813158Y-162364836D01*
X116857648Y-162386400D01*
X116902115Y-162407863D01*
X116946556Y-162429226D01*
X116990972Y-162450488D01*
X117035362Y-162471649D01*
X117079725Y-162492709D01*
X117124061Y-162513668D01*
X117168370Y-162534526D01*
X117212650Y-162555282D01*
X117256902Y-162575937D01*
X117301124Y-162596490D01*
X117345316Y-162616941D01*
X117389478Y-162637291D01*
X117433609Y-162657538D01*
X117477708Y-162677683D01*
X117521774Y-162697725D01*
X117565807Y-162717665D01*
X117609807Y-162737502D01*
X117653773Y-162757236D01*
X117697703Y-162776867D01*
X117741598Y-162796395D01*
X117785456Y-162815819D01*
X117829277Y-162835140D01*
X117873061Y-162854357D01*
X117916806Y-162873470D01*
X117960512Y-162892480D01*
X118004178Y-162911384D01*
X118047804Y-162930185D01*
X118091388Y-162948880D01*
X118134929Y-162967471D01*
X118178428Y-162985957D01*
X118221883Y-163004338D01*
X118265294Y-163022613D01*
X118308658Y-163040783D01*
X118351977Y-163058847D01*
X118395249Y-163076805D01*
X118438472Y-163094657D01*
X118481647Y-163112403D01*
X118524772Y-163130041D01*
X118567846Y-163147573D01*
X118610868Y-163164999D01*
X118653838Y-163182316D01*
X118696754Y-163199527D01*
X118739616Y-163216629D01*
X118782422Y-163233624D01*
X118825172Y-163250511D01*
X118867864Y-163267289D01*
X118910497Y-163283959D01*
X118953071Y-163300519D01*
X118995584Y-163316971D01*
X119038034Y-163333313D01*
X119080422Y-163349546D01*
X119122746Y-163365669D01*
X119165004Y-163381682D01*
X119207195Y-163397584D01*
X119249318Y-163413376D01*
X119291373Y-163429057D01*
X119333356Y-163444626D01*
X119375268Y-163460084D01*
X119417107Y-163475430D01*
X119458872Y-163490665D01*
X119500560Y-163505786D01*
X119542172Y-163520796D01*
X119583704Y-163535692D01*
X119625157Y-163550475D01*
X119666527Y-163565144D01*
X119707814Y-163579699D01*
X119749017Y-163594140D01*
X119790132Y-163608467D01*
X119831160Y-163622678D01*
X119872097Y-163636775D01*
X119912943Y-163650755D01*
X119953696Y-163664620D01*
X119994353Y-163678368D01*
X120034913Y-163691999D01*
X120075373Y-163705513D01*
X120115733Y-163718910D01*
X120155990Y-163732189D01*
X120196141Y-163745349D01*
X120236186Y-163758391D01*
X120276120Y-163771313D01*
X120315943Y-163784116D01*
X120355652Y-163796798D01*
X120395244Y-163809360D01*
X120434718Y-163821801D01*
X120474070Y-163834121D01*
X120513298Y-163846318D01*
X120552400Y-163858393D01*
X120591372Y-163870345D01*
X120630212Y-163882174D01*
X120668917Y-163893878D01*
X120707484Y-163905458D01*
X120745910Y-163916912D01*
X120784192Y-163928241D01*
X120822326Y-163939444D01*
X120860308Y-163950519D01*
X120898137Y-163961467D01*
X120935807Y-163972286D01*
X120973315Y-163982977D01*
X121010657Y-163993538D01*
X121047829Y-164003968D01*
X121084827Y-164014267D01*
X121121646Y-164024435D01*
X121158283Y-164034470D01*
X121194732Y-164044371D01*
X121230988Y-164054138D01*
X121267046Y-164063770D01*
X121302901Y-164073266D01*
X121338548Y-164082625D01*
X121373980Y-164091845D01*
X121409192Y-164100927D01*
X121444177Y-164109869D01*
X121478928Y-164118670D01*
X121513439Y-164127328D01*
X121547702Y-164135843D01*
X121581709Y-164144213D01*
X121615452Y-164152437D01*
X121648924Y-164160513D01*
X121682113Y-164168441D01*
X121715012Y-164176218D01*
X121747610Y-164183843D01*
X121779895Y-164191315D01*
X121811857Y-164198631D01*
X121843482Y-164205789D01*
X121874758Y-164212789D01*
X121905671Y-164219626D01*
X121936205Y-164226300D01*
X121966343Y-164232807D01*
X121996068Y-164239145D01*
X122025360Y-164245311D01*
X122054197Y-164251302D01*
X122082557Y-164257114D01*
X122110413Y-164262744D01*
X122137735Y-164268187D01*
X122164493Y-164273439D01*
X122190649Y-164278494D01*
X122216161Y-164283347D01*
X122240983Y-164287990D01*
X122265057Y-164292416D01*
X122288318Y-164296616D01*
X122310687Y-164300578D01*
X122332065Y-164304289D01*
X122352329Y-164307732D01*
X122371315Y-164310884D01*
X122388797Y-164313715D01*
X122404436Y-164316178D01*
X122417664Y-164318198D01*
X122427281Y-164319614D01*
X122430000Y-164320000D01*
M02*
